<?xml version="1.0" encoding="UTF-8" standalone="no"?>
<svg width="24px" height="24px" viewBox="0 0 24 24" version="1.1" xmlns="http://www.w3.org/2000/svg" xmlns:xlink="http://www.w3.org/1999/xlink">
    <!-- Generator: sketchtool 40.3 (33839) - http://www.bohemiancoding.com/sketch -->
    <title>DC406DDA-E83F-470A-8FFD-1ADCD5B0D15D</title>
    <desc>Created with sketchtool.</desc>
    <defs></defs>
    <g id="Page-1" stroke="none" stroke-width="1" fill="none" fill-rule="evenodd">
        <g id="menu-icons" transform="translate(-8.000000, -104.000000)" fill="#0B2F4C">
            <g id="business" transform="translate(8.000000, 107.000000)">
                <path d="M7.08928571,0.10348 C6.79479681,0.131234733 6.57015314,0.379117406 6.57142857,0.674908571 L6.57142857,3.53205143 L0,3.53205143 L0,8.96062286 L10.2857143,8.96062286 L10.2857143,7.53205143 L13.7142857,7.53205143 L13.7142857,8.96062286 L24,8.96062286 L24,3.53205143 L17.4285714,3.53205143 L17.4285714,0.674908571 C17.4285399,0.359330356 17.1727211,0.103511553 16.8571429,0.10348 L7.14285714,0.10348 C7.12500982,0.10264257 7.10713304,0.10264257 7.08928571,0.10348 L7.08928571,0.10348 Z M7.71428571,1.24633714 L16.2857143,1.24633714 L16.2857143,3.53205143 L7.71428571,3.53205143 L7.71428571,1.24633714 L7.71428571,1.24633714 Z M0,10.10348 L0,18.9606229 L24,18.9606229 L24,10.10348 L13.7142857,10.10348 L13.7142857,11.5320514 L10.2857143,11.5320514 L10.2857143,10.10348 L0,10.10348 L0,10.10348 Z" id="Shape"></path>
            </g>
        </g>
    </g>
</svg>