<?xml version="1.0" encoding="UTF-8" standalone="no"?>
<svg width="24px" height="24px" viewBox="0 0 24 24" version="1.1" xmlns="http://www.w3.org/2000/svg" xmlns:xlink="http://www.w3.org/1999/xlink">
    <!-- Generator: Sketch 39.1 (31720) - http://www.bohemiancoding.com/sketch -->
    <title>rail-icon</title>
    <desc>Created with Sketch.</desc>
    <defs></defs>
    <g id="Page-1" stroke="none" stroke-width="1" fill="none" fill-rule="evenodd">
        <g id="rail-icon" fill="#FFFFFF">
            <g id="Group-12-Copy" transform="translate(2.000000, 0.000000)">
                <path d="M5.07735027,22 L5.65470054,21 L14.3452995,21 L14.9226497,22 L5.07735027,22 Z M4.5,23 L3.9330127,23.9820508 L3.0669873,23.4820508 L4.5,21 L1.99339768,21 C1.44475929,21 1,20.5561352 1,20 L1,19 L19,19 L19,20 C19,20.5522847 18.5550537,21 18.0066023,21 L15.5,21 L16.9330127,23.4820508 L16.0669873,23.9820508 L15.5,23 L4.5,23 Z" id="Combined-Shape"></path>
                <path d="M19,6.6 L19,3.81687539 C19,3.25182741 18.5763955,2.67274455 18.0538528,2.49856366 L10.9461472,0.129328469 C10.4340887,-0.0413577017 9.57639546,-0.0448524245 9.05385278,0.129328469 L1.94614722,2.49856366 C1.43408871,2.66924983 1,3.26297282 1,3.81687539 L1,6.6 L0,7 L0,17.0044225 C0,17.555163 0.444045377,18 0.99180311,18 L19.0081969,18 C19.5446944,18 20,17.5542648 20,17.0044225 L20,7 L19,6.6 Z M18,4.99895656 C18,4.44724809 17.5621186,3.87489104 17.0413573,3.72610208 L11,2 L11,5 L18,7 L18,4.99895656 Z M2,4.99895656 C2,4.44724809 2.43788135,3.87489104 2.95864271,3.72610208 L9,2 L9,5 L2,7 L2,4.99895656 Z M17.5,16 C18.3284271,16 19,15.3284271 19,14.5 C19,13.6715729 18.3284271,13 17.5,13 C16.6715729,13 16,13.6715729 16,14.5 C16,15.3284271 16.6715729,16 17.5,16 Z M2.5,16 C3.32842712,16 4,15.3284271 4,14.5 C4,13.6715729 3.32842712,13 2.5,13 C1.67157288,13 1,13.6715729 1,14.5 C1,15.3284271 1.67157288,16 2.5,16 Z M10,13 C11.6568542,13 13,11.6568542 13,10 C13,8.34314575 11.6568542,7 10,7 C8.34314575,7 7,8.34314575 7,10 C7,11.6568542 8.34314575,13 10,13 Z M10,12.736 C8.48894892,12.736 7.264,11.5110511 7.264,10 C7.264,8.48894892 8.48894892,7.264 10,7.264 C11.5110511,7.264 12.736,8.48894892 12.736,10 C12.736,11.5110511 11.5110511,12.736 10,12.736 Z M8.02,8.53 L11.98,8.53 L11.98,9.445 L10.51,9.445 L10.51,11.893 L9.496,11.893 L9.496,9.445 L8.026,9.445 L8.02,8.53 Z" id="Combined-Shape"></path>
            </g>
        </g>
    </g>
</svg>
