<?xml version="1.0" encoding="UTF-8" standalone="no"?>
<svg width="90px" height="90px" viewBox="0 0 90 90" version="1.1" xmlns="http://www.w3.org/2000/svg" xmlns:xlink="http://www.w3.org/1999/xlink">
    <!-- Generator: Sketch 40.3 (33839) - http://www.bohemiancoding.com/sketch -->
    <title>public-meetings</title>
    <desc>Created with Sketch.</desc>
    <defs></defs>
    <g id="Page-1" stroke="none" stroke-width="1" fill="none" fill-rule="evenodd">
        <g id="public-meetings">
            <g transform="translate(3.000000, 3.000000)">
                <rect id="cal-outline" fill="#1C77C3" x="0" y="0" width="84" height="84" rx="3"></rect>
                <rect id="cal-inside" fill="#FFFFFF" x="2" y="24" width="80" height="58" rx="3"></rect>
                <rect id="cal-box" fill="#1C77C3" x="9" y="31" width="12" height="12"></rect>
                <rect id="cal-box" fill="#1C77C3" x="9" y="47" width="12" height="12"></rect>
                <rect id="cal-box" fill="#1C77C3" x="9" y="63" width="12" height="12"></rect>
                <rect id="cal-box" fill="#1C77C3" x="45" y="31" width="12" height="12"></rect>
                <rect id="cal-box" fill="#1C77C3" x="45" y="47" width="12" height="12"></rect>
                <rect id="cal-box" fill="#1C77C3" x="45" y="63" width="12" height="12"></rect>
                <rect id="cal-box" fill="#1C77C3" x="27" y="31" width="12" height="12"></rect>
                <rect id="cal-box" fill="#1C77C3" x="27" y="47" width="12" height="12"></rect>
                <rect id="cal-box" fill="#1C77C3" x="27" y="63" width="12" height="12"></rect>
                <rect id="cal-box" fill="#1C77C3" x="63" y="31" width="12" height="12"></rect>
                <rect id="cal-box" fill="#1C77C3" x="63" y="47" width="12" height="12"></rect>
                <rect id="cal-box" fill="#1C77C3" x="63" y="63" width="12" height="12"></rect>
                <circle id="cal-circle" fill="#FFFFFF" cx="15" cy="12" r="4"></circle>
                <circle id="cal-circle" fill="#FFFFFF" cx="69" cy="12" r="4"></circle>
            </g>
        </g>
    </g>
</svg>
