<?xml version="1.0" encoding="UTF-8" standalone="no"?>
<svg width="24px" height="24px" viewBox="0 0 24 24" version="1.1" xmlns="http://www.w3.org/2000/svg" xmlns:xlink="http://www.w3.org/1999/xlink">
    <!-- Generator: Sketch 40 (33762) - http://www.bohemiancoding.com/sketch -->
    <title>ferry-icon</title>
    <desc>Created with Sketch.</desc>
    <defs></defs>
    <g id="Page-1" stroke="none" stroke-width="1" fill="none" fill-rule="evenodd">
        <g id="ferry-icon" fill="#FFFFFF">
            <g id="Group-17">
                <path d="M17.2341069,19.16658 C18.0770942,16.7584969 20.5379837,13.3080109 22.9957349,11.6695101 L24,11 L20,9.33333333 L20,5 L16,3 L16,2 L12,0 L8,2 L8,3 L4,5 L4,9.33333333 L0,11 L1.0042651,11.6695101 C3.49758697,13.3317246 5.92597021,16.5321601 6.78066986,19.1705917 C6.81066356,19.1788341 6.839723,19.1876225 6.8677243,19.1969563 L8.1322757,19.6184734 C8.6115066,19.778217 9.39219761,19.7769823 9.8677243,19.6184734 L11.1322757,19.1969563 C11.6115066,19.0372126 12.3921976,19.0384474 12.8677243,19.1969563 L14.1322757,19.6184734 C14.6115066,19.778217 15.3921976,19.7769823 15.8677243,19.6184734 L17.1322757,19.1969563 C17.1648872,19.1860858 17.1988946,19.1759607 17.2341069,19.16658 Z M19,8.91666667 L19,6 L13,3 L13,6 L18,8.5 L19,8.91666667 Z M5,8.91666667 L5,6 L11,3 L11,6 L6,8.5 L5,8.91666667 Z M12,13 C13.1045695,13 14,12.1045695 14,11 C14,9.8954305 13.1045695,9 12,9 C10.8954305,9 10,9.8954305 10,11 C10,12.1045695 10.8954305,13 12,13 Z M12,12.824 C10.9926326,12.824 10.176,12.0073674 10.176,11 C10.176,9.99263262 10.9926326,9.176 12,9.176 C13.0073674,9.176 13.824,9.99263262 13.824,11 C13.824,12.0073674 13.0073674,12.824 12,12.824 Z M10.68,10.02 L13.32,10.02 L13.32,10.63 L12.34,10.63 L12.34,12.262 L11.664,12.262 L11.664,10.63 L10.684,10.63 L10.68,10.02 Z" id="Combined-Shape"></path>
                <path d="M5.68434189e-14,20.8301037 L2.1322757,20.1193451 C2.6115066,19.9596015 3.39219761,19.9608363 3.8677243,20.1193451 L5.1322757,20.5408623 C5.6115066,20.7006059 6.39219761,20.6993712 6.8677243,20.5408623 L8.1322757,20.1193451 C8.6115066,19.9596015 9.39219761,19.9608363 9.8677243,20.1193451 L11.1322757,20.5408623 C11.6115066,20.7006059 12.3921976,20.6993712 12.8677243,20.5408623 L14.1322757,20.1193451 C14.6115066,19.9596015 15.3921976,19.9608363 15.8677243,20.1193451 L17.1322757,20.5408623 C17.6115066,20.7006059 18.3921976,20.6993712 18.8677243,20.5408623 L20.1322757,20.1193451 C20.6115066,19.9596015 21.3921976,19.9608363 21.8677243,20.1193451 L24,20.8301037 L24,21.8301037 L21.8677243,21.1193451 C21.3884934,20.9596015 20.6078024,20.9608363 20.1322757,21.1193451 L18.8677243,21.5408623 C18.3884934,21.7006059 17.6078024,21.6993712 17.1322757,21.5408623 L15.8677243,21.1193451 C15.3884934,20.9596015 14.6078024,20.9608363 14.1322757,21.1193451 L12.8677243,21.5408623 C12.3884934,21.7006059 11.6078024,21.6993712 11.1322757,21.5408623 L9.8677243,21.1193451 C9.3884934,20.9596015 8.60780239,20.9608363 8.1322757,21.1193451 L6.8677243,21.5408623 C6.3884934,21.7006059 5.60780239,21.6993712 5.1322757,21.5408623 L3.8677243,21.1193451 C3.3884934,20.9596015 2.60780239,20.9608363 2.1322757,21.1193451 L5.68434189e-14,21.8301037 L5.68434189e-14,20.8301037 Z" id="Rectangle-4-Copy-16" transform="translate(12.000000, 20.868909) rotate(180.000000) translate(-12.000000, -20.868909) "></path>
                <path d="M5.68434189e-14,22.8301037 L2.1322757,22.1193451 C2.6115066,21.9596015 3.39219761,21.9608363 3.8677243,22.1193451 L5.1322757,22.5408623 C5.6115066,22.7006059 6.39219761,22.6993712 6.8677243,22.5408623 L8.1322757,22.1193451 C8.6115066,21.9596015 9.39219761,21.9608363 9.8677243,22.1193451 L11.1322757,22.5408623 C11.6115066,22.7006059 12.3921976,22.6993712 12.8677243,22.5408623 L14.1322757,22.1193451 C14.6115066,21.9596015 15.3921976,21.9608363 15.8677243,22.1193451 L17.1322757,22.5408623 C17.6115066,22.7006059 18.3921976,22.6993712 18.8677243,22.5408623 L20.1322757,22.1193451 C20.6115066,21.9596015 21.3921976,21.9608363 21.8677243,22.1193451 L24,22.8301037 L24,23.8301037 L21.8677243,23.1193451 C21.3884934,22.9596015 20.6078024,22.9608363 20.1322757,23.1193451 L18.8677243,23.5408623 C18.3884934,23.7006059 17.6078024,23.6993712 17.1322757,23.5408623 L15.8677243,23.1193451 C15.3884934,22.9596015 14.6078024,22.9608363 14.1322757,23.1193451 L12.8677243,23.5408623 C12.3884934,23.7006059 11.6078024,23.6993712 11.1322757,23.5408623 L9.8677243,23.1193451 C9.3884934,22.9596015 8.60780239,22.9608363 8.1322757,23.1193451 L6.8677243,23.5408623 C6.3884934,23.7006059 5.60780239,23.6993712 5.1322757,23.5408623 L3.8677243,23.1193451 C3.3884934,22.9596015 2.60780239,22.9608363 2.1322757,23.1193451 L5.68434189e-14,23.8301037 L5.68434189e-14,22.8301037 Z" id="Rectangle-4-Copy-19" transform="translate(12.000000, 22.868909) rotate(180.000000) translate(-12.000000, -22.868909) "></path>
            </g>
        </g>
    </g>
</svg>
