<?xml version="1.0" encoding="UTF-8" standalone="no"?>
<svg width="90px" height="90px" viewBox="0 0 90 90" version="1.1" xmlns="http://www.w3.org/2000/svg" xmlns:xlink="http://www.w3.org/1999/xlink">
    <!-- Generator: Sketch 40.3 (33839) - http://www.bohemiancoding.com/sketch -->
    <title>fmcb</title>
    <desc>Created with Sketch.</desc>
    <defs></defs>
    <g id="Page-1" stroke="none" stroke-width="1" fill="none" fill-rule="evenodd">
        <g id="fmcb">
            <g id="Group-2-Copy" transform="translate(3.000000, 5.000000)">
                <path d="M40,55.2390665 L40,2.0064843 C40,0.89833362 40.8877296,0 42,0 C43.1045695,0 44,0.902950857 44,2.0064843 L44,55.2381172 L65.4262545,76.6653515 C66.1886673,77.4277991 66.193893,78.658745 65.4260524,79.4266206 C64.6635281,80.1891799 63.4310548,80.1930031 62.6649095,79.4268227 L44,60.7610597 L44,75.9935157 C44,77.1016664 43.1122704,78 42,78 C40.8954305,78 40,77.0970491 40,75.9935157 L40,60.7617565 L21.3346485,79.4262545 C20.5722009,80.1886673 19.341255,80.193893 18.5733794,79.4260524 C17.8108201,78.6635281 17.8069969,77.4310548 18.5731773,76.6649095 L40,55.2390665 Z" id="fmcb-tripod" fill="#1C77C3"></path>
                <rect id="fmcb-screen" fill="#1C77C3" x="3" y="8" width="78" height="48"></rect>
                <g id="fmcb-bottom" transform="translate(0.000000, 50.000000)">
                    <path d="M3.99749826,0 L80.0025017,0 C82.212291,0 84,1.78518734 84,4 C84,6.207792 82.2074793,8 80.0025017,8 L3.99749826,8 C1.78770899,8 0,6.21481266 0,4 C0,1.792208 1.79252074,0 3.99749826,0 Z" id="fmcb-outline" fill="#1C77C3"></path>
                    <rect id="fmcb-in" fill="#FFFFFF" x="2" y="2" width="80" height="4" rx="2"></rect>
                </g>
                <g id="fmcb-top" transform="translate(0.000000, 6.000000)">
                    <path d="M3.99749826,0 L80.0025017,0 C82.212291,0 84,1.78518734 84,4 C84,6.207792 82.2074793,8 80.0025017,8 L3.99749826,8 C1.78770899,8 0,6.21481266 0,4 C0,1.792208 1.79252074,0 3.99749826,0 Z" id="fmcb-outline" fill="#1C77C3"></path>
                    <rect id="fmcb-in" fill="#FFFFFF" x="2" y="2" width="80" height="4" rx="2"></rect>
                </g>
                <g id="fmcb-t-logo" transform="translate(30.000000, 20.000000)" fill="#FFFFFF">
                    <path d="M12,24 C18.627417,24 24,18.627417 24,12 C24,5.372583 18.627417,0 12,0 C5.372583,0 0,5.372583 0,12 C0,18.627417 5.372583,24 12,24 L12,24 Z M12,22.944 C5.9557957,22.944 1.056,18.0442043 1.056,12 C1.056,5.9557957 5.9557957,1.056 12,1.056 C18.0442043,1.056 22.944,5.9557957 22.944,12 C22.944,18.0442043 18.0442043,22.944 12,22.944 L12,22.944 Z" id="t-outline"></path>
                    <polygon id="t-letter" points="4.08 6.12 19.92 6.12 19.92 9.78 14.04 9.78 14.04 19.572 9.984 19.572 9.984 9.78 4.104 9.78"></polygon>
                </g>
            </g>
        </g>
    </g>
</svg>
