<svg viewBox="0 0 48 48" xmlns="http://www.w3.org/2000/svg"><path d="m42.94908 21.61-1.84056-14.63c-.46772-2.64-2.115-3.67-4.56567-4.75a39.04369 39.04369 0 0 0 -12.52764-2.32 39.21741 39.21741 0 0 0 -12.54795 2.32c-2.42011 1.06-4.06741 2.11-4.56566 4.75l-1.85068 14.63v20.24h3.24885v3.525a2.65516 2.65516 0 0 0 2.66923 2.625 2.65522 2.65522 0 0 0 2.66925-2.625v-3.525h20.82007v3.525a2.66961 2.66961 0 0 0 5.33848 0v-3.525h3.15228zm-26.73308-18h15.65953a1.18036 1.18036 0 1 1 0 2.36h-15.65953a1.18015 1.18015 0 1 1 0-2.36zm-7.7993 17.57 1.5253-11.55a1.52367 1.52367 0 0 1 1.52528-1.25h25.28913a1.513 1.513 0 0 1 1.51511 1.25l1.52528 11.55a1.31759 1.31759 0 0 1 0 .4v.08a1.49613 1.49613 0 0 1 -1.52528 1.49h-28.40072a1.50954 1.50954 0 0 1 -1.4541-1.57 1.31759 1.31759 0 0 1 0-.4zm2.5523 14.41a2.79533 2.79533 0 1 1 2.837-2.8 2.817 2.817 0 0 1 -2.837 2.8zm26.15346 0a2.79549 2.79549 0 1 1 2.84718-2.8 2.817 2.817 0 0 1 -2.84717 2.8z" /></svg>
