<svg xmlns="http://www.w3.org/2000/svg" role="img" viewBox="0 0 48 48">
    <title>
        bus
    </title>
    <path fill="#ffc72c" d="m24.12432 47.99966c13.44632-.345 24.22342-11.27549 23.87132-24.128-.36299-13.24986-10.87335-23.94219-24.12799-23.87132a24 24 0 1 0 .25667 47.99932"/>
    <path fill="#1c1e23" d="m37.17509 22.34207-1.27973-10.34352c-.32519-1.86647-1.47054-2.59471-3.17445-3.35829a26.7476 26.7476 0 0 0 -8.71034-1.64026 26.86629 26.86629 0 0 0 -8.72444 1.64026c-1.68268.74943-2.828 1.49182-3.17446 3.35829l-1.28676 10.34352v14.30982h2.2589v2.49222a1.86133 1.86133 0 0 0 1.85585 1.85589 1.86137 1.86137 0 0 0 1.85589-1.85589v-2.49222h14.476v2.49222a1.8559 1.8559 0 0 0 3.71179 0v-2.49222h2.19175zm-18.58725-12.72613h10.88793a.83429.83429 0 1 1 0 1.66852h-10.88793a.83426.83426 0 1 1 0-1.66852zm-5.42274 12.42212 1.06052-8.16593a1.064 1.064 0 0 1 1.06051-.88376h17.58326a1.05671 1.05671 0 0 1 1.05344.88376l1.06051 8.16593a.94744.94744 0 0 1 0 .28282v.05653a1.04868 1.04868 0 0 1 -1.06051 1.05348h-19.74671a1.06024 1.06024 0 0 1 -1.011-1.11.94744.94744 0 0 1 -.00002-.28283zm1.7746 10.188a1.9761 1.9761 0 1 1 1.97253-1.97966 1.97488 1.97488 0 0 1 -1.97253 1.97966zm18.18421 0a1.9761 1.9761 0 1 1 1.97961-1.97966 1.97487 1.97487 0 0 1 -1.97961 1.97966z"/>
</svg>
