<svg xmlns="http://www.w3.org/2000/svg" role="img" viewBox="0 0 48 48">
    <title>
        blue line
    </title>
    <path fill="#003da5" d="m24 0a24 24 0 1 0 24 24 24 24 0 0 0 -24-24"/>
    <g fill="#fff">
        <path d="m16.21338 13.647a12.87772 12.87772 0 0 1 2.69726.26123 5.83 5.83 0 0 1 2.0879.85547 3.98326 3.98326 0 0 1 1.34863 1.58057 5.56185 5.56185 0 0 1 .47851 2.43555 4.5366 4.5366 0 0 1 -.71093 2.61035 5.16141 5.16141 0 0 1 -2.10254 1.71093 4.97692 4.97692 0 0 1 2.85644 1.92823 5.74358 5.74358 0 0 1 .94239 3.3208 5.70688 5.70688 0 0 1 -.6084 2.71142 5.28726 5.28726 0 0 1 -1.63864 1.87058 7.25022 7.25022 0 0 1 -2.3496 1.07275 10.589 10.589 0 0 1 -2.71094.34815h-10.03422v-20.70603zm-.58008 8.38086a3.27472 3.27472 0 0 0 2.001-.57959 2.19 2.19 0 0 0 .7832-1.88525 2.41024 2.41024 0 0 0 -.26074-1.189 1.94175 1.94175 0 0 0 -.69629-.72509 2.94457 2.94457 0 0 0 -1.001-.36231 6.66287 6.66287 0 0 0 -1.17383-.10156h-4.26364v4.84277zm.26074 8.78711a6.08961 6.08961 0 0 0 1.27637-.13037 3.12816 3.12816 0 0 0 1.07324-.43506 2.20243 2.20243 0 0 0 .73926-.82666 2.84574 2.84574 0 0 0 .27539-1.334 2.67712 2.67712 0 0 0 -.89941-2.27637 3.83584 3.83584 0 0 0 -2.37793-.68164h-4.95896v5.68408z"/>
        <path d="m31.438 13.647v16.8779h10.09276v3.8281h-14.64551v-20.706z"/>
    </g>
</svg>
