<svg xmlns="http://www.w3.org/2000/svg" xmlns:xlink="http://www.w3.org/1999/xlink" version="1.1" x="0px" y="0px" viewBox="0 0 100 100" enable-background="new 0 0 100 100" xml:space="preserve"><g><path fill-rule="evenodd" clip-rule="evenodd" d="M67.324,80.431L67.5,80.46C62.644,92.275,51.086,100,38.238,100   c-17.441,0-31.6-14.065-31.6-31.414c0-11.68,6.517-22.395,16.915-27.82l0.911,9.035c-6.021,4.397-9.565,11.372-9.565,18.785   c0,12.877,10.539,23.339,23.523,23.339c12.98,0,23.52-10.462,23.52-23.339c0-0.293-0.005-0.604-0.015-0.887L67.324,80.431z"></path><path fill-rule="evenodd" clip-rule="evenodd" d="M25.312,9.332l-0.175,0.185c0-0.054,0-0.126,0-0.185   C25.137,4.179,29.398,0,34.648,0c5.255,0,9.517,4.179,9.517,9.332c0,5.157-4.262,9.341-9.517,9.341c-0.122,0-0.243-0.01-0.365-0.01   l0.186,0.01l1.081,18.313H60.32v7.715H35.905l0.36,6.643h31.955L81.507,80.07l8.981-3.945l2.873,6.293L76.48,89.772L62.839,59.429   H28.546L25.137,9.517L25.312,9.332z"></path></g></svg>