<svg xmlns="http://www.w3.org/2000/svg" role="img" viewBox="0 0 48 48">
    <title>
        bus
    </title>
    <path fill="#fff" d="m23.99978 46.50022a22.50022 22.50022 0 1 1 22.50022-22.50022 22.49992 22.49992 0 0 1 -22.50022 22.50022"/>
    <g fill="#1c1e23">
        <path d="m36.215 22.48836-1.18643-9.43086c-.3015-1.70178-1.36339-2.36576-2.94314-3.062a25.16857 25.16857 0 0 0 -8.07563-1.4955 25.28048 25.28048 0 0 0 -8.08871 1.49553c-1.56006.6833-2.62195 1.36019-2.94313 3.062l-1.193 9.43086v13.04715h2.09429v2.27232a1.71158 1.71158 0 0 0 1.72062 1.69214 1.71162 1.71162 0 0 0 1.72066-1.69214v-2.27232h13.42115v2.27232a1.7209 1.7209 0 0 0 3.44132 0v-2.27232h2.032zm-17.23279-11.60324h10.09455a.76089.76089 0 1 1 0 1.5213h-10.09455a.76076.76076 0 1 1 0-1.5213zm-5.02758 11.326.98323-7.4454a.98219.98219 0 0 1 .98323-.80578h16.302a.97529.97529 0 0 1 .97667.80578l.98323 7.4454a.84965.84965 0 0 1 0 .25787v.05154a.96444.96444 0 0 1 -.98323.96052h-18.30776a.97308.97308 0 0 1 -.93734-1.01206.849.849 0 0 1 -.00003-.25782zm1.64528 9.28906a1.80194 1.80194 0 1 1 1.8288-1.805 1.81589 1.81589 0 0 1 -1.8288 1.80505zm16.85915 0a1.802 1.802 0 1 1 1.83536-1.805 1.81588 1.81588 0 0 1 -1.83536 1.80505z"/>
        <path d="m24 2.11a21.89 21.89 0 1 1 -21.89 21.89 21.89 21.89 0 0 1 21.89-21.89zm-24 21.89a24 24 0 1 0 24-24 24 24 0 0 0 -24 24z"/>
    </g>
</svg>
