<svg enable-background="new 0 0 48 48" viewBox="0 0 48 48" xmlns="http://www.w3.org/2000/svg"><path d="m16.3 34.3c1.5 0 2.7-1.2 2.7-2.7s-1.2-2.7-2.7-2.7-2.7 1.2-2.7 2.7c0 1.5 1.2 2.7 2.7 2.7zm10.7-25.3c.6 0 1-.4 1-1v-1.7c0-.5-.5-1-1-1h-5.9c-.5 0-1 .4-1 1v1.7c0 .6.5 1 1 1zm4.3 11.1c1.6.1 3-1.2 3-2.8 0-.1 0-.2 0-.3v-3.9c.1-1.6-1.1-3-2.7-3.1-.1 0-.2 0-.3 0h-14.6c-1.6-.1-3 1.1-3 2.7v.3 3.9c-.1 1.6 1.2 3 2.8 3h.3 14.5zm.3 14.2c1.5 0 2.6-1.2 2.6-2.7s-1.2-2.6-2.6-2.6-2.6 1.2-2.6 2.7c-.1 1.4 1.1 2.6 2.6 2.6zm-5.3-30.9c-.9 0-1.7-.8-1.7-1.7s.8-1.7 1.7-1.7c.9 0 1.7.8 1.7 1.7s-.8 1.7-1.7 1.7zm-4.6 0c-.9 0-1.7-.8-1.7-1.7s.8-1.7 1.7-1.7c.9 0 1.7.8 1.7 1.7s-.7 1.7-1.7 1.7zm2.3 37.2h-6.9l-5 7.4h-4.1l7-10.5c-2.7-.6-4.6-3-4.7-5.8v-21.8c.1-3.3 2.8-5.9 6.1-5.9h15c3.3 0 6 2.6 6.1 5.9v21.8c0 2.8-2 5.2-4.7 5.8l7.2 10.5h-4l-5-7.4z" /></svg>
