<?xml version="1.0" encoding="utf-8"?>
<!-- Generator: Adobe Illustrator 22.0.1, SVG Export Plug-In . SVG Version: 6.00 Build 0)  -->
<svg version="1.1" id="Layer_1" xmlns="http://www.w3.org/2000/svg" xmlns:xlink="http://www.w3.org/1999/xlink" x="0px" y="0px"
	 viewBox="0 0 48 48" style="enable-background:new 0 0 48 48;" xml:space="preserve">
<g>
	<path fill="#FFC222" d="M25.4,2.7c-0.9-1.4-2.1-1.4-2.9,0L0.9,45.5C0.3,46.9,0.6,48,2.1,48H46c1.2,0,1.8-1.1,1.2-2.5L25.4,2.7z"/>
</g>
<g>
	<path d="M22.1,36.3L21,27.5l0,0l-0.5-10.4c0-0.2,0.2-0.4,0.4-0.4h6.1c0.2,0,0.4,0.2,0.4,0.4L27,27.5l0,0l-1.1,8.8
		c0,0.2-0.2,0.4-0.4,0.4h-2.8C22.3,36.7,22.1,36.6,22.1,36.3z"/>
	<path d="M26.4,39.9v4.2c0,0.2-0.2,0.4-0.4,0.4h-4.1c-0.2,0-0.4-0.2-0.4-0.4v-4.2c0-0.2,0.2-0.4,0.4-0.4h4
		C26.2,39.3,26.4,39.5,26.4,39.9z"/>
</g>
</svg>
