<svg xmlns="http://www.w3.org/2000/svg" role="img" viewBox="0 0 48 48">
    <title>
        stop marker
    </title>
    <circle cx="24" cy="20.85" r="11" fill="#a1c6ed"/>
    <g fill="#165c96">
        <path d="m35.65 20.85a11.65 11.65 0 1 0 -12.65 11.6v14.55a1 1 0 0 0 1 1 1 1 0 0 0 1-1v-14.55a11.66 11.66 0 0 0 10.65-11.6zm-11.65 10.34a10.34 10.34 0 1 1 10.34-10.34 10.34 10.34 0 0 1 -10.34 10.34z"/>
        <path d="m27.55 24.16a1.21 1.21 0 1 1 -.06-2.41 1.19 1.19 0 0 1 1 2.06 1.27 1.27 0 0 1 -.94.35zm-7.16 0a1.21 1.21 0 1 1 1.32-1.25 1.28 1.28 0 0 1 -1.32 1.25zm-.56-4.59.39-2.92a.41.41 0 0 1 .43-.34h6.75a.41.41 0 0 1 .43.34l.45 2.92v.13a.41.41 0 0 1 -.42.41h-7.62a.43.43 0 0 1 -.41-.43.2.2 0 0 1 0-.11zm1.4-5.21h5.6a.5.5 0 0 1 .49.48.49.49 0 0 1 -.49.48h-5.6a.48.48 0 0 1 -.49-.48.49.49 0 0 1 .49-.48zm8.77 5.3-.58-4.27c-.16-.78-.67-1.08-1.44-1.4a13.19 13.19 0 0 0 -3.98-.67 13.19 13.19 0 0 0 -3.94.67c-.76.32-1.28.62-1.45 1.4l-.61 4.27v5.91h1.07v1a.74.74 0 0 0 .39.63l.15.07h.13a.64.64 0 0 0 .2 0h.31a.85.85 0 0 0 .88-.77v-1h5.75v1a.74.74 0 0 0 .39.63l.15.07h.13a.64.64 0 0 0 .2 0h.3a.85.85 0 0 0 .89-.77v-1h1z"/>
    </g>
</svg>
