<svg xmlns="http://www.w3.org/2000/svg" role="img" viewBox="0 0 16 16">
    <title>
        red line
    </title>
    <path fill="#da291c" d="m8 0a8 8 0 1 0 8 8 8 8 0 0 0 -8-8"/>
    <g fill="#fff">
        <path d="m6.01545 4.25a2.39689 2.39689 0 0 1 .90832.16341 2.09735 2.09735 0 0 1 .694.44567 1.9348 1.9348 0 0 1 .44036.65684 2.09816 2.09816 0 0 1 .1528.80327 2.26208 2.26208 0 0 1 -.278 1.14494 1.74718 1.74718 0 0 1 -.90938.73536v.02122a1.26481 1.26481 0 0 1 .504.25679 1.42114 1.42114 0 0 1 .32576.4096 1.91173 1.91173 0 0 1 .18358.51995 4.56343 4.56343 0 0 1 .07958.5677c.00637.11884.0138.25891.02122.4202.00637.16129.01911.32576.03608.49342a3.41227 3.41227 0 0 0 .08383.4775 1.113 1.113 0 0 0 .174.38413h-1.649a2.91366 2.91366 0 0 1 -.16871-.851c-.02123-.329-.052-.6441-.09444-.94546a1.4991 1.4991 0 0 0 -.35645-.86165 1.2331 1.2331 0 0 0 -.89346-.2727h-1.64904v2.93081h-1.649v-7.5zm-.58786 3.3924a1.24739 1.24739 0 0 0 .85-.25148 1.04463 1.04463 0 0 0 .28438-.81919.99843.99843 0 0 0 -.28442-.79373 1.26393 1.26393 0 0 0 -.85-.24618h-1.80705v2.11058z"/>
        <path d="m11.20433 4.25v6.11312h3.65556v1.38688h-5.30454v-7.5z"/>
    </g>
</svg>
