<svg xmlns="http://www.w3.org/2000/svg" role="img" viewBox="0 0 48 48">
    <title>
        green line
    </title>
    <path fill="#00843d" d="m24 0a24 24 0 1 0 24 24 24 24 0 0 0 -24-24"/>
    <g fill="#fff">
        <path d="m18.38818 34.208a7.62785 7.62785 0 0 1 -2.98632.62353 10.616 10.616 0 0 1 -4.27735-.82617 9.16311 9.16311 0 0 1 -3.20508-2.27685 10.07166 10.07166 0 0 1 -2.001-3.40723 12.50994 12.50994 0 0 1 -.69629-4.21973 12.93987 12.93987 0 0 1 .69629-4.30615 10.34622 10.34622 0 0 1 2.001-3.46582 9.1562 9.1562 0 0 1 3.20508-2.31982 10.45538 10.45538 0 0 1 4.27735-.84131 10.0673 10.0673 0 0 1 3.08789.47851 8.76017 8.76017 0 0 1 2.69725 1.40675 7.60482 7.60482 0 0 1 2.94336 5.42285h-4.3496a4.36132 4.36132 0 0 0 -1.5664-2.60986 4.55354 4.55354 0 0 0 -2.8125-.87012 5.31692 5.31692 0 0 0 -2.61036.59473 4.9307 4.9307 0 0 0 -1.74023 1.59469 6.9789 6.9789 0 0 0 -.9707 2.27685 11.32323 11.32323 0 0 0 -.30469 2.63867 10.53182 10.53182 0 0 0 .30469 2.5376 6.844 6.844 0 0 0 .9707 2.21875 4.978 4.978 0 0 0 1.74023 1.58013 5.31165 5.31165 0 0 0 2.61036.59472 4.94083 4.94083 0 0 0 3.49414-1.1455 4.98253 4.98253 0 0 0 1.43554-3.32032h-4.582v-3.39307h8.7002v11.19385h-2.90042l-.46387-2.34913a6.81812 6.81812 0 0 1 -2.69727 2.18945z"/>
        <path d="m32.68506 13.66162v16.87793h10.09277v3.82813h-14.64551v-20.70606z"/>
    </g>
</svg>
