<svg xmlns="http://www.w3.org/2000/svg" role="img" viewBox="0 0 16 16">
    <title>
        bus
    </title>
    <path fill="#ffc72c" d="m8.03494 0a8.04088 8.04088 0 0 0 -8 8 8 8 0 1 0 8-8"/>
    <path fill="#1c1e23" d="m12.55163 6.95515-.43927-3.29782c-.11487-.59469-.50684-.83119-1.088-1.07447a9.94811 9.94811 0 0 0 -2.99371-.52036 9.94139 9.94139 0 0 0 -2.98694.52036c-.57444.24328-.97312.47978-1.09476 1.07447l-.43251 3.29782v4.55476h.80756v.77716a.56688.56688 0 0 0 .29735.48655c.04054.02029.08109.04054.11487.05407a.689.689 0 0 0 .09462.027.57561.57561 0 0 0 .15546.02029h.2297a.63557.63557 0 0 0 .669-.58793v-.77716h4.363v.77716a.56686.56686 0 0 0 .29735.48655c.04054.02029.08109.04054.11487.05407a.689.689 0 0 0 .09462.027.57561.57561 0 0 0 .15546.02029h.22974a.63556.63556 0 0 0 .669-.58793v-.77716h.74252zm-6.64292-3.93953h4.25065c.20273 0 .37167.23083.37167.50782s-.16894.50781-.37167.50781h-4.25065c-.20272 0-.37167-.23083-.37167-.50781s.16896-.50782.37167-.50782zm-1.03959 4.55438.3006-2.33388a.31412.31412 0 0 1 .32228-.26712h5.12466a.31832.31832 0 0 1 .32226.26712l.34393 2.33388v.10421a.32557.32557 0 0 1 -.3223.32579h-5.7811a.3317.3317 0 0 1 -.31033-.3388.23335.23335 0 0 1 0-.0912zm.6465 2.75347a.82854.82854 0 1 1 -.03709-1.65432.83107.83107 0 1 1 .03709 1.65432zm5.01541 0a.82854.82854 0 1 1 -.03709-1.65432.83107.83107 0 1 1 .03709 1.65432z"/>
</svg>
