<svg xmlns="http://www.w3.org/2000/svg" role="img" viewBox="0 0 48 48">
    <title>
        train
    </title>
    <path fill="#fff" d="m23.99978 46.50022a22.50022 22.50022 0 1 1 22.50022-22.50022 22.49992 22.49992 0 0 1 -22.50022 22.50022"/>
    <path d="m33.14253 15.22855a1.31765 1.31765 0 0 1 -.59055-1.1228v-3.49223a2.21169 2.21169 0 0 0 -1.73519-2.107 55.25782 55.25782 0 0 0 -6.35017-1.45814 2.46193 2.46193 0 0 0 -1.00613.0073c-1.89561.41557-3.80577.78741-5.68674 1.31232-1.1082.30619-2.27469.91863-2.27469 2.24555v3.47035a1.30477 1.30477 0 0 1 -.60515 1.12275 2.29373 2.29373 0 0 0 -1.0936 1.96121v14.74178a2.291 2.291 0 0 0 .8603 1.77168l3.73283 2.734-3.01106 5.58468h2.457l.42288-.77281h11.5266l.43014.77281h2.43508l-2.98188-5.58466h.00725l3.65266-2.70487a2.31143 2.31143 0 0 0 .86759-1.80083v-14.74178a2.31147 2.31147 0 0 0 -1.05717-1.93931zm-7.349-5.45348a.72821.72821 0 0 1 .88215-.71448l3.60161.75822a.719.719 0 0 1 .576.70722v2.14347a.72653.72653 0 0 1 -.86759.71448l-3.60162-.69998a.72667.72667 0 0 1 -.59055-.71447zm-1.79353 8.22393a1.96649 1.96649 0 1 1 -1.39251.576 1.96789 1.96789 0 0 1 1.39251-.576zm-6.63453-7.473a.71831.71831 0 0 1 .58325-.70722l3.60161-.75822a.72524.72524 0 0 1 .8749.71448v2.19451a.72743.72743 0 0 1 -.5833.71447l-3.60886.69993a.72956.72956 0 0 1 -.8676-.71448zm.79745 21.63152a1.42533 1.42533 0 1 1 1.42169-1.429 1.4313 1.4313 0 0 1 -1.42169 1.42903zm2.70208 4.35256h6.29188l.64884 1.16654h-7.5823zm-1.9539 3.54331.66344-1.203h8.88737l.67073 1.203zm11.65054-7.89584a1.42533 1.42533 0 1 1 1.42169-1.429 1.43132 1.43132 0 0 1 -1.42169 1.429z"/>
    <path fill="#1c1e23" d="m24 2.11a21.89 21.89 0 1 1 -21.89 21.89 21.89 21.89 0 0 1 21.89-21.89zm-24 21.89a24 24 0 1 0 24-24 24 24 0 0 0 -24 24z"/>
</svg>
