<?xml version="1.0" encoding="utf-8"?>
<svg xmlns="http://www.w3.org/2000/svg" xmlns:xlink="http://www.w3.org/1999/xlink" x="0px" y="0px" role="img" style="enable-background:new 0 0 48 48" version="1.1" viewBox="0 0 48 48" xml:space="preserve">
    <title>
        location
    </title>
    <style type="text/css">
        .st0{fill:#FFFFFF;} .st1{fill:#1C1E23;}
    </style>
    <g>
        <path d="M24,2.1c12.1,0,21.9,9.8,21.9,21.9S36.1,45.9,24,45.9S2.1,36.1,2.1,24C2.1,11.9,11.9,2.1,24,2.1
		C24,2.1,24,2.1,24,2.1z" class="st0"/>
        <g>
            <path d="M24,2.1c12.1,0,21.9,9.8,21.9,21.9S36.1,45.9,24,45.9S2.1,36.1,2.1,24C2.1,11.9,11.9,2.1,24,2.1
			C24,2.1,24,2.1,24,2.1z M0,24c0,13.3,10.7,24,24,24s24-10.7,24-24S37.3,0,24,0S0,10.7,0,24z" class="st1"/>
            <path d="M35.1,18.5c0,1.3-0.2,2.7-0.7,3.9l-7.9,16.8c-0.2,0.5-0.6,0.9-1,1.1c-0.9,0.6-2,0.6-2.9,0
			c-0.4-0.3-0.8-0.7-1-1.1l-7.9-16.8c-0.5-1.2-0.8-2.6-0.7-3.9c0-3,1.1-5.8,3.2-7.8C18.2,8.5,21,7.3,24,7.4c3,0,5.8,1.1,7.8,3.2
			C34,12.7,35.1,15.5,35.1,18.5 M27.9,22.4c2.2-2.2,2.2-5.7,0-7.8l0,0c-2.2-2.2-5.7-2.2-7.8,0c-2.1,2.2-2.2,5.6,0,7.8l0,0
			C22.2,24.5,25.8,24.5,27.9,22.4" class="st1"/>
        </g>
    </g>
</svg>
