<svg xmlns="http://www.w3.org/2000/svg" role="img" viewBox="0 0 48 48">
    <title>
        silver line
    </title>
    <path fill="#7c878e" d="m24.1243 48c13.4441-.345 24.2194-11.2755 23.8673-24.128-.3629-13.2502-10.8716-23.942-24.1239-23.872a24 24 0 0 0 .2566 48"/>
    <g fill="#fff">
        <path d="m10.0968 29.8081a3.6339 3.6339 0 0 0 1.1045 1.2959 4.7579 4.7579 0 0 0 1.6152.7358 7.634 7.634 0 0 0 1.9209.24 9.9327 9.9327 0 0 0 1.44-.1123 5.0005 5.0005 0 0 0 1.44-.4317 3.1566 3.1566 0 0 0 1.12-.88 2.2109 2.2109 0 0 0 .4473-1.4239 2.0045 2.0045 0 0 0 -.5918-1.5039 4.6888 4.6888 0 0 0 -1.5518-.96 15.5155 15.5155 0 0 0 -2.1757-.6724q-1.2174-.2878-2.4649-.64a21.67 21.67 0 0 1 -2.4951-.7842 8.57 8.57 0 0 1 -2.1768-1.2 5.6519 5.6519 0 0 1 -1.5517-1.84 5.5871 5.5871 0 0 1 -.5918-2.6714 5.98 5.98 0 0 1 .7519-3.0562 6.8092 6.8092 0 0 1 1.9678-2.16 8.5784 8.5784 0 0 1 2.752-1.28 11.7264 11.7264 0 0 1 3.0722-.416 14.5568 14.5568 0 0 1 3.44.4 8.597 8.597 0 0 1 2.9287 1.2963 6.5705 6.5705 0 0 1 2.0322 2.2876 7.0226 7.0226 0 0 1 .752 3.376h-4.8648a4.0491 4.0491 0 0 0 -.4326-1.6958 2.8291 2.8291 0 0 0 -.9756-1.0561 4.1344 4.1344 0 0 0 -1.3916-.544 8.5973 8.5973 0 0 0 -1.7119-.16 5.9121 5.9121 0 0 0 -1.2168.128 3.2554 3.2554 0 0 0 -1.1035.4477 2.7683 2.7683 0 0 0 -.8164.8 2.15 2.15 0 0 0 -.3193 1.2158 2.05 2.05 0 0 0 .2558 1.0879 2.27 2.27 0 0 0 1.0078.7688 12.8061 12.8061 0 0 0 2.08.7041q1.3272.3524 3.4717.896.64.1281 1.7763.4639a8.5257 8.5257 0 0 1 2.2559 1.0722 6.83 6.83 0 0 1 1.9356 1.9678 5.6035 5.6035 0 0 1 .8164 3.1519 6.9827 6.9827 0 0 1 -.6084 2.9121 6.3289 6.3289 0 0 1 -1.8077 2.32 8.6835 8.6835 0 0 1 -2.9755 1.52 14.0715 14.0715 0 0 1 -4.1123.5444 14.4434 14.4434 0 0 1 -3.6641-.4643 9.2024 9.2024 0 0 1 -3.1357-1.4561 7.1788 7.1788 0 0 1 -2.16-2.5278 7.5456 7.5456 0 0 1 -.7686-3.6479h4.8642a4.191 4.191 0 0 0 .416 1.9518z"/>
        <path d="m32.049 12.5918v18.624h11.1357v4.2242h-16.16v-22.8482z"/>
    </g>
</svg>
