<svg viewBox="0 0 48 48" xmlns="http://www.w3.org/2000/svg"><path d="m14.29 0h19.43a1.05 1.05 0 0 1 .71.29l13.28 13.28a1.05 1.05 0 0 1 .29.71v18.92a1 1 0 0 1 -.28.69l-13.29 13.8a1 1 0 0 1 -.72.31h-19.43a1.05 1.05 0 0 1 -.71-.29l-13.28-13.28a1.05 1.05 0 0 1 -.29-.71v-18.92a1 1 0 0 1 .28-.69l13.29-13.8a1 1 0 0 1 .72-.31z" fill="#1c1e23"/><path d="m12.28 15.76 3.43-3.47a1 1 0 0 1 1.39 0l6.9 6.84 6.89-6.84a1 1 0 0 1 1.4 0l3.43 3.47a1 1 0 0 1 0 1.39l-6.91 6.85 6.9 7a1 1 0 0 1 0 1.4l-3.4 3.33a1 1 0 0 1 -1.39 0l-6.91-7-6.91 7a1 1 0 0 1 -1.39 0l-3.4-3.33a1 1 0 0 1 0-1.4l6.9-7-6.9-6.85a1 1 0 0 1 -.03-1.39z" fill="#fff"/></svg>