<svg xmlns="http://www.w3.org/2000/svg" role="img" viewBox="0 0 48 48">
    <title>
        green line C
    </title>
    <path fill="#00843d" d="m24 0a24 24 0 1 0 24 24 24 24 0 0 0 -24-24"/>
    <text fill="#fff" font-family="HelveticaNeue-Bold, Helvetica Neue" font-size="29" font-weight="700" transform="translate(13.25492 34.06979)">
        C
    </text>
    <path fill="#00843d" d="m24 0a24 24 0 1 0 24 24 24 24 0 0 0 -24-24"/>
    <path fill="#fff" d="m28.53906 19.186a4.59688 4.59688 0 0 0 -1.01562-1.14551 4.69844 4.69844 0 0 0 -1.377-.76856 4.74812 4.74812 0 0 0 -1.60937-.27539 5.31688 5.31688 0 0 0 -2.61035.59473 4.93082 4.93082 0 0 0 -1.7402 1.59473 6.97933 6.97933 0 0 0 -.9707 2.27685 11.32377 11.32377 0 0 0 -.30469 2.63867 10.53232 10.53232 0 0 0 .30469 2.5376 6.84446 6.84446 0 0 0 .9707 2.21875 4.97814 4.97814 0 0 0 1.74024 1.58013 5.31161 5.31161 0 0 0 2.61035.59472 4.21452 4.21452 0 0 0 3.26269-1.27587 5.90447 5.90447 0 0 0 1.43458-3.36426h4.4082a10.53055 10.53055 0 0 1 -.89844 3.50928 8.41888 8.41888 0 0 1 -1.91406 2.668 8.12726 8.12726 0 0 1 -2.78418 1.68164 10.20069 10.20069 0 0 1 -3.50879.58008 10.61592 10.61592 0 0 1 -4.27734-.82617 9.16293 9.16293 0 0 1 -3.20508-2.27685 10.07168 10.07168 0 0 1 -2.001-3.40723 12.50994 12.50994 0 0 1 -.69629-4.21973 12.93987 12.93987 0 0 1 .69629-4.30615 10.34624 10.34624 0 0 1 2.001-3.46582 9.156 9.156 0 0 1 3.20508-2.31982 11.09858 11.09858 0 0 1 7.51074-.34815 8.76632 8.76632 0 0 1 2.72558 1.43555 7.74819 7.74819 0 0 1 1.98633 2.33447 8.3482 8.3482 0 0 1 .98633 3.18994h-4.4082a3.71734 3.71734 0 0 0 -.52149-1.43563z"/>
</svg>
