<?xml version="1.0" encoding="UTF-8" standalone="no"?>
<svg width="24px" height="24px" viewBox="0 0 24 24" version="1.1" xmlns="http://www.w3.org/2000/svg" xmlns:xlink="http://www.w3.org/1999/xlink">
    <!-- Generator: sketchtool 40.3 (33839) - http://www.bohemiancoding.com/sketch -->
    <title>460FBE0F-D873-443E-90A7-B78E93B19849</title>
    <desc>Created with sketchtool.</desc>
    <defs></defs>
    <g id="Page-1" stroke="none" stroke-width="1" fill="none" fill-rule="evenodd">
        <g id="menu-icons" transform="translate(-8.000000, -8.000000)" fill="#0B2F4C">
            <g id="MBTA" transform="translate(8.000000, 8.000000)">
                <path d="M12,24 C18.627417,24 24,18.627417 24,12 C24,5.372583 18.627417,0 12,0 C5.372583,0 0,5.372583 0,12 C0,18.627417 5.372583,24 12,24 L12,24 Z M12,22.944 C5.9557957,22.944 1.056,18.0442043 1.056,12 C1.056,5.9557957 5.9557957,1.056 12,1.056 C18.0442043,1.056 22.944,5.9557957 22.944,12 C22.944,18.0442043 18.0442043,22.944 12,22.944 L12,22.944 Z" id="Oval"></path>
                <polygon id="Shape" points="4.08 6.12 19.92 6.12 19.92 9.78 14.04 9.78 14.04 19.572 9.984 19.572 9.984 9.78 4.104 9.78"></polygon>
            </g>
        </g>
    </g>
</svg>