<?xml version="1.0" encoding="UTF-8" standalone="no"?>
<svg width="90px" height="90px" viewBox="0 0 90 90" version="1.1" xmlns="http://www.w3.org/2000/svg" xmlns:xlink="http://www.w3.org/1999/xlink">
    <!-- Generator: Sketch 40.3 (33839) - http://www.bohemiancoding.com/sketch -->
    <title>station-info</title>
    <desc>Created with Sketch.</desc>
    <defs></defs>
    <g id="Page-1" stroke="none" stroke-width="1" fill="none" fill-rule="evenodd">
        <g id="station-info">
            <g id="Group-35" transform="translate(3.000000, 13.000000)">
                <polygon id="Shape" fill="#1C77C3" points="65.4209115 62 57.9892761 62 57.9892761 62 48.30563 62 48.30563 62 36.3699732 62 36.3699732 62 26.5737265 62 26.5737265 62 19.1420912 62 19.1420912 62 9.45844504 62 9.45844504 62 0 62 0 64 84 64 84 62 75.2171582 62 75.2171582 62"></polygon>
                <polygon id="Shape" fill="#1C77C3" points="84 60 84 24 42 12 0 24 0 60"></polygon>
                <circle id="Oval-5" fill="#1C77C3" cx="42" cy="12" r="12"></circle>
                <rect id="Rectangle-20" fill="#1C77C3" x="26" y="8" width="32" height="12"></rect>
                <rect id="Rectangle-22-Copy-14" fill="#1C77C3" x="64" y="17" width="4" height="8"></rect>
                <rect id="Rectangle-22-Copy-16" fill="#1C77C3" x="72" y="20" width="4" height="8"></rect>
                <rect id="Rectangle-22-Copy-15" fill="#1C77C3" x="16" y="17" width="4" height="8"></rect>
                <rect id="Rectangle-22-Copy-17" fill="#1C77C3" x="8" y="20" width="4" height="8"></rect>
                <g id="Group-27" transform="translate(20.000000, 24.000000)" fill="#FFFFFF">
                    <g id="Group-34" transform="translate(16.000000, 24.000000)">
                        <circle id="Oval-5" cx="6" cy="6" r="6"></circle>
                        <rect id="Rectangle-20" x="0" y="6" width="12" height="6"></rect>
                    </g>
                    <g id="Group-34-Copy-2" transform="translate(0.000000, 26.000000)">
                        <circle id="Oval-5" cx="5" cy="5" r="5"></circle>
                        <rect id="Rectangle-20" x="0" y="5" width="10" height="5"></rect>
                    </g>
                    <g id="Group-34-Copy-3" transform="translate(34.000000, 26.000000)">
                        <circle id="Oval-5" cx="5" cy="5" r="5"></circle>
                        <rect id="Rectangle-20" x="0" y="5" width="10" height="5"></rect>
                    </g>
                    <rect id="Rectangle-22" x="24" y="12" width="4" height="8"></rect>
                    <rect id="Rectangle-22-Copy-3" x="32" y="12" width="4" height="8"></rect>
                    <rect id="Rectangle-22-Copy-10" x="40" y="14" width="4" height="8"></rect>
                    <rect id="Rectangle-22-Copy-8" x="8" y="12" width="4" height="8"></rect>
                    <rect id="Rectangle-22-Copy-12" x="0" y="14" width="4" height="8"></rect>
                    <rect id="Rectangle-22-Copy" x="24" y="0" width="4" height="8"></rect>
                    <rect id="Rectangle-22-Copy-4" x="32" y="0" width="4" height="8"></rect>
                    <rect id="Rectangle-22-Copy-11" x="40" y="2" width="4" height="8"></rect>
                    <rect id="Rectangle-22-Copy-9" x="8" y="0" width="4" height="8"></rect>
                    <rect id="Rectangle-22-Copy-13" x="0" y="2" width="4" height="8"></rect>
                    <rect id="Rectangle-22-Copy-2" x="16" y="12" width="4" height="8"></rect>
                    <rect id="Rectangle-22-Copy-5" x="16" y="0" width="4" height="8"></rect>
                </g>
                <circle id="Oval-7" fill="#FFFFFF" cx="42" cy="12" r="6"></circle>
                <path d="M36,12 L48,12" id="Line" stroke="#1C77C3" stroke-linecap="square"></path>
                <path d="M37.7573593,16.2426407 L46.2426407,7.75735931" id="Line" stroke="#1C77C3" stroke-linecap="square"></path>
                <path d="M42,18 L42,6" id="Line" stroke="#1C77C3" stroke-linecap="square"></path>
                <path d="M46.3890873,16.5961941 L37.9038059,8.1109127" id="Line" stroke="#1C77C3" stroke-linecap="square"></path>
            </g>
        </g>
    </g>
</svg>
