<?xml version="1.0" encoding="UTF-8" standalone="no"?>
<svg width="24px" height="24px" viewBox="0 0 24 24" version="1.1" xmlns="http://www.w3.org/2000/svg" xmlns:xlink="http://www.w3.org/1999/xlink">
    <!-- Generator: Sketch 39.1 (31720) - http://www.bohemiancoding.com/sketch -->
    <title>subway-icon</title>
    <desc>Created with Sketch.</desc>
    <defs></defs>
    <g id="Page-1" stroke="none" stroke-width="1" fill="none" fill-rule="evenodd">
        <g id="subway-icon" fill="#FFFFFF">
            <g id="Group-16-Copy" transform="translate(3.000000, 0.000000)">
                <path d="M4.5,21 L6.9330127,16.7858984 L6.0669873,16.2858984 L2.0669873,23.2141016 L2.9330127,23.7141016 L3.92264973,22 L14.0773503,22 L15.0669873,23.7141016 L15.9330127,23.2141016 L11.9330127,16.2858984 L11.0669873,16.7858984 L13.5,21 L4.5,21 Z" id="Combined-Shape"></path>
                <path d="M0,2.95480893 C0,1.84889849 0.880362388,0.784306654 1.9605808,0.603157339 C1.9605808,0.603157339 4.5,5.55111512e-16 9,0 C13.5,-5.55111512e-16 16.0394192,0.603157339 16.0394192,0.603157339 C17.1222181,0.796028215 18,1.84553924 18,2.95480893 L18,17.997572 C18,19.1034825 17.1073772,20 16.0049107,20 L1.99508929,20 C0.893231902,20 0,19.1068417 0,17.997572 L0,2.95480893 Z M15.5,18 C16.3284271,18 17,17.3284271 17,16.5 C17,15.6715729 16.3284271,15 15.5,15 C14.6715729,15 14,15.6715729 14,16.5 C14,17.3284271 14.6715729,18 15.5,18 Z M16,4 C16.5522847,4 17,3.55228475 17,3 C17,2.44771525 16.5522847,2 16,2 C15.4477153,2 15,2.44771525 15,3 C15,3.55228475 15.4477153,4 16,4 Z M4,3 C4,2.44771525 4.4556644,2 4.99539757,2 L13.0046024,2 C13.5543453,2 14,2.44386482 14,3 C14,3.55228475 13.5443356,4 13.0046024,4 L4.99539757,4 C4.44565467,4 4,3.55613518 4,3 Z M2,4 C2.55228475,4 3,3.55228475 3,3 C3,2.44771525 2.55228475,2 2,2 C1.44771525,2 1,2.44771525 1,3 C1,3.55228475 1.44771525,4 2,4 Z M2.5,18 C3.32842712,18 4,17.3284271 4,16.5 C4,15.6715729 3.32842712,15 2.5,15 C1.67157288,15 1,15.6715729 1,16.5 C1,17.3284271 1.67157288,18 2.5,18 Z M12,6 L16.0001925,6 C16.5523709,6 17,6.45097518 17,6.99077797 L17,11.009222 C17,11.5564136 16.5562834,12 16.0001925,12 L12,12 L12,6 Z M7,6 L11,6 L11,12 L7,12 L7,6 Z M1,6.99077797 C1,6.44358641 1.44371665,6 1.99980749,6 L6,6 L6,12 L1.99980749,12 C1.44762906,12 1,11.5490248 1,11.009222 L1,6.99077797 Z M9,18 C10.1045695,18 11,17.1045695 11,16 C11,14.8954305 10.1045695,14 9,14 C7.8954305,14 7,14.8954305 7,16 C7,17.1045695 7.8954305,18 9,18 Z M9,17.824 C7.99263262,17.824 7.176,17.0073674 7.176,16 C7.176,14.9926326 7.99263262,14.176 9,14.176 C10.0073674,14.176 10.824,14.9926326 10.824,16 C10.824,17.0073674 10.0073674,17.824 9,17.824 Z M7.68,15.02 L10.32,15.02 L10.32,15.63 L9.34,15.63 L9.34,17.262 L8.664,17.262 L8.664,15.63 L7.684,15.63 L7.68,15.02 Z" id="Combined-Shape"></path>
            </g>
        </g>
    </g>
</svg>
