<svg role="img" width="24px" height="24px" viewBox="0 0 24 24">
<title>Wheelchair</title>
<g id="Page-1" stroke="none" stroke-width="1" fill="none" fill-rule="evenodd">
    <g id="wheelchair">
        <g id="Wheelchair">
            <rect id="Rectangle-86" x="0" y="0" width="24" height="24"></rect>
            <path d="M14.70625,15.28125 L15.9232955,17.7153409 C15.4619295,19.1392117 14.6267106,20.2926092 13.4176136,21.1755682 C12.2085167,22.0585271 10.8602347,22.5 9.37272727,22.5 C8.13181198,22.5 6.98438027,22.1917644 5.93039773,21.5752841 C4.87641518,20.9588037 4.04119626,20.1235848 3.42471591,19.0696023 C2.80823555,18.0156197 2.5,16.868188 2.5,15.6272727 C2.5,14.1874928 2.91562084,12.8750059 3.746875,11.6897727 C4.57812916,10.5045395 5.6698796,9.66534338 7.02215909,9.17215909 L7.225,10.7352273 C6.2545406,11.1647749 5.47898018,11.8230069 4.89829545,12.7099432 C4.31761073,13.5968794 4.02727273,14.5693129 4.02727273,15.6272727 C4.02727273,17.098871 4.55027886,18.3576652 5.59630682,19.4036932 C6.64233478,20.4497211 7.90112901,20.9727273 9.37272727,20.9727273 C10.375005,20.9727273 11.2997117,20.7142071 12.146875,20.1971591 C12.9940383,19.6801111 13.6502818,18.9821067 14.115625,18.103125 C14.5809682,17.2241433 14.7778413,16.2835277 14.70625,15.28125 L14.70625,15.28125 Z M21.2448864,16.4744318 L21.9369318,17.8346591 L18.8823864,19.3619318 C18.7789768,19.4176139 18.663637,19.4454545 18.5363636,19.4454545 C18.2181802,19.4454545 17.9914779,19.3062514 17.85625,19.0278409 L15.0045455,13.3363636 L9.37272727,13.3363636 C9.18181723,13.3363636 9.01278483,13.2707393 8.865625,13.1394886 C8.71846517,13.008238 8.63295466,12.84716 8.60909091,12.65625 L7.46363636,3.36136364 C7.44772719,3.23409027 7.47159059,3.06704649 7.53522727,2.86022727 C7.64659147,2.45454343 7.87329374,2.12642171 8.21534091,1.87585227 C8.55738807,1.62528284 8.94317967,1.5 9.37272727,1.5 C9.8977299,1.5 10.3471572,1.68692995 10.7210227,2.06079545 C11.0948882,2.43466096 11.2818182,2.88408828 11.2818182,3.40909091 C11.2818182,3.95795729 11.0750021,4.42528216 10.6613636,4.81107955 C10.2477252,5.19687693 9.77045725,5.3619321 9.22954545,5.30625 L9.67102273,8.75454545 L14.7181818,8.75454545 L14.7181818,10.2818182 L9.86193182,10.2818182 L10.0528409,11.8090909 L15.4818182,11.8090909 C15.8000016,11.8090909 16.0267039,11.9482941 16.1619318,12.2267045 L18.8823864,17.6556818 L21.2448864,16.4744318 Z" fill="#FFFFFF"></path>
        </g>
    </g>
</g>
</svg>
