<svg xmlns="http://www.w3.org/2000/svg" role="img" viewBox="0 0 48 48">
    <title>
        boat
    </title>
    <path fill="#fff" d="m23.99978 46.50022a22.50022 22.50022 0 1 1 22.50022-22.50022 22.49992 22.49992 0 0 1 -22.50022 22.50022"/>
    <g fill="#1c1e23">
        <path d="m20.28813 12.90586v2.26814h-2.408v1.75852l6.11487-2.6678 6.11484 2.66775v-1.75847h-2.418v-2.26814zm5.70519 21.86157a3.77681 3.77681 0 0 1 -3.99663 0 3.30721 3.30721 0 0 0 -3.4371.09991 3.73687 3.73687 0 0 1 -3.88672-.09991 3.26724 3.26724 0 0 0 -3.3272 0 3.57706 3.57706 0 0 1 -1.84844.56952v-2.99748a3.83674 3.83674 0 0 0 1.75852-.43963c2.43794-1.43878 3.577.28976 4.92584.27977v-6.9941l-2.05826-5.04575a1.33886 1.33886 0 0 1 .63914-1.78231q.05406-.02553.11023-.04614l1.25894-.53955v-4.39629h2.368v-2.29807h3.39713v-3.0774h4.19646v3.0774h3.39714v2.29807h2.408v4.36631l1.25894.53955a1.33887 1.33887 0 0 1 .79551 1.71823q-.02061.05612-.04615.11023l-2.06825 5.04574v6.9941c1.33887 0 2.42795-1.74852 4.92585-.30973a3.80683 3.80683 0 0 0 1.75851.44962v2.99748a3.77693 3.77693 0 0 1 -1.84844-.56952 3.31722 3.31722 0 0 0 -3.32719 0 3.73682 3.73682 0 0 1 -3.88672.09991 3.31722 3.31722 0 0 0 -3.46711-.04996zm0 4.6161a4.12653 4.12653 0 0 1 -4.09655 0 3.04742 3.04742 0 0 0 -3.38714.10991 3.73687 3.73687 0 0 1 -3.88672-.09991 3.11737 3.11737 0 0 0 -3.30721.08992 3.26729 3.26729 0 0 1 -1.83845.48958v-3.13735a2.99746 2.99746 0 0 0 1.75852-.43963c1.26893-.8293 2.418-.66943 3.99663.20983a3.85675 3.85675 0 0 0 3.40712-.18984c1.40882-.77934 2.17817-.58951 3.65692.1099a3.59691 3.59691 0 0 0 3.3172 0c1.47875-.69941 2.28807-.88924 3.69688-.1099a3.80683 3.80683 0 0 0 3.38715.18984c1.59865-.87926 2.75767-.99916 3.99663-.20983a2.83759 2.83759 0 0 0 1.75851.43963v3.13732a3.20724 3.20724 0 0 1 -1.91838-.47959 3.0674 3.0674 0 0 0 -3.26724-.08992 3.73687 3.73687 0 0 1 -3.88672.09991 3.10739 3.10739 0 0 0 -3.38715-.11987z"/>
        <path d="m24 2.11a21.89 21.89 0 1 1 -21.89 21.89 21.89 21.89 0 0 1 21.89-21.89zm-24 21.89a24 24 0 1 0 24-24 24 24 0 0 0 -24 24z"/>
    </g>
</svg>
