<svg xmlns="http://www.w3.org/2000/svg" role="img" viewBox="0 0 16 16">
    <title>
        train
    </title>
    <path fill="#fff" d="m7.99993 15.50007a7.50007 7.50007 0 1 1 7.50007-7.50007 7.5 7.5 0 0 1 -7.50007 7.50007"/>
    <g fill="#1c1e23">
        <path d="m10.33 11.75 1.15-.85a1.46975 1.46975 0 0 0 .52-.84v-4.82a.88891.88891 0 0 0 -.3-.66.79321.79321 0 0 1 -.31-.6l-.01-1.19a.81979.81979 0 0 0 -.65-.79 20.91806 20.91806 0 0 0 -2.5-.52 1.06538 1.06538 0 0 0 -.47 0c-.7.15-1.55.3-2.24.48-.42.12-.85.35-.85.85v1.18a.80288.80288 0 0 1 -.33.61.851.851 0 0 0 -.31.66v4.8a1.40971 1.40971 0 0 0 .48.84l1.1.81-1.74 2.84h1.13l.24-.39h5.53l.13.22.02.03.08.14h1.05zm.95-2.3a.73.73 0 1 1 -.73-.73.72767.72767 0 0 1 .73.73zm-1.44 3.15h-3.65l.41-.68h2.84l.03.06.35.58zm-1.14-9.65a.24471.24471 0 0 1 .3-.24l1.21.25a.25351.25351 0 0 1 .2.24v.73a.24955.24955 0 0 1 -.3.24l-1.21-.24a.23758.23758 0 0 1 -.2-.24zm-.72 2.26a.82.82 0 1 1 -.82.82.82371.82371 0 0 1 .82-.82zm-2.32-2.01a.25358.25358 0 0 1 .2-.24l1.21-.25a.24868.24868 0 0 1 .3.24v.74a.24683.24683 0 0 1 -.2.24l-1.22.24a.24554.24554 0 0 1 -.29-.24zm-.2 6.98a.73.73 0 1 1 .73-.73.72767.72767 0 0 1 -.73.73zm0 3.61.5-.82h4.1l.49.82z"/>
        <path d="m8 .70333a7.29667 7.29667 0 1 1 -7.29667 7.29667 7.29667 7.29667 0 0 1 7.29667-7.29667zm-8 7.29667a8 8 0 1 0 8-8 8 8 0 0 0 -8 8z"/>
    </g>
</svg>
