<svg xmlns="http://www.w3.org/2000/svg" role="img" viewBox="0 0 48 48">
    <title>
        green line D
    </title>
    <path fill="#00843d" d="m24.03 0a24 24 0 1 0 24 24 24 24 0 0 0 -24-24"/>
    <text fill="#fff" font-family="HelveticaNeue-Bold, Helvetica Neue" font-size="29" font-weight="700" transform="translate(13.25519 34.56984)">
        D
    </text>
    <path fill="#00843d" d="m24 0a24 24 0 1 0 24 24 24 24 0 0 0 -24-24"/>
    <path fill="#fff" d="m24.1875 13.86377a10.6639 10.6639 0 0 1 3.72656.63818 8.08876 8.08876 0 0 1 2.98731 1.91405 8.83329 8.83329 0 0 1 1.97168 3.19 12.903 12.903 0 0 1 .71093 4.49463 14.34281 14.34281 0 0 1 -.58007 4.17627 9.19082 9.19082 0 0 1 -1.75491 3.3061 8.2152 8.2152 0 0 1 -2.92871 2.18945 9.914 9.914 0 0 1 -4.13281.79736h-8.93162v-20.706zm-.31836 16.87793a5.84432 5.84432 0 0 0 1.91406-.31885 4.2098 4.2098 0 0 0 1.65235-1.05859 5.317 5.317 0 0 0 1.16015-1.92826 8.48406 8.48406 0 0 0 .43555-2.9004 12.06178 12.06178 0 0 0 -.30469-2.82714 5.64589 5.64589 0 0 0 -1.001-2.16065 4.44088 4.44088 0 0 0 -1.84082-1.37744 7.36206 7.36206 0 0 0 -2.82813-.47852h-3.24802v13.04985z"/>
</svg>
