<svg xmlns="http://www.w3.org/2000/svg" role="img" viewBox="0 0 48 48">
    <title>
        red line
    </title>
    <path fill="#da291c" d="m24 0a24 24 0 1 0 24 24 24 24 0 0 0 -24-24"/>
    <g fill="#fff">
        <path d="m17.17865 13.86377a6.66777 6.66777 0 0 1 2.50879.44971 5.78371 5.78371 0 0 1 1.91406 1.23242 5.35737 5.35737 0 0 1 1.21778 1.8125 5.81127 5.81127 0 0 1 .41992 2.21826 6.23057 6.23057 0 0 1 -.76758 3.16113 4.83029 4.83029 0 0 1 -2.50879 2.03028v.05761a3.5199 3.5199 0 0 1 1.3916.71045 3.9559 3.9559 0 0 1 .89942 1.13135 5.2879 5.2879 0 0 1 .50683 1.43555 12.49638 12.49638 0 0 1 .21778 1.56592q.0293.49292.05859 1.15966.02782.668.10156 1.36328a9.06039 9.06039 0 0 0 .23145 1.31934 3.043 3.043 0 0 0 .47851 1.05859h-4.55273a7.99213 7.99213 0 0 1 -.46384-2.34912q-.08788-1.3623-.26172-2.60986a4.11552 4.11552 0 0 0 -.98535-2.37793 3.39116 3.39116 0 0 0 -2.46484-.75391h-4.55374v8.09082h-4.55274v-20.706zm-1.624 9.36719a3.44032 3.44032 0 0 0 2.34863-.69629 2.88641 2.88641 0 0 0 .7832-2.26172 2.75737 2.75737 0 0 0 -.7832-2.18945 3.49346 3.49346 0 0 0 -2.34863-.68164h-4.9883v5.82914z"/>
        <path d="m31.50385 13.86377v16.87793h10.09277v3.82812h-14.64551v-20.706z"/>
    </g>
</svg>
