<svg xmlns="http://www.w3.org/2000/svg" role="img" viewBox="0 0 16 16">
    <title>
        subway
    </title>
    <defs>
        <style>
            .a { fill: #fff; } .b { fill: #1c1e23; }
        </style>
    </defs>
    <title>
        icon-subway circle bw small
    </title>
    <path d="M7.99993,15.50007A7.50007,7.50007,0,1,1,15.5,8a7.5,7.5,0,0,1-7.50007,7.50007" class="a"/>
    <g>
        <path d="M6.67,1.41A.56974.56974,0,0,1,7.24.84.58.58,0,1,1,7.24,2H7.22A.57707.57707,0,0,1,6.67,1.41Z" class="b"/>
        <path d="M12.01,9.84V3.93A1.43829,1.43829,0,0,0,10.57,2.5H5.44A1.42971,1.42971,0,0,0,4.01,3.93v5.9a1.88,1.88,0,0,0,1.53,1.85L4,14H5.02l1.26-1.84H9.74L11,14h1l-1.54-2.32A1.8774,1.8774,0,0,0,12.01,9.84ZM7,2.91H9v.84H7Zm-.58,8.3a.77.77,0,1,1,.77-.77A.77027.77027,0,0,1,6.42,11.21Zm3.15,0a.77.77,0,1,1,0-1.54.77.77,0,1,1,0,1.54ZM11.01,6.5a.52279.52279,0,0,1-.52.52H5.53a.51641.51641,0,0,1-.52-.52V4.54a.51646.51646,0,0,1,.52-.52h4.96a.52284.52284,0,0,1,.52.52Z" class="b"/>
        <path d="M8.19,1.41A.57841.57841,0,0,1,8.77.84a.56974.56974,0,0,1,.57.57A.57438.57438,0,0,1,8.77,2,.58266.58266,0,0,1,8.19,1.41Z" class="b"/>
    </g>
    <path d="M8,.70333A7.29667,7.29667,0,1,1,.70333,8,7.29667,7.29667,0,0,1,8,.70333ZM0,8A8,8,0,1,0,8,0,8,8,0,0,0,0,8Z" class="b"/>
</svg>
