<svg xmlns="http://www.w3.org/2000/svg" role="img" viewBox="0 0 48 48">
    <title>
        trolley
    </title>
    <path fill="#fff" d="m23.99978 46.50022a22.50022 22.50022 0 1 1 22.50022-22.50022 22.49992 22.49992 0 0 1 -22.50022 22.50022"/>
    <g fill="#1c1e23">
        <path d="m30.54674 35.21839c2.1136-.2612 3.49893-2.38277 3.48308-4.51222v-16.96435a4.56309 4.56309 0 0 0 -4.48053-4.59929h-4.53595l1.05282-3.42767a.17445.17445 0 0 0 0-.12668c2.80235.10291 3.29315.38788 3.37229.52249a.269.269 0 0 0 .13456.23748.243.243 0 0 0 .25333 0 .31646.31646 0 0 0 .11876-.285.55134.55134 0 0 0 -.14249-.34831c-.49079-.49872-2.21651-.71247-5.93712-.71247a37.45894 37.45894 0 0 0 -4.1085.18205c-1.39325.18211-1.97112.44331-1.97112.91831a.284.284 0 0 0 .12664.2454.243.243 0 0 0 .25333 0 .26025.26025 0 0 0 .13456-.23748c0-.06334.475-.41166 3.36437-.52249a.33953.33953 0 0 0 0 .12668l1.29034 3.41976h-4.49638a4.55969 4.55969 0 0 0 -4.48845 4.59934v16.97223c-.02378 2.11365 1.33783 4.2431 3.43559 4.51222a14.00231 14.00231 0 0 0 1.55158 0l-4.24305 7.78161h1.99484l.095-.16626a.31421.31421 0 0 1 .26917-.182h13.79a.29194.29194 0 0 1 .26917.182l.095.16626h1.99489l-4.21934-7.78161s1.15572.0475 1.54361 0zm-8.32783-29.64606h3.35645l-1.12408 3.5702h-.89454zm-2.177 5.763a.794.794 0 0 1 .79162-.79161h6.33294a.79394.79394 0 0 1 .79161.79161v.79162a.794.794 0 0 1 -.79161.79162h-6.33289a.794.794 0 0 1 -.79162-.79162zm-3.41181 3.34852a.794.794 0 0 1 .79161-.79162h13.15667a.794.794 0 0 1 .79162.79162v6.21422a.794.794 0 0 1 -.79162.79162h-13.15667a.794.794 0 0 1 -.79161-.79162zm10.44143 20.582.855 1.58323a.15747.15747 0 0 1 0 .16626.12785.12785 0 0 1 -.13461.06334h-7.62332a.14414.14414 0 0 1 -.15041-.06334.15743.15743 0 0 1 0-.16626c.08712-.15041.82331-1.504.855-1.58323a.22249.22249 0 0 1 .19-.11079h5.82634a.20185.20185 0 0 1 .18206.17413zm-8.72364-2.56483a2.06434 2.06434 0 1 1 2.06611-2.05815 2.06815 2.06815 0 0 1 -2.06611 2.05819zm10.74225 6.34878.83911 1.56739a.14369.14369 0 0 1 0 .15833.128.128 0 0 1 -.12664.11084h-11.60513a.15185.15185 0 0 1 -.14248-.07127.185.185 0 0 1 0-.15833l.855-1.59111a.19286.19286 0 0 1 .19-.095h9.816a.17112.17112 0 0 1 .17414.07919zm.04749-6.38836a2.04332 2.04332 0 0 1 -1.6228-1.6228 2.066 2.066 0 0 1 2.69939-2.35113 2.03968 2.03968 0 0 1 1.27454 1.27454 2.066 2.066 0 0 1 -2.35113 2.69943z"/>
        <path d="m24 2.11a21.89 21.89 0 1 1 -21.89 21.89 21.89 21.89 0 0 1 21.89-21.89zm-24 21.89a24 24 0 1 0 24-24 24 24 0 0 0 -24 24z"/>
    </g>
</svg>
