<svg xmlns="http://www.w3.org/2000/svg" role="img" viewBox="0 0 16 16">
    <title>
        stop
    </title>
    <path d="m12.95654 2.14838a6.79251 6.79251 0 0 0 -9.57931-.33377 7.05864 7.05864 0 0 0 -1.60211 2.23628 6.69053 6.69053 0 0 0 -.56742 2.8037v5.54065a2.01587 2.01587 0 0 0 2.036 2.00265h4.1722v1.60211h1.26834v-1.60211h4.072a2.0229 2.0229 0 0 0 2.036-2.036v-5.54068a6.91365 6.91365 0 0 0 -1.8357-4.67283zm-8.67812.66755h7.44316v1.73562h-2.77032v4.60608h-1.90252v-4.60608h-2.77032zm9.24558 9.64607a.75532.75532 0 0 1 -.76768.76768h-9.54598a.74082.74082 0 0 1 -.7343-.73431v-1.70224h11.01454v1.66887z"/>
</svg>
