<?xml version="1.0" encoding="utf-8"?>
<svg xmlns="http://www.w3.org/2000/svg" xmlns:xlink="http://www.w3.org/1999/xlink" x="0px" y="0px" role="img" style="enable-background:new 0 0 16 16" version="1.1" viewBox="0 0 16 16" xml:space="preserve">
    <title>
        no service
    </title>
    <g id="stop-sign" transform="translate(163.000000, 80.000000)">
        <path id="Path-3" fill="#D92D27" stroke="#D92D27" d="M-158.1-79.5h6.1c0.1,0,0.2,0,0.2,0.1l4.2,4.2c0.1,0.1,0.1,0.1,0.1,0.2v5.9c0,0.1,0,0.2-0.1,0.2
		l-4.2,4.3c-0.1,0.1-0.1,0.1-0.2,0.1h-6.1c-0.1,0-0.2,0-0.2-0.1l-4.2-4.2c-0.1-0.1-0.1-0.1-0.1-0.2v-5.9c0-0.1,0-0.2,0.1-0.2
		l4.2-4.3C-158.2-79.5-158.1-79.5-158.1-79.5z"/>
        <path id="Path-4" fill="#FFFFFF" stroke="#FFFFFF" d="M-158.7-74.5l1.1-1.1c0.1-0.1,0.3-0.1,0.4,0l0,0l2.2,2.2l2.2-2.2c0.1-0.1,0.3-0.1,0.4,0l0,0
		l1.1,1.1c0.1,0.1,0.1,0.3,0,0.4l-2.2,2.2l2.2,2.2c0.1,0.1,0.1,0.3,0,0.4l0,0l-1.1,1.1c-0.1,0.1-0.3,0.1-0.4,0l-2.2-2.2l-2.2,2.2
		c-0.1,0.1-0.3,0.1-0.4,0l-1.1-1.1c-0.1-0.1-0.1-0.3,0-0.4l0,0l2.2-2.2l-2.2-2.2C-158.8-74.2-158.8-74.4-158.7-74.5z"/>
    </g>
</svg>
