<svg xmlns="http://www.w3.org/2000/svg" role="img" viewBox="0 0 16 16">
    <title>
        blue line
    </title>
    <path fill="#003da5" d="m8 0a8 8 0 1 0 8 8 8 8 0 0 0 -8-8"/>
    <path fill="#fff" d="m5.44956 4.25a4.66423 4.66423 0 0 1 .977.09462 2.11161 2.11161 0 0 1 .75626.30986 1.44274 1.44274 0 0 1 .4885.5725 2.01466 2.01466 0 0 1 .17332.88219 1.64315 1.64315 0 0 1 -.25751.9455 1.86958 1.86958 0 0 1 -.76157.61973 1.80263 1.80263 0 0 1 1.03464.69842 2.08038 2.08038 0 0 1 .34135 1.20284 2.06714 2.06714 0 0 1 -.22037.98211 1.91511 1.91511 0 0 1 -.59355.67756 2.626 2.626 0 0 1 -.85106.38857 3.83549 3.83549 0 0 1 -.98194.1261h-3.63452v-7.5zm-.21011 3.03566a1.1862 1.1862 0 0 0 .72478-.20994.79326.79326 0 0 0 .28368-.68286.873.873 0 0 0 -.09444-.43066.70337.70337 0 0 0 -.25221-.26264 1.06655 1.06655 0 0 0 -.36256-.13123 2.413 2.413 0 0 0 -.42518-.03679h-1.54436v1.75412zm.09444 3.1828a2.20573 2.20573 0 0 0 .46232-.04722 1.133 1.133 0 0 0 .38874-.15759.7977.7977 0 0 0 .26777-.29942 1.03078 1.03078 0 0 0 .09975-.48323.96968.96968 0 0 0 -.32578-.82453 1.3894 1.3894 0 0 0 -.86132-.2469h-1.79621v2.05885zm5.63022-6.21846v6.1134h3.65573v1.3866h-5.30479v-7.5z"/>
</svg>
