<svg xmlns="http://www.w3.org/2000/svg" role="img" viewBox="0 0 16 16">
    <title>
        green line
    </title>
    <path fill="#00843d" d="m8 0a8 8 0 1 0 8 8 8 8 0 0 0 -8-8"/>
    <g fill="#fff">
        <path d="m6.083 11.53381a2.63844 2.63844 0 0 1 -1.03434.21619 3.67706 3.67706 0 0 1 -1.48049-.28629 3.18108 3.18108 0 0 1 -1.10987-.78829 3.48761 3.48761 0 0 1 -.69221-1.17949 4.327 4.327 0 0 1 -.24119-1.46088 4.47445 4.47445 0 0 1 .24119-1.49078 3.59212 3.59212 0 0 1 .69221-1.20008 3.17958 3.17958 0 0 1 1.10987-.803 3.62061 3.62061 0 0 1 1.48049-.29119 3.48952 3.48952 0 0 1 1.06968.1657 3.037 3.037 0 0 1 .93339.48679 2.63108 2.63108 0 0 1 1.01968 1.87758h-1.506a1.5098 1.5098 0 0 0 -.54219-.90349 1.57786 1.57786 0 0 0 -.97458-.30149 1.84057 1.84057 0 0 0 -.903.20589 1.70591 1.70591 0 0 0 -.603.55249 2.42823 2.42823 0 0 0 -.3363.7878 3.95986 3.95986 0 0 0 -.1049.91378 3.68309 3.68309 0 0 0 .1049.87849 2.37769 2.37769 0 0 0 .3363.76819 1.72339 1.72339 0 0 0 .603.54709 1.83509 1.83509 0 0 0 .903.2059 1.711 1.711 0 0 0 1.20989-.3966 1.72506 1.72506 0 0 0 .49709-1.14958h-1.58636v-1.17454h3.012v3.87526h-1.004l-.16079-.81329a2.3565 2.3565 0 0 1 -.93347.75784z"/>
        <path d="m11.03239 4.4206v5.84352h3.49434v1.32509h-5.06994v-7.16861z"/>
    </g>
</svg>
