<svg xmlns="http://www.w3.org/2000/svg" role="img" viewBox="0 0 16 16">
    <title>
        green line B
    </title>
    <path fill="#00843d" d="m8 0a8 8 0 1 0 8 8 8 8 0 0 0 -8-8"/>
    <path fill="#fff" d="m8.59043 4a5.39839 5.39839 0 0 1 1.08557.10121 2.392 2.392 0 0 1 .83953.33044 1.55783 1.55783 0 0 1 .54221.61054 2.06794 2.06794 0 0 1 .19251.941 1.70139 1.70139 0 0 1 -.28591 1.00827 2.06017 2.06017 0 0 1 -.84522.66143 2.00387 2.00387 0 0 1 1.14822.74512 2.15155 2.15155 0 0 1 .37933 1.28291 2.13665 2.13665 0 0 1 -.24491 1.04767 2.05831 2.05831 0 0 1 -.65955.72215 2.95712 2.95712 0 0 1 -.94432.41469 4.42311 4.42311 0 0 1 -1.09014.13457h-4.03587v-8zm-.23352 3.23819a1.35217 1.35217 0 0 0 .80535-.22431.83167.83167 0 0 0 .3144-.72817.89181.89181 0 0 0 -.1048-.459.75208.75208 0 0 0 -.27909-.28011 1.2235 1.2235 0 0 0 -.40324-.14 2.75738 2.75738 0 0 0 -.47159-.03939h-1.71551v1.871zm.10593 3.39465a2.50985 2.50985 0 0 0 .51261-.05033 1.28994 1.28994 0 0 0 .43172-.168.85959.85959 0 0 0 .29731-.31949 1.05918 1.05918 0 0 0 .11052-.51532 1.01659 1.01659 0 0 0 -.3611-.87916 1.59077 1.59077 0 0 0 -.9569-.26369h-1.99457v2.196z"/>
</svg>
