<svg width="24" height="24" viewBox="0 0 24 24" fill="none" xmlns="http://www.w3.org/2000/svg">
<title>Silver line bus</title>
<path d="M12.0622 23.9998C18.7842 23.8273 24.1718 18.3622 23.9958 11.936C23.8143 5.31099 18.5601 -0.0348286 11.9339 0.000170882C5.30766 0.0356132 -0.0352614 5.43685 0.00017526 12.0642C0.0356119 18.6915 5.43598 24.0353 12.0622 23.9998" fill="#6C777E"/>
<path fill-rule="evenodd" clip-rule="evenodd" d="M18.5651 10.668L17.9061 5.49825C17.7388 4.56542 17.1492 4.20142 16.272 3.81967C14.8347 3.30623 13.3192 3.0292 11.788 3C10.2544 3.02953 8.73657 3.30653 7.29662 3.81967C6.43037 4.19422 5.84077 4.56527 5.66244 5.4981L5 10.668V17.8201H6.16288V19.0657C6.16446 19.5774 6.5914 19.9918 7.11845 19.9932C7.64547 19.9917 8.07231 19.5773 8.07387 19.0656V17.82H15.5261V19.0656C15.5236 19.3986 15.7051 19.7074 16.0018 19.8746C16.2984 20.0418 16.6646 20.0418 16.9612 19.8746C17.2579 19.7074 17.4394 19.3986 17.4369 19.0656V17.82H18.5652L18.5651 10.668ZM8.99634 4.30743H14.6015C14.8387 4.30743 15.031 4.49412 15.031 4.72441C15.031 4.9547 14.8387 5.14139 14.6015 5.14139H8.99634C8.75913 5.14139 8.56684 4.9547 8.56684 4.72441C8.56684 4.49412 8.75913 4.30743 8.99634 4.30743ZM6.75042 6.43467L6.20473 10.516C6.19747 10.5629 6.19747 10.6105 6.20473 10.6574C6.19775 10.798 6.2487 10.9356 6.34636 11.0397C6.44401 11.1437 6.58032 11.2058 6.7252 11.2122H16.8908C17.0354 11.2137 17.1746 11.1588 17.2772 11.0598C17.3798 10.9608 17.4371 10.826 17.4365 10.6856V10.6574C17.4438 10.6105 17.4438 10.5629 17.4365 10.516L16.8908 6.43467C16.8469 6.17778 16.6167 5.99028 16.3485 5.993H7.29611C7.02719 5.99019 6.79596 6.17735 6.75042 6.43467ZM7.11845 15.608C6.55664 15.609 6.10036 15.1676 6.09931 14.6222C6.09825 14.0767 6.55283 13.6337 7.11464 13.6327C7.67646 13.6316 8.13278 14.0729 8.13389 14.6184C8.13459 14.8804 8.02795 15.1319 7.83748 15.3176C7.64701 15.5032 7.38833 15.6077 7.11845 15.608ZM15.4644 14.6197C15.464 15.1647 15.9184 15.6069 16.4797 15.608H16.4795C16.7501 15.6087 17.0098 15.5047 17.2011 15.319C17.3925 15.1332 17.4997 14.8811 17.499 14.6184C17.4979 14.0734 17.0423 13.6323 16.481 13.6327C15.9197 13.6331 15.4647 14.0747 15.4644 14.6197Z" fill="white"/>
</svg>
