<svg xmlns="http://www.w3.org/2000/svg" role="img" viewBox="0 0 16 16">
    <title>
        orange line
    </title>
    <path fill="#ed8b00" d="m8 0a8 8 0 1 0 8 8 8 8 0 0 0 -8-8"/>
    <g fill="#fff">
        <path d="m1.81834 6.54427a3.5921 3.5921 0 0 1 .6922-1.20008 3.17962 3.17962 0 0 1 1.10988-.803 3.62054 3.62054 0 0 1 1.48049-.29119 3.61289 3.61289 0 0 1 1.48637.2912 3.17488 3.17488 0 0 1 1.104.803 3.59428 3.59428 0 0 1 .69319 1.20008 4.47445 4.47445 0 0 1 .24119 1.49078 4.327 4.327 0 0 1 -.24119 1.46088 3.48977 3.48977 0 0 1 -.69319 1.17949 3.176 3.176 0 0 1 -1.104.78829 3.66921 3.66921 0 0 1 -1.48637.28628 3.677 3.677 0 0 1 -1.48049-.28629 3.18112 3.18112 0 0 1 -1.10988-.78829 3.48759 3.48759 0 0 1 -.6922-1.17949 4.327 4.327 0 0 1 -.24119-1.46088 4.47445 4.47445 0 0 1 .24119-1.49078zm1.44029 2.36927a2.37747 2.37747 0 0 0 .3363.76819 1.72331 1.72331 0 0 0 .603.54709 1.835 1.835 0 0 0 .903.2059 1.84164 1.84164 0 0 0 .904-.2059 1.72881 1.72881 0 0 0 .602-.54709 2.35675 2.35675 0 0 0 .3363-.76819 3.63424 3.63424 0 0 0 .10588-.87849 3.90728 3.90728 0 0 0 -.10588-.91378 2.40722 2.40722 0 0 0 -.3363-.7878 1.7112 1.7112 0 0 0 -.602-.55249 1.84715 1.84715 0 0 0 -.904-.20589 1.84052 1.84052 0 0 0 -.903.20589 1.70583 1.70583 0 0 0 -.603.55249 2.428 2.428 0 0 0 -.3363.7878 3.95986 3.95986 0 0 0 -.10491.91378 3.6831 3.6831 0 0 0 .10491.87849z"/>
        <path d="m11.27582 4.4206v5.84352h3.49435v1.32509h-5.06994v-7.16861z"/>
    </g>
</svg>
