<?xml version="1.0" encoding="utf-8"?>
<svg xmlns="http://www.w3.org/2000/svg" xmlns:xlink="http://www.w3.org/1999/xlink" x="0px" y="0px" role="img" style="enable-background:new 0 0 48 48" version="1.1" viewBox="0 0 48 48" xml:space="preserve">
    <title>
        no service
    </title>
    <g id="stop-sign" transform="translate(163.000000, 80.000000)">
        <path id="Path-3" fill="#D92D27" stroke="#D92D27" d="M-148.4-79.2h18.8c0.3,0,0.5,0.1,0.7,0.3l12.9,12.9c0.2,0.2,0.3,0.4,0.3,0.7v18.3
		c0,0.3-0.1,0.5-0.3,0.7l-12.9,13.4c-0.2,0.2-0.4,0.3-0.7,0.3h-18.8c-0.3,0-0.5-0.1-0.7-0.3L-162-45.9c-0.2-0.2-0.3-0.4-0.3-0.7
		v-18.3c0-0.3,0.1-0.5,0.3-0.7l12.9-13.4C-148.9-79.1-148.7-79.2-148.4-79.2z"/>
        <path id="Path-4" fill="#FFFFFF" stroke="#FFFFFF" d="M-150.5-63.7l3.4-3.4c0.4-0.4,1-0.4,1.4,0l0,0l6.8,6.7l6.8-6.7c0.4-0.4,1-0.4,1.4,0l0,0l3.4,3.4
		c0.4,0.4,0.4,1,0,1.4l-6.7,6.7l6.8,6.9c0.4,0.4,0.4,1,0,1.4l0,0l-3.3,3.3c-0.4,0.4-1,0.4-1.4,0L-139-51l-6.8,6.9
		c-0.4,0.4-1,0.4-1.4,0l-3.3-3.3c-0.4-0.4-0.4-1,0-1.4l0,0l6.8-6.9l-6.8-6.7C-150.9-62.7-150.9-63.3-150.5-63.7z"/>
    </g>
</svg>
