<svg viewBox="0 0 48 48" xmlns="http://www.w3.org/2000/svg"><path d="m18.4322 7.35879v3.40213h-3.612v2.63778l9.17227-4.00162 9.17226 4.00162v-2.63778h-3.6269v-3.40213zm8.5578 32.79235a5.66521 5.66521 0 0 1 -5.99494 0 4.96082 4.96082 0 0 0 -5.15566.14987 5.60525 5.60525 0 0 1 -5.83008-.14987 4.90088 4.90088 0 0 0 -4.99079 0 5.36545 5.36545 0 0 1 -2.77266.85428v-4.49621a5.75522 5.75522 0 0 0 2.63777-.65944c3.65692-2.15819 5.36548.43463 7.38877.41964v-10.49115l-3.08741-7.56862a2.00832 2.00832 0 0 1 .95871-2.67347q.08109-.03828.16535-.06921l1.8884-.80932v-6.59444h3.552v-3.44709h5.0957v-4.61611h6.29469v4.61611h5.0957v3.44709h3.612v6.54948l1.8884.80931a2.00832 2.00832 0 0 1 1.19327 2.57735q-.0309.08418-.06921.16534l-3.10243 7.56862v10.49115c2.00831 0 3.64193-2.62279 7.38877-.46461a5.71 5.71 0 0 0 2.63778.67443v4.49621a5.66517 5.66517 0 0 1 -2.77266-.85428 4.97581 4.97581 0 0 0 -4.99079 0 5.60525 5.60525 0 0 1 -5.83008.14987 4.97582 4.97582 0 0 0 -5.2006-.07493zm0 6.92416a6.18981 6.18981 0 0 1 -6.14482 0 4.57113 4.57113 0 0 0 -5.08071.16486 5.60527 5.60527 0 0 1 -5.83009-.14987 4.676 4.676 0 0 0 -4.96081.13488 4.90076 4.90076 0 0 1 -2.75768.73438v-4.706a4.4962 4.4962 0 0 0 2.63778-.65944c1.90339-1.24395 3.62694-1.00415 5.99494.31473a5.78516 5.78516 0 0 0 5.1107-.28475c2.11321-1.169 3.26724-.88426 5.48537.16486a5.39545 5.39545 0 0 0 4.9758 0c2.21813-1.04912 3.43211-1.33388 5.54533-.16486a5.71019 5.71019 0 0 0 5.08071.28475c2.398-1.31889 4.13651-1.49873 5.99495-.31473a4.25636 4.25636 0 0 0 2.63777.65944v4.706a4.81091 4.81091 0 0 1 -2.87757-.71939 4.60112 4.60112 0 0 0 -4.90087-.13489 5.60525 5.60525 0 0 1 -5.83008.14987 4.66106 4.66106 0 0 0 -5.08072-.17984z" /></svg>
