<?xml version="1.0" encoding="utf-8"?>
<svg xmlns="http://www.w3.org/2000/svg" xmlns:xlink="http://www.w3.org/1999/xlink" x="0px" y="0px" role="img" style="enable-background:new 0 0 48 48" version="1.1" viewBox="0 0 48 48" xml:space="preserve">
    <title>
        regular service
    </title>
    <g id="check" transform="translate(163.000000, 80.000000)">
        <path id="Fill-1" fill="#028041" d="M-139-32.2c-13.2,0-23.8-10.7-23.8-23.8c0-13.2,10.7-23.8,23.8-23.8s23.8,10.7,23.8,23.8
		C-115.2-42.9-125.9-32.2-139-32.2z"/>
        <path id="Path-8" fill="#FFFFFF" d="M-156-52.2l13.1,10.9c0.4,0.3,1.1,0.3,1.4-0.1c0,0,0,0,0,0l18.3-23c0.3-0.4,0.3-1.1-0.2-1.4
		c0,0,0,0,0,0l-4.3-3.2c-0.4-0.3-1.1-0.2-1.4,0.2l-13.8,18.1l-8.4-7c-0.4-0.3-1-0.3-1.4,0.1l-3.5,4.1
		C-156.5-53.2-156.4-52.5-156-52.2L-156-52.2z"/>
    </g>
</svg>
