<svg xmlns="http://www.w3.org/2000/svg" role="img" viewBox="0 0 16 16">
    <title>
        subway
    </title>
    <path fill="#fff" d="m7.99993 15.50007a7.50007 7.50007 0 1 1 7.50007-7.50007 7.5 7.5 0 0 1 -7.50007 7.50007"/>
    <g fill="#1c1e23">
        <path d="m6.67 1.41a.56974.56974 0 0 1 .57-.57.58.58 0 1 1 0 1.16h-.02a.57707.57707 0 0 1 -.55-.59z"/>
        <path d="m12.01 9.84v-5.91a1.43829 1.43829 0 0 0 -1.44-1.43h-5.13a1.42971 1.42971 0 0 0 -1.43 1.43v5.9a1.88 1.88 0 0 0 1.53 1.85l-1.54 2.32h1.02l1.26-1.84h3.46l1.26 1.84h1l-1.54-2.32a1.8774 1.8774 0 0 0 1.55-1.84zm-5.01-6.93h2v.84h-2zm-.58 8.3a.77.77 0 1 1 .77-.77.77027.77027 0 0 1 -.77.77zm3.15 0a.77.77 0 1 1 0-1.54.77.77 0 1 1 0 1.54zm1.44-4.71a.52279.52279 0 0 1 -.52.52h-4.96a.51641.51641 0 0 1 -.52-.52v-1.96a.51646.51646 0 0 1 .52-.52h4.96a.52284.52284 0 0 1 .52.52z"/>
        <path d="m8.19 1.41a.57841.57841 0 0 1 .58-.57.56974.56974 0 0 1 .57.57.57438.57438 0 0 1 -.57.59.58266.58266 0 0 1 -.58-.59z"/>
        <path d="m8 .70333a7.29667 7.29667 0 1 1 -7.29667 7.29667 7.29667 7.29667 0 0 1 7.29667-7.29667zm-8 7.29667a8 8 0 1 0 8-8 8 8 0 0 0 -8 8z"/>
    </g>
</svg>
