<svg xmlns="http://www.w3.org/2000/svg" role="img" viewBox="0 0 48 48">
    <title>
        ferry
    </title>
    <path fill="#008eaa" d="m24 0a24 24 0 1 0 24 24 24 24 0 0 0 -24-24"/>
    <path fill="#fff" d="m19.49071 9.54246v2.54682h-2.70389v1.97463l6.86632-2.9956 6.86632 2.9956v-1.97463h-2.71511v-2.54682zm6.40629 24.54822a4.241 4.241 0 0 1 -4.48779 0 3.71364 3.71364 0 0 0 -3.8595.11219 4.19607 4.19607 0 0 1 -4.36437-.11219 3.66878 3.66878 0 0 0 -3.73609 0 4.01661 4.01661 0 0 1 -2.0756.63951v-3.36585a4.3082 4.3082 0 0 0 1.97462-.49365c2.73756-1.61561 4.01658.32536 5.53121.31414v-7.85363l-2.31122-5.66584a1.50341 1.50341 0 0 1 .71774-2.00136q.0607-.02865.12377-.05181l1.41366-.60585v-4.93656h2.659v-2.58048h3.81462v-3.4556h4.71218v3.4556h3.81462v2.58048h2.70389v4.90291l1.41366.60585a1.5034 1.5034 0 0 1 .89327 1.92939q-.02313.063-.05181.12377l-2.32243 5.66584v7.85364c1.50341 0 2.72633-1.96341 5.5312-.34781a4.27458 4.27458 0 0 0 1.97463.50488v3.36584a4.241 4.241 0 0 1 -2.07561-.63951 3.72486 3.72486 0 0 0 -3.73608 0 4.19607 4.19607 0 0 1 -4.36438.11219 3.72489 3.72489 0 0 0 -3.89319-.05609zm0 5.18339a4.63362 4.63362 0 0 1 -4.6 0 3.422 3.422 0 0 0 -3.8034.12342 4.19609 4.19609 0 0 1 -4.36438-.11219 3.50048 3.50048 0 0 0 -3.71365.101 3.66878 3.66878 0 0 1 -2.06438.54975v-3.52294a3.36587 3.36587 0 0 0 1.97463-.49366c1.42487-.93122 2.71511-.7517 4.48779.23561a4.33069 4.33069 0 0 0 3.82584-.21317c1.58195-.87512 2.44585-.66195 4.10633.12342a4.039 4.039 0 0 0 3.72486 0c1.66049-.78537 2.56926-.99854 4.15121-.12342a4.27465 4.27465 0 0 0 3.80341.21317c1.79511-.98731 3.09657-1.12195 4.48779-.23561a3.18637 3.18637 0 0 0 1.97462.49366v3.52289a3.60137 3.60137 0 0 1 -2.15413-.53853 3.44438 3.44438 0 0 0 -3.66877-.101 4.19609 4.19609 0 0 1 -4.36438.1122 3.48927 3.48927 0 0 0 -3.80339-.1346z"/>
</svg>
