<svg viewBox="0 0 24 24" role="img" xmlns="http://www.w3.org/2000/svg">
<title>Green line subway</title>
<path d="M12 0C5.37258 0 0 5.37258 0 12C0 18.6274 5.37258 24 12 24C18.6274 24 24 18.6274 24 12C24 5.37258 18.6274 0 12 0" fill="#00843D"/>
<path fill-rule="evenodd" clip-rule="evenodd" d="M11.0725 2.91106H11.0724L11.0725 2.91126C10.8853 2.91131 10.7057 2.83694 10.5734 2.70453C10.441 2.57213 10.3667 2.39253 10.3668 2.20531C10.3669 1.81561 10.6828 1.49974 11.0725 1.49976C11.4622 1.49977 11.7781 1.81568 11.7781 2.20537C11.7781 2.59507 11.4622 2.911 11.0725 2.91106ZM12.9446 2.91106C13.3343 2.91106 13.6501 2.59517 13.6501 2.20551C13.6501 1.81584 13.3343 1.49996 12.9446 1.49996C12.5549 1.49996 12.239 1.81584 12.239 2.20551C12.239 2.39263 12.3134 2.5721 12.4457 2.70442C12.578 2.83674 12.7575 2.91107 12.9446 2.91106ZM15.7279 17.1055C16.8581 16.8522 17.6642 15.8527 17.6724 14.6944V5.62216C17.645 4.24488 16.5109 3.14803 15.1335 3.16661H8.86685C7.48724 3.14182 6.34724 4.23711 6.31685 5.61661V14.6944C6.32502 15.8526 7.13108 16.8521 8.2613 17.1055L5.3335 21.5H7.0335L9.12795 18.4277H14.9057L17.0001 21.5H18.6668L15.7279 17.1055ZM10.3501 4.11106C10.3591 3.8844 10.5456 3.70533 10.7724 3.70551H13.2501C13.4748 3.70829 13.658 3.88654 13.6668 4.11106V4.83331L13.6665 4.85026C13.6573 5.0802 13.4634 5.25914 13.2335 5.24996L10.7724 5.24441C10.6619 5.2459 10.5553 5.20343 10.4761 5.12633C10.3969 5.04923 10.3516 4.94382 10.3501 4.83331V4.11106ZM7.76799 15.0919C7.93999 15.5071 8.34517 15.7778 8.7946 15.7778C9.40825 15.7777 9.9057 15.2803 9.9057 14.6666C9.9057 14.2172 9.63497 13.812 9.21975 13.64C8.80454 13.4681 8.32661 13.5631 8.00883 13.8809C7.69104 14.1987 7.59599 14.6767 7.76799 15.0919ZM8.93905 9.87216C8.90115 9.87396 8.86315 9.87396 8.82525 9.87216C8.5044 9.85707 8.20268 9.71515 7.98648 9.4776C7.77027 9.24006 7.6573 8.92635 7.6724 8.60551V6.97216C7.65296 6.63014 7.77996 6.296 8.02166 6.05323C8.26337 5.81047 8.59694 5.68201 8.93905 5.69996H15.0501C15.3922 5.68208 15.7258 5.81056 15.9675 6.0533C16.2092 6.29605 16.3362 6.63015 16.3168 6.97216V8.60551C16.3186 8.64341 16.3186 8.68134 16.3168 8.71931C16.3017 9.04015 16.1598 9.34187 15.9222 9.55807C15.6847 9.77428 15.371 9.88726 15.0501 9.87216H8.93905ZM14.0446 14.6583C14.043 15.2739 14.5401 15.7747 15.1557 15.7778H15.1668C15.7825 15.7747 16.2795 15.2739 16.278 14.6583C16.2764 14.0426 15.7769 13.5444 15.1613 13.5444C14.5456 13.5444 14.0461 14.0426 14.0446 14.6583Z" fill="white"/>
</svg>
