<svg role="img" viewBox="0 0 759 740">
  <title>MBTA Bus Illustration - 403 Code</title>
  <defs>
    <path d="M1,148 L1.93782365,136.746116 C1.97925664,136.24892 2,135.750217 2,135.251298 L2,16 L2,16 C2,7.163444 9.163444,0 18,0 L66,0 C74.836556,0 82,7.163444 82,16 L82,135.00173 C82,135.666956 82.0276578,136.331894 82.0829018,136.994822 L83,148 C83.5081754,154.098104 78.9766426,159.453552 72.8785383,159.961727 C72.5724903,159.987231 72.2655142,160 71.9584054,160 L12.0415946,160 C5.92235294,160 0.96172746,155.039375 0.96172746,148.920133 C0.96172746,148.613024 0.974496,148.306048 1,148 Z" id="path-1"></path>
    <path d="M1,146 L1.9542566,132.640408 C1.98474251,132.213605 2,131.785851 2,131.357961 L2,16 L2,16 C2,7.163444 9.163444,0 18,0 L66,0 C74.836556,0 82,7.163444 82,16 L82,131.357961 C82,131.785851 82.0152575,132.213605 82.0457434,132.640408 L83,146 C83.5142429,153.199401 78.0948515,159.452545 70.8954504,159.966788 C70.5855707,159.988922 70.2750003,160 69.9643312,160 L14.0356688,160 C6.81792529,160 0.966788051,154.148863 0.966788051,146.931119 C0.966788051,146.62045 0.977865739,146.30988 1,146 Z" id="path-3"></path>
    <linearGradient x1="50%" y1="0%" x2="50%" y2="100%" id="linearGradient-5">
      <stop stop-color="#FFFFFF" stop-opacity="0.5" offset="0%"></stop>
      <stop stop-color="#CCCCCC" stop-opacity="0.5" offset="100%"></stop>
    </linearGradient>
    <path d="M157.832527,0 L592.167473,0 C598.709946,3.43253039e-14 604.593286,3.98321511 607.0231,10.0577492 L614.427814,28.5695338 C614.805798,29.514496 615,30.5229038 615,31.5406592 L615,60 L615,60 L135,60 L135,31.5406592 C135,30.5229038 135.194202,29.514496 135.572186,28.5695338 L142.9769,10.0577492 C145.406714,3.98321511 151.290054,1.20183287e-15 157.832527,0 Z" id="path-6"></path>
    <path d="M27.1394615,28.2811851 C127.116406,9.4270617 224.736586,0 320,0 C415.263414,0 512.883593,9.42706167 612.860538,28.281185 C624.013697,30.3845002 632.168696,40.0130806 632.407586,51.3603196 L640,412 L640,412 L640,571.261366 C640,571.751937 639.939836,572.240656 639.820855,572.71658 L636,588 L636,588 L4,588 L0.179144999,572.71658 C0.0601640934,572.240656 -3.63204896e-13,571.751937 0,571.261366 L0,412 L0,412 L7.5924143,51.3603208 C7.83130239,40.0130813 15.9863017,30.3845005 27.1394615,28.2811851 Z" id="path-7"></path>
    <path d="M320,-3 C224.546871,-3 126.740822,6.44501088 26.5835071,25.3331494 C14.036202,27.6993793 4.86182799,38.5315329 4.59307889,51.2971772 L-3,411.936856 L-3,571.261366 C-3,571.997223 -2.90975386,572.730301 -2.7312825,573.444187 L1.65767078,591 L638.342329,591 L642.731283,573.444187 C642.909754,572.730301 643,571.997223 643,571.261366 L643,412 L635.406921,51.2971757 C635.138171,38.5315318 625.963797,27.6993789 613.416493,25.3331493 C513.259177,6.44501085 415.453129,-3 320,-3 Z M320,0 C415.263414,0 512.883593,9.42706167 612.860538,28.281185 C624.013697,30.3845002 632.168696,40.0130806 632.407586,51.3603196 L640,412 L640,571.261366 C640,571.751937 639.939836,572.240656 639.820855,572.71658 L636,588 L4,588 L0.179144999,572.71658 C0.0601640934,572.240656 0,571.751937 0,571.261366 L0,412 L7.5924143,51.3603208 C7.83130239,40.0130813 15.9863017,30.3845005 27.1394615,28.2811851 C127.116406,9.4270617 224.736586,0 320,0 Z" id="path-9"></path>
    <linearGradient x1="50%" y1="0.452191661%" x2="50%" y2="99.1247445%" id="linearGradient-11">
      <stop stop-color="#333333" offset="0%"></stop>
      <stop stop-color="#CCCCCC" offset="100%"></stop>
    </linearGradient>
    <linearGradient x1="50%" y1="0%" x2="50%" y2="100%" id="linearGradient-12">
      <stop stop-color="#FF8800" offset="0%"></stop>
      <stop stop-color="#FF8800" stop-opacity="0" offset="100%"></stop>
    </linearGradient>
    <linearGradient x1="50%" y1="0%" x2="50%" y2="100%" id="linearGradient-13">
      <stop stop-color="#FFFFFF" offset="0%"></stop>
      <stop stop-color="#FFFFFF" stop-opacity="0" offset="100%"></stop>
    </linearGradient>
    <linearGradient x1="50%" y1="0%" x2="50%" y2="99.1247445%" id="linearGradient-14">
      <stop stop-color="#333333" offset="0%"></stop>
      <stop stop-color="#CCCCCC" offset="100%"></stop>
    </linearGradient>
    <path d="M541,551 L623,551 C625.209139,551 627,552.790861 627,555 L627,585 L627,585 L537,585 L537,555 C537,552.790861 538.790861,551 541,551 Z" id="path-15"></path>
    <linearGradient x1="50%" y1="0%" x2="50%" y2="99.1247445%" id="linearGradient-16">
      <stop stop-color="#333333" offset="0%"></stop>
      <stop stop-color="#CCCCCC" offset="100%"></stop>
    </linearGradient>
    <path d="M127,551 L209,551 C211.209139,551 213,552.790861 213,555 L213,585 L213,585 L123,585 L123,555 C123,552.790861 124.790861,551 127,551 Z" id="path-17"></path>
    <rect id="path-18" x="544" y="493" width="76" height="38" rx="4"></rect>
    <filter x="-3.9%" y="-2.6%" width="105.3%" height="110.5%" filterUnits="objectBoundingBox" id="filter-19">
      <feMorphology radius="0.5" operator="dilate" in="SourceAlpha" result="shadowSpreadOuter1"></feMorphology>
      <feOffset dx="-1" dy="1" in="shadowSpreadOuter1" result="shadowOffsetOuter1"></feOffset>
      <feColorMatrix values="0 0 0 0 0.850980392   0 0 0 0 0.850980392   0 0 0 0 0.850980392  0 0 0 1 0" type="matrix" in="shadowOffsetOuter1"></feColorMatrix>
    </filter>
    <linearGradient x1="50%" y1="0%" x2="50%" y2="100%" id="linearGradient-20">
      <stop stop-color="#000000" stop-opacity="0" offset="0%"></stop>
      <stop stop-color="#666666" offset="100%"></stop>
    </linearGradient>
    <path d="M303.413129,0 C306.726838,-6.08718376e-16 309.413129,2.6862915 309.413129,6 L309.413129,270 C309.413129,273.313708 306.726838,276 303.413129,276 L32,276 C14.326888,276 2.10942375e-15,261.673112 0,244 C0,243.806158 0.0017613163,243.61232 0.00528373079,243.41851 L3.71553803,39.2731372 C4.11182447,17.4686901 21.9008853,1.11115008e-14 43.7089334,0 L303.413129,0 Z M579.117325,0 C600.925373,1.73102086e-14 618.714434,17.4686901 619.11072,39.2731372 L622.820975,243.41851 C623.142123,261.088704 609.077942,275.673568 591.407749,275.994716 C591.213938,275.998239 591.0201,276 590.826258,276 L319.413129,276 C316.099421,276 313.413129,273.313708 313.413129,270 L313.413129,6 C313.413129,2.6862915 316.099421,6.08718376e-16 319.413129,0 L579.117325,0 Z" id="path-21"></path>
    <filter x="-1.2%" y="-0.9%" width="102.4%" height="101.9%" filterUnits="objectBoundingBox" id="filter-23">
      <feGaussianBlur stdDeviation="1" in="SourceGraphic"></feGaussianBlur>
    </filter>
    <filter x="-1.2%" y="-0.9%" width="102.4%" height="101.9%" filterUnits="objectBoundingBox" id="filter-24">
      <feGaussianBlur stdDeviation="1" in="SourceGraphic"></feGaussianBlur>
    </filter>
    <filter x="-2.3%" y="-3.5%" width="104.7%" height="107.0%" filterUnits="objectBoundingBox" id="filter-25">
      <feGaussianBlur stdDeviation="1" in="SourceGraphic"></feGaussianBlur>
    </filter>
    <filter x="-2.1%" y="-1.7%" width="104.3%" height="103.3%" filterUnits="objectBoundingBox" id="filter-26">
      <feGaussianBlur stdDeviation="1" in="SourceGraphic"></feGaussianBlur>
    </filter>
    <filter x="-8.3%" y="-7.0%" width="116.7%" height="114.0%" filterUnits="objectBoundingBox" id="filter-27">
      <feGaussianBlur stdDeviation="1" in="SourceGraphic"></feGaussianBlur>
    </filter>
    <filter x="-1.4%" y="-7.5%" width="102.8%" height="115.0%" filterUnits="objectBoundingBox" id="filter-28">
      <feGaussianBlur stdDeviation="1" in="SourceGraphic"></feGaussianBlur>
    </filter>
    <linearGradient x1="0%" y1="4.85466926%" x2="50%" y2="50%" id="linearGradient-29">
      <stop stop-color="#FFFFFF" offset="0%"></stop>
      <stop stop-color="#FFFFFF" stop-opacity="0" offset="100%"></stop>
    </linearGradient>
    <linearGradient x1="100%" y1="4.85467582%" x2="50%" y2="50%" id="linearGradient-30">
      <stop stop-color="#FFFFFF" offset="0%"></stop>
      <stop stop-color="#FFFFFF" stop-opacity="0" offset="100%"></stop>
    </linearGradient>
    <linearGradient x1="50%" y1="28.481268%" x2="78.1118117%" y2="75.134278%" id="linearGradient-31">
      <stop stop-color="#FFFFFF" stop-opacity="0" offset="0%"></stop>
      <stop stop-color="#FFFFFF" offset="100%"></stop>
    </linearGradient>
    <linearGradient x1="0%" y1="40.1551886%" x2="19.9601839%" y2="59.8448114%" id="linearGradient-32">
      <stop stop-color="#FFFFFF" stop-opacity="0" offset="0%"></stop>
      <stop stop-color="#FFFFFF" offset="100%"></stop>
    </linearGradient>
    <linearGradient x1="50%" y1="1.20764959%" x2="50%" y2="99.1247445%" id="linearGradient-33">
      <stop stop-color="#4D4D4D" offset="0%"></stop>
      <stop stop-color="#1A1A1A" offset="100%"></stop>
    </linearGradient>
    <linearGradient x1="50%" y1="0%" x2="50%" y2="100%" id="linearGradient-34">
      <stop stop-color="#FFCC00" offset="0%"></stop>
      <stop stop-color="#FFCC00" stop-opacity="0" offset="100%"></stop>
    </linearGradient>
    <rect id="path-35" x="660.931083" y="82" width="16" height="36" rx="3"></rect>
    <rect id="path-36" x="73.0710835" y="82" width="16" height="36" rx="3"></rect>
    <linearGradient x1="50%" y1="0%" x2="50%" y2="100%" id="linearGradient-37">
      <stop stop-color="#FFCC00" offset="0%"></stop>
      <stop stop-color="#FFCC00" stop-opacity="0" offset="100%"></stop>
    </linearGradient>
    <path d="M412,36 L432.514719,36 C437.947753,36 443.158265,38.1582645 447,42 L447.87868,42.8786797 C449.050253,44.0502525 449.050253,45.9497475 447.87868,47.1213203 C447.316071,47.6839295 446.553009,48 445.757359,48 L412,48 C410.343146,48 409,46.6568542 409,45 L409,39 C409,37.3431458 410.343146,36 412,36 Z" id="path-38"></path>
    <linearGradient x1="50%" y1="0%" x2="50%" y2="100%" id="linearGradient-39">
      <stop stop-color="#FFCC00" offset="0%"></stop>
      <stop stop-color="#FFCC00" stop-opacity="0" offset="100%"></stop>
    </linearGradient>
    <path d="M360,36 L390,36 C391.656854,36 393,37.3431458 393,39 L393,45 C393,46.6568542 391.656854,48 390,48 L360,48 C358.343146,48 357,46.6568542 357,45 L357,39 C357,37.3431458 358.343146,36 360,36 Z" id="path-40"></path>
    <path d="M317.485281,36 L338,36 C339.656854,36 341,37.3431458 341,39 L341,45 C341,46.6568542 339.656854,48 338,48 L304.242641,48 C302.585786,48 301.242641,46.6568542 301.242641,45 C301.242641,44.2043505 301.558711,43.4412888 302.12132,42.8786797 L303,42 C306.841735,38.1582645 312.052247,36 317.485281,36 Z" id="path-41"></path>
    <linearGradient x1="50%" y1="0%" x2="50%" y2="100%" id="linearGradient-42">
      <stop stop-color="#000000" stop-opacity="0" offset="0%"></stop>
      <stop stop-color="#333333" offset="100%"></stop>
    </linearGradient>
    <path d="M117.033592,63.2145345 C205.149742,58.4048448 291.471878,56 376,56 C460.467898,56 546.126901,58.4014193 632.977007,63.204258 C640.998894,63.6478706 647.447868,69.9715668 648.048741,77.9832097 L651.710252,126.803361 C652.371138,135.615168 645.76351,143.294303 636.951702,143.955189 C636.553521,143.985053 636.154362,144 635.755063,144 L114.244937,144 C105.408381,144 98.2449369,136.836556 98.2449369,128 C98.2449369,127.600701 98.2598844,127.201542 98.2897479,126.803361 L101.950441,77.9941153 C102.551638,69.9781315 109.007043,63.6526518 117.033592,63.2145345 Z" id="path-43"></path>
    <linearGradient x1="50%" y1="10.7142857%" x2="50%" y2="100%" id="linearGradient-45">
      <stop stop-color="#408040" offset="0%"></stop>
      <stop stop-color="#408040" stop-opacity="0" offset="100%"></stop>
    </linearGradient>
    <linearGradient x1="50%" y1="1.20764959%" x2="50%" y2="99.1247445%" id="linearGradient-46">
      <stop stop-color="#4D4D4D" offset="0%"></stop>
      <stop stop-color="#1A1A1A" offset="100%"></stop>
    </linearGradient>
  </defs>
  <g id="error-bus--403" stroke="none" stroke-width="1" fill="none" fill-rule="evenodd">
    <g id="Tire" transform="translate(605.000000, 580.000000)">
      <mask id="mask-2" fill="white">
        <use xlink:href="#path-1"></use>
      </mask>
      <use fill="#262626" xlink:href="#path-1"></use>
      <polygon id="Bumper-shadow" fill="#141414" mask="url(#mask-2)" transform="translate(40.500000, 120.000000) scale(1, -1) translate(-40.500000, -120.000000) " points="-1 100 82 120 82 140 -1 140"></polygon>
    </g>
    <g id="Tire" transform="translate(61.000000, 580.000000)">
      <mask id="mask-4" fill="white">
        <use xlink:href="#path-3"></use>
      </mask>
      <use fill="#262626" xlink:href="#path-3"></use>
      <rect id="Bumper-shadow" fill="#141414" mask="url(#mask-4)" transform="translate(42.000000, 118.000000) scale(1, -1) translate(-42.000000, -118.000000) " x="0" y="96" width="84" height="44"></rect>
    </g>
    <g id="Roof">
      <use fill="#CCCCCC" xlink:href="#path-6"></use>
      <use fill="url(#linearGradient-5)" xlink:href="#path-6"></use>
    </g>
    <polygon id="Rectangle" fill="#333333" points="705 430 720 411 732 411 711 440"></polygon>
    <rect id="Rectangle" fill="#000000" x="440" y="222" width="6" height="160"></rect>
    <path d="M709.460179,334.496937 L748.980019,337.536925 C752.596935,337.81515 755.573936,340.492248 756.233218,344.059437 C758.077739,354.039625 759,364.019812 759,374 C759,383.980186 758.07774,393.960372 756.233219,403.940558 C755.573942,407.507751 752.596938,410.184851 748.980019,410.463075 L709.460179,413.503063 C706.156231,413.757213 703.271823,411.284863 703.017673,407.980915 C703.005895,407.827805 703,407.674299 703,407.520736 L703,340.479264 C703,337.165555 705.686292,334.479264 709,334.479264 C709.153563,334.479264 709.307069,334.485159 709.460179,334.496937 Z" id="Rectangle" fill="#333333"></path>
    <rect id="Rectangle" fill="#333333" x="690" y="434" width="12" height="12"></rect>
    <rect id="Rectangle" fill="#333333" x="699" y="430" width="12" height="20" rx="3"></rect>
    <polygon id="Rectangle" fill="#333333" points="49 145 34 156 22 156 43 135"></polygon>
    <path d="M7.4296633,153.461617 L39.5751443,155.769498 C43.1997303,156.029724 46.1935985,158.700197 46.8646676,162.271612 C48.2882225,169.847741 49,177.423871 49,185 C49,192.576127 48.288223,200.152254 46.8646689,207.728381 C46.1936053,211.2998 43.199735,213.970275 39.5751464,214.230502 L7.4296633,216.538383 C4.12446219,216.77568 1.25270048,214.288652 1.01540399,210.98345 C1.00513796,210.840459 1,210.697146 1,210.553787 L1,159.446213 C1,156.132504 3.6862915,153.446213 7,153.446213 C7.14335913,153.446213 7.28667222,153.451351 7.4296633,153.461617 Z" id="Rectangle" fill="#333333" transform="translate(25.000000, 185.000000) scale(-1, 1) rotate(-2.000000) translate(-25.000000, -185.000000) "></path>
    <polygon id="Rectangle" fill="#333333" points="64 141 52 141 52 129 64 129"></polygon>
    <rect id="Rectangle" fill="#333333" x="43" y="125" width="12" height="20" rx="3"></rect>
    <g id="Body" transform="translate(55.000000, 28.000000)">
      <mask id="mask-8" fill="white">
        <use xlink:href="#path-7"></use>
      </mask>
      <use fill="#FFFFFF" xlink:href="#path-7"></use>
      <mask id="mask-10" fill="white">
        <use xlink:href="#path-9"></use>
      </mask>
      <use id="Body-border" fill="#CCCCCC" fill-rule="nonzero" xlink:href="#path-9"></use>
      <rect id="Bumper-shadow" fill="#CCCCCC" style="mix-blend-mode: multiply;" mask="url(#mask-10)" transform="translate(320.000000, 568.000000) scale(1, -1) translate(-320.000000, -568.000000) " x="0" y="556" width="640" height="24"></rect>
      <rect id="Bumper-shadow" fill="#CCCCCC" style="mix-blend-mode: multiply;" mask="url(#mask-10)" transform="translate(320.000000, 576.000000) scale(1, -1) translate(-320.000000, -576.000000) " x="0" y="572" width="640" height="8"></rect>
      <path d="M320,-1 C415.263414,-1 512.883593,8.42706167 612.860538,27.281185 C624.013697,29.3845002 632.168696,39.0130806 632.407586,50.3603196 L633.420392,98.4951268 C633.699226,111.747028 623.182477,122.715855 609.930576,122.994689 C609.762308,122.99823 609.594008,123 609.425703,123 L30.5736344,123 C17.3188004,123 6.57363439,112.254834 6.57363439,99 C6.57363439,98.8315849 6.57540712,98.6631744 6.57895228,98.4947966 L7.5924143,50.3603208 L7.5924143,50.3603208 C7.83130239,39.0130813 15.9863017,29.3845005 27.1394615,27.2811851 C127.116406,8.4270617 224.736586,-1 320,-1 Z" id="Headsign-shade" fill="#FFFFFF" mask="url(#mask-10)"></path>
      <path d="M320,-6 C224.420395,-6 126.490433,3.456977 26.2128708,22.3677922 C12.7361357,24.9092984 2.88217839,36.5438339 2.59352195,50.2550815 L1.58006018,98.3895459 C1.57363439,98.5930024 1.57363439,98.7964984 1.57363439,99 C1.57363439,115.016258 14.5573766,128 30.5736344,128 L609.425703,128 C609.629072,128 609.832434,127.997861 610.035758,127.993583 C626.048472,127.656658 638.75621,114.402658 638.419286,98.3899449 L637.406479,50.2551377 C637.11782,36.5438327 627.263863,24.909298 613.787129,22.3677921 C513.509567,3.45697698 415.579605,-6 320,-6 Z M320,-1 C415.263414,-1 512.883593,8.42706167 612.860538,27.281185 C624.013697,29.3845002 632.168696,39.0130806 632.407586,50.3603196 L633.425811,98.4951268 C633.699226,111.747028 623.182477,122.715855 609.930576,122.994689 L609.425703,123 L30.5736344,123 C17.3188004,123 6.57363439,112.254834 6.57363439,99 L6.57363439,98.7473843 L7.5924143,50.3603208 C7.83130239,39.0130813 15.9863017,29.3845005 27.1394615,27.2811851 C127.116406,8.4270617 224.736586,-1 320,-1 Z" id="Headsign-shade-border" fill="#CCCCCC" fill-rule="nonzero" mask="url(#mask-10)"></path>
    </g>
    <rect id="Rectangle" fill="#2682BF" x="55" y="460" width="640" height="12"></rect>
    <rect id="Rectangle" fill="#FFC72C" x="55" y="472" width="640" height="80"></rect>
    <rect id="Rectangle" fill="#262626" transform="translate(375.000000, 568.000000) scale(1, -1) translate(-375.000000, -568.000000) " x="55" y="552" width="640" height="32"></rect>
    <circle id="fill" fill="#FFFFFF" cx="375" cy="512" r="30.592"></circle>
    <path d="M375,480 C392.673112,480 407,494.326888 407,512 C407,529.673112 392.673112,544 375,544 C357.326888,544 343,529.673112 343,512 C343,494.326888 357.326888,480 375,480 Z M375,482.816 C358.882122,482.816 345.816,495.882122 345.816,512 C345.816,528.117878 358.882122,541.184 375,541.184 C391.117878,541.184 404.184,528.117878 404.184,512 C404.184,495.882122 391.117878,482.816 375,482.816 Z M395.224,497.728 L395.224,507.904 L380.088,507.904 L380.088,532.8 L369.912,532.8 L369.912,507.904 L354.776,507.904 L354.776,497.728 L395.224,497.728 Z" id="T" fill="#000000"></path>
    <path d="M151.168,523.356 C152.157333,523.356 153.086,523.188 153.954,522.852 C154.822,522.516 155.587333,521.956 156.25,521.172 C156.912667,520.388 157.435333,519.338 157.818,518.022 C158.200667,516.706 158.392,515.068 158.392,513.108 C158.392,511.204 158.200667,509.603333 157.818,508.306 C157.435333,507.008667 156.912667,505.968 156.25,505.184 C155.587333,504.4 154.822,503.84 153.954,503.504 C153.086,503.168 152.157333,503 151.168,503 C150.197333,503 149.278,503.168 148.41,503.504 C147.542,503.84 146.781333,504.4 146.128,505.184 C145.474667,505.968 144.956667,507.008667 144.574,508.306 C144.191333,509.603333 144,511.204 144,513.108 C144,515.068 144.191333,516.706 144.574,518.022 C144.956667,519.338 145.474667,520.388 146.128,521.172 C146.781333,521.956 147.542,522.516 148.41,522.852 C149.278,523.188 150.197333,523.356 151.168,523.356 Z M151.168,520.108 C150.365333,520.108 149.749333,519.846667 149.32,519.324 C148.890667,518.801333 148.578,518.171333 148.382,517.434 C148.186,516.696667 148.069333,515.931333 148.032,515.138 C147.994667,514.344667 147.976,513.668 147.976,513.108 C147.976,512.772 147.980667,512.366 147.99,511.89 C147.999333,511.414 148.032,510.924 148.088,510.42 C148.144,509.916 148.237333,509.416667 148.368,508.922 C148.498667,508.427333 148.680667,507.984 148.914,507.592 C149.147333,507.2 149.446,506.882667 149.81,506.64 C150.174,506.397333 150.626667,506.276 151.168,506.276 C151.709333,506.276 152.166667,506.397333 152.54,506.64 C152.913333,506.882667 153.221333,507.2 153.464,507.592 C153.706667,507.984 153.888667,508.427333 154.01,508.922 C154.131333,509.416667 154.224667,509.916 154.29,510.42 C154.355333,510.924 154.392667,511.414 154.402,511.89 C154.411333,512.366 154.416,512.772 154.416,513.108 C154.416,513.668 154.397333,514.344667 154.36,515.138 C154.322667,515.931333 154.206,516.696667 154.01,517.434 C153.814,518.171333 153.496667,518.801333 153.058,519.324 C152.619333,519.846667 151.989333,520.108 151.168,520.108 Z M172.496,522.992 L172.496,518.456 L175.1,518.456 L175.1,515.18 L172.496,515.18 L172.496,503.392 L168.94,503.392 L160.428,514.816 L160.428,518.456 L168.716,518.456 L168.716,522.992 L172.496,522.992 Z M168.716,515.18 L163.564,515.18 L168.632,508.376 L168.716,508.376 L168.716,515.18 Z M184.304,523.356 C185.293333,523.356 186.222,523.188 187.09,522.852 C187.958,522.516 188.723333,521.956 189.386,521.172 C190.048667,520.388 190.571333,519.338 190.954,518.022 C191.336667,516.706 191.528,515.068 191.528,513.108 C191.528,511.204 191.336667,509.603333 190.954,508.306 C190.571333,507.008667 190.048667,505.968 189.386,505.184 C188.723333,504.4 187.958,503.84 187.09,503.504 C186.222,503.168 185.293333,503 184.304,503 C183.333333,503 182.414,503.168 181.546,503.504 C180.678,503.84 179.917333,504.4 179.264,505.184 C178.610667,505.968 178.092667,507.008667 177.71,508.306 C177.327333,509.603333 177.136,511.204 177.136,513.108 C177.136,515.068 177.327333,516.706 177.71,518.022 C178.092667,519.338 178.610667,520.388 179.264,521.172 C179.917333,521.956 180.678,522.516 181.546,522.852 C182.414,523.188 183.333333,523.356 184.304,523.356 Z M184.304,520.108 C183.501333,520.108 182.885333,519.846667 182.456,519.324 C182.026667,518.801333 181.714,518.171333 181.518,517.434 C181.322,516.696667 181.205333,515.931333 181.168,515.138 C181.130667,514.344667 181.112,513.668 181.112,513.108 C181.112,512.772 181.116667,512.366 181.126,511.89 C181.135333,511.414 181.168,510.924 181.224,510.42 C181.28,509.916 181.373333,509.416667 181.504,508.922 C181.634667,508.427333 181.816667,507.984 182.05,507.592 C182.283333,507.2 182.582,506.882667 182.946,506.64 C183.31,506.397333 183.762667,506.276 184.304,506.276 C184.845333,506.276 185.302667,506.397333 185.676,506.64 C186.049333,506.882667 186.357333,507.2 186.6,507.592 C186.842667,507.984 187.024667,508.427333 187.146,508.922 C187.267333,509.416667 187.360667,509.916 187.426,510.42 C187.491333,510.924 187.528667,511.414 187.538,511.89 C187.547333,512.366 187.552,512.772 187.552,513.108 C187.552,513.668 187.533333,514.344667 187.496,515.138 C187.458667,515.931333 187.342,516.696667 187.146,517.434 C186.95,518.171333 186.632667,518.801333 186.194,519.324 C185.755333,519.846667 185.125333,520.108 184.304,520.108 Z M200.9,523.356 C201.852,523.356 202.766667,523.216 203.644,522.936 C204.521333,522.656 205.296,522.245333 205.968,521.704 C206.64,521.162667 207.176667,520.490667 207.578,519.688 C207.979333,518.885333 208.18,517.970667 208.18,516.944 C208.18,515.824 207.872,514.862667 207.256,514.06 C206.64,513.257333 205.790667,512.734667 204.708,512.492 L204.708,512.436 C205.622667,512.174667 206.308667,511.68 206.766,510.952 C207.223333,510.224 207.452,509.384 207.452,508.432 C207.452,507.554667 207.256,506.78 206.864,506.108 C206.472,505.436 205.963333,504.866667 205.338,504.4 C204.712667,503.933333 204.008,503.583333 203.224,503.35 C202.44,503.116667 201.656,503 200.872,503 C199.864,503 198.949333,503.163333 198.128,503.49 C197.306667,503.816667 196.602,504.278667 196.014,504.876 C195.426,505.473333 194.968667,506.187333 194.642,507.018 C194.315333,507.848667 194.133333,508.768 194.096,509.776 L197.876,509.776 C197.857333,508.768 198.104667,507.932667 198.618,507.27 C199.131333,506.607333 199.892,506.276 200.9,506.276 C201.628,506.276 202.272,506.5 202.832,506.948 C203.392,507.396 203.672,508.04 203.672,508.88 C203.672,509.44 203.536667,509.888 203.266,510.224 C202.995333,510.56 202.65,510.816667 202.23,510.994 C201.81,511.171333 201.357333,511.278667 200.872,511.316 C200.386667,511.353333 199.929333,511.353333 199.5,511.316 L199.5,514.116 C199.985333,514.116 200.494,514.13 201.026,514.158 C201.558,514.186 202.048,514.288667 202.496,514.466 C202.944,514.643333 203.312667,514.928 203.602,515.32 C203.891333,515.712 204.036,516.281333 204.036,517.028 C204.036,517.98 203.728,518.731333 203.112,519.282 C202.496,519.832667 201.74,520.108 200.844,520.108 C200.265333,520.108 199.766,520.005333 199.346,519.8 C198.926,519.594667 198.576,519.319333 198.296,518.974 C198.016,518.628667 197.801333,518.218 197.652,517.742 C197.502667,517.266 197.418667,516.766667 197.4,516.244 L193.62,516.244 C193.601333,517.382667 193.764667,518.390667 194.11,519.268 C194.455333,520.145333 194.945333,520.887333 195.58,521.494 C196.214667,522.100667 196.984667,522.562667 197.89,522.88 C198.795333,523.197333 199.798667,523.356 200.9,523.356 Z" id="0403" fill="#262626" fill-rule="nonzero"></path>
    <path d="M55,537 L213.058875,537 C219.42407,537 225.528564,539.528564 230.029437,544.029437 L247.970563,561.970563 C252.471436,566.471436 258.57593,569 264.941125,569 L491,569 C498.554175,569 505.667495,565.44334 510.2,559.4 L519.8,546.6 C524.332505,540.55666 531.445825,537 539,537 L695,537 L695,537 L695,584 L55,584 L55,537 Z" id="Rectangle" fill="#CCCCCC" style="mix-blend-mode: multiply;"></path>
        
    <!-- Blinker off -->
    <rect id="Right-Bottom-Blinker" fill="#1c1e23" x="639" y="547" width="46" height="30" rx="4"></rect>
    <path d="M681,544 L643,544 C639.134007,544 636,547.134007 636,551 L636,573 C636,576.865993 639.134007,580 643,580 L681,580 C684.865993,580 688,576.865993 688,573 L688,551 C688,547.134007 684.865993,544 681,544 Z M681,547 C683.209139,547 685,548.790861 685,551 L685,573 C685,575.209139 683.209139,577 681,577 L643,577 C640.790861,577 639,575.209139 639,573 L639,551 C639,548.790861 640.790861,547 643,547 L681,547 Z" id="Right-Bottom-Blinker-border" fill="url(#linearGradient-11)" fill-rule="nonzero"></path>
    <rect id="LIGHT---Blinker-reflection" fill="url(#linearGradient-15)" style="mix-blend-mode: screen;" x="642" y="550" width="40" height="24" rx="2"></rect>
    <rect id="Left-Bottom-Blinker" fill="#1c1e23" x="65" y="547" width="46" height="30" rx="4"></rect>
    <path d="M107,544 L69,544 C65.1340068,544 62,547.134007 62,551 L62,573 C62,576.865993 65.1340068,580 69,580 L107,580 C110.865993,580 114,576.865993 114,573 L114,551 C114,547.134007 110.865993,544 107,544 Z M107,547 C109.209139,547 111,548.790861 111,551 L111,573 C111,575.209139 109.209139,577 107,577 L69,577 C66.790861,577 65,575.209139 65,573 L65,551 C65,548.790861 66.790861,547 69,547 L107,547 Z" id="Left-Bottom-Blinker-border" fill="url(#linearGradient-11)" fill-rule="nonzero"></path>
    <rect id="LIGHT---Blinker-reflection" fill="url(#linearGradient-15)" style="mix-blend-mode: screen;" x="68" y="550" width="40" height="24" rx="2"></rect>    
    <!-- Blinker on -->
    <rect id="Right-Bottom-Blinker--ON" fill="#FF8800" x="639" y="547" width="46" height="30" rx="4"></rect>
    <path d="M681,544 L643,544 C639.134007,544 636,547.134007 636,551 L636,573 C636,576.865993 639.134007,580 643,580 L681,580 C684.865993,580 688,576.865993 688,573 L688,551 C688,547.134007 684.865993,544 681,544 Z M681,547 C683.209139,547 685,548.790861 685,551 L685,573 C685,575.209139 683.209139,577 681,577 L643,577 C640.790861,577 639,575.209139 639,573 L639,551 C639,548.790861 640.790861,547 643,547 L681,547 Z" id="Right-Bottom-Blinker-border" fill="url(#linearGradient-11)" fill-rule="nonzero"></path>
    <rect id="Right-Bottom-Blinker-Reflection--ON" fill="url(#linearGradient-12)" style="mix-blend-mode: screen;" x="642" y="550" width="40" height="24" rx="2"></rect>
    <rect id="Left-Bottom-Blinker--ON" fill="#FF8800" x="65" y="547" width="46" height="30" rx="4"></rect>
    <path d="M107,544 L69,544 C65.1340068,544 62,547.134007 62,551 L62,573 C62,576.865993 65.1340068,580 69,580 L107,580 C110.865993,580 114,576.865993 114,573 L114,551 C114,547.134007 110.865993,544 107,544 Z M107,547 C109.209139,547 111,548.790861 111,551 L111,573 C111,575.209139 109.209139,577 107,577 L69,577 C66.790861,577 65,575.209139 65,573 L65,551 C65,548.790861 66.790861,547 69,547 L107,547 Z" id="Left-Bottom-Blinker-border" fill="url(#linearGradient-11)" fill-rule="nonzero"></path>
    <rect id="Left-Bottom-Blinker-Reflection--ON" fill="url(#linearGradient-12)" style="mix-blend-mode: screen;" x="68" y="550" width="40" height="24" rx="2"></rect>
    
    <g id="Right-Headlight">
      <use fill="#CCCCCC" xlink:href="#path-15"></use>
      <path stroke="url(#linearGradient-14)" stroke-width="3" d="M623,549.5 C624.518783,549.5 625.893783,550.115608 626.889087,551.110913 C627.884392,552.106217 628.5,553.481217 628.5,555 L628.5,555 L628.5,586.5 L535.5,586.5 L535.5,555 C535.5,553.481217 536.115608,552.106217 537.110913,551.110913 C538.106217,550.115608 539.481217,549.5 541,549.5 L541,549.5 Z" fill="url(#linearGradient-13)"></path>
    </g>
    <path d="M623,548 L541,548 C537.134007,548 534,551.134007 534,555 L534,588 L630,588 L630,555 C630,551.134007 626.865993,548 623,548 Z M623,551 C625.209139,551 627,552.790861 627,555 L627,585 L537,585 L537,555 C537,552.790861 538.790861,551 541,551 L623,551 Z" id="Right-Headlight-border" fill="url(#linearGradient-16)" fill-rule="nonzero"></path>
    <rect id="Reflection" fill="#D8D8D8" style="mix-blend-mode: screen;" x="584" y="554" width="40" height="30" rx="2"></rect>
    <rect id="Reflection" fill="#D8D8D8" style="mix-blend-mode: screen;" x="540" y="554" width="40" height="30" rx="2"></rect>
    <g id="Left-Headlight">
      <use fill="#CCCCCC" xlink:href="#path-17"></use>
      <use fill="url(#linearGradient-13)" xlink:href="#path-17"></use>
    </g>
    <path d="M209,548 L127,548 C123.134007,548 120,551.134007 120,555 L120,588 L216,588 L216,555 C216,551.134007 212.865993,548 209,548 Z M209,551 C211.209139,551 213,552.790861 213,555 L213,585 L123,585 L123,555 C123,552.790861 124.790861,551 127,551 L209,551 Z" id="Left-Headlight-border" fill="url(#linearGradient-16)" fill-rule="nonzero"></path>
    <rect id="Reflection" fill="#D8D8D8" style="mix-blend-mode: screen;" x="170" y="554" width="40" height="30" rx="2"></rect>
    <rect id="Reflection" fill="#D8D8D8" style="mix-blend-mode: screen;" x="126" y="554" width="40" height="30" rx="2"></rect>
    <path d="M57.3390781,644 L692.660922,644 C695.97463,644 698.660922,646.686292 698.660922,650 C698.660922,651.044162 698.38843,652.070247 697.870381,652.976834 L672.727524,696.976834 C671.659267,698.846284 669.671206,700 667.518065,700 L82.4819352,700 C80.3287941,700 78.3407335,698.846284 77.2724764,696.976834 L52.1296192,652.976834 C50.4855594,650.099729 51.4851398,646.434601 54.3622444,644.790541 C55.2688306,644.272492 56.2949164,644 57.3390781,644 Z" id="Undercarriage" fill="#000000"></path>
    <rect id="Bumper" fill="#262626" x="47" y="608" width="656" height="72" rx="6"></rect>
    <rect id="Bumper-groove" fill="#000000" x="59" y="654" width="632" height="6" rx="3"></rect>
    <rect id="Bumper-groove" fill="#000000" x="59" y="628" width="632" height="6" rx="3"></rect>
    <g id="Plate">
      <use fill="black" fill-opacity="1" filter="url(#filter-19)" xlink:href="#path-18"></use>
      <use fill="#E6E6E6" fill-rule="evenodd" xlink:href="#path-18"></use>
    </g>
    <path d="M579.72,520.668 L579.72,504.652 L582.788,504.652 L582.788,502.156 L574,502.156 L574,504.652 L577.068,504.652 L577.068,520.668 L579.72,520.668 Z M590.874,520.668 L590.874,517.912 L592.148,517.912 L592.148,515.416 L590.874,515.416 L590.874,510.138 L588.222,510.138 L588.222,515.416 L585.596,515.416 L589.574,502.156 L586.766,502.156 L582.944,515.416 L582.944,517.912 L588.222,517.912 L588.222,520.668 L590.874,520.668 Z M597.218,520.824 C597.738,520.824 598.236333,520.733 598.713,520.551 C599.189667,520.369 599.61,520.104667 599.974,519.758 C600.338,519.411333 600.628333,518.995333 600.845,518.51 C601.061667,518.024667 601.17,517.47 601.17,516.846 L601.17,516.846 L601.17,505.978 C601.17,505.354 601.061667,504.799333 600.845,504.314 C600.628333,503.828667 600.338,503.412667 599.974,503.066 C599.61,502.719333 599.189667,502.455 598.713,502.273 C598.236333,502.091 597.738,502 597.218,502 C596.698,502 596.199667,502.091 595.723,502.273 C595.246333,502.455 594.826,502.719333 594.462,503.066 C594.098,503.412667 593.807667,503.828667 593.591,504.314 C593.374333,504.799333 593.266,505.354 593.266,505.978 L593.266,505.978 L593.266,516.846 C593.266,517.47 593.374333,518.024667 593.591,518.51 C593.807667,518.995333 594.098,519.411333 594.462,519.758 C594.826,520.104667 595.246333,520.369 595.723,520.551 C596.199667,520.733 596.698,520.824 597.218,520.824 Z M597.218,518.172 C596.836667,518.172 596.524667,518.046333 596.282,517.795 C596.039333,517.543667 595.918,517.227333 595.918,516.846 L595.918,516.846 L595.918,505.978 C595.918,505.596667 596.039333,505.280333 596.282,505.029 C596.524667,504.777667 596.836667,504.652 597.218,504.652 C597.599333,504.652 597.911333,504.777667 598.154,505.029 C598.396667,505.280333 598.518,505.596667 598.518,505.978 L598.518,505.978 L598.518,516.846 C598.518,517.227333 598.396667,517.543667 598.154,517.795 C597.911333,518.046333 597.599333,518.172 597.218,518.172 Z M606.864,520.824 C607.696,520.824 608.367667,520.663667 608.879,520.343 C609.390333,520.022333 609.810667,519.619333 610.14,519.134 C610.278667,518.926 610.391333,518.726667 610.478,518.536 C610.564667,518.345333 610.634,518.111333 610.686,517.834 C610.738,517.574 610.777,517.244667 610.803,516.846 C610.829,516.447333 610.842,515.944667 610.842,515.338 C610.842,514.679333 610.833333,514.137667 610.816,513.713 C610.798667,513.288333 610.738,512.92 610.634,512.608 C610.53,512.313333 610.369667,512.053333 610.153,511.828 C609.936333,511.602667 609.62,511.36 609.204,511.1 C609.585333,510.874667 609.884333,510.666667 610.101,510.476 C610.317667,510.285333 610.486667,510.051333 610.608,509.774 C610.712,509.514 610.777,509.184667 610.803,508.786 C610.829,508.387333 610.842,507.867333 610.842,507.226 C610.842,506.099333 610.764,505.25 610.608,504.678 C610.521333,504.383333 610.413,504.132 610.283,503.924 C610.153,503.716 610.001333,503.508 609.828,503.3 C609.585333,503.005333 609.225667,502.715 608.749,502.429 C608.272333,502.143 607.67,502 606.942,502 C606.387333,502 605.867333,502.104 605.382,502.312 C604.896667,502.52 604.472,502.797333 604.108,503.144 C603.744,503.490667 603.458,503.906667 603.25,504.392 C603.042,504.877333 602.938,505.388667 602.938,505.926 L602.938,505.926 L602.938,507.46 L605.59,507.46 L605.59,505.952 C605.59,505.674667 605.689667,505.388667 605.889,505.094 C606.088333,504.799333 606.422,504.652 606.89,504.652 C607.288667,504.652 607.605,504.773333 607.839,505.016 C608.073,505.258667 608.19,505.570667 608.19,505.952 L608.19,505.952 L608.19,508.344 C608.19,509.037333 608.038333,509.479333 607.735,509.67 C607.431667,509.860667 606.881333,509.956 606.084,509.956 L606.084,509.956 L606.084,512.296 C606.517333,512.296 606.868333,512.313333 607.137,512.348 C607.405667,512.382667 607.618,512.469333 607.774,512.608 C608.051333,512.833333 608.19,513.31 608.19,514.038 L608.19,514.038 L608.19,516.69 C608.19,517.140667 608.073,517.500333 607.839,517.769 C607.605,518.037667 607.288667,518.172 606.89,518.172 C606.491333,518.172 606.175,518.037667 605.941,517.769 C605.707,517.500333 605.59,517.158 605.59,516.742 L605.59,516.742 L605.59,515.364 L602.938,515.364 L602.938,516.872 C602.938,517.6 603.063667,518.215333 603.315,518.718 C603.566333,519.220667 603.882667,519.628 604.264,519.94 C604.645333,520.252 605.07,520.477333 605.538,520.616 C606.006,520.754667 606.448,520.824 606.864,520.824 Z" id="T403" fill="#D90000" fill-rule="nonzero" opacity="0.75"></path>
    <path d="M560,502 C565.522847,502 570,506.477153 570,512 C570,517.522847 565.522847,522 560,522 C554.477153,522 550,517.522847 550,512 C550,506.477153 554.477153,502 560,502 Z M560,502.88 C554.963163,502.88 550.88,506.963163 550.88,512 C550.88,517.036837 554.963163,521.12 560,521.12 C565.036837,521.12 569.12,517.036837 569.12,512 C569.12,506.963163 565.036837,502.88 560,502.88 Z M566.32,507.54 L566.32,510.72 L561.59,510.72 L561.59,518.5 L558.41,518.5 L558.41,510.72 L553.68,510.72 L553.68,507.54 L566.32,507.54 Z" id="T" fill="#D90000" opacity="0.75"></path>
    <path d="M571.920006,525 C572.530311,525 573.043141,525.247591 573.312772,525.713264 C573.395366,525.666923 573.488707,525.635408 573.588397,525.622547 L573.69004,525.616046 L574.135153,525.617698 L574.187894,525.622732 L574.234244,525.609824 L574.309356,525.595142 L574.386455,525.584534 L574.546508,525.575931 C574.841164,525.575931 575.101137,525.654126 575.315478,525.790462 L575.315827,525.753582 C575.315827,525.390931 575.598466,525.091222 575.96517,525.043789 L576.067115,525.037249 L576.475816,525.037249 C576.84946,525.037249 577.159397,525.297321 577.217369,525.637968 L577.299457,525.622585 L577.401402,525.616046 L577.846515,525.617698 L577.918288,525.625597 L578.030788,525.607182 L578.182742,525.598854 L578.297094,525.604274 L578.379922,525.615889 C578.440523,525.319121 578.693275,525.087837 579.009691,525.044548 L579.117344,525.037249 L579.526045,525.037249 C579.765203,525.037249 579.978261,525.143798 580.115852,525.309825 C580.191124,525.251791 580.278979,525.208602 580.374712,525.183325 L580.472897,525.164132 L580.574843,525.157593 L580.974528,525.157593 C581.320298,525.157593 581.611512,525.38031 581.698979,525.683496 L581.718804,525.78319 L581.770222,525.825855 C581.860859,525.912275 581.928446,526.020674 581.963432,526.141949 L581.983411,526.235176 L581.990269,526.332378 L581.990269,526.590258 C581.990269,526.722131 581.952895,526.845681 581.887696,526.951805 L581.833729,527.027987 L581.81597,527.045845 L581.834828,527.065548 C581.896504,527.138979 581.943373,527.224289 581.971,527.317418 L581.992049,527.413001 L581.999284,527.512894 L581.999284,527.799427 C581.999284,528.142804 581.745074,528.432543 581.401842,528.500656 L581.268422,528.515761 L581.207023,528.518199 C581.144077,528.520269 581.072349,528.52149 580.992559,528.52149 C580.669653,528.52149 580.363042,528.425858 580.142181,528.209068 C580.0284,528.369158 579.845622,528.482237 579.634046,528.511279 L579.526045,528.518625 L579.117344,528.518625 C578.836753,528.518625 578.592089,528.37196 578.463077,528.154647 C578.367231,528.317962 578.205116,528.441375 578.011387,528.492624 L577.912048,528.512085 L577.810103,528.518625 L577.401402,528.518625 C577.227076,528.518625 577.066618,528.462013 576.939146,528.36702 C576.837017,528.442765 576.713639,528.494345 576.578872,528.511947 L576.475816,528.518625 L576.067115,528.518625 C575.82205,528.518625 575.60439,528.406748 575.467251,528.233638 C575.329978,528.353944 575.165817,528.445237 574.980377,528.500586 L574.837394,528.53525 L574.798941,528.540592 L574.790989,528.562497 C574.704092,528.758384 574.528408,528.909747 574.312038,528.970719 L574.200686,528.993461 L574.098741,529 L573.69004,529 C573.309692,529 572.995358,528.730512 572.945611,528.38087 L572.939778,528.30568 C572.671611,528.473294 572.333907,528.56447 571.965083,528.56447 C571.144826,528.56447 570.506873,528.190282 570.327006,527.476551 L570.297222,527.329288 L570.288182,527.232776 C570.276103,527.103821 570.300522,526.980371 570.352979,526.871248 L570.397446,526.79223 L570.408414,526.777459 L570.394962,526.736778 L570.367485,526.611929 L570.350878,526.476358 L570.345306,526.329513 C570.345306,525.491521 571.044023,525 571.920006,525 Z M589.527189,525.037249 C589.810438,525.037249 590.066297,525.188691 590.194051,525.423598 L590.235756,525.515468 L590.419784,526.013807 C590.527388,525.807519 590.736237,525.657699 590.984327,525.623467 L591.092873,525.616046 L591.537986,525.617698 L591.590727,525.622732 L591.648044,525.607048 L591.71952,525.593574 L591.79261,525.583835 L591.943331,525.575931 C592.032786,525.575931 592.120436,525.584883 592.205568,525.602777 L592.331289,525.636325 L592.382084,525.65616 L592.408009,525.646596 C592.467902,525.626124 592.529751,525.609891 592.593281,525.598173 L592.689804,525.584016 L592.838867,525.575931 C593.258736,525.575931 593.611877,525.745236 593.837508,526.038394 C594.105486,525.753337 594.494178,525.575931 594.945478,525.575931 C595.346604,525.575931 595.684116,525.704833 595.93789,525.927813 C596.052914,525.766183 596.236112,525.65258 596.448055,525.62342 L596.556239,525.616046 L597.001352,525.617698 L597.073125,525.625597 L597.185625,525.607182 L597.337579,525.598854 L597.451931,525.604274 L597.534759,525.615889 C597.595359,525.319121 597.848112,525.087837 598.164528,525.044548 L598.272181,525.037249 L598.680882,525.037249 C599.061229,525.037249 599.375563,525.306737 599.425311,525.65638 L599.432169,525.753582 L599.432301,525.826834 C599.673112,525.668022 599.969157,525.575931 600.300658,525.575931 C600.751403,525.575931 601.143216,525.741802 601.411568,526.041147 C601.66092,525.752557 602.064002,525.578797 602.545507,525.578797 C603.262289,525.578797 603.787634,525.929738 603.918392,526.569574 L603.940298,526.711081 L603.945907,526.836676 L603.945907,527.52531 L603.97092,527.590596 L603.983545,527.638857 L603.992643,527.687954 L604,527.802292 C604,528.164943 603.717362,528.464652 603.350657,528.512085 L603.248712,528.518625 L602.855037,528.518625 L602.798273,528.51658 L602.742236,528.510511 L602.730824,528.507163 L602.646733,528.527525 L602.501581,528.546603 L602.347167,528.553009 C601.95158,528.553009 601.599841,528.413551 601.364108,528.169375 C601.105331,528.414477 600.738996,528.561605 600.321694,528.561605 C599.917329,528.561605 599.564879,528.429211 599.299428,528.207268 C599.184235,528.368546 599.001012,528.482099 598.789066,528.511252 L598.680882,528.518625 L598.272181,528.518625 C597.99159,528.518625 597.746926,528.37196 597.617914,528.154647 C597.522067,528.317962 597.359953,528.441375 597.166224,528.492624 L597.066885,528.512085 L596.96494,528.518625 L596.556239,528.518625 C596.312903,528.518625 596.096587,528.408321 595.95929,528.237293 C595.703583,528.442374 595.364165,528.561605 594.984545,528.561605 C594.576013,528.561605 594.223989,528.432563 593.959088,528.214932 C593.843969,528.372461 593.662705,528.483061 593.453495,528.511447 L593.346737,528.518625 L592.938037,528.518625 L592.836091,528.512085 L592.738315,528.493037 L592.680595,528.473734 L592.623878,528.493037 L592.526101,528.512085 L592.424156,528.518625 L592.015455,528.518625 L591.91351,528.512085 L591.815733,528.493037 L591.758014,528.473734 L591.701296,528.493037 L591.603519,528.512085 L591.501574,528.518625 L591.092873,528.518625 C590.944192,528.518625 590.805598,528.477444 590.688954,528.406393 C590.603456,528.459083 590.504148,528.495868 590.395746,528.510968 L590.284488,528.518625 L589.83071,528.518625 C589.685033,528.518625 589.54683,528.478603 589.429567,528.407972 L589.345756,528.349407 L589.2998,528.30659 L589.256744,528.347871 C589.177139,528.412428 589.08368,528.460988 588.982117,528.489507 L588.878066,528.511195 L588.769891,528.518625 L588.328134,528.518625 C587.845574,528.518625 587.49762,528.094943 587.591619,527.659943 L587.618639,527.566705 L588.366921,525.517995 C588.460377,525.262124 588.695688,525.081286 588.97135,525.044259 L589.076417,525.037249 L589.527189,525.037249 Z M586.384044,525.034986 L586.488734,525.041757 C586.847176,525.064938 587.132787,525.325216 587.181754,525.655446 L587.189181,525.756447 L587.187608,526.104092 L587.182954,526.150051 L587.173154,526.193887 L587.182323,526.235176 L587.189181,526.332378 L587.189181,526.601719 C587.189181,526.759967 587.135363,526.90623 587.044226,527.024776 L586.969134,527.108243 L586.911706,527.155683 L586.912707,527.802292 C586.912707,528.131975 586.679122,528.40964 586.361142,528.493037 L586.263365,528.512085 L586.16142,528.518625 L585.752719,528.518625 C585.470141,528.518625 585.224,528.369875 585.095729,528.15002 C584.820373,528.406171 584.440026,528.561605 584.006726,528.561605 C583.116676,528.561605 582.450057,527.90577 582.450057,527.068768 C582.450057,526.231765 583.116676,525.575931 584.006726,525.575931 C584.374252,525.575931 584.703681,525.687757 584.963809,525.877988 L585.011118,525.825855 L585.081568,525.765998 L585.10367,525.709833 C585.250943,525.389003 585.547881,525.167708 585.932388,525.077187 L586.080561,525.049432 L586.220336,525.035238 L586.384044,525.034986 Z M564.47925,525.037249 C564.637008,525.037249 564.783409,525.083611 564.904284,525.162824 C564.993581,525.103224 565.098047,525.062388 565.211071,525.045695 L565.326703,525.037249 L565.735404,525.037249 C566.042755,525.037249 566.307,525.213223 566.423358,525.465266 L566.459855,525.563152 L566.468661,525.603629 L566.572781,525.628704 C566.827083,525.702327 567.043757,525.850048 567.201714,526.05326 C567.470079,525.759221 567.864117,525.575931 568.322839,525.575931 C569.139381,525.575931 569.69232,526.110069 569.811911,526.884602 L569.829215,527.032572 L569.833894,527.150588 L569.83064,527.250491 L569.809388,527.359121 L569.808586,527.415522 L569.79453,527.510304 C569.658421,528.131863 569.082613,528.561605 568.361906,528.561605 C567.953374,528.561605 567.60135,528.432563 567.336449,528.214932 C567.221331,528.372461 567.040066,528.483061 566.830856,528.511447 L566.724098,528.518625 L566.315398,528.518625 L566.213453,528.512085 L566.115676,528.493037 L566.0249,528.463228 L565.935126,528.493037 L565.837349,528.512085 L565.735404,528.518625 L565.326703,528.518625 C564.946355,528.518625 564.632021,528.249137 564.582273,527.899494 L564.5813,527.868131 C564.552695,528.167431 564.330998,528.413525 564.035979,528.492213 L563.935088,528.512085 L563.833143,528.518625 L563.397396,528.518625 C563.017048,528.518625 562.702714,528.249137 562.652966,527.899494 L562.646108,527.802292 L562.645106,526.811843 L562.551566,526.793896 C562.301156,526.728221 562.103085,526.54207 562.030212,526.304913 L562.006858,526.200354 L562,526.103152 L562,525.753582 C562,525.390931 562.282638,525.091222 562.649343,525.043789 L562.751288,525.037249 L564.47925,525.037249 Z" id="The-Spirit-of-America" fill="#2682BF" fill-rule="nonzero" opacity="0.75"></path>
    <path d="M565.209876,495 C565.484434,495 565.734029,495.135431 565.865027,495.348414 L565.90841,495.431805 L566.137781,495.965611 L566.366357,495.433655 C566.453328,495.230365 566.640724,495.08097 566.865423,495.02461 L566.963823,495.006267 L567.065686,495 L567.533638,495 C567.913294,495 568.227057,495.255343 568.276715,495.586633 L568.283561,495.678733 L568.283181,496.723683 C568.423753,496.096314 569.014858,495.680543 569.825403,495.680543 C570.552412,495.680543 571.132954,495.983673 571.297665,496.630767 C571.419241,496.037707 572.011568,495.676923 572.765101,495.676923 C573.469431,495.676923 574.008315,495.978424 574.234098,496.534861 C574.396681,495.999059 574.964773,495.676923 575.676802,495.676923 C576.460027,495.676923 577.038664,496.049751 577.209679,496.731376 L577.184647,496.651648 C577.353026,496.064686 577.929386,495.680543 578.708491,495.680543 C579.453308,495.680543 580.044395,495.998704 580.192105,496.678936 L580.196218,496.709698 C580.440162,496.098379 581.043788,495.669683 581.828171,495.669683 C582.459877,495.669683 582.987894,495.941605 583.271615,496.417243 L583.270024,495.678733 C583.270024,495.335117 583.552149,495.051139 583.918187,495.006196 L584.019947,495 L584.343913,495 C584.72357,495 585.037333,495.255343 585.086991,495.586633 L585.093837,495.676018 L585.148099,495.678184 C585.727771,495.719056 586.186881,496.015076 586.371412,496.508746 L586.369706,496.395475 C586.369706,496.051859 586.651831,495.767881 587.017869,495.722938 L587.119629,495.716742 L587.443596,495.716742 C587.581653,495.716742 587.710996,495.750506 587.822096,495.809409 L587.901851,495.858165 L587.945544,495.892308 L587.989237,495.858165 C588.065273,495.804965 588.152912,495.764693 588.248133,495.740987 L588.345732,495.722938 L588.447493,495.716742 L588.771459,495.716742 C589.151116,495.716742 589.464879,495.972085 589.514537,496.303375 L589.521382,496.395475 C589.733983,495.945989 590.264499,495.676923 590.915239,495.676923 C591.646249,495.676923 592.199041,496.001698 592.408538,496.599187 L592.430347,496.674864 C592.682914,496.084658 593.274071,495.669683 594.02692,495.669683 C594.619991,495.669683 595.087715,495.906669 595.381766,496.297372 C595.403386,496.155135 595.474959,496.026812 595.579821,495.92723 L595.66445,495.858165 L595.672752,495.852489 L595.672752,495.80543 C595.672752,495.493052 595.905913,495.229961 596.223315,495.150942 L596.320914,495.132893 L596.422675,495.126697 L596.746641,495.126697 C597.126298,495.126697 597.440061,495.38204 597.489719,495.71333 L597.495565,495.795475 L597.525101,495.809409 C597.599115,495.84865 597.665032,495.899047 597.720034,495.95805 L597.749019,495.925882 L597.832227,495.858165 L597.840529,495.852489 L597.840529,495.80543 C597.840529,495.493052 598.07369,495.229961 598.391093,495.150942 L598.488692,495.132893 L598.590452,495.126697 L598.914419,495.126697 C599.294076,495.126697 599.607839,495.38204 599.657496,495.71333 L599.663342,495.795475 L599.692879,495.809409 C599.854899,495.895309 599.978119,496.034671 600.032979,496.200742 L600.044406,496.254699 C600.294426,495.88858 600.777011,495.676923 601.354169,495.676923 C602.085178,495.676923 602.63797,496.001698 602.847467,496.599187 L602.887045,496.731376 L602.905234,496.827441 C602.922057,496.91629 602.919072,497.003491 602.899422,497.085671 L602.873013,497.166516 L602.910286,497.24179 C602.939948,497.313114 602.962376,497.390887 602.977389,497.475837 L602.994325,497.608735 L603,497.752941 C603,498.543697 602.306175,499 601.434161,499 C600.827849,499 600.327202,498.794172 600.034514,498.40525 C599.97303,498.657876 599.751545,498.861277 599.460871,498.916663 C599.326546,498.942257 599.189049,498.956561 599.046405,498.956561 C598.511209,498.956561 598.048854,498.720208 597.887978,498.20785 L597.888524,498.252489 C597.888524,498.573453 597.640115,498.850541 597.293093,498.916663 C597.158768,498.942257 597.021272,498.956561 596.878628,498.956561 C596.333101,498.956561 595.863256,498.710997 595.711223,498.177875 L595.681891,498.049723 L595.672752,497.915837 L595.672752,497.79819 L595.667813,497.831221 C595.507083,498.504029 594.941459,498.939388 594.197929,498.991179 L594.046918,498.99638 C593.368474,498.99638 592.832708,498.685337 592.540781,498.212988 L592.499083,498.13966 C592.310642,498.690535 591.713361,499 590.995231,499 C590.332173,499 589.795484,498.75384 589.518953,498.291256 C589.508452,498.623981 589.229941,498.896626 588.871158,498.939756 L588.771459,498.945701 L588.447493,498.945701 L588.396148,498.944136 L588.345732,498.939505 L588.27951,498.927602 L588.145882,498.959742 L588.066893,498.972537 L587.985549,498.981731 L587.815557,498.98914 C587.172453,498.98914 586.652484,498.671576 586.452999,498.138995 L586.453697,498.266968 C586.453697,498.610584 586.171572,498.894562 585.805534,498.939505 L585.703774,498.945701 L585.379807,498.945701 C585.24175,498.945701 585.112406,498.911937 585.001307,498.853034 L584.921552,498.804279 L584.86186,498.756561 L584.802169,498.804279 C584.726133,498.857478 584.638494,498.89775 584.543273,498.921456 L584.445674,498.939505 L584.343913,498.945701 L584.019947,498.945701 C583.64029,498.945701 583.326527,498.690358 583.27687,498.359068 L583.270024,498.266968 C583.00419,498.719923 582.481146,498.99638 581.828171,498.99638 C581.238113,498.99638 580.750344,498.753785 580.441031,498.373347 C580.398971,498.601963 580.226945,498.797947 579.982904,498.886296 C579.844669,498.936341 579.700555,498.963801 579.528407,498.963801 C579.445554,498.963801 579.365183,498.95702 579.288006,498.94345 L579.174727,498.918003 L579.074454,498.885068 L578.989294,498.914084 C578.919945,498.933694 578.847892,498.949269 578.773169,498.960522 L578.659087,498.974123 L578.480515,498.9819 C577.902063,498.9819 577.401626,498.749517 577.169164,498.33458 C576.921367,498.762902 576.385375,499 575.756794,499 C575.094166,499 574.557742,498.754159 574.281053,498.292155 C574.044411,498.747238 573.494105,499 572.845093,499 C572.288242,499 571.820519,498.826383 571.521171,498.496763 C571.44992,498.670648 571.298809,498.814255 571.099815,498.886296 C570.96158,498.936341 570.817466,498.963801 570.645318,498.963801 C570.562465,498.963801 570.482094,498.95702 570.404917,498.94345 L570.291638,498.918003 L570.191365,498.885068 L570.106205,498.914084 C570.036856,498.933694 569.964803,498.949269 569.89008,498.960522 L569.775999,498.974123 L569.597426,498.9819 C569.012316,498.9819 568.507027,498.744136 568.278155,498.320179 C568.254202,498.637955 567.984689,498.894917 567.639346,498.939011 L567.533638,498.945701 L567.189673,498.945701 C567.051616,498.945701 566.922272,498.911937 566.811172,498.853034 L566.72872,498.80181 L566.650427,498.851764 C566.593962,498.881881 566.533037,498.905365 566.469109,498.92132 L566.371145,498.939494 L566.269767,498.945701 L565.993796,498.945701 C565.891074,498.945701 565.791837,498.926743 565.700996,498.891853 L565.613135,498.851764 L565.533843,498.80181 C565.456533,498.856861 565.368576,498.897596 565.273276,498.921418 L565.17565,498.939505 L565.07389,498.945701 L564.749923,498.945701 C564.370266,498.945701 564.056503,498.690358 564.006846,498.359068 L564,498.266968 L564,495.678733 C564,495.335117 564.282125,495.051139 564.648163,495.006196 L564.749923,495 L565.209876,495 Z" id="Massachusetts" fill="#2682BF" fill-rule="nonzero" opacity="0.75"></path>
    <rect id="Corner" fill="#D9D9D9" style="mix-blend-mode: multiply;" x="610" y="496" width="6" height="2" rx="1"></rect>
    <rect id="Corner" fill="#D9D9D9" style="mix-blend-mode: multiply;" x="610" y="526" width="6" height="2" rx="1"></rect>
    <rect id="Corner" fill="#D9D9D9" style="mix-blend-mode: multiply;" x="548" y="496" width="6" height="2" rx="1"></rect>
    <rect id="Corner" fill="#D9D9D9" style="mix-blend-mode: multiply;" x="548" y="526" width="6" height="2" rx="1"></rect>
    <g id="Windshield" transform="translate(64.000000, 164.000000)">
      <mask id="mask-22" fill="white">
        <use xlink:href="#path-21"></use>
      </mask>
      <g>
        <use fill="#1A1A1A" xlink:href="#path-21"></use>
        <use fill="url(#linearGradient-20)" xlink:href="#path-21"></use>
      </g>
      <g id="Interior" opacity="0.5" mask="url(#mask-22)">
        <g transform="translate(0.000000, -7.000000)">
          <path d="M407,0 L407,185 L607,185 C615.836556,185 623,192.163444 623,201 L623,323 L375,323 L375,201 C375,192.163444 382.163444,185 391,185 L399,185 L399,0 L407,0 Z" id="Combined-Shape" fill="#1A1A1A" fill-rule="evenodd" opacity="0.8" filter="url(#filter-23)"></path>
          <path d="M224,0 L224,185 L232,185 C240.836556,185 248,192.163444 248,201 L248,323 L0,323 L0,201 C-1.082166e-15,192.163444 7.163444,185 16,185 L216,185 L216,0 L224,0 Z" id="Combined-Shape" fill="#1A1A1A" fill-rule="evenodd" opacity="0.8" filter="url(#filter-24)"></path>
          <polygon id="Fare-box" fill="#666666" fill-rule="evenodd" filter="url(#filter-25)" points="311 237 439 257 439 323 311 323"></polygon>
          <path d="M499,117 C514.463973,117 527,129.536027 527,145 C527,156.002022 520.654545,165.521984 511.423753,170.099767 C544.156867,175.961878 569,204.579727 569,239 L569,297 L429,297 L429,239 C429,204.579727 453.843133,175.961878 486.576799,170.099055 C477.345455,165.521984 471,156.002022 471,145 C471,129.536027 483.536027,117 499,117 Z" id="Driver" fill="#1A1A1A" fill-rule="evenodd" filter="url(#filter-26)"></path>
          <path d="M499,262 C511,262 517,251 517,229 C517,223.477153 508.941125,219 499,219 C489.058875,219 481,223.477153 481,229 C481,251 487,262 499,262 Z" id="Steering-column" fill="#333333" fill-rule="evenodd" filter="url(#filter-27)"></path>
          <path d="M499,193 C534.346224,193 563,209.117749 563,229 C563,248.882251 534.346224,265 499,265 C463.653776,265 435,248.882251 435,229 C435,209.117749 463.653776,193 499,193 Z M499,201 C467.484958,201 443,214.772789 443,229 C443,243.227211 467.484958,257 499,257 C530.515042,257 555,243.227211 555,229 C555,214.772789 530.515042,201 499,201 Z" id="Steering-wheel" fill="#333333" fill-rule="nonzero"></path>
          <path d="M431,237 L567,237 C589.09139,237 607,254.90861 607,277 L607,277 L607,277 L391,277 C391,254.90861 408.90861,237 431,237 Z" id="Rectangle" fill="#333333" fill-rule="evenodd" filter="url(#filter-28)"></path>
        </g>
      </g>
      <path d="M289.413,20 L59.4207826,20 C40.1841214,20 24.4220211,35.1023186 23.4665212,54.1789996 L23.4421105,54.7582859 L23.4267267,55.3458235 L20,276 L289.413,276 L289.413,20 Z" id="Surface-Glare-L" fill="url(#linearGradient-29)" opacity="0.25" mask="url(#mask-22)"></path>
      <path d="M563.405476,20 L333.413,20 L333.413,276 L602.82602,276 L599.399532,55.3458235 C599.04644,35.9180611 583.351357,20.3148266 563.993196,20.0047047 L563.405476,20 Z" id="Surface-Glare-R" fill="url(#linearGradient-30)" opacity="0.25" mask="url(#mask-22)"></path>
      <polygon id="Angle-Glare" fill="url(#linearGradient-31)" opacity="0.4" mask="url(#mask-22)" points="0 -165 622 -164 622 0 6.74373751e-16 276"></polygon>
      <polygon id="Angle-Glare" fill="url(#linearGradient-32)" opacity="0.25" mask="url(#mask-22)" points="0 -202 622 -202 6.74373751e-16 74"></polygon>
      <path d="M303,0 C306.313708,0 309,2.6862915 309,6 L309,270 C309,273.313708 306.313708,276 303,276 L31.5868708,276 C13.9137588,276 -0.413129167,261.673112 -0.413129167,244 L-0.407845436,243.41851 L3.30240886,39.2731372 C3.69869531,17.4686901 21.4877561,0 43.2958042,0 L303,0 Z M578.704196,0 C600.512244,0 618.301305,17.4686901 618.697591,39.2731372 L622.407845,243.41851 C622.728994,261.088704 608.664813,275.673568 590.994619,275.994716 L590.413129,276 L319,276 C315.686292,276 313,273.313708 313,270 L313,6 C313,2.6862915 315.686292,0 319,0 L578.704196,0 Z M301,8 L43.2958042,8 C26.0238301,8 11.9030636,21.6968505 11.3147624,38.8962542 L11.3010879,39.4185098 L7.59083363,243.563882 C7.58687083,243.70924 7.58687083,243.854618 7.58687083,244 C7.58687083,257.122286 18.118208,267.784846 31.1899869,267.996785 L31.5868708,268 L301,268 L301,8 Z M578.704196,8 L320.999,8 L320.999,268 L590.413129,268 C590.558511,268 590.703889,268 590.849247,267.996037 C603.969366,267.757585 614.438794,257.034231 614.413211,243.960759 L614.409166,243.563882 L610.698912,39.4185098 C610.385053,22.1493876 596.433868,8.2798459 579.226614,8.00418198 L578.704196,8 Z" id="Windshield-border" fill="url(#linearGradient-33)" fill-rule="nonzero" mask="url(#mask-22)"></path>
    </g>
    <path d="M428,225 L432,225 L432,385 L428,385 C426.666667,358.333333 426,331.666667 426,305 C426,278.333333 426.666667,251.666667 428,225 Z" id="Rectangle" fill="#333333" transform="translate(429.000000, 305.000000) rotate(1.000000) translate(-429.000000, -305.000000) "></path>
    <circle id="Oval" fill="#333333" cx="503" cy="472" r="6"></circle>
    <path d="M515,303.5 L507,303.5 C506.41203,303.5 505.878276,303.843521 505.63473,304.37868 L430.921919,468.550253 C430.714746,469.005488 430.607548,469.49984 430.607548,470 C430.607548,471.932997 432.174551,473.5 434.107548,473.5 L443,473.5 C443.598862,473.5 444.140339,473.143793 444.377434,472.593864 L516.377434,305.593864 C516.804332,304.603699 516.078271,303.5 515,303.5 Z M512.719,306.5 L442.013,470.5 L434.107548,470.5 C433.831405,470.5 433.607548,470.276142 433.607548,470 L433.612614,469.929001 C433.619344,469.882088 433.632727,469.836249 433.652458,469.792893 L507.965,306.5 L512.719,306.5 Z" id="Rectangle" fill="#333333" fill-rule="nonzero" transform="translate(473.554588, 388.500000) scale(-1, 1) translate(-473.554588, -388.500000) "></path>
    <rect id="Rectangle" fill="#333333" x="503" y="469" width="16" height="6" rx="3"></rect>
    <rect id="Rectangle" fill="#333333" x="428" y="302" width="14" height="6" rx="3"></rect>
    <path d="M320,225 L324,225 L324,385 L320,385 C318.666667,358.333333 318,331.666667 318,305 C318,278.333333 318.666667,251.666667 320,225 Z" id="Rectangle" fill="#333333" transform="translate(321.000000, 305.000000) scale(-1, 1) rotate(1.000000) translate(-321.000000, -305.000000) "></path>
    <circle id="Oval" fill="#333333" transform="translate(247.000000, 472.000000) scale(-1, 1) translate(-247.000000, -472.000000) " cx="247" cy="472" r="6"></circle>
    <path d="M319,303.5 L311,303.5 C310.41203,303.5 309.878276,303.843521 309.63473,304.37868 L234.921919,468.550253 C234.714746,469.005488 234.607548,469.49984 234.607548,470 C234.607548,471.932997 236.174551,473.5 238.107548,473.5 L247,473.5 C247.598862,473.5 248.140339,473.143793 248.377434,472.593864 L320.377434,305.593864 C320.804332,304.603699 320.078271,303.5 319,303.5 Z M316.719,306.5 L246.013,470.5 L238.107548,470.5 C237.831405,470.5 237.607548,470.276142 237.607548,470 L237.612614,469.929001 C237.619344,469.882088 237.632727,469.836249 237.652458,469.792893 L311.965,306.5 L316.719,306.5 Z" id="Rectangle" fill="#333333" fill-rule="nonzero"></path>
    <rect id="Rectangle" fill="#333333" transform="translate(239.000000, 472.000000) scale(-1, 1) translate(-239.000000, -472.000000) " x="231" y="469" width="16" height="6" rx="3"></rect>
    <rect id="Rectangle" fill="#333333" transform="translate(315.000000, 305.000000) scale(-1, 1) translate(-315.000000, -305.000000) " x="308" y="302" width="14" height="6" rx="3"></rect>
    <g id="Right-Blinker" transform="translate(668.931083, 100.000000) rotate(-3.000000) translate(-668.931083, -100.000000) ">
      <use fill="#FF8800" xlink:href="#path-35"></use>
      <use fill="url(#linearGradient-34)" xlink:href="#path-35"></use>
    </g>
    <path d="M673.931083,82 C675.587938,82 676.931083,83.3431458 676.931083,85 L676.931083,115 C676.931083,116.656854 675.587938,118 673.931083,118 L663.931083,118 C662.274229,118 660.931083,116.656854 660.931083,115 L660.931083,85 C660.931083,83.3431458 662.274229,82 663.931083,82 L673.931083,82 Z M673.931083,85 L663.931083,85 L663.931083,115 L673.931083,115 L673.931083,85 Z" id="Right-Blinker-Border" fill="#FF8800" fill-rule="nonzero" transform="translate(668.931083, 100.000000) rotate(-3.000000) translate(-668.931083, -100.000000) "></path>
    <g id="Left-Blinker" transform="translate(81.071083, 100.000000) rotate(3.000000) translate(-81.071083, -100.000000) ">
      <use fill="#FF8800" xlink:href="#path-36"></use>
      <use fill="url(#linearGradient-34)" xlink:href="#path-36"></use>
    </g>
    <path d="M86.0710835,82 C87.7279377,82 89.0710835,83.3431458 89.0710835,85 L89.0710835,115 C89.0710835,116.656854 87.7279377,118 86.0710835,118 L76.0710835,118 C74.4142292,118 73.0710835,116.656854 73.0710835,115 L73.0710835,85 C73.0710835,83.3431458 74.4142292,82 76.0710835,82 L86.0710835,82 Z M86.0710835,85 L76.0710835,85 L76.0710835,115 L86.0710835,115 L86.0710835,85 Z" id="Left-Blinker-Border" fill="#FF8800" fill-rule="nonzero" transform="translate(81.071083, 100.000000) rotate(3.000000) translate(-81.071083, -100.000000) "></path>
    <g id="Right-Top-Blinker">
      <use fill="#FF8800" xlink:href="#path-38"></use>
      <use fill="url(#linearGradient-37)" xlink:href="#path-38"></use>
    </g>
    <path d="M432.514719,36 C437.947753,36 443.158265,38.1582645 447,42 L447.87868,42.8786797 C449.050253,44.0502525 449.050253,45.9497475 447.87868,47.1213203 C447.316071,47.6839295 446.553009,48 445.757359,48 L412,48 C410.343146,48 409,46.6568542 409,45 L409,39 C409,37.3431458 410.343146,36 412,36 L432.514719,36 Z M432.514719,39 L412,39 L412,45 L445.757359,45 L444.87868,44.1213203 C441.599553,40.842194 437.152104,39 432.514719,39 Z" id="Right-Top-Blinker-Border" fill="#FF8800" fill-rule="nonzero"></path>
    <g id="Middle-Top-Blinker">
      <use fill="#FF8800" xlink:href="#path-40"></use>
      <use fill="url(#linearGradient-39)" xlink:href="#path-40"></use>
    </g>
    <path d="M390,36 C391.656854,36 393,37.3431458 393,39 L393,45 C393,46.6568542 391.656854,48 390,48 L360,48 C358.343146,48 357,46.6568542 357,45 L357,39 C357,37.3431458 358.343146,36 360,36 L390,36 Z M390,39 L360,39 L360,45 L390,45 L390,39 Z" id="Middle-Top-Blinker-Border" fill="#FF8800" fill-rule="nonzero"></path>
    <g id="Left-Top-Blinker">
      <use fill="#FF8800" xlink:href="#path-41"></use>
      <use fill="url(#linearGradient-37)" xlink:href="#path-41"></use>
    </g>
    <path d="M338,37.5 C338.414214,37.5 338.789214,37.6678932 339.06066,37.9393398 C339.332107,38.2107864 339.5,38.5857864 339.5,39 L339.5,39 L339.5,45 C339.5,45.4142136 339.332107,45.7892136 339.06066,46.0606602 C338.789214,46.3321068 338.414214,46.5 338,46.5 L338,46.5 L304.242641,46.5 C303.828427,46.5 303.453427,46.3321068 303.181981,46.0606602 C302.910534,45.7892136 302.742641,45.4142136 302.742641,45 C302.742641,44.6021753 302.900676,44.2206444 303.181981,43.9393398 L303.181981,43.9393398 L304.06066,43.0606602 C307.621091,39.5002293 312.450072,37.5 317.485281,37.5 L317.485281,37.5 Z" id="Left-Top-Blinker-Border" stroke="#FF8800" stroke-width="3"></path>
    <mask id="mask-44" fill="white">
      <use xlink:href="#path-43"></use>
    </mask>
    <g id="Headsign">
      <use fill="#1A1A1A" xlink:href="#path-43"></use>
      <use fill="url(#linearGradient-42)" xlink:href="#path-43"></use>
    </g>
    <path d="M176.8,88.8 L176.8,84.2 L172.2,84.2 L172.2,88.8 L176.8,88.8 Z M196.8,88.8 L196.8,84.2 L192.2,84.2 L192.2,88.8 L196.8,88.8 Z M176.8,93.8 L176.8,89.2 L172.2,89.2 L172.2,93.8 L176.8,93.8 Z M196.8,93.8 L196.8,89.2 L192.2,89.2 L192.2,93.8 L196.8,93.8 Z M176.8,98.8 L176.8,94.2 L172.2,94.2 L172.2,98.8 L176.8,98.8 Z M181.8,98.8 L181.8,94.2 L177.2,94.2 L177.2,98.8 L181.8,98.8 Z M196.8,98.8 L196.8,94.2 L192.2,94.2 L192.2,98.8 L196.8,98.8 Z M176.8,103.8 L176.8,99.2 L172.2,99.2 L172.2,103.8 L176.8,103.8 Z M186.8,103.8 L186.8,99.2 L182.2,99.2 L182.2,103.8 L186.8,103.8 Z M196.8,103.8 L196.8,99.2 L192.2,99.2 L192.2,103.8 L196.8,103.8 Z M176.8,108.8 L176.8,104.2 L172.2,104.2 L172.2,108.8 L176.8,108.8 Z M191.8,108.8 L191.8,104.2 L187.2,104.2 L187.2,108.8 L191.8,108.8 Z M196.8,108.8 L196.8,104.2 L192.2,104.2 L192.2,108.8 L196.8,108.8 Z M176.8,113.8 L176.8,109.2 L172.2,109.2 L172.2,113.8 L176.8,113.8 Z M196.8,113.8 L196.8,109.2 L192.2,109.2 L192.2,113.8 L196.8,113.8 Z M176.8,118.8 L176.8,114.2 L172.2,114.2 L172.2,118.8 L176.8,118.8 Z M196.8,118.8 L196.8,114.2 L192.2,114.2 L192.2,118.8 L196.8,118.8 Z M216.8,88.8 L216.8,84.2 L212.2,84.2 L212.2,88.8 L216.8,88.8 Z M221.8,88.8 L221.8,84.2 L217.2,84.2 L217.2,88.8 L221.8,88.8 Z M226.8,88.8 L226.8,84.2 L222.2,84.2 L222.2,88.8 L226.8,88.8 Z M211.8,93.8 L211.8,89.2 L207.2,89.2 L207.2,93.8 L211.8,93.8 Z M231.8,93.8 L231.8,89.2 L227.2,89.2 L227.2,93.8 L231.8,93.8 Z M211.8,98.8 L211.8,94.2 L207.2,94.2 L207.2,98.8 L211.8,98.8 Z M231.8,98.8 L231.8,94.2 L227.2,94.2 L227.2,98.8 L231.8,98.8 Z M211.8,103.8 L211.8,99.2 L207.2,99.2 L207.2,103.8 L211.8,103.8 Z M231.8,103.8 L231.8,99.2 L227.2,99.2 L227.2,103.8 L231.8,103.8 Z M211.8,108.8 L211.8,104.2 L207.2,104.2 L207.2,108.8 L211.8,108.8 Z M231.8,108.8 L231.8,104.2 L227.2,104.2 L227.2,108.8 L231.8,108.8 Z M211.8,113.8 L211.8,109.2 L207.2,109.2 L207.2,113.8 L211.8,113.8 Z M231.8,113.8 L231.8,109.2 L227.2,109.2 L227.2,113.8 L231.8,113.8 Z M216.8,118.8 L216.8,114.2 L212.2,114.2 L212.2,118.8 L216.8,118.8 Z M221.8,118.8 L221.8,114.2 L217.2,114.2 L217.2,118.8 L221.8,118.8 Z M226.8,118.8 L226.8,114.2 L222.2,114.2 L222.2,118.8 L226.8,118.8 Z M241.8,88.8 L241.8,84.2 L237.2,84.2 L237.2,88.8 L241.8,88.8 Z M246.8,88.8 L246.8,84.2 L242.2,84.2 L242.2,88.8 L246.8,88.8 Z M251.8,88.8 L251.8,84.2 L247.2,84.2 L247.2,88.8 L251.8,88.8 Z M256.8,88.8 L256.8,84.2 L252.2,84.2 L252.2,88.8 L256.8,88.8 Z M261.8,88.8 L261.8,84.2 L257.2,84.2 L257.2,88.8 L261.8,88.8 Z M251.8,93.8 L251.8,89.2 L247.2,89.2 L247.2,93.8 L251.8,93.8 Z M251.8,98.8 L251.8,94.2 L247.2,94.2 L247.2,98.8 L251.8,98.8 Z M251.8,103.8 L251.8,99.2 L247.2,99.2 L247.2,103.8 L251.8,103.8 Z M251.8,108.8 L251.8,104.2 L247.2,104.2 L247.2,108.8 L251.8,108.8 Z M251.8,113.8 L251.8,109.2 L247.2,109.2 L247.2,113.8 L251.8,113.8 Z M251.8,118.8 L251.8,114.2 L247.2,114.2 L247.2,118.8 L251.8,118.8 Z M286.8,88.8 L286.8,84.2 L282.2,84.2 L282.2,88.8 L286.8,88.8 Z M291.8,88.8 L291.8,84.2 L287.2,84.2 L287.2,88.8 L291.8,88.8 Z M296.8,88.8 L296.8,84.2 L292.2,84.2 L292.2,88.8 L296.8,88.8 Z M291.8,93.8 L291.8,89.2 L287.2,89.2 L287.2,93.8 L291.8,93.8 Z M291.8,98.8 L291.8,94.2 L287.2,94.2 L287.2,98.8 L291.8,98.8 Z M291.8,103.8 L291.8,99.2 L287.2,99.2 L287.2,103.8 L291.8,103.8 Z M291.8,108.8 L291.8,104.2 L287.2,104.2 L287.2,108.8 L291.8,108.8 Z M291.8,113.8 L291.8,109.2 L287.2,109.2 L287.2,113.8 L291.8,113.8 Z M286.8,118.8 L286.8,114.2 L282.2,114.2 L282.2,118.8 L286.8,118.8 Z M291.8,118.8 L291.8,114.2 L287.2,114.2 L287.2,118.8 L291.8,118.8 Z M296.8,118.8 L296.8,114.2 L292.2,114.2 L292.2,118.8 L296.8,118.8 Z M311.8,88.8 L311.8,84.2 L307.2,84.2 L307.2,88.8 L311.8,88.8 Z M331.8,88.8 L331.8,84.2 L327.2,84.2 L327.2,88.8 L331.8,88.8 Z M311.8,93.8 L311.8,89.2 L307.2,89.2 L307.2,93.8 L311.8,93.8 Z M331.8,93.8 L331.8,89.2 L327.2,89.2 L327.2,93.8 L331.8,93.8 Z M311.8,98.8 L311.8,94.2 L307.2,94.2 L307.2,98.8 L311.8,98.8 Z M316.8,98.8 L316.8,94.2 L312.2,94.2 L312.2,98.8 L316.8,98.8 Z M331.8,98.8 L331.8,94.2 L327.2,94.2 L327.2,98.8 L331.8,98.8 Z M311.8,103.8 L311.8,99.2 L307.2,99.2 L307.2,103.8 L311.8,103.8 Z M321.8,103.8 L321.8,99.2 L317.2,99.2 L317.2,103.8 L321.8,103.8 Z M331.8,103.8 L331.8,99.2 L327.2,99.2 L327.2,103.8 L331.8,103.8 Z M311.8,108.8 L311.8,104.2 L307.2,104.2 L307.2,108.8 L311.8,108.8 Z M326.8,108.8 L326.8,104.2 L322.2,104.2 L322.2,108.8 L326.8,108.8 Z M331.8,108.8 L331.8,104.2 L327.2,104.2 L327.2,108.8 L331.8,108.8 Z M311.8,113.8 L311.8,109.2 L307.2,109.2 L307.2,113.8 L311.8,113.8 Z M331.8,113.8 L331.8,109.2 L327.2,109.2 L327.2,113.8 L331.8,113.8 Z M311.8,118.8 L311.8,114.2 L307.2,114.2 L307.2,118.8 L311.8,118.8 Z M331.8,118.8 L331.8,114.2 L327.2,114.2 L327.2,118.8 L331.8,118.8 Z M366.8,88.8 L366.8,84.2 L362.2,84.2 L362.2,88.8 L366.8,88.8 Z M371.8,88.8 L371.8,84.2 L367.2,84.2 L367.2,88.8 L371.8,88.8 Z M376.8,88.8 L376.8,84.2 L372.2,84.2 L372.2,88.8 L376.8,88.8 Z M381.8,88.8 L381.8,84.2 L377.2,84.2 L377.2,88.8 L381.8,88.8 Z M361.8,93.8 L361.8,89.2 L357.2,89.2 L357.2,93.8 L361.8,93.8 Z M361.8,98.8 L361.8,94.2 L357.2,94.2 L357.2,98.8 L361.8,98.8 Z M366.8,103.8 L366.8,99.2 L362.2,99.2 L362.2,103.8 L366.8,103.8 Z M371.8,103.8 L371.8,99.2 L367.2,99.2 L367.2,103.8 L371.8,103.8 Z M376.8,103.8 L376.8,99.2 L372.2,99.2 L372.2,103.8 L376.8,103.8 Z M381.8,108.8 L381.8,104.2 L377.2,104.2 L377.2,108.8 L381.8,108.8 Z M381.8,113.8 L381.8,109.2 L377.2,109.2 L377.2,113.8 L381.8,113.8 Z M361.8,118.8 L361.8,114.2 L357.2,114.2 L357.2,118.8 L361.8,118.8 Z M366.8,118.8 L366.8,114.2 L362.2,114.2 L362.2,118.8 L366.8,118.8 Z M371.8,118.8 L371.8,114.2 L367.2,114.2 L367.2,118.8 L371.8,118.8 Z M376.8,118.8 L376.8,114.2 L372.2,114.2 L372.2,118.8 L376.8,118.8 Z M396.8,88.8 L396.8,84.2 L392.2,84.2 L392.2,88.8 L396.8,88.8 Z M401.8,88.8 L401.8,84.2 L397.2,84.2 L397.2,88.8 L401.8,88.8 Z M406.8,88.8 L406.8,84.2 L402.2,84.2 L402.2,88.8 L406.8,88.8 Z M411.8,88.8 L411.8,84.2 L407.2,84.2 L407.2,88.8 L411.8,88.8 Z M416.8,88.8 L416.8,84.2 L412.2,84.2 L412.2,88.8 L416.8,88.8 Z M396.8,93.8 L396.8,89.2 L392.2,89.2 L392.2,93.8 L396.8,93.8 Z M396.8,98.8 L396.8,94.2 L392.2,94.2 L392.2,98.8 L396.8,98.8 Z M396.8,103.8 L396.8,99.2 L392.2,99.2 L392.2,103.8 L396.8,103.8 Z M401.8,103.8 L401.8,99.2 L397.2,99.2 L397.2,103.8 L401.8,103.8 Z M406.8,103.8 L406.8,99.2 L402.2,99.2 L402.2,103.8 L406.8,103.8 Z M411.8,103.8 L411.8,99.2 L407.2,99.2 L407.2,103.8 L411.8,103.8 Z M396.8,108.8 L396.8,104.2 L392.2,104.2 L392.2,108.8 L396.8,108.8 Z M396.8,113.8 L396.8,109.2 L392.2,109.2 L392.2,113.8 L396.8,113.8 Z M396.8,118.8 L396.8,114.2 L392.2,114.2 L392.2,118.8 L396.8,118.8
    Z M401.8,118.8 L401.8,114.2 L397.2,114.2 L397.2,118.8 L401.8,118.8 Z M406.8,118.8 L406.8,114.2 L402.2,114.2 L402.2,118.8 L406.8,118.8 Z M411.8,118.8 L411.8,114.2 L407.2,114.2 L407.2,118.8 L411.8,118.8 Z M416.8,118.8 L416.8,114.2 L412.2,114.2 L412.2,118.8 L416.8,118.8 Z M431.8,88.8 L431.8,84.2 L427.2,84.2 L427.2,88.8 L431.8,88.8 Z M436.8,88.8 L436.8,84.2 L432.2,84.2 L432.2,88.8 L436.8,88.8 Z M441.8,88.8 L441.8,84.2 L437.2,84.2 L437.2,88.8 L441.8,88.8 Z M446.8,88.8 L446.8,84.2 L442.2,84.2 L442.2,88.8 L446.8,88.8 Z M431.8,93.8 L431.8,89.2 L427.2,89.2 L427.2,93.8 L431.8,93.8 Z M451.8,93.8 L451.8,89.2 L447.2,89.2 L447.2,93.8 L451.8,93.8 Z M431.8,98.8 L431.8,94.2 L427.2,94.2 L427.2,98.8 L431.8,98.8 Z M451.8,98.8 L451.8,94.2 L447.2,94.2 L447.2,98.8 L451.8,98.8 Z M431.8,103.8 L431.8,99.2 L427.2,99.2 L427.2,103.8 L431.8,103.8 Z M436.8,103.8 L436.8,99.2 L432.2,99.2 L432.2,103.8 L436.8,103.8 Z M441.8,103.8 L441.8,99.2 L437.2,99.2 L437.2,103.8 L441.8,103.8 Z M446.8,103.8 L446.8,99.2 L442.2,99.2 L442.2,103.8 L446.8,103.8 Z M431.8,108.8 L431.8,104.2 L427.2,104.2 L427.2,108.8 L431.8,108.8 Z M441.8,108.8 L441.8,104.2 L437.2,104.2 L437.2,108.8 L441.8,108.8 Z M431.8,113.8 L431.8,109.2 L427.2,109.2 L427.2,113.8 L431.8,113.8 Z M446.8,113.8 L446.8,109.2 L442.2,109.2 L442.2,113.8 L446.8,113.8 Z M431.8,118.8 L431.8,114.2 L427.2,114.2 L427.2,118.8 L431.8,118.8 Z M451.8,118.8 L451.8,114.2 L447.2,114.2 L447.2,118.8 L451.8,118.8 Z M466.8,88.8 L466.8,84.2 L462.2,84.2 L462.2,88.8 L466.8,88.8 Z M486.8,88.8 L486.8,84.2 L482.2,84.2 L482.2,88.8 L486.8,88.8 Z M466.8,93.8 L466.8,89.2 L462.2,89.2 L462.2,93.8 L466.8,93.8 Z M486.8,93.8 L486.8,89.2 L482.2,89.2 L482.2,93.8 L486.8,93.8 Z M466.8,98.8 L466.8,94.2 L462.2,94.2 L462.2,98.8 L466.8,98.8 Z M486.8,98.8 L486.8,94.2 L482.2,94.2 L482.2,98.8 L486.8,98.8 Z M466.8,103.8 L466.8,99.2 L462.2,99.2 L462.2,103.8 L466.8,103.8 Z M486.8,103.8 L486.8,99.2 L482.2,99.2 L482.2,103.8 L486.8,103.8 Z M466.8,108.8 L466.8,104.2 L462.2,104.2 L462.2,108.8 L466.8,108.8 Z M486.8,108.8 L486.8,104.2 L482.2,104.2 L482.2,108.8 L486.8,108.8 Z M471.8,113.8 L471.8,109.2 L467.2,109.2 L467.2,113.8 L471.8,113.8 Z M481.8,113.8 L481.8,109.2 L477.2,109.2 L477.2,113.8 L481.8,113.8 Z M476.8,118.8 L476.8,114.2 L472.2,114.2 L472.2,118.8 L476.8,118.8 Z M501.8,88.8 L501.8,84.2 L497.2,84.2 L497.2,88.8 L501.8,88.8 Z M506.8,88.8 L506.8,84.2 L502.2,84.2 L502.2,88.8 L506.8,88.8 Z M511.8,88.8 L511.8,84.2 L507.2,84.2 L507.2,88.8 L511.8,88.8 Z M506.8,93.8 L506.8,89.2 L502.2,89.2 L502.2,93.8 L506.8,93.8 Z M506.8,98.8 L506.8,94.2 L502.2,94.2 L502.2,98.8 L506.8,98.8 Z M506.8,103.8 L506.8,99.2 L502.2,99.2 L502.2,103.8 L506.8,103.8 Z M506.8,108.8 L506.8,104.2 L502.2,104.2 L502.2,108.8 L506.8,108.8 Z M506.8,113.8 L506.8,109.2 L502.2,109.2 L502.2,113.8 L506.8,113.8 Z M501.8,118.8 L501.8,114.2 L497.2,114.2 L497.2,118.8 L501.8,118.8 Z M506.8,118.8 L506.8,114.2 L502.2,114.2 L502.2,118.8 L506.8,118.8 Z M511.8,118.8 L511.8,114.2 L507.2,114.2 L507.2,118.8 L511.8,118.8 Z M531.8,88.8 L531.8,84.2 L527.2,84.2 L527.2,88.8 L531.8,88.8 Z M536.8,88.8 L536.8,84.2 L532.2,84.2 L532.2,88.8 L536.8,88.8 Z M541.8,88.8 L541.8,84.2 L537.2,84.2 L537.2,88.8 L541.8,88.8 Z M546.8,88.8 L546.8,84.2 L542.2,84.2 L542.2,88.8 L546.8,88.8 Z M546.8,93.8 L546.8,89.2 L542.2,89.2 L542.2,93.8 L546.8,93.8 Z M526.8,93.8 L526.8,89.2 L522.2,89.2 L522.2,93.8 L526.8,93.8 Z M526.8,98.8 L526.8,94.2 L522.2,94.2 L522.2,98.8 L526.8,98.8 Z M526.8,103.8 L526.8,99.2 L522.2,99.2 L522.2,103.8 L526.8,103.8 Z M526.8,108.8 L526.8,104.2 L522.2,104.2 L522.2,108.8 L526.8,108.8 Z M526.8,113.8 L526.8,109.2 L522.2,109.2 L522.2,113.8 L526.8,113.8 Z M531.8,118.8 L531.8,114.2 L527.2,114.2 L527.2,118.8 L531.8,118.8 Z M536.8,118.8 L536.8,114.2 L532.2,114.2 L532.2,118.8 L536.8,118.8 Z M541.8,118.8 L541.8,114.2 L537.2,114.2 L537.2,118.8 L541.8,118.8 Z M546.8,118.8 L546.8,114.2 L542.2,114.2 L542.2,118.8 L546.8,118.8 Z M561.8,88.8 L561.8,84.2 L557.2,84.2 L557.2,88.8 L561.8,88.8 Z M566.8,88.8 L566.8,84.2 L562.2,84.2 L562.2,88.8 L566.8,88.8 Z M571.8,88.8 L571.8,84.2 L567.2,84.2 L567.2,88.8 L571.8,88.8 Z M576.8,88.8 L576.8,84.2 L572.2,84.2 L572.2,88.8 L576.8,88.8 Z M581.8,88.8 L581.8,84.2 L577.2,84.2 L577.2,88.8 L581.8,88.8 Z M561.8,93.8 L561.8,89.2 L557.2,89.2 L557.2,93.8 L561.8,93.8 Z M561.8,98.8 L561.8,94.2 L557.2,94.2 L557.2,98.8 L561.8,98.8 Z M561.8,103.8 L561.8,99.2 L557.2,99.2 L557.2,103.8 L561.8,103.8 Z M566.8,103.8 L566.8,99.2 L562.2,99.2 L562.2,103.8 L566.8,103.8 Z M571.8,103.8 L571.8,99.2 L567.2,99.2 L567.2,103.8 L571.8,103.8 Z M576.8,103.8 L576.8,99.2 L572.2,99.2 L572.2,103.8 L576.8,103.8 Z M561.8,108.8 L561.8,104.2 L557.2,104.2 L557.2,108.8 L561.8,108.8 Z M561.8,113.8 L561.8,109.2 L557.2,109.2 L557.2,113.8 L561.8,113.8 Z M561.8,118.8 L561.8,114.2 L557.2,114.2 L557.2,118.8 L561.8,118.8 Z M566.8,118.8 L566.8,114.2 L562.2,114.2 L562.2,118.8 L566.8,118.8 Z M571.8,118.8 L571.8,114.2 L567.2,114.2 L567.2,118.8 L571.8,118.8 Z M576.8,118.8 L576.8,114.2 L572.2,114.2 L572.2,118.8 L576.8,118.8 Z M581.8,118.8 L581.8,114.2 L577.2,114.2 L577.2,118.8 L581.8,118.8 Z" id="LIGHT---NOTINSERVICE" fill="#FFBF40" fill-rule="nonzero" opacity="0.8" mask="url(#mask-44)"></path>
    <circle id="Right-Green-light" fill="url(#linearGradient-45)" opacity="0.5" mask="url(#mask-44)" cx="627" cy="104" r="14"></circle>
    <path d="M627,90 C634.731986,90 641,96.2680135 641,104 C641,111.731986 634.731986,118 627,118 C619.268014,118 613,111.731986 613,104 C613,96.2680135 619.268014,90 627,90 Z M627,93 C620.924868,93 616,97.9248678 616,104 C616,110.075132 620.924868,115 627,115 C633.075132,115 638,110.075132 638,104 C638,97.9248678 633.075132,93 627,93 Z" id="Right-Green-light-border" fill="#408040" fill-rule="nonzero" mask="url(#mask-44)"></path>
    <circle id="Green-light" fill="url(#linearGradient-45)" opacity="0.5" mask="url(#mask-44)" cx="123" cy="104" r="14"></circle>
    <path d="M123,90 C130.731986,90 137,96.2680135 137,104 C137,111.731986 130.731986,118 123,118 C115.268014,118 109,111.731986 109,104 C109,96.2680135 115.268014,90 123,90 Z M123,93 C116.924868,93 112,97.9248678 112,104 C112,110.075132 116.924868,115 123,115 C129.075132,115 134,110.075132 134,104 C134,97.9248678 129.075132,93 123,93 Z" id="Left-Green-light-border" fill="#408040" fill-rule="nonzero" mask="url(#mask-44)"></path>
    <polygon id="Glare" fill="url(#linearGradient-32)" opacity="0.4" mask="url(#mask-44)" points="64 -38 686 -38 64 238"></polygon>
    <path d="M376,56 C460.467898,56 546.126901,58.4014193 632.977007,63.204258 C640.998894,63.6478706 647.447868,69.9715668 648.048741,77.9832097 L651.710252,126.803361 C652.371138,135.615168 645.76351,143.294303 636.951702,143.955189 C636.553521,143.985053 636.154362,144 635.755063,144 L114.244937,144 C105.408381,144 98.2449369,136.836556 98.2449369,128 C98.2449369,127.600701 98.2598844,127.201542 98.2897479,126.803361 L101.950441,77.9941153 C102.551638,69.9781315 109.007043,63.6526518 117.033592,63.2145345 C205.149742,58.4048448 291.471878,56 376,56 Z M376,60 C291.545388,60 205.295914,62.4028206 117.251602,67.2085891 C111.333722,67.5316078 106.554595,72.1217381 105.965934,77.9886888 L105.939239,78.2932751 L102.278545,127.102521 C102.256148,127.401156 102.244937,127.700526 102.244937,128 C102.244937,134.525457 107.453481,139.834393 113.939962,139.9962 L114.244937,140 L635.755063,140 C636.054537,140 636.353907,139.988789 636.652542,139.966392 C643.159723,139.478353 648.064244,133.887341 647.740475,127.406925 L647.721455,127.102521 L644.059943,78.2823695 C643.609289,72.2736373 638.772559,67.5308652 632.756143,67.1981557 C545.979056,62.3993551 460.393687,60 376,60 Z" id="Headsign-border" fill="url(#linearGradient-46)" fill-rule="nonzero" mask="url(#mask-44)"></path>
  </g>
</svg>
