<svg xmlns="http://www.w3.org/2000/svg" xmlns:xlink="http://www.w3.org/1999/xlink" width="24px" height="24px" role="img" viewBox="0 0 24 24">
    <title>Bus vehicle</title>
    <g id="Page-1" fill="none" fill-rule="evenodd" stroke="none" stroke-width="1">
        <g id="line-bus">
            <circle id="Background" cx="12" cy="12" r="12" fill="#FFFFFF"/>
            <path id="Circle" fill="#1C1E23" fill-rule="nonzero" d="M12,23 C18.0751322,23 23,18.0751322 23,12 C23,5.92486775 18.0751322,1 12,1 C5.92486775,1 1,5.92486775 1,12 C1,18.0751322 5.92486775,23 12,23 Z M12,24 C5.372583,24 0,18.627417 0,12 C0,5.372583 5.372583,0 12,0 C18.627417,0 24,5.372583 24,12 C24,18.627417 18.627417,24 12,24 Z"/>
            <path id="Combined-Shape" fill="#1C1E23" d="M14.5806911,17.8571429 L9.41944126,17.8571429 C9.35319944,18.3411965 8.93453472,18.7142857 8.42702692,18.7142857 L7.85868737,18.7142857 C7.34863978,18.7142857 6.9276414,18.3331745 6.86514401,17.8477087 C6.37646802,17.7800465 6,17.3571163 6,16.8609939 L6,16.7104346 C6,16.1602768 6,15.267547 6,14.7063117 L6,6.00797399 C6,5.45128533 6.45576096,5 7.00247329,5 L16.9975267,5 C17.5511774,5 18,5.44673868 18,6.00797399 L18,14.7063117 C18,15.2630004 18,16.1687306 18,16.7104346 L18,16.8609939 C18,17.3643066 17.6185495,17.7804366 17.1349786,17.8476532 C17.0729451,18.3363117 16.652132,18.7142857 16.1413126,18.7142857 L15.5729731,18.7142857 C15.0662341,18.7142857 14.6473928,18.3381029 14.5806911,17.8571429 Z M12.8571429,8.42857143 L12.8571429,13.5714286 L17.1428571,13.5714286 L17.1428571,8.42857143 L12.8571429,8.42857143 Z M6.85714286,8.42857143 L6.85714286,13.5714286 L11.1428571,13.5714286 L11.1428571,8.42857143 L6.85714286,8.42857143 Z M8.57142857,5.85714286 L8.57142857,7.57142857 L15.4285714,7.57142857 L15.4285714,5.85714286 L8.57142857,5.85714286 Z M15.4285714,15.2857143 C15.4285714,15.7624016 15.8123274,16.1428571 16.2857143,16.1428571 C16.7624016,16.1428571 17.1428571,15.7591012 17.1428571,15.2857143 C17.1428571,14.809027 16.7591012,14.4285714 16.2857143,14.4285714 C15.809027,14.4285714 15.4285714,14.8123274 15.4285714,15.2857143 Z M12.8571429,15.2857143 C12.8571429,15.7624016 13.2408988,16.1428571 13.7142857,16.1428571 C14.190973,16.1428571 14.5714286,15.7591012 14.5714286,15.2857143 C14.5714286,14.809027 14.1876726,14.4285714 13.7142857,14.4285714 C13.2375984,14.4285714 12.8571429,14.8123274 12.8571429,15.2857143 Z M9.42857143,15.2857143 C9.42857143,15.7624016 9.81232736,16.1428571 10.2857143,16.1428571 C10.7624016,16.1428571 11.1428571,15.7591012 11.1428571,15.2857143 C11.1428571,14.809027 10.7591012,14.4285714 10.2857143,14.4285714 C9.80902699,14.4285714 9.42857143,14.8123274 9.42857143,15.2857143 Z M6.85714286,15.2857143 C6.85714286,15.7624016 7.24089879,16.1428571 7.71428571,16.1428571 C8.19097301,16.1428571 8.57142857,15.7591012 8.57142857,15.2857143 C8.57142857,14.809027 8.18767264,14.4285714 7.71428571,14.4285714 C7.23759842,14.4285714 6.85714286,14.8123274 6.85714286,15.2857143 Z"/>
        </g>
    </g>
</svg>
