<svg width="90px" height="90px" role="img" viewBox="0 0 90 90">
    <title>Business Oopportunities</title>
    <g id="Page-1" fill="none" fill-rule="evenodd" stroke="none" stroke-width="1">
        <g id="business-opportunities">
            <g id="business-opportunities-copy" transform="translate(15.000000, 3.000000)">
                <rect id="outside-box" width="60" height="84" x="0" y="0" fill="#1C77C3" rx="3"/>
                <rect id="inside-box" width="56" height="80" x="2" y="2" fill="#FFFFFF" rx="3"/>
                <rect id="line1" width="12" height="4" x="6" y="6" fill="#1C77C3" rx="2"/>
                <rect id="line2" width="48" height="4" x="6" y="14" fill="#1C77C3" rx="2"/>
                <rect id="line3" width="48" height="4" x="6" y="22" fill="#1C77C3" rx="2"/>
                <rect id="line4" width="36" height="4" x="6" y="30" fill="#1C77C3" rx="2"/>
                <rect id="line6" width="24" height="4" x="6" y="46" fill="#1C77C3" rx="2"/>
                <rect id="line7" width="24" height="4" x="6" y="54" fill="#1C77C3" rx="2"/>
                <rect id="line8" width="12" height="4" x="6" y="62" fill="#1C77C3" rx="2"/>
                <rect id="line5" width="36" height="4" x="6" y="38" fill="#1C77C3" rx="2"/>
                <path id="pencil" fill="#1C77C3" d="M50.3609368,58.6156304 L43.3881322,51.6372118 L44.7824959,50.2413307 L51.7553006,57.2197493 L50.3609368,58.6156304 Z M29.6788209,69.4957856 C28.9127195,70.2635992 28.9127195,71.5199316 29.6788209,72.2877452 L29.7369934,72.3459727 C30.5030948,73.1127993 31.759225,73.1127993 32.5253264,72.3459727 L35.1401282,69.7286956 L46.1209151,58.7375137 L47.5150817,57.3420273 L46.1209151,55.946541 L46.0627427,55.8883135 L44.6685762,54.4928272 L43.2744096,55.8883135 L29.6788209,69.4957856 Z M48.8510758,58.6782993 L48.1539925,57.9805561 L47.4569092,58.6782993 L35.779039,70.3682113 L32.46814,73.6822446 C32.1950253,73.9556178 32.1250212,74.3523544 32.242352,74.6967849 L28.557769,75.7883039 L26.2101661,73.4384786 L27.294737,69.7721195 C27.6467295,69.9063389 28.0618244,69.8342947 28.3438128,69.5520393 L31.6556978,66.238006 L44.0306513,53.8513377 L43.333568,53.1535945 L43.3049748,53.1239873 C43.3039888,53.1230004 43.3030029,53.1230004 43.3020169,53.1220135 L42.6069056,52.4262442 L30.2309661,64.8138994 L26.920067,68.1289196 C26.8895019,68.1595137 26.8766842,68.1999769 26.8510489,68.2335317 C26.7534375,68.2947199 26.6745596,68.3865023 26.6400506,68.5049311 L24.020319,77.366368 C23.9690483,77.5400636 24.0163751,77.726589 24.1445516,77.8548869 C24.2727282,77.9831848 24.4590772,78.0315432 24.6326085,77.9792372 L33.4856646,75.3570256 C33.5053841,75.3511041 33.5162298,75.3363005 33.5339773,75.3284053 C33.6641258,75.2810338 33.7873725,75.2109634 33.8908997,75.1063512 L37.2027848,71.791331 L48.880655,60.1024059 L49.5777383,59.4046627 L48.8658654,58.6911291 L48.8510758,58.6782993 Z M55.4245612,50.7623192 L51.2410756,46.5758602 C50.4749741,45.8080466 49.2188439,45.8080466 48.4527425,46.5758602 L46.7805314,48.2486673 C46.7795454,48.2496542 46.7785595,48.2506411 46.7775735,48.2516281 L45.3863649,49.6441537 L46.7805314,51.03964 L50.964017,55.2270859 L52.3581835,56.6225722 L53.7523501,55.2270859 L54.5884556,54.3901889 L55.4255471,53.5523049 C56.1916485,52.7854783 56.1916485,51.5291458 55.4245612,50.7623192 Z"/>
            </g>
        </g>
    </g>
</svg>
