<svg width="24px" height="24px" role="img" viewBox="0 0 24 24">
    <title>Commuter Rail Train vehicle</title>
    <g id="Page-1" fill="none" fill-rule="evenodd" stroke="none" stroke-width="1">
        <g id="line-cr">
            <circle id="Background" cx="12" cy="12" r="12" fill="#FFFFFF"/>
            <g id="Group" fill="#1C1E23" transform="translate(6.000000, 5.000000)">
                <path id="Combined-Shape" d="M0.857142857,4.89795918 L0.857142857,2.70828683 C0.857142857,2.15931517 1.27800444,1.57399852 1.80042212,1.39985929 L5.05672073,0.314426422 C5.57767949,0.140773504 6.42086158,0.140287195 6.94327927,0.314426422 L10.1995779,1.39985929 C10.7205366,1.57351221 11.1428571,2.15679043 11.1428571,2.70828683 L11.1428571,4.89795918 L12,5.14285714 L12,10.1520792 C12,10.6992707 11.544239,11.1428571 10.9975267,11.1428571 L1.00247329,11.1428571 C0.448822582,11.1428571 0,10.691882 0,10.1520792 L0,5.14285714 L0.857142857,4.89795918 Z M10.2857143,9.42857143 C10.7591012,9.42857143 11.1428571,9.0448155 11.1428571,8.57142857 C11.1428571,8.09804164 10.7591012,7.71428571 10.2857143,7.71428571 C9.81232736,7.71428571 9.42857143,8.09804164 9.42857143,8.57142857 C9.42857143,9.0448155 9.81232736,9.42857143 10.2857143,9.42857143 Z M1.71428571,9.42857143 C2.18767264,9.42857143 2.57142857,9.0448155 2.57142857,8.57142857 C2.57142857,8.09804164 2.18767264,7.71428571 1.71428571,7.71428571 C1.24089879,7.71428571 0.857142857,8.09804164 0.857142857,8.57142857 C0.857142857,9.0448155 1.24089879,9.42857143 1.71428571,9.42857143 Z M1.71428571,2.57142857 L1.71428571,4.28571429 L5.14285714,3.42857143 L5.14285714,1.71428571 L1.71428571,2.57142857 Z M6.85714286,1.71428571 L6.85714286,3.42857143 L10.2857143,4.28571429 L10.2857143,2.57142857 L6.85714286,1.71428571 Z"/>
                <path id="Combined-Shape" d="M0.857142857,12 L11.1428571,12 L11.1428571,12.4285714 C11.1428571,12.6652649 10.9465709,12.8571429 10.713988,12.8571429 L1.28601199,12.8571429 C1.04915411,12.8571429 0.857142857,12.6583426 0.857142857,12.4285714 L0.857142857,12 Z M3.42857143,12.8571429 L5.14285714,12.8571429 L3.42857143,14.5714286 L1.71428571,14.5714286 L3.42857143,12.8571429 Z M6.85714286,12.8571429 L8.57142857,12.8571429 L10.2857143,14.5714286 L8.57142857,14.5714286 L6.85714286,12.8571429 Z"/>
            </g>
            <path id="Circle" fill="#1C1E23" fill-rule="nonzero" d="M12,23 C18.0751322,23 23,18.0751322 23,12 C23,5.92486775 18.0751322,1 12,1 C5.92486775,1 1,5.92486775 1,12 C1,18.0751322 5.92486775,23 12,23 Z M12,24 C5.372583,24 0,18.627417 0,12 C0,5.372583 5.372583,0 12,0 C18.627417,0 24,5.372583 24,12 C24,18.627417 18.627417,24 12,24 Z"/>
        </g>
    </g>
</svg>
