<svg xmlns="http://www.w3.org/2000/svg" xmlns:xlink="http://www.w3.org/1999/xlink" width="24px" height="24px" role="img" viewBox="0 0 24 24">
    <title>Contact</title>
    <g id="Page-1" fill="none" fill-rule="evenodd" stroke="none" stroke-width="1">
        <g id="menu-icons" fill="#0B2F4C" transform="translate(-8.000000, -55.000000)">
            <path id="contact" d="M9.00671214,74.110058 C8.89441608,73.8566486 10.1298328,67.1862402 17.3807957,62.3842231 C24.6317587,57.5822061 30.9338544,59.3335442 30.9584634,59.2229635 C30.9791387,59.1301305 30.9953313,63.0087813 30.999997,64.2555648 C31.0007975,64.4751024 30.8428282,64.6630554 30.6264468,64.7000376 C29.319124,64.923509 25.040896,65.6548056 25.040896,65.6548056 L22.9413715,63.4505782 C22.9413715,63.4505782 21.4452496,63.7868717 19.3470059,65.2835197 C17.248785,66.7801447 15.9002489,68.2256991 15.9002489,68.2256991 L17.1713899,70.9916813 C17.1713899,70.9916813 15.2361698,74.44148 14.6200282,75.5398544 C14.5110941,75.7340739 14.2825225,75.8273872 14.0687941,75.7649039 C12.8640015,75.4117088 9.08733201,74.2919502 9.00671214,74.110058 L9.00671214,74.110058 Z" transform="translate(20.000000, 67.392083) rotate(-90.000000) translate(-20.000000, -67.392083) "/>
        </g>
    </g>
</svg>
