<svg xmlns="http://www.w3.org/2000/svg" xmlns:xlink="http://www.w3.org/1999/xlink" width="90px" height="90px" role="img" viewBox="0 0 90 90">
    <title>Directions</title>
    <g id="Page-1" fill="none" fill-rule="evenodd" stroke="none" stroke-width="1">
        <g id="directions">
            <g transform="translate(3.000000, 3.000000)">
                <rect id="Rectangle-19" width="48" height="48" x="18" y="18" fill="#FFFFFF" transform="translate(42.000000, 42.000000) rotate(45.000000) translate(-42.000000, -42.000000) "/>
                <path id="Shape" fill="#1C77C3" d="M82.7711928,39.0382596 L44.9617404,1.2288072 C43.3233308,-0.409602401 40.6766692,-0.409602401 39.0382596,1.2288072 L1.2288072,39.0382596 C-0.409602401,40.6766692 -0.409602401,43.3233308 1.2288072,44.9617404 L39.0382596,82.7711928 C40.6766692,84.4096024 43.3233308,84.4096024 44.9617404,82.7711928 L82.7711928,44.9617404 C84.4096024,43.3653413 84.4096024,40.7186797 82.7711928,39.0382596 L82.7711928,39.0382596 Z M50.3810953,52.5236309 L50.3810953,42.0210053 L33.5768942,42.0210053 L33.5768942,54.624156 L25.1747937,54.624156 L25.1747937,37.819955 C25.1747937,35.5093773 27.0652663,33.6189047 29.375844,33.6189047 L50.3810953,33.6189047 L50.3810953,23.1162791 L65.0847712,37.819955 L50.3810953,52.5236309 L50.3810953,52.5236309 Z"/>
            </g>
        </g>
    </g>
</svg>
