<svg width="90px" height="90px" role="img" viewBox="0 0 90 90">
    <title>Public Meetings</title>
    <g id="Page-1" fill="none" fill-rule="evenodd" stroke="none" stroke-width="1">
        <g id="public-meetings">
            <g transform="translate(3.000000, 3.000000)">
                <rect id="cal-outline" width="84" height="84" x="0" y="0" fill="#1C77C3" rx="3"/>
                <rect id="cal-inside" width="80" height="58" x="2" y="24" fill="#FFFFFF" rx="3"/>
                <rect id="cal-box" width="12" height="12" x="9" y="31" fill="#1C77C3"/>
                <rect id="cal-box" width="12" height="12" x="9" y="47" fill="#1C77C3"/>
                <rect id="cal-box" width="12" height="12" x="9" y="63" fill="#1C77C3"/>
                <rect id="cal-box" width="12" height="12" x="45" y="31" fill="#1C77C3"/>
                <rect id="cal-box" width="12" height="12" x="45" y="47" fill="#1C77C3"/>
                <rect id="cal-box" width="12" height="12" x="45" y="63" fill="#1C77C3"/>
                <rect id="cal-box" width="12" height="12" x="27" y="31" fill="#1C77C3"/>
                <rect id="cal-box" width="12" height="12" x="27" y="47" fill="#1C77C3"/>
                <rect id="cal-box" width="12" height="12" x="27" y="63" fill="#1C77C3"/>
                <rect id="cal-box" width="12" height="12" x="63" y="31" fill="#1C77C3"/>
                <rect id="cal-box" width="12" height="12" x="63" y="47" fill="#1C77C3"/>
                <rect id="cal-box" width="12" height="12" x="63" y="63" fill="#1C77C3"/>
                <circle id="cal-circle" cx="15" cy="12" r="4" fill="#FFFFFF"/>
                <circle id="cal-circle" cx="69" cy="12" r="4" fill="#FFFFFF"/>
            </g>
        </g>
    </g>
</svg>
