<svg xmlns="http://www.w3.org/2000/svg" xmlns:xlink="http://www.w3.org/1999/xlink" width="24px" height="24px" role="img" viewBox="0 0 24 24">
    <title>Ferry Boat</title>
    <g id="Page-1" fill="none" fill-rule="evenodd" stroke="none" stroke-width="1">
        <g id="line-ferry">
            <circle id="Background" cx="12" cy="12" r="12" fill="#FFFFFF"/>
            <path id="Combined-Shape" fill="#1C1E23" d="M6,11 L6,7 L12,4 L18,7 L18,11 L20,12 C20,12 16.0192871,16 16,19 C15.5915844,19 15,18 14,18 C13,18 13,19 12,19 C11,19 11,18 10,18 C9,18 8.51207606,19 8,19 C8.04431152,16 4,12 4,12 L6,11 Z M7,8 L7,10 L11,8 L11,6 L7,8 Z M13,6 L13,8 L17,10 L17,8 L13,6 Z"/>
            <path id="Circle" fill="#1C1E23" fill-rule="nonzero" d="M12,23 C18.0751322,23 23,18.0751322 23,12 C23,5.92486775 18.0751322,1 12,1 C5.92486775,1 1,5.92486775 1,12 C1,18.0751322 5.92486775,23 12,23 Z M12,24 C5.372583,24 0,18.627417 0,12 C0,5.372583 5.372583,0 12,0 C18.627417,0 24,5.372583 24,12 C24,18.627417 18.627417,24 12,24 Z"/>
        </g>
    </g>
</svg>
