<?xml version="1.0" encoding="UTF-8"?>
<svg xmlns="http://www.w3.org/2000/svg" xmlns:xlink="http://www.w3.org/1999/xlink" version="1.1" viewBox="0 0 28 28">
  <!-- Generator: Adobe Illustrator 29.8.2, SVG Export Plug-In . SVG Version: 2.1.1 Build 3)  -->
  <defs>
    <style>
      .st0 {
        mask: url(#mask);
      }

      .st1 {
        fill-opacity: .2;
      }

      .st2 {
        isolation: isolate;
      }

      .st3 {
        mix-blend-mode: multiply;
      }

      .st4 {
        fill: #fff;
      }

      .st5 {
        fill: #192026;
        stroke: #192026;
        stroke-linejoin: round;
      }

      .st6 {
        opacity: .2;
      }
    </style>
    <mask id="mask" x="-4.4" y="-2.6" width="36.8" height="35.1" maskUnits="userSpaceOnUse">
      <g id="mask0_1_240">
        <circle class="st4" cx="14" cy="14" r="13"/>
      </g>
    </mask>
  </defs>
  <g class="st2">
    <g id="Layer_1">
      <circle class="st4" cx="14" cy="14" r="13"/>
      <path class="st6" d="M14,28C6.3,28,0,21.7,0,14S6.3,0,14,0s14,6.3,14,14-6.3,14-14,14ZM14,1C6.8,1,1,6.8,1,14s5.8,13,13,13,13-5.8,13-13S21.2,1,14,1Z"/>
      <g class="st3">
        <g class="st0">
          <g>
            <path class="st5" d="M14.3,18.3c-.2.1-.4.1-.6,0l-3.9-2.8c-.2-.1-.2-.4-.2-.6l1.5-4.6c0-.2.3-.3.5-.3h4.8c.2,0,.4.1.5.3l1.5,4.6c0,.2,0,.4-.2.6l-3.9,2.8Z"/>
            <path class="st5" d="M13.7,23.7c.2-.1.4-.1.6,0l3.9,2.8c.2.1.2.4.2.6l-1.5,4.6c0,.2-.3.3-.5.3h-4.8c-.2,0-.4-.1-.5-.3l-1.5-4.6c0-.2,0-.4.2-.6l3.9-2.8Z"/>
            <path class="st5" d="M23.1,17.3c0-.2,0-.4.2-.6l3.9-2.8c.2-.1.4-.1.6,0l3.9,2.8c.2.1.2.4.2.6l-1.5,4.6c0,.2-.3.3-.5.3h-4.8c-.2,0-.4-.1-.5-.3l-1.5-4.6Z"/>
            <path class="st5" d="M19.9,6.4c-.2,0-.4-.1-.5-.3l-1.5-4.6c0-.2,0-.4.2-.6l3.9-2.8c.2-.1.4-.1.6,0l3.9,2.8c.2.1.2.4.2.6l-1.5,4.6c0,.2-.3.3-.5.3h-4.8Z"/>
            <path class="st5" d="M8.6,6c0,.2-.3.3-.5.3H3.3c-.2,0-.4-.1-.5-.3L1.3,1.4c0-.2,0-.4.2-.6l3.9-2.8c.2-.1.4-.1.6,0l3.9,2.8c.2.1.2.4.2.6l-1.5,4.6Z"/>
            <path class="st5" d="M4.7,16.7c.2.1.2.4.2.6l-1.5,4.6c0,.2-.3.3-.5.3H-1.9c-.2,0-.4-.1-.5-.3l-1.5-4.6c0-.2,0-.4.2-.6L.2,13.9c.2-.1.4-.1.6,0l3.9,2.8Z"/>
          </g>
        </g>
      </g>
      <path class="st1" d="M14.4,1c7,.2,12.6,5.9,12.6,13,0,7.2-5.8,13-13,13-7.1,0-12.8-5.6-13-12.6,1.6,3.3,5,5.6,9,5.6s10-4.5,10-10c0-4-2.3-7.4-5.6-9Z"/>
    </g>
  </g>
</svg>