<?xml version="1.0" encoding="UTF-8"?>
<svg id="Layer_1" xmlns="http://www.w3.org/2000/svg" version="1.1" viewBox="0 0 36 36">
  <!-- Generator: Adobe Illustrator 29.8.2, SVG Export Plug-In . SVG Version: 2.1.1 Build 3)  -->
  <defs>
    <style>
      .st0 {
        opacity: .15;
      }

      .st0, .st1 {
        isolation: isolate;
      }

      .st2 {
        fill: #192026;
      }

      .st3 {
        fill: #fff;
      }

      .st4 {
        opacity: .15;
      }
    </style>
  </defs>
  <g class="st1">
    <g id="a">
      <g>
        <path class="st0" d="M18,35.25C8.49,35.25.75,27.51.75,18S8.49.75,18,.75s17.25,7.74,17.25,17.25-7.74,17.25-17.25,17.25Z"/>
        <circle class="st3" cx="18" cy="18" r="16"/>
        <path class="st2" d="M29.71,21.88h0Z"/>
      </g>
    </g>
  </g>
  <g>
    <path class="st2" d="M22.13,13.23c-.15-.47-.58-.78-1.07-.78h-6.12c-.49,0-.92.32-1.07.78l-1.89,5.82c-.15.47.01.97.41,1.26l4.95,3.6c.2.14.43.21.66.21s.46-.07.66-.21l4.95-3.6c.4-.29.56-.79.41-1.26l-1.89-5.82Z"/>
    <path class="st2" d="M31.37,9.22c-2.11-3.21-5.35-5.6-9.15-6.64,0,.02,0,.03,0,.05l1.89,5.82c.15.47.58.78,1.07.78h6.12s.04,0,.06,0Z"/>
    <path class="st2" d="M33.96,17.25s-.02,0-.03.02l-4.95,3.6c-.4.29-.56.79-.41,1.26l1.89,5.82s.02.03.02.05c2.2-2.74,3.52-6.21,3.52-10,0-.25-.03-.5-.04-.75Z"/>
    <path class="st2" d="M18.66,29.32c-.39-.29-.92-.29-1.32,0l-4.95,3.6s-.02.02-.04.04c1.76.66,3.66,1.04,5.65,1.04s3.89-.38,5.65-1.04c-.01-.01-.02-.03-.04-.04l-4.95-3.6Z"/>
    <path class="st2" d="M2.07,17.27s-.02,0-.03-.02c-.01.25-.04.49-.04.75,0,3.78,1.32,7.26,3.52,9.99,0-.02.02-.03.02-.04l1.89-5.82c.15-.47-.02-.97-.41-1.26l-4.95-3.6Z"/>
    <path class="st2" d="M13.78,2.58c-3.8,1.04-7.03,3.43-9.15,6.64.02,0,.04,0,.06,0h6.12c.49,0,.92-.32,1.07-.78l1.89-5.82s0-.03,0-.05Z"/>
  </g>
  <path class="st4" d="M23.74,3.06c6,2.31,10.26,8.12,10.26,14.94,0,8.84-7.16,16-16,16-8.38,0-15.26-6.45-15.94-14.66,2.1,5.08,7.1,8.66,12.94,8.66,7.73,0,14-6.27,14-14,0-4.43-2.06-8.38-5.26-10.94Z"/>
</svg>