<svg xmlns="http://www.w3.org/2000/svg" xmlns:xlink="http://www.w3.org/1999/xlink" role="img" width="100%" height="100%" viewBox="0 0 99 44">
    <title>Green Line Extension</title>
    <g id="GLX/Wordmark/Full-Color" stroke="none" stroke-width="1" fill="none" fill-rule="evenodd">
        <path d="M64.7468627,7.09418079 C63.7278627,7.92118079 62.2328627,7.76518079 61.4058627,6.74618079 C60.5798627,5.72818079 60.7348627,4.23218079 61.7538627,3.40618079 C62.7718627,2.57918079 64.2678627,2.73518079 65.0948627,3.75318079 C65.9208627,4.77218079 65.7648627,6.26718079 64.7468627,7.09418079 M71.3778627,15.2651808 C70.7348627,15.7871808 69.7898627,15.6891808 69.2678627,15.0461808 C68.7458627,14.4021808 68.8438627,13.4581808 69.4878627,12.9361808 C70.1308627,12.4141808 71.0758627,12.5121808 71.5978627,13.1551808 C72.1198627,13.7991808 72.0208627,14.7431808 71.3778627,15.2651808 M78.5838627,24.1451808 C77.9408627,24.6671808 76.9958627,24.5691808 76.4738627,23.9251808 C75.9518627,23.2821808 76.0498627,22.3371808 76.6938627,21.8151808 C77.3368627,21.2931808 78.2818627,21.3921808 78.8038627,22.0351808 C79.3258627,22.6781808 79.2268627,23.6231808 78.5838627,24.1451808 M85.7898627,33.0241808 C85.1468627,33.5461808 84.2018627,33.4481808 83.6798627,32.8051808 C83.1578627,32.1621808 83.2558627,31.2171808 83.8998627,30.6951808 C84.5428627,30.1731808 85.4878627,30.2711808 86.0098627,30.9141808 C86.5318627,31.5581808 86.4328627,32.5021808 85.7898627,33.0241808 M92.9958627,41.9041808 C92.3528627,42.4261808 91.4078627,42.3281808 90.8858627,41.6841808 C90.3638627,41.0411808 90.4618627,40.0961808 91.1058627,39.5741808 C91.7488627,39.0521808 92.6928627,39.1511808 93.2158627,39.7941808 C93.7378627,40.4371808 93.6388627,41.3821808 92.9958627,41.9041808 M60.5718627,1.95018079 C58.7498627,3.42918079 58.4708627,6.10518079 59.9498627,7.92818079 C60.8378627,9.02218079 62.1578627,9.54718079 63.4648627,9.48218079 L90.3658627,42.6311808 C91.2358627,43.7031808 92.8098627,43.8681808 93.8828627,42.9971808 C94.9548627,42.1271808 95.1178627,40.5521808 94.2478627,39.4801808 L67.3478627,6.33218079 C67.6808627,5.06618079 67.4388627,3.66618079 66.5498627,2.57218079 C65.0708627,0.749180788 62.3948627,0.471180788 60.5718627,1.95018079" id="Fill-1" fill="#00843D"></path>
        <polygon id="Fill-4" fill="#494F5C" points="83.0152627 21.4583808 92.1742627 8.11338079 86.1102627 8.11338079 79.7292627 17.4093808"></polygon>
        <path d="M73.5692627,26.3859808 L76.8542627,30.4339808 L74.6942627,33.5829808 C75.1272627,34.8179808 74.9972627,36.2319808 74.2002627,37.3939808 C72.8722627,39.3289808 70.2262627,39.8209808 68.2912627,38.4929808 C66.3562627,37.1649808 65.8642627,34.5189808 67.1922627,32.5839808 C67.9892627,31.4219808 69.2632627,30.7929808 70.5712627,30.7529808 L70.5712627,30.7529808 L73.5692627,26.3859808 Z M72.0402627,33.0309808 C70.9592627,32.2889808 69.4802627,32.5639808 68.7382627,33.6449808 C67.9952627,34.7259808 68.2702627,36.2049808 69.3522627,36.9469808 C70.4332627,37.6889808 71.9122627,37.4139808 72.6542627,36.3329808 C73.3962627,35.2519808 73.1212627,33.7729808 72.0402627,33.0309808 Z" id="Combined-Shape" fill="#00843D"></path>
        <g id="GL" transform="translate(5.619061, 8.355000)" fill="#494F5C" fill-rule="nonzero">
            <path d="M25.8759388,13.905 L15.1659388,13.905 L15.1659388,18.27 L20.5209388,18.27 L20.5209388,25.83 C19.8009388,26.19 18.3159388,26.46 16.3359388,26.46 C10.0359388,26.46 5.80593883,22.365 5.80593883,15.48 C5.80593883,8.415 10.3509388,4.59 16.8309388,4.59 C20.0259388,4.59 22.0509388,5.175 23.7159388,5.895 L24.9309388,1.44 C23.5359388,0.765 20.6109388,0 16.8759388,0 C6.84093883,0 0.000938830435,6.165 0.000938830435,15.75 C-0.0440611696,20.34 1.53093883,24.345 4.23093883,26.91 C7.11093883,29.655 10.9809388,30.96 16.1109388,30.96 C20.1609388,30.96 23.9409388,29.97 25.8759388,29.25 L25.8759388,13.905 Z" id="Path"></path>
            <polygon id="Path" points="35.2959388 30.645 53.2959388 30.645 53.2959388 26.01 40.8309388 26.01 40.8309388 0.315 35.2959388 0.315"></polygon>
        </g>
    </g>
</svg>
