<svg width="90px" height="90px" role="img" viewBox="0 0 90 90">
    <title>Accessibility</title>
    <g id="Page-1" fill="none" fill-rule="evenodd" stroke="none" stroke-width="1">
        <g id="accessibility">
            <g id="Group-41" transform="translate(3.000000, 3.000000)">
                <rect id="Rectangle-18-Copy-16" width="84" height="84" x="0" y="0" fill="#1C77C3" rx="42"/>
                <path id="Wheelchair" fill="#FFFFFF" d="M50.6556169,50.75 L53.9116022,57.2409091 C52.677301,61.0378978 50.4428236,64.1136246 47.2081031,66.4681818 C43.9733826,68.822739 40.3662978,70 36.3867403,70 C33.0668956,70 29.9971494,69.1780385 27.1774095,67.5340909 C24.3576696,65.8901433 22.1231922,63.6628928 20.4739104,60.8522727 C18.8246285,58.0416526 18,54.9818347 18,51.6727273 C18,47.8333141 19.1119185,44.3333491 21.3357888,41.1727273 C23.5596592,38.0121054 26.4804403,35.774249 30.0982198,34.4590909 L30.640884,38.6272727 C28.0445952,39.772733 25.9697233,41.5280185 24.4162063,43.8931818 C22.8626892,46.2583452 22.0859423,48.851501 22.0859423,51.6727273 C22.0859423,55.5969893 23.4851507,58.9537739 26.2836096,61.7431818 C29.0820684,64.5325897 32.449745,65.9272727 36.3867403,65.9272727 C39.0681534,65.9272727 41.542039,65.2378857 43.8084715,63.8590909 C46.0749039,62.4802961 47.8305647,60.6189511 49.0755064,58.275 C50.3204482,55.9310489 50.8471464,53.4227406 50.6556169,50.75 L50.6556169,50.75 Z M68.1485574,53.9318182 L70,57.5590909 L61.8281154,61.6318182 C61.5514617,61.7803038 61.242891,61.8545455 60.9023941,61.8545455 C60.0511519,61.8545455 59.4446509,61.483337 59.0828729,60.7409091 L51.4536525,45.5636364 L36.3867403,45.5636364 C35.875995,45.5636364 35.4237793,45.3886381 35.0300798,45.0386364 C34.6363803,44.6886346 34.4076124,44.2590935 34.3437692,43.75 L31.2793125,18.9636364 C31.2367503,18.6242407 31.3005926,18.1787906 31.470841,17.6272727 C31.7687758,16.5454491 32.3752768,15.6704579 33.2903622,15.0022727 C34.2054476,14.3340876 35.2375633,14 36.3867403,14 C37.79129,14 38.9936516,14.4984799 39.9938613,15.4954545 C40.9940709,16.4924292 41.4941682,17.6909021 41.4941682,19.0909091 C41.4941682,20.5545528 40.940869,21.8007524 39.8342541,22.8295455 C38.7276392,23.8583385 37.450795,24.2984856 36.0036832,24.15 L37.1847759,33.3454545 L50.6875384,33.3454545 L50.6875384,37.4181818 L37.6955187,37.4181818 L38.2062615,41.4909091 L52.7305095,41.4909091 C53.5817517,41.4909091 54.1882527,41.8621175 54.5500307,42.6045455 L61.8281154,57.0818182 L68.1485574,53.9318182 Z"/>
            </g>
        </g>
    </g>
</svg>
