<svg role="img" viewBox="0 0 48 48">
    <title>
        trip planner
    </title>
    <path fill="#5da9e8" d="m40.67 30.07a6.35 6.35 0 0 0 -6.36 6.34c0 3 4.25 9 5.1 10.18a1.49 1.49 0 0 0 1.21.62 1.51 1.51 0 0 0 1.21-.61c.86-1.17 5.16-7.18 5.16-10.19a6.35 6.35 0 0 0 -6.32-6.34zm0 13c-1.78-2.65-3.36-5.56-3.36-6.66a3.34 3.34 0 0 1 6.68 0c.02 1.1-1.56 4.01-3.34 6.67z"/>
    <path fill="#5da9e8" d="m7.31.79a6.35 6.35 0 0 0 -6.3 6.34c0 3 4.25 9 5.1 10.18a1.49 1.49 0 0 0 1.2.62 1.49 1.49 0 0 0 1.21-.62c.86-1.17 5.16-7.17 5.16-10.18a6.34 6.34 0 0 0 -6.34-6.34z"/>
    <path fill="#fff" d="m28.86 45.14h-4a1.45 1.45 0 1 1 0-2.9h4a1.45 1.45 0 1 1 0 2.9zm-11 0h-4a1.45 1.45 0 1 1 0-2.9h4a1.45 1.45 0 1 1 0 2.9zm-10.73-1.44a1.5491 1.5491 0 0 1 -.77-.22 10.9989 10.9989 0 0 1 -3.29-3.17 1.45 1.45 0 1 1 2.39-1.63 8.2085 8.2085 0 0 0 2.44 2.32 1.46 1.46 0 0 1 -.77 2.69zm-4.44-9.41h-.19a1.44 1.44 0 0 1 -1.2549-1.6039l.0049-.0361a10.8607 10.8607 0 0 1 1.52-4.31 1.4518 1.4518 0 1 1 2.48 1.51 8.0009 8.0009 0 0 0 -1.13 3.15 1.44 1.44 0 0 1 -1.43 1.29zm6.74-7.93a1.45 1.45 0 0 1 -.42-2.84 11.0034 11.0034 0 0 1 3.19-.47h1.19a1.46 1.46 0 0 1 0 2.91h-1.19a8.1222 8.1222 0 0 0 -2.36.34 1.4451 1.4451 0 0 1 -.41.06zm25-.4h-3a1.46 1.46 0 0 1 0-2.91h3a7.5594 7.5594 0 0 0 .83 0 1.4523 1.4523 0 0 1 .29 2.89 10.3366 10.3366 0 0 1 -1.14.06zm-10 0h-4a1.46 1.46 0 0 1 0-2.91h4a1.46 1.46 0 0 1 0 2.91zm17.11-3.13a1.47 1.47 0 0 1 -1-.38 1.45 1.45 0 0 1 -.0913-2.0485l.0013-.0015a8.0994 8.0994 0 0 0 1.7-2.9 1.4546 1.4546 0 0 1 2.76.92 10.9981 10.9981 0 0 1 -2.32 3.94 1.4694 1.4694 0 0 1 -1.09.47zm1.72-10.26a1.45 1.45 0 0 1 -1.33-.88 8.0007 8.0007 0 0 0 -1.95-2.75 1.4609 1.4609 0 0 1 2-2.13 11.1307 11.1307 0 0 1 2.64 3.73 1.46 1.46 0 0 1 -1.34 2zm-8.64-5.8h-4a1.45 1.45 0 0 1 -.0005-2.9h4a1.45 1.45 0 0 1 0 2.9zm-11 0h-4a1.45 1.45 0 0 1 -.0005-2.9h4.0005a1.45 1.45 0 0 1 0 2.9z"/>
</svg>
