<svg xmlns="http://www.w3.org/2000/svg" xmlns:xlink="http://www.w3.org/1999/xlink" role="img" viewBox="0 0 48 48">
    <title>
        vehicle
    </title>
    <path fill="#fff" d="m42.88 45.83a2.1 2.1 0 0 1 -.87-.19l-15.92-7.17a5.23 5.23 0 0 0 -2.09-.47 5.14 5.14 0 0 0 -2.08.44l-15.92 7.2a2.1 2.1 0 0 1 -.87.19 2.14 2.14 0 0 1 -1.76-1 2 2 0 0 1 -.12-2l18.86-40.83a2.08 2.08 0 0 1 3.78 0l18.87 40.87a2 2 0 0 1 -.12 2 2.14 2.14 0 0 1 -1.76.96z"/>
    <path d="m24 2.34a.55.55 0 0 1 .53.33l18.86 40.83a.49.49 0 0 1 0 .53.61.61 0 0 1 -.49.3.65.65 0 0 1 -.25-.06l-15.95-7.16a6.57 6.57 0 0 0 -5.4 0l-15.93 7.16a.65.65 0 0 1 -.25.06.61.61 0 0 1 -.49-.3.49.49 0 0 1 0-.53l18.84-40.83a.55.55 0 0 1 .53-.33m0-3a3.53 3.53 0 0 0 -3.25 2.07l-18.87 40.83a3.59 3.59 0 0 0 3.24 5.09 3.74 3.74 0 0 0 1.49-.33l15.92-7.17a3.64 3.64 0 0 1 2.94 0l15.92 7.17a3.74 3.74 0 0 0 1.49.32 3.59 3.59 0 0 0 3.24-5.09l-18.87-40.82a3.53 3.53 0 0 0 -3.25-2.07z"/>
</svg>
