<?xml version="1.0" encoding="UTF-8"?>
<svg xmlns="http://www.w3.org/2000/svg" viewBox="0 0 8.5 8.5">
  <circle fill="#104c8f" cx="4.25" cy="4.25" r="4.25"/>
  <g>
    <path fill="#fff" d="M2.75,3.57c.38,0,.69.13.93.38s.36.58.36.98-.12.75-.35,1.05-.6.45-1.1.45c-.54,0-.93-.22-1.18-.67-.2-.35-.3-.8-.3-1.35,0-.32.01-.59.04-.79.05-.36.14-.66.28-.9.12-.21.28-.37.48-.5s.43-.19.71-.19c.39,0,.71.1.94.3s.37.47.4.81h-.83c0-.07-.03-.14-.08-.23-.09-.13-.23-.2-.41-.2-.27,0-.46.15-.58.46-.06.17-.11.42-.13.74.1-.12.22-.21.36-.27s.29-.08.47-.08ZM2.18,4.37c-.16.13-.25.33-.25.62,0,.23.06.42.18.56.12.14.28.22.47.22s.33-.07.44-.21.16-.32.16-.54c0-.25-.06-.44-.18-.57s-.27-.2-.45-.2c-.14,0-.27.04-.38.13Z"/>
    <path fill="#fff" d="M6.08,3.57c.38,0,.69.13.93.38.24.26.36.58.36.98s-.12.75-.36,1.05-.6.45-1.1.45c-.54,0-.93-.22-1.18-.67-.2-.35-.3-.8-.3-1.35,0-.32.01-.59.04-.79.05-.36.14-.66.28-.9.12-.21.28-.37.48-.5.2-.12.43-.19.71-.19.39,0,.71.1.94.3s.37.47.39.81h-.83c0-.07-.03-.14-.08-.23-.09-.13-.23-.2-.41-.2-.27,0-.46.15-.58.46-.06.17-.11.42-.13.74.1-.12.22-.21.36-.27s.29-.08.47-.08ZM5.52,4.37c-.16.13-.25.33-.25.62,0,.23.06.42.18.56.12.14.28.22.47.22s.33-.07.44-.21c.11-.14.16-.32.16-.54,0-.25-.06-.44-.18-.57s-.27-.2-.45-.2c-.14,0-.27.04-.38.13Z"/>
  </g>
</svg>
