<svg width="44" height="44" viewBox="0 0 44 44" fill="none" xmlns="http://www.w3.org/2000/svg">
  <g clip-path="url(#clip0_7149_2756)">
    <rect width="44" height="44" rx="8" fill="white"/>
    <rect width="44" height="44" fill="white"/>
    <rect width="44" height="44" fill="#D9D8D6"/>
    <rect width="44" height="44" fill="url(#paint0_linear_7149_2756)"/>
    <circle cx="22" cy="22" r="14.8242" fill="white"/>
    <circle cx="22" cy="22" r="14.8242" fill="url(#paint1_linear_7149_2756)"/>
    <g filter="url(#filter0_di_7149_2756)">
      <path d="M12.7349 20.5177V16.0704H31.2651V20.5177H24.2236V31.636H19.7763V20.5177H12.7349Z" fill="black"/>
      <path fill-rule="evenodd" clip-rule="evenodd" d="M36.8242 22C36.8242 30.1872 30.1872 36.8242 22 36.8242C13.8128 36.8242 7.17578 30.1872 7.17578 22C7.17578 13.8128 13.8128 7.17578 22 7.17578C30.1872 7.17578 36.8242 13.8128 36.8242 22ZM35.3419 22.0001C35.3419 29.3686 29.3686 35.3419 22.0001 35.3419C14.6316 35.3419 8.65832 29.3686 8.65832 22.0001C8.65832 14.6316 14.6316 8.65832 22.0001 8.65832C29.3686 8.65832 35.3419 14.6316 35.3419 22.0001Z" fill="black"/>
    </g>
    <circle opacity="0.25" cx="289.176" cy="289.176" r="256" fill="url(#paint2_radial_7149_2756)"/>
  </g>
  <rect x="0.5" y="0.5" width="43" height="43" rx="7.5" stroke="#CCCCCC"/>
  <defs>
    <filter id="filter0_di_7149_2756" x="-4.82422" y="-4.82422" width="69.6484" height="69.6484" filterUnits="userSpaceOnUse" color-interpolation-filters="sRGB">
      <feFlood flood-opacity="0" result="BackgroundImageFix"/>
      <feColorMatrix in="SourceAlpha" type="matrix" values="0 0 0 0 0 0 0 0 0 0 0 0 0 0 0 0 0 0 127 0" result="hardAlpha"/>
      <feOffset dx="8" dy="8"/>
      <feGaussianBlur stdDeviation="10"/>
      <feComposite in2="hardAlpha" operator="out"/>
      <feColorMatrix type="matrix" values="0 0 0 0 0 0 0 0 0 0 0 0 0 0 0 0 0 0 0.2 0"/>
      <feBlend mode="normal" in2="BackgroundImageFix" result="effect1_dropShadow_7149_2756"/>
      <feBlend mode="normal" in="SourceGraphic" in2="effect1_dropShadow_7149_2756" result="shape"/>
      <feColorMatrix in="SourceAlpha" type="matrix" values="0 0 0 0 0 0 0 0 0 0 0 0 0 0 0 0 0 0 127 0" result="hardAlpha"/>
      <feOffset dx="8" dy="8"/>
      <feGaussianBlur stdDeviation="4"/>
      <feComposite in2="hardAlpha" operator="arithmetic" k2="-1" k3="1"/>
      <feColorMatrix type="matrix" values="0 0 0 0 1 0 0 0 0 1 0 0 0 0 1 0 0 0 0.2 0"/>
      <feBlend mode="screen" in2="shape" result="effect2_innerShadow_7149_2756"/>
    </filter>
    <linearGradient id="paint0_linear_7149_2756" x1="44.3667" y1="44" x2="22" y2="22" gradientUnits="userSpaceOnUse">
      <stop stop-opacity="0.15"/>
      <stop offset="1" stop-opacity="0"/>
    </linearGradient>
    <linearGradient id="paint1_linear_7149_2756" x1="22" y1="22" x2="36.8242" y2="36.8242" gradientUnits="userSpaceOnUse">
      <stop stop-opacity="0"/>
      <stop offset="1" stop-opacity="0.33"/>
    </linearGradient>
    <radialGradient id="paint2_radial_7149_2756" cx="0" cy="0" r="1" gradientUnits="userSpaceOnUse" gradientTransform="translate(289.176 289.176) rotate(90) scale(256)">
      <stop stop-color="white"/>
      <stop offset="1" stop-color="white" stop-opacity="0"/>
    </radialGradient>
    <clipPath id="clip0_7149_2756">
      <rect width="44" height="44" rx="8" fill="white"/>
    </clipPath>
  </defs>
</svg>
