<svg role="img" viewBox="0 0 48 48">
    <title>
        reversal
    </title>
    <g fill="#165c96">
        <path d="m24 2.1a21.9006 21.9006 0 1 1 -21.9 21.9 21.89613 21.89613 0 0 1 21.9-21.9zm-23.98827 21.13682a24.00041 24.00041 0 1 0 23.22509-23.22509 23.94959 23.94959 0 0 0 -23.22509 23.22509z"/>
        <path d="m30.71094 25.68555a.44713.44713 0 0 1 .48437.06933l5.31543 4.84473a.44194.44194 0 0 1 .13867.31836.45666.45666 0 0 1 -.13867.333l-5.31543 4.91403a.44506.44506 0 0 1 -.48437.06836.4163.4163 0 0 1 -.26367-.40137v-3.10054h-17.27539a.42477.42477 0 0 1 -.44239-.44239v-2.6582a.42475.42475 0 0 1 .44239-.44238h17.27539v-3.10157a.40184.40184 0 0 1 .26367-.40136z"/>
        <path d="m17.85742 11.76367a.4186.4186 0 0 1 .2627.40137v3.10156h17.27539a.42625.42625 0 0 1 .44336.44238v2.65821a.42625.42625 0 0 1 -.44336.44238h-17.27539v3.10059a.40064.40064 0 0 1 -.2627.40136.4448.4448 0 0 1 -.48437-.06836l-5.31543-4.8457a.43493.43493 0 0 1 -.13867-.31836.45224.45224 0 0 1 .13867-.332l5.31543-4.9141a.44688.44688 0 0 1 .48437-.06933z"/>
    </g>
</svg>
