<?xml version="1.0" encoding="UTF-8"?>
<svg xmlns="http://www.w3.org/2000/svg" viewBox="0 0 8.5 8.5">
  <circle fill="#104c8f" cx="4.25" cy="4.25" r="4.25"/>
  <g>
    <path fill="#fff" d="M2.51,4.22c-.1,0-.19.01-.26.04-.13.05-.23.13-.3.26l-.75-.04.3-2.35h2.34v.71h-1.74l-.15.93c.13-.08.23-.14.3-.17.12-.04.27-.07.44-.07.35,0,.66.12.92.35s.39.58.39,1.03c0,.39-.13.74-.38,1.05s-.63.46-1.13.46c-.4,0-.74-.11-1-.33s-.4-.52-.43-.92h.83c.03.18.1.32.19.42s.23.15.41.15c.21,0,.36-.07.47-.22s.16-.33.16-.55-.05-.4-.15-.55-.26-.22-.47-.22Z"/>
    <path fill="#fff" d="M5.85,4.22c-.1,0-.19.01-.26.04-.13.05-.23.13-.3.26l-.75-.04.3-2.35h2.34v.71h-1.74l-.15.93c.13-.08.23-.14.3-.17.12-.04.27-.07.44-.07.35,0,.66.12.92.35s.39.58.39,1.03c0,.39-.12.74-.38,1.05s-.63.46-1.13.46c-.4,0-.74-.11-1-.33-.26-.22-.4-.52-.43-.92h.83c.03.18.1.32.19.42.09.1.23.15.41.15.21,0,.37-.07.47-.22.11-.15.16-.33.16-.55s-.05-.4-.15-.55-.26-.22-.47-.22Z"/>
  </g>
</svg>
