<svg width="24" height="24" viewBox="0 0 24 24" fill="none" xmlns="http://www.w3.org/2000/svg">
  <g clip-path="url(#clip0_11260_6891)">
    <path d="M12 0C18.6286 0 24 5.37143 24 12C24 18.6286 18.6286 24 12 24C5.37143 24 0 18.6286 0 12C0 5.37143 5.37143 0 12 0Z" fill="#FFC72C"/>
    <path d="M22.5002 12H19.5002C19.5002 7.86466 16.1356 4.49999 12.0002 4.49999V1.50021C17.7898 1.50021 22.5002 6.21044 22.5002 12.0002V12Z" fill="#1C1E23"/>
    <path d="M12.7772 19.8171H11.6115V22.9486H12.7772V19.8171Z" fill="#1C1E23"/>
    <path d="M16.2435 18.5833L15.5638 18.9756L17.129 21.6877L17.8087 21.2955L16.2435 18.5833Z" fill="#1C1E23"/>
    <path d="M6.85889 2.32066L6.1792 2.71292L7.74444 5.42509L8.42413 5.03283L6.85889 2.32066Z" fill="#1C1E23"/>
    <path d="M2.69787 6.17977L2.3056 6.85947L5.01777 8.42471L5.41004 7.74502L2.69787 6.17977Z" fill="#1C1E23"/>
    <path d="M18.9038 15.6357L18.5115 16.3154L21.2237 17.8806L21.616 17.2009L18.9038 15.6357Z" fill="#1C1E23"/>
    <path d="M4.19045 11.6114H1.05902V12.7771H4.19045V11.6114Z" fill="#1C1E23"/>
    <path d="M5.03316 15.5601L2.32153 17.1263L2.71403 17.8059L5.42566 16.2397L5.03316 15.5601Z" fill="#1C1E23"/>
    <path d="M7.76248 18.5768L6.19629 21.2885L6.87584 21.681L8.44203 18.9693L7.76248 18.5768Z" fill="#1C1E23"/>
    <path d="M9.18095 15.1086V10.9257H7.55048V9.94284C7.77905 9.95046 7.99238 9.9276 8.20571 9.88951C8.41905 9.85141 8.60191 9.78284 8.77714 9.67618C8.94476 9.57713 9.08952 9.4476 9.20381 9.27998C9.3181 9.11237 9.4019 8.90665 9.43238 8.66284H10.4686V15.1162H9.17333L9.18095 15.1086Z" fill="#1C1E23"/>
    <path d="M13.4095 9.72953L13.1505 11.2L13.1657 11.2152C13.341 11.04 13.5315 10.9105 13.7372 10.8343C13.9429 10.7581 14.1715 10.72 14.4305 10.72C14.7505 10.72 15.0324 10.781 15.2762 10.8952C15.5276 11.0095 15.7257 11.1695 15.901 11.3676C16.0686 11.5657 16.1981 11.7943 16.2895 12.061C16.381 12.3276 16.4191 12.6095 16.4191 12.9143C16.4191 13.2419 16.3505 13.5543 16.221 13.8362C16.0915 14.1181 15.9162 14.3695 15.6953 14.5752C15.4743 14.781 15.2229 14.941 14.9334 15.0552C14.6438 15.1619 14.3391 15.2229 14.0114 15.2152C13.6991 15.2152 13.3943 15.1695 13.1124 15.0933C12.8305 15.0171 12.5714 14.88 12.3505 14.7124C12.1295 14.5448 11.9467 14.3314 11.8172 14.0724C11.6876 13.8133 11.6115 13.5238 11.6115 13.181H12.9143C12.9448 13.4781 13.0591 13.7143 13.2419 13.8819C13.4324 14.0571 13.6762 14.1486 13.9734 14.1486C14.141 14.1486 14.301 14.1105 14.4381 14.0419C14.5829 13.9657 14.6895 13.8819 14.781 13.7676C14.8724 13.6533 14.9486 13.5162 15.0019 13.3638C15.0553 13.2114 15.0857 13.0591 15.0857 12.8991C15.0857 12.7391 15.0553 12.5791 15.0172 12.4267C14.9714 12.2743 14.8953 12.1524 14.7962 12.0381C14.7048 11.9314 14.5829 11.84 14.4457 11.7791C14.3086 11.7181 14.1486 11.6876 13.9734 11.6876C13.7448 11.6876 13.5467 11.7333 13.4019 11.8095C13.2495 11.8933 13.12 12.0229 12.9829 12.1981H11.8019L12.4419 8.63239H16.0534V9.71429H13.4019L13.4095 9.72953Z" fill="#1C1E23"/>
  </g>
  <defs>
    <clipPath id="clip0_11260_6891">
      <rect width="24" height="24" fill="white"/>
    </clipPath>
  </defs>
</svg>
