<svg xmlns="http://www.w3.org/2000/svg" xmlns:xlink="http://www.w3.org/1999/xlink" width="24" height="24" viewBox="0 0 24 24" fill="none">
<path fill-rule="evenodd" clip-rule="evenodd" d="M19.3446 16.986C17.7003 16.986 16.306 15.8279 15.9013 14.2593C19.6117 14.2669 19.941 14.4625 19.9953 13.8002C19.9894 13.6008 19.9197 13.4711 18.3026 9.776C18.6318 9.6735 18.9785 9.61729 19.3446 9.61729C21.3102 9.61729 22.9059 11.2691 22.9059 13.3025C22.9059 15.3321 21.3102 16.986 19.3446 16.986ZM17.3905 10.2175L18.7364 13.2968L15.7755 13.287C15.7831 12.0071 16.4185 10.8762 17.3905 10.2175ZM14.6852 13.2851L13.8176 13.2832L16.0659 7.18884L16.9374 9.18346C15.5953 10.0219 14.6929 11.546 14.6852 13.2851ZM12.8222 13.1553L7.18669 6.81104L15.1112 6.79556L12.8222 13.1553ZM8.22089 13.3782C8.22089 15.4096 6.6213 17.0633 4.65365 17.0633C2.68809 17.0633 1.09041 15.4096 1.09041 13.3782C1.09041 11.3484 2.68809 9.69856 4.65365 9.69856C4.83759 9.69856 5.00604 9.71022 5.17658 9.73737C4.04162 13.4381 4.18118 13.0161 4.17144 13.3278C4.16378 13.5891 4.37087 13.8002 4.62859 13.8157C5.09531 13.7694 4.99073 13.8467 6.15075 10.0337C7.37063 10.6184 8.22089 11.8985 8.22089 13.3782ZM19.3446 8.49208C18.8236 8.49208 18.3202 8.58118 17.8475 8.7458C17.4932 7.91503 17.0672 6.94486 16.5695 5.80033L16.8869 4.90169L17.9735 4.8822V3.93919H13.8738C13.5135 4.44472 14.0248 4.44472 15.8355 4.86306L15.5179 5.78084H7.41918C7.96908 3.81146 7.65933 3.95467 10.1128 3.96251V3C6.73737 3.03289 7.32225 2.63978 5.51157 8.65287C5.23087 8.59875 4.95001 8.57143 4.65365 8.57143C2.08963 8.57143 0 10.7289 0 13.3782C0 16.0313 2.08963 18.1906 4.65365 18.1906C7.22932 18.1906 9.31495 16.0313 9.31495 13.3782C9.31495 11.397 8.14328 9.68708 6.47982 8.95497C6.58057 8.62573 6.6909 8.27334 6.80906 7.89571C13.6162 15.3205 11.0656 14.1159 14.7279 14.2669H14.7762C15.2118 16.461 17.0963 18.1091 19.3446 18.1091C21.9067 18.1091 24 15.9556 24 13.3025C24 10.6475 21.9067 8.49208 19.3446 8.49208Z" fill="#165C96"/>
</svg>
