<svg role="img" viewBox="0 0 48 48">
    <title>
        calendar
    </title>
    <g fill="none">
        <path d="m36.65 32.47h6.09v6.8h-6.09z"/>
        <path d="m28.53 23.41h6.77v7.55h-6.77z"/>
        <path d="m35.3 11.33h1.35a.75.75 0 0 0 .68-.76v-6.79a.74.74 0 0 0 -.68-.78h-1.35a.74.74 0 0 0 -.68.76v6.79a.75.75 0 0 0 .68.78z"/>
        <path d="m36.65 15.1h6.09v6.8h-6.09z"/>
        <path d="m36.65 23.41h6.09v7.55h-6.09z"/>
        <path d="m20.41 23.41h6.77v7.55h-6.77z"/>
        <path d="m21.55 39.26h5.63v-6.79h-6.51a10.82 10.82 0 0 1 .88 6.79z"/>
        <path d="m19.05 30v-6.59h-6.05v3.13a10.82 10.82 0 0 1 6.05 3.46z"/>
        <path d="m28.53 32.47h6.77v6.8h-6.77z"/>
        <path d="m28.53 15.1h6.77v6.8h-6.77z"/>
        <path d="m12.96 15.1h6.09v6.8h-6.09z"/>
        <path d="m19.05 11.33h1.36a.74.74 0 0 0 .67-.76v-6.79a.73.73 0 0 0 -.67-.78h-1.36a.73.73 0 0 0 -.67.76v6.79a.74.74 0 0 0 .67.78z"/>
        <path d="m20.41 15.1h6.77v6.8h-6.77z"/>
    </g>
    <path fill="#165c96" d="m42.75 6h-2.75v-2.22a3.61 3.61 0 0 0 -3.35-3.78h-1.35a3.61 3.61 0 0 0 -3.38 3.78v2.22h-8.13v-2.22a3.61 3.61 0 0 0 -3.38-3.78h-1.36a3.61 3.61 0 0 0 -3.38 3.78v2.22h-2.67a2.9 2.9 0 0 0 -2.71 3v17.38a10.82 10.82 0 1 0 2 21.54 11 11 0 0 0 8.21-5.63h22.25a2.9 2.9 0 0 0 2.71-3v-30.23a2.9 2.9 0 0 0 -2.71-3.06zm-24.45 33.26a7.64 7.64 0 0 1 -1.67 3 7.67 7.67 0 1 1 1.67-3zm.75-9.26a10.82 10.82 0 0 0 -6.05-3.46v-3.13h6.09zm0-8.13h-6.05v-6.77h6.09zm-.67-11.33v-6.76a.73.73 0 0 1 .67-.78h1.36a.73.73 0 0 1 .67.76v6.79a.74.74 0 0 1 -.67.76h-1.36a.74.74 0 0 1 -.67-.74zm8.8 28.69h-5.63a10.82 10.82 0 0 0 -.88-6.79h6.51zm0-8.3h-6.77v-7.52h6.77zm0-9.06h-6.77v-6.77h6.77zm8.12 17.39h-6.77v-6.79h6.77zm0-8.3h-6.77v-7.55h6.77zm0-9.06h-6.77v-6.8h6.77zm-.68-11.33v-6.79a.74.74 0 0 1 .68-.78h1.35a.74.74 0 0 1 .68.76v6.79a.75.75 0 0 1 -.68.76h-1.35a.75.75 0 0 1 -.68-.74zm8.13 28.69h-6.1v-6.79h6.1zm0-8.3h-6.1v-7.55h6.1zm0-9.06h-6.1v-6.8h6.1z"/>
    <path fill="#165c96" d="m12.28 31.76h-.9a.45.45 0 0 0 -.45.45v5h-3.16a.45.45 0 0 0 -.45.45v.91a.45.45 0 0 0 .45.45h4.51a.44.44 0 0 0 .45-.45v-6.36a.44.44 0 0 0 -.45-.45z"/>
</svg>
