<svg xmlns="http://www.w3.org/2000/svg" role="img" viewBox="0 0 48 48">
    <title>
        orange line
    </title>
    <path fill="#ed8b00" d="m24 0a24 24 0 1 0 24 24 24 24 0 0 0 -24-24"/>
    <g fill="#fff">
        <path d="m5.64307 19.79541a10.34622 10.34622 0 0 1 2.001-3.46582 9.1562 9.1562 0 0 1 3.20508-2.31982 10.45537 10.45537 0 0 1 4.27734-.84131 10.43467 10.43467 0 0 1 4.292.84131 9.19465 9.19465 0 0 1 3.18945 2.31982 10.34624 10.34624 0 0 1 2.001 3.46582 12.94012 12.94012 0 0 1 .69629 4.30615 12.51018 12.51018 0 0 1 -.69629 4.21973 10.07168 10.07168 0 0 1 -2.001 3.40723 9.20067 9.20067 0 0 1 -3.18945 2.27685 10.595 10.595 0 0 1 -4.292.82617 10.616 10.616 0 0 1 -4.27734-.82617 9.16311 9.16311 0 0 1 -3.20515-2.27685 10.07166 10.07166 0 0 1 -2.001-3.40723 12.50994 12.50994 0 0 1 -.69629-4.21973 12.93987 12.93987 0 0 1 .69636-4.30615zm4.16211 6.84375a6.844 6.844 0 0 0 .9707 2.21875 4.978 4.978 0 0 0 1.74023 1.58009 5.31164 5.31164 0 0 0 2.61035.59472 5.31031 5.31031 0 0 0 2.60938-.59472 4.978 4.978 0 0 0 1.74023-1.58008 6.86683 6.86683 0 0 0 .97168-2.21875 10.53182 10.53182 0 0 0 .30469-2.5376 11.32323 11.32323 0 0 0 -.30469-2.63867 7.00147 7.00147 0 0 0 -.97168-2.27685 4.9307 4.9307 0 0 0 -1.74023-1.59473 5.31558 5.31558 0 0 0 -2.60938-.59473 5.3169 5.3169 0 0 0 -2.61035.59473 4.9307 4.9307 0 0 0 -1.74023 1.59468 6.9789 6.9789 0 0 0 -.9707 2.27685 11.32323 11.32323 0 0 0 -.30469 2.63867 10.53182 10.53182 0 0 0 .30469 2.53764z"/>
        <path d="m32.96045 13.66162v16.87793h10.09277v3.82813h-14.64551v-20.70606z"/>
    </g>
</svg>
