<svg width="24" height="24" viewBox="0 0 24 24" fill="none">
<path fill-rule="evenodd" clip-rule="evenodd" d="M8.42021 13.4913C8.42075 13.1156 8.72467 12.8117 9.09953 12.812C9.47438 12.8117 9.7783 13.1156 9.77884 13.4913C9.7783 13.8653 9.47438 14.1692 9.09953 14.1706C8.72467 14.1692 8.42075 13.8653 8.42021 13.4913ZM7.54005 17.4609V14.8795C7.54118 14.5816 7.77865 14.379 8.03625 14.3774C8.03571 14.379 10.1451 14.3774 10.1451 14.3774C10.4256 14.379 10.6405 14.6042 10.6413 14.8795V17.4609C10.6405 17.6746 10.4686 17.8233 10.2809 17.8212C10.2809 17.8212 10.1952 17.8213 10.0565 17.8214V21.2237C10.0594 21.8417 9.15505 21.8417 9.15269 21.2237V17.822C9.1074 17.822 9.06207 17.8221 9.01683 17.8221V21.2237C9.01757 21.837 8.11324 21.837 8.11304 21.2237V17.822C7.98215 17.8219 7.90137 17.8216 7.90039 17.8212C7.71608 17.8233 7.54118 17.6721 7.54005 17.4609ZM11.6691 13.4913C11.6697 13.1156 11.9736 12.8117 12.3484 12.812C12.7233 12.8117 13.0272 13.1156 13.0277 13.4913C13.0272 13.8653 12.7233 14.1692 12.3484 14.1706C11.9736 14.1692 11.6697 13.8653 11.6691 13.4913ZM10.789 17.4609V14.8795C10.79 14.5816 11.0276 14.379 11.2852 14.3774C11.2846 14.379 13.394 14.3774 13.394 14.3774C13.6744 14.379 13.8894 14.6042 13.8902 14.8795V17.4609C13.8894 17.6746 13.7175 17.8233 13.5299 17.8212C13.5299 17.8212 13.4441 17.8213 13.3054 17.8214V21.2237C13.3083 21.8417 12.404 21.8417 12.4016 21.2237V17.822C12.3563 17.822 12.311 17.8221 12.2657 17.8221V21.2237C12.2665 21.837 11.3621 21.837 11.3619 21.2237V17.822C11.2311 17.8219 11.1503 17.8216 11.1493 17.8212C10.965 17.8233 10.79 17.6721 10.789 17.4609ZM14.918 13.4913C14.9186 13.1156 15.2225 12.8117 15.5973 12.812C15.9722 12.8117 16.2761 13.1156 16.2767 13.4913C16.2761 13.8653 15.9722 14.1692 15.5973 14.1706C15.2225 14.1692 14.9186 13.8653 14.918 13.4913ZM14.0379 17.4609V14.8795C14.0389 14.5816 14.2765 14.379 14.5341 14.3774C14.5335 14.379 16.6429 14.3774 16.6429 14.3774C16.9233 14.379 17.1383 14.6042 17.1391 14.8795V17.4609C17.1383 17.6746 16.9664 17.8233 16.7788 17.8212C16.7788 17.8212 16.693 17.8213 16.5543 17.8214V21.2237C16.5572 21.8417 15.6529 21.8417 15.6505 21.2237V17.822C15.6052 17.822 15.5599 17.8221 15.5146 17.8221V21.2237C15.5154 21.837 14.611 21.837 14.6108 21.2237V17.822C14.48 17.8219 14.3992 17.8216 14.3981 17.8212C14.2139 17.8233 14.0389 17.6721 14.0379 17.4609ZM5.30717 3.4906L7.94174 0.324392C8.35868 -0.0933871 8.90262 -0.0958485 9.31809 0.324392L11.9704 3.47878C12.7884 4.41137 11.4624 5.56507 10.7063 4.737L9.61344 3.40199L9.64889 7.66101C9.63535 9.07827 7.60478 9.06242 7.61684 7.66101L7.64638 3.40199L6.56538 4.74881C5.82601 5.58973 4.48771 4.42367 5.30717 3.4906ZM12.6792 5.22728C11.8593 4.29445 13.1976 3.12844 13.9374 3.96907L15.0184 5.31589L14.9889 1.05687C14.9764 -0.344291 17.0069 -0.360142 17.0209 1.05687L16.9855 5.31589L18.0783 3.98089C18.8339 3.15306 20.1599 4.30676 19.3424 5.24501L16.6901 8.39349C16.2742 8.81402 15.7302 8.81151 15.3138 8.39349L12.6792 5.22728ZM7.02609 21.968H17.6411V11.4179H7.02609V21.968ZM17.7121 9.36225H6.96116C5.82601 9.36486 5.0029 10.2539 5 11.3234V22.0566C5.00064 23.151 5.88754 24.0026 6.96116 24H17.7239C18.797 24.0024 19.6708 23.2002 19.6673 22.0566V11.3234C19.6683 10.2416 18.8093 9.36486 17.7121 9.36225Z" fill="#165C96"/>
</svg>
