<svg width="100%" height="100%" viewBox="0 0 48 48" role="img"><title>Shuttle Bus</title><path d="M24.124,48C37.571,47.655 48.348,36.724 47.996,23.872C47.633,10.622 37.122,-0.071 23.868,0C10.75,0.07 -0.004,10.882 -0.004,24C-0.004,37.166 10.83,48 23.996,48C24.039,48 24.082,48 24.124,48" fill="currentColor"/><path d="M37.175,22.342L35.895,11.999C35.57,10.132 34.425,9.404 32.721,8.64C29.929,7.613 26.985,7.059 24.011,7C21.032,7.059 18.083,7.614 15.286,8.64C13.603,9.39 12.458,10.132 12.112,11.999L10.825,22.342L10.825,36.652L13.084,36.652L13.084,39.144C13.087,40.161 13.923,40.997 14.94,41C15.957,40.997 16.793,40.161 16.796,39.144L16.796,36.652L31.272,36.652L31.272,39.144C31.274,40.161 32.111,40.996 33.127,40.996C34.144,40.996 34.981,40.161 34.983,39.144L34.983,36.652L37.175,36.652L37.175,22.342ZM18.588,9.616L29.476,9.616C29.478,9.616 29.48,9.616 29.483,9.616C29.941,9.616 30.317,9.993 30.317,10.45C30.317,10.908 29.941,11.284 29.483,11.284C29.48,11.284 29.478,11.284 29.476,11.284L18.588,11.284C18.13,11.284 17.754,10.908 17.754,10.45C17.754,9.993 18.13,9.616 18.588,9.616ZM13.165,22.038L14.226,13.872C14.314,13.359 14.766,12.983 15.286,12.988L32.869,12.988C33.388,12.983 33.838,13.36 33.923,13.872L34.983,22.038C34.997,22.132 34.997,22.227 34.983,22.321C34.983,22.321 34.983,22.381 34.983,22.382C34.983,22.958 34.51,23.431 33.935,23.431C33.931,23.431 33.927,23.431 33.923,23.431L14.176,23.431C13.613,23.405 13.164,22.935 13.164,22.372C13.164,22.355 13.164,22.338 13.165,22.321C13.151,22.227 13.151,22.132 13.165,22.038ZM14.94,32.226C14.939,32.226 14.937,32.226 14.936,32.226C13.852,32.226 12.96,31.334 12.96,30.25C12.96,29.166 13.852,28.274 14.936,28.274C16.019,28.274 16.91,29.164 16.912,30.246C16.912,30.248 16.912,30.25 16.912,30.251C16.912,31.334 16.022,32.225 14.94,32.226ZM33.124,32.226C32.041,32.224 31.151,31.333 31.151,30.25C31.151,29.166 32.043,28.274 33.127,28.274C34.21,28.274 35.102,29.164 35.104,30.246C35.104,30.248 35.104,30.25 35.104,30.251C35.104,31.335 34.212,32.226 33.129,32.226C33.127,32.226 33.125,32.226 33.124,32.226Z" fill="#fff"/></svg>
