<svg xmlns="http://www.w3.org/2000/svg" xmlns:xlink="http://www.w3.org/1999/xlink" role="img" viewBox="0 0 8.5 8.5">
  <title>Massport Airport Shuttle Route 11</title>
  <circle fill="#104c8f" cx="4.25" cy="4.25" r="4.25"/>
  <g>
    <path fill="#fff" d="M3.35,6.33h-.86v-2.93h-1v-.57c.26-.01.45-.03.55-.05.17-.04.3-.11.41-.22.07-.08.13-.18.16-.3.02-.08.03-.13.03-.17h.69v4.25Z"/>
    <path fill="#fff" d="M6.36,6.33h-.86v-2.93h-1v-.57c.26-.01.45-.03.55-.05.17-.04.3-.11.41-.22.07-.08.13-.18.16-.3.02-.08.03-.13.03-.17h.69v4.25Z"/>
  </g>
</svg>
