<svg xmlns="http://www.w3.org/2000/svg" xmlns:xlink="http://www.w3.org/1999/xlink" role="img" viewBox="0 0 16 16">
    <title>
        not accessible
    </title>
    <rect width="16" height="16" fill="#788093" rx="3.74837"/>
    <g fill="#fff">
        <path d="m6.90573 13a3.27922 3.27922 0 0 1 -1.36713-6.26353l.07439.97088a2.38543 2.38543 0 1 0 3.6515 2.29152l.58176 1.19057a3.33147 3.33147 0 0 1 -2.94052 1.81056z"/>
        <path d="m10.61986 11.93766-1.34186-3.14392-3.27138-.00087-.31762-4.4696a.926.926 0 0 1 -.11143-.4318.89147.89147 0 1 1 .97853.888l.0939 1.6679h2.293l.00674.7194h-2.21937l.05246.80944 3.04171-.02043 1.29828 2.99729.98591-.35587.27281.64958z"/>
    </g>
</svg>
