<svg xmlns="http://www.w3.org/2000/svg" role="img" viewBox="0 0 16 16">
    <title>
        trolley
    </title>
    <path fill="#fff" d="m7.99993 15.50007a7.50007 7.50007 0 1 1 7.50007-7.50007 7.5 7.5 0 0 1 -7.50007 7.50007"/>
    <g fill="#1c1e23">
        <path d="m11.5 10.45v-6.03a1.68192 1.68192 0 0 0 -1.71-1.67h-.82l.34-1.12a2.63358 2.63358 0 0 1 1.05.6.198.198 0 1 0 .28-.28 4.1028 4.1028 0 0 0 -3.06-.94 3.10818 3.10818 0 0 0 -2.24.96.20411.20411 0 0 0 .03.28.2011.2011 0 0 0 .13.04.19891.19891 0 0 0 .16-.07 2.15224 2.15224 0 0 1 1.01-.64l.36 1.17h-.82a1.68192 1.68192 0 0 0 -1.71 1.67v6.03a1.66868 1.66868 0 0 0 1.46 1.64l-1.46 2.91h.88l.42-.85.01-.03h4.38l.01.03.42.85h.88l-1.46-2.91a1.66868 1.66868 0 0 0 1.46-1.64zm-3.89-9.04a4.48032 4.48032 0 0 1 1.22.08v.01l-.38 1.25h-.9l-.39-1.28a3.06587 3.06587 0 0 1 .45-.06zm-1.36 2.44a.22421.22421 0 0 1 .23-.22h3.05a.22192.22192 0 0 1 .22.22v.43a.222.222 0 0 1 -.22.22h-3.05a.22631.22631 0 0 1 -.23-.23zm-.25 1.15h4v2h-4zm-.23 5.45a.76.76 0 1 1 .76.75995.75963.75963 0 0 1 -.76-.75995zm.53 2.7.52-1.04h2.36l.52 1.04zm3.21-1.94a.76.76 0 1 1 .76-.75995.75965.75965 0 0 1 -.76.75995z"/>
        <path d="m10.2 14.15h-4.4l.01-.03h4.38z"/>
        <path d="m8 .70333a7.29667 7.29667 0 1 1 -7.29667 7.29667 7.29667 7.29667 0 0 1 7.29667-7.29667zm-8 7.29667a8 8 0 1 0 8-8 8 8 0 0 0 -8 8z"/>
    </g>
</svg>
