<svg role="img" viewBox="0 0 48 48">
    <title>
        variant
    </title>
    <g fill="#165c96">
        <path d="m24 2.1a21.9006 21.9006 0 1 1 -21.9 21.9 21.89614 21.89614 0 0 1 21.9-21.9zm-23.98829 21.13682a24.00041 24.00041 0 1 0 23.22509-23.22509 23.94961 23.94961 0 0 0 -23.22509 23.22509z"/>
        <path d="m20.20648 17.61715 3.39878-3.39878h-9.06343v9.06343l3.39879-3.3988 2.49132 2.49132 2.26585-2.26586zm11.10152 1.8771 3.78754 3.78755v-9.06343h-9.06339l3.01 3.01-3.48565 3.48566a10.40726 10.40726 0 0 0 -2.72878 6.5938v9.61626h3.2044v-9.61624a7.28172 7.28172 0 0 1 1.79024-4.32795z"/>
    </g>
</svg>
