<?xml version="1.0" encoding="UTF-8"?>
<svg xmlns="http://www.w3.org/2000/svg" version="1.1" viewBox="0 0 36 33">
  <!-- Generator: Adobe Illustrator 29.5.1, SVG Export Plug-In . SVG Version: 2.1.0 Build 141)  -->
  <path d="M16,25.5c-1.3,1.8-3.3,2.8-5.4,2.8H2.2c-1.2,0-2.2-1.1-2.2-2.4s1-2.3,2.2-2.3h8.4c.7,0,1.4-.4,1.8-.9l4.4-6.1-4.4-6.1c-.4-.6-1.1-.9-1.8-.9H2.2c-1.2,0-2.2-1-2.2-2.4s1-2.4,2.2-2.4h8.4c2.1,0,4.1,1,5.4,2.8l4.7,6.6h6.2v-2.4c0-.9.5-1.8,1.4-2.2.8-.4,1.8-.2,2.5.5l4.5,4.7c.4.5.7,1,.7,1.7s-.2,1.2-.7,1.7l-4.5,4.7c-.7.7-1.6.9-2.5.5-.9-.4-1.4-1.2-1.4-2.2v-2.4h-6.2"/>
  <path d="M15.2,26.4"/>
</svg>