<svg xmlns="http://www.w3.org/2000/svg" role="img" viewBox="0 0 48 48">
    <title>
        station marker
    </title>
    <circle cx="24" cy="15.06" r="14.16" fill="#a1c6ed"/>
    <g fill="#165c96">
        <path d="m38.82 15.06a14.82 14.82 0 1 0 -15.62 14.78v17.16a1 1 0 0 0 1 1 1 1 0 0 0 1-1v-17.18a14.81 14.81 0 0 0 13.62-14.76zm-14.82 13.51a13.51 13.51 0 1 1 13.51-13.51 13.52 13.52 0 0 1 -13.51 13.51z"/>
        <path fill-rule="evenodd" d="m33.54 8.29h-19.08v4.73h7.17v11.58h4.74v-11.58h7.17z"/>
    </g>
</svg>
