<svg xmlns="http://www.w3.org/2000/svg" role="img" viewBox="0 0 16 16">
    <title>
        silver line
    </title>
    <path fill="#1c1e23" d="m14.2452 6.9551-.4392-3.2978c-.1149-.5947-.5069-.8312-1.088-1.0744a9.9485 9.9485 0 0 0 -2.9937-.52 9.9418 9.9418 0 0 0 -2.987.52c-.5744.2432-.9731.48-1.0947 1.0744l-.4326 3.2978v4.5549h.8075v.7772a.5668.5668 0 0 0 .2974.4865c.04.02.0811.0406.1148.0541a.69.69 0 0 0 .0947.027.5762.5762 0 0 0 .1554.02h.23a.6356.6356 0 0 0 .669-.5879v-.7769h4.363v.7772a.5667.5667 0 0 0 .2973.4865c.0406.02.0811.0406.1149.0541a.6885.6885 0 0 0 .0946.027.5769.5769 0 0 0 .1555.02h.23a.6356.6356 0 0 0 .669-.5879v-.7769h.7425zm-6.6429-3.9395h4.2507c.2027 0 .3716.2309.3716.5078s-.1689.5078-.3716.5078h-4.2507c-.2027 0-.3716-.2308-.3716-.5078s.1693-.5078.3716-.5078zm-1.0396 4.5544.3006-2.3339a.3143.3143 0 0 1 .3223-.2671h5.1244a.3183.3183 0 0 1 .3222.2671l.344 2.3339v.1042a.3256.3256 0 0 1 -.322.3258h-5.7811a.3318.3318 0 0 1 -.31-.3388.2326.2326 0 0 1 -.0004-.0912zm.6465 2.7535a.8285.8285 0 1 1 -.0371-1.6543.8311.8311 0 1 1 .0371 1.6543zm5.0154 0a.8285.8285 0 1 1 -.037-1.6543.8311.8311 0 1 1 .037 1.6543z"/>
    <path fill="#7c878e" d="m8.0009 0a8.0405 8.0405 0 0 0 -7.9991 8 7.9991 7.9991 0 1 0 7.9991-8"/>
    <g fill="#fff">
        <path d="m3.6379 9.8223a1.14 1.14 0 0 0 .3465.4066 1.4926 1.4926 0 0 0 .5068.2309 2.3973 2.3973 0 0 0 .6027.0753 3.1157 3.1157 0 0 0 .4516-.0351 1.5712 1.5712 0 0 0 .4519-.1354.9923.9923 0 0 0 .3515-.2762.6942.6942 0 0 0 .14-.4468.6287.6287 0 0 0 -.1854-.4716 1.4719 1.4719 0 0 0 -.4868-.3012 4.88 4.88 0 0 0 -.6827-.211q-.3819-.09-.7733-.2007a6.8 6.8 0 0 1 -.7829-.246 2.688 2.688 0 0 1 -.683-.3764 1.7749 1.7749 0 0 1 -.4868-.5777 1.7528 1.7528 0 0 1 -.1857-.8383 1.8759 1.8759 0 0 1 .2359-.9587 2.1364 2.1364 0 0 1 .6174-.6776 2.69 2.69 0 0 1 .8634-.4017 3.6837 3.6837 0 0 1 .964-.13 4.5682 4.5682 0 0 1 1.0791.1255 2.6987 2.6987 0 0 1 .9189.4067 2.0622 2.0622 0 0 1 .6376.7171 2.2036 2.2036 0 0 1 .2359 1.0593h-1.5261a1.2706 1.2706 0 0 0 -.1358-.5321.8879.8879 0 0 0 -.3061-.3314 1.2971 1.2971 0 0 0 -.4365-.1707 2.6957 2.6957 0 0 0 -.5371-.05 1.86 1.86 0 0 0 -.3818.04 1.0222 1.0222 0 0 0 -.3462.14.8675.8675 0 0 0 -.2561.2511.6746.6746 0 0 0 -.1.3815.6437.6437 0 0 0 .08.3413.7137.7137 0 0 0 .3162.241 4.0247 4.0247 0 0 0 .6527.2209q.4164.1105 1.0892.2811.2008.04.5574.1455a2.6774 2.6774 0 0 1 .7077.3365 2.1409 2.1409 0 0 1 .6073.6174 1.7574 1.7574 0 0 1 .2562.9889 2.1911 2.1911 0 0 1 -.1909.9136 1.9859 1.9859 0 0 1 -.5672.728 2.7248 2.7248 0 0 1 -.9336.4768 4.4152 4.4152 0 0 1 -1.29.1708 4.5312 4.5312 0 0 1 -1.15-.1457 2.887 2.887 0 0 1 -.9838-.4563 2.2529 2.2529 0 0 1 -.6778-.7931 2.3668 2.3668 0 0 1 -.241-1.1444h1.5261a1.3138 1.3138 0 0 0 .1306.6123z"/>
        <path d="m10.5254 4.4207v5.8433h3.4938v1.3253h-5.0702v-7.1686z"/>
    </g>
</svg>
