<svg width="33" height="18" viewBox="0 0 33 18" fill="none" xmlns="http://www.w3.org/2000/svg">
<path d="M0 2C0 0.89543 0.895431 0 2 0H16C17.1046 0 18 0.895431 18 2V16C18 17.1046 17.1046 18 16 18H2C0.89543 18 0 17.1046 0 16V2Z" fill="#165C96"/>
<path fill-rule="evenodd" clip-rule="evenodd" d="M13.5423 13.1343L14.9272 12.6361L15.3103 13.5452L12.8355 14.5127L10.9504 10.1112L6.35468 10.11L6.08183 6.28222L5.90865 3.85265C5.8109 3.6724 5.75208 3.45773 5.75208 3.24803C5.75208 2.56058 6.31458 2 7.0044 2C7.69392 2 8.25671 2.56058 8.25671 3.24803C8.25671 3.88677 7.76269 4.43277 7.12673 4.4911L7.26867 7.00174L10.4798 7.0032V8.17539L7.38632 8.17423L7.44544 8.96668L11.7181 8.9378L13.5423 13.1343ZM4.25788 11.4072C4.25788 13.2459 5.76277 14.7456 7.60773 14.7456C9.29583 14.7456 10.7355 13.4544 10.9312 11.7986L11.7487 13.4652C10.9731 14.9932 9.34968 16.0001 7.61797 16.0001C5.07442 16.0001 3 13.9327 3 11.3976C3 9.61816 4.08228 7.96414 5.6975 7.23089L5.80198 8.59034C4.84672 9.19029 4.25788 10.2727 4.25788 11.4072Z" fill="white"/>
<mask maskUnits="userSpaceOnUse" x="15" y="0" width="18" height="18" fill="black">
<rect fill="white" x="15" width="18" height="18"/>
<path fill-rule="evenodd" clip-rule="evenodd" d="M20.6222 1L27.3778 1L32 5.62222V12.2L27.3778 17H20.6222L16 12.3778V5.8L20.6222 1Z"/>
</mask>
<path fill-rule="evenodd" clip-rule="evenodd" d="M20.6222 1L27.3778 1L32 5.62222V12.2L27.3778 17H20.6222L16 12.3778V5.8L20.6222 1Z" fill="#165C96"/>
<path fill-rule="evenodd" clip-rule="evenodd" d="M20.6222 1L27.3778 1L32 5.62222V12.2L27.3778 17H20.6222L16 12.3778V5.8L20.6222 1Z" stroke="#165C96" stroke-width="2" stroke-linejoin="round" mask="url(#path-3-outside-1_17422_629601)"/>
<path fill-rule="evenodd" clip-rule="evenodd" d="M27.3778 1H20.6222L16 5.8V12.3778L20.6222 17H27.3778L32 12.2V5.62222L27.3778 1ZM21.4346 4.92963L19.8117 6.57876L22.377 9.13227L19.8117 11.739L21.4346 13.3349L23.9999 10.7282L26.5652 13.3349L28.1881 11.739L25.6228 9.13227L28.1881 6.57876L26.5652 4.92963L23.9999 7.48313L21.4346 4.92963Z" fill="white"/>
</svg>
