<svg role="img" viewBox="0 0 48 48">
    <title>
        alert
    </title>
    <path fill="#1c1e23" d="m47.55089 42.53651-20.5403-40.60229a3.60991 3.60991 0 0 0 -1.27059-1.3994 3.08289 3.08289 0 0 0 -3.4708 0 3.57213 3.57213 0 0 0 -1.2518 1.3994l-20.5404 40.60229a3.715 3.715 0 0 0 0 3.6423 3.47281 3.47281 0 0 0 1.2518 1.3228 3.21739 3.21739 0 0 0 1.70689.49839h41.1186a3.16147 3.16147 0 0 0 1.688-.49841 3.47248 3.47248 0 0 0 1.2517-1.3228 3.71467 3.71467 0 0 0 .0569-3.64228z"/>
    <g fill="#fff">
        <path d="m27.04259 39.22282a.71323.71323 0 0 1 -.21909.544.73324.73324 0 0 1 -.54.2332h-4.5683a.73294.73294 0 0 1 -.5394-.2332.77238.77238 0 0 1 -.2192-.544v-4.4456a.77247.77247 0 0 1 .2192-.544.73331.73331 0 0 1 .53939-.23322h4.56881a.73351.73351 0 0 1 .54.2332.71375.71375 0 0 1 .2192.544z"/>
        <path d="m26.73759 30.35892a.62508.62508 0 0 1 -.2345.4568.7061.7061 0 0 1 -.516.1828h-4.12809a.73374.73374 0 0 1 -.516-.1828.53482.53482 0 0 1 -.219-.4568l-1.1215-14.4817a.71.71 0 0 1 .2189-.5848.76.76 0 0 1 .516-.2924h6.512a.81448.81448 0 0 1 .53161.2924.70371.70371 0 0 1 .2189.53z"/>
    </g>
</svg>
