<svg xmlns="http://www.w3.org/2000/svg" role="img" viewBox="0 0 48 48">
    <title>
        green line B
    </title>
    <path fill="#00843d" d="m24.03 0a24 24 0 1 0 24 24 24 24 0 0 0 -24-24"/>
    <text fill="#fff" font-family="HelveticaNeue-Bold, Helvetica Neue" font-size="29" font-weight="700" transform="translate(13.79185 35.06978)">
        B
    </text>
    <path fill="#00843d" d="m24 0a24 24 0 1 0 24 24 24 24 0 0 0 -24-24"/>
    <path fill="#fff" d="m25.07324 13.647a12.87782 12.87782 0 0 1 2.69727.26123 5.83 5.83 0 0 1 2.08789.85547 3.9831 3.9831 0 0 1 1.3486 1.58054 5.56184 5.56184 0 0 1 .47852 2.43555 4.5366 4.5366 0 0 1 -.71094 2.61035 5.16134 5.16134 0 0 1 -2.10254 1.71093 4.97692 4.97692 0 0 1 2.85645 1.92823 5.74358 5.74358 0 0 1 .94238 3.3208 5.70688 5.70688 0 0 1 -.6084 2.71142 5.28724 5.28724 0 0 1 -1.63867 1.87061 7.25037 7.25037 0 0 1 -2.34961 1.07275 10.58888 10.58888 0 0 1 -2.71094.34815h-10.03415v-20.70603zm-.58008 8.38086a3.2747 3.2747 0 0 0 2.001-.57959 2.19 2.19 0 0 0 .7832-1.88525 2.41024 2.41024 0 0 0 -.26074-1.189 1.94167 1.94167 0 0 0 -.69629-.72509 2.9446 2.9446 0 0 0 -1.001-.36231 6.663 6.663 0 0 0 -1.17383-.10156h-4.26366v4.84277zm.26075 8.78711a6.08958 6.08958 0 0 0 1.27636-.13037 3.12821 3.12821 0 0 0 1.07325-.43506 2.20249 2.20249 0 0 0 .73925-.82666 2.84562 2.84562 0 0 0 .27539-1.334 2.67712 2.67712 0 0 0 -.89941-2.27637 3.83582 3.83582 0 0 0 -2.37793-.68164h-4.959v5.68408z"/>
</svg>
