<svg xmlns="http://www.w3.org/2000/svg" xmlns:xlink="http://www.w3.org/1999/xlink" role="img" viewBox="0 0 48 48">
    <title>
        snow
    </title>
    <path fill="#1c1e23" d="m20.27 16.87-6.54-3.81-1.56-5.86a1 1 0 0 0 -1.17-.7l-5.08 1.37a1 1 0 0 0 -.69 1.21l1 3.95-3.89 1.06a1 1 0 0 0 -.69 1.22l1.35 5.09a1 1 0 0 0 1.2.7l6.12-1.66 6.35 3.7-5.78 3.37-7.19-1.94a1 1 0 0 0 -1.2.7l-1.35 5.09a1 1 0 0 0 .69 1.21l4.44 1.2-1.22 4.6a1 1 0 0 0 .69 1.21l5.05 1.42a1 1 0 0 0 1.2-.7l1.58-5.94 6.69-3.89v7.71l-5.33 5.32a1 1 0 0 0 0 1.4l3.7 3.73a1 1 0 0 0 1.39 0l3.58-3.63 3.67 3.7a1 1 0 0 0 1.39 0l3.7-3.7a1 1 0 0 0 0-1.39l-4.92-5v-8.19l7.29 4.24 1.49 5.59a1 1 0 0 0 1.2.7l5-1.37a1 1 0 0 0 .7-1.21l-1.24-4.66 4.23-1.14a1 1 0 0 0 .7-1.21l-1.32-5.09a1 1 0 0 0 -1.2-.7l-7.38 2-5.87-3.42 6.63-3.86 6.73 1.82a1 1 0 0 0 1.2-.7l1.39-5.1a1 1 0 0 0 -.7-1.22l-4-1.07 1.05-3.94a1 1 0 0 0 -.69-1.21l-5-1.37a1 1 0 0 0 -1.2.7l-1.46 5.27-7.55 4.4v-6.17l4.92-4.95a1 1 0 0 0 0-1.4l-3.7-3.72a1 1 0 0 0 -1.39 0l-3.52 3.55-3.76-3.77a1 1 0 0 0 -1.39 0l-3.7 3.73a1 1 0 0 0 0 1.39l5.33 5.37z"/>
</svg>
