<svg width="24" height="24" viewBox="0 0 24 24" fill="none">
<path fill-rule="evenodd" clip-rule="evenodd" d="M23.965 17.43L23.85 16.93L23.82 16.785L23.37 14.785L23.305 14.49L21.92 8.23003C21.7168 7.45528 20.9257 6.99043 20.15 7.19003L19.055 7.43003L16.555 2.22503C16.1809 1.51695 15.3049 1.24431 14.595 1.61503L0.879996 8.24503C0.148264 8.57086 -0.182503 9.42683 0.139996 10.16L2.92 15.91L3.05 16.18L3.95 18.04L4.245 18.64L4.33 18.82C4.63627 19.2867 5.18108 19.5387 5.735 19.47L6.015 20.74L6.16 21.395L6.205 21.585C6.46594 22.2924 7.21975 22.6877 7.95 22.5L22.84 19.19C23.629 19.0038 24.1272 18.2243 23.965 17.43ZM5.295 17.39L4.5 17.775L3.6 15.915L18.905 8.50003L19.805 10.36L5.295 17.39ZM6.33 19.275L6.625 20.595L23.23 16.885L22.78 14.885L9.125 17.925L6.33 19.275Z" fill="#165C96"/>
</svg>
