<svg role="img" viewBox="0 0 48 48">
    <title>
        pdf
    </title>
    <path d="m40.82 11.75-11.11-11.12a2.18 2.18 0 0 0 -1.52-.63h-17.64a4 4 0 0 0 -4 4v40a4 4 0 0 0 4 4h26.9a4 4 0 0 0 4-4v-30.73a2.12 2.12 0 0 0 -.63-1.52zm-11.74-7.28 7.92 7.91h-6.94a1 1 0 0 1 -1-1zm9.37 39.53a1 1 0 0 1 -1 1h-26.9a1 1 0 0 1 -1-1v-40a1 1 0 0 1 1-1h15.53v8.39a4 4 0 0 0 4 4h8.39z"/>
    <path d="m16.31 21.05h-3.7v8.64h1.79v-3.11h1.8a3.27 3.27 0 0 0 2.16-.58 2.66 2.66 0 0 0 .76-2.16 2.59 2.59 0 0 0 -.76-2.07 3 3 0 0 0 -2.05-.72zm.69 3.73a1.37 1.37 0 0 1 -1 .31h-1.6v-2.54h1.6a1.47 1.47 0 0 1 1 .29 1.21 1.21 0 0 1 .34 1 1.28 1.28 0 0 1 -.34.94z"/>
    <path d="m27.1 22.33a2.81 2.81 0 0 0 -1.47-1.09 4.54 4.54 0 0 0 -1.34-.19h-3.72v8.64h3.72a3.13 3.13 0 0 0 2.9-1.61 5.76 5.76 0 0 0 .69-2.92 6.6 6.6 0 0 0 -.16-1.43 3.91 3.91 0 0 0 -.62-1.4zm-1.33 4.6a1.79 1.79 0 0 1 -1.77 1.26h-1.68v-5.64h1.68a1.73 1.73 0 0 1 1.64.71 4 4 0 0 1 .42 2 4.32 4.32 0 0 1 -.29 1.67z"/>
    <path d="m29.23 29.69h1.8v-3.62h3.82v-1.5h-3.82v-1.99h4.36v-1.52h-6.16z"/>
</svg>
