<svg role="img" viewBox="0 0 16 16">
    <title>
        reversal
    </title>
    <g fill="#165c96">
        <path d="m8 .7a7.3002 7.3002 0 1 1 -7.3 7.3 7.2987 7.2987 0 0 1 7.3-7.3zm-7.99609 7.04561a8.00014 8.00014 0 1 0 7.7417-7.7417 7.9832 7.9832 0 0 0 -7.7417 7.7417z"/>
        <path d="m10.50653 8.83431a.20339.20339 0 0 1 .20232.02539l2.21236 1.80078a.15823.15823 0 0 1 .058.11914.16.16 0 0 1 -.058.12305l-2.21236 1.82715a.20576.20576 0 0 1 -.20232.02539.1542.1542 0 0 1 -.10936-.14942v-1.15234h-7.19261a.19467.19467 0 0 1 -.13233-.0459.15444.15444 0 0 1 -.0514-.11914v-.9873a.15444.15444 0 0 1 .0514-.11914.19467.19467 0 0 1 .13233-.0459h7.19261v-1.15332a.149.149 0 0 1 .10936-.14844z"/>
        <path d="m5.49347 3.721a.15527.15527 0 0 1 .10936.14844v1.15335h7.19152a.19564.19564 0 0 1 .13342.04589.15447.15447 0 0 1 .0514.11915v.9873a.15444.15444 0 0 1 -.0514.11914.19564.19564 0 0 1 -.13342.0459h-7.19152v1.15234a.15065.15065 0 0 1 -.10936.14942.20541.20541 0 0 1 -.20232-.02539l-2.21236-1.80176a.15482.15482 0 0 1 -.058-.11817.16.16 0 0 1 .058-.123l2.21236-1.82719a.203.203 0 0 1 .20232-.02542z"/>
    </g>
</svg>
