<svg xmlns="http://www.w3.org/2000/svg" role="img" viewBox="0 0 16 16">
    <title>
        green line C
    </title>
    <path fill="#00843d" d="m8 0a8 8 0 1 0 8 8 8 8 0 0 0 -8-8"/>
    <path fill="#fff" d="m9.91236 6.22237a1.685 1.685 0 0 0 -.37441-.423 1.75365 1.75365 0 0 0 -1.10334-.3859 1.96325 1.96325 0 0 0 -.9632.21962 1.8196 1.8196 0 0 0 -.64318.58932 2.59 2.59 0 0 0 -.35871.84031 4.22351 4.22351 0 0 0 -.1119.97471 3.92818 3.92818 0 0 0 .1119.937 2.536 2.536 0 0 0 .35871.8194 1.83829 1.83829 0 0 0 .64318.58357 1.95744 1.95744 0 0 0 .9632.21962 1.55383 1.55383 0 0 0 1.20479-.47114 2.17357 2.17357 0 0 0 .53023-1.24243h1.62837a3.87815 3.87815 0 0 1 -.33257 1.29577 3.08815 3.08815 0 0 1 -.707.98516 2.99838 2.99838 0 0 1 -1.02805.62122 3.76351 3.76351 0 0 1 -1.29577.2144 3.92217 3.92217 0 0 1 -1.57918-.30538 3.393 3.393 0 0 1 -1.18387-.84084 3.71981 3.71981 0 0 1 -.73835-1.25812 4.61521 4.61521 0 0 1 -.25727-1.55827 4.77251 4.77251 0 0 1 .25727-1.59017 3.83132 3.83132 0 0 1 .73835-1.28008 3.3914 3.3914 0 0 1 1.18387-.85653 3.86194 3.86194 0 0 1 1.57918-.31061 3.853 3.853 0 0 1 1.19433.182 3.25411 3.25411 0 0 1 1.00712.53023 2.86159 2.86159 0 0 1 .73312.86228 3.08969 3.08969 0 0 1 .36395 1.1776h-1.6273a1.37793 1.37793 0 0 0 -.19347-.52974z"/>
</svg>
