<svg xmlns="http://www.w3.org/2000/svg" xmlns:xlink="http://www.w3.org/1999/xlink" data-name="Layer 1" role="img" viewBox="0 0 48 48">
    <title>
        vehicle
    </title>
    <defs>
        <style>
            .cls-1{fill:#fff;}
        </style>
    </defs>
    <path d="M42.88,47a2.56,2.56,0,0,1-1.07-.24L25.88,39.59a4.62,4.62,0,0,0-3.76,0L6.19,46.76A2.56,2.56,0,0,1,5.12,47h0a2.65,2.65,0,0,1-2.18-1.22,2.49,2.49,0,0,1-.15-2.46L21.66,2.5a2.58,2.58,0,0,1,4.68,0L45.21,43.32a2.53,2.53,0,0,1-.15,2.46A2.65,2.65,0,0,1,42.88,47Z" class="cls-1"/>
    <path d="M24,2a1.55,1.55,0,0,1,1.44.92L44.3,43.74a1.5,1.5,0,0,1-.09,1.5,1.61,1.61,0,0,1-1.33.76,1.58,1.58,0,0,1-.66-.15L26.29,38.68a5.6,5.6,0,0,0-4.58,0L5.78,45.85a1.58,1.58,0,0,1-.66.15,1.61,1.61,0,0,1-1.33-.76,1.5,1.5,0,0,1-.09-1.5L22.56,2.92A1.55,1.55,0,0,1,24,2m0-2a3.52,3.52,0,0,0-3.25,2.08L1.88,42.9a3.57,3.57,0,0,0,4.73,4.77l15.92-7.16a3.54,3.54,0,0,1,2.94,0l15.92,7.16a3.57,3.57,0,0,0,4.73-4.77L27.25,2.08A3.52,3.52,0,0,0,24,0Z"/>
</svg>
