<svg role="img" viewBox="0 0 16 16">
    <title>
        variant
    </title>
    <g fill="#165c96">
        <path d="m8 .7a7.3002 7.3002 0 1 1 -7.3 7.3 7.2987 7.2987 0 0 1 7.3-7.3zm-7.99609 7.04561a8.00014 8.00014 0 1 0 7.7417-7.7417 7.9832 7.9832 0 0 0 -7.7417 7.7417z"/>
        <path d="m6.18859 5.571 1.50327-1.50329h-4.00872v4.00872l1.50327-1.50327 1.1019 1.1019 1.00218-1.00218zm4.73661.83023 1.67522 1.67522v-4.00874h-4.00872l1.3313 1.33129-1.54167 1.54172a4.60315 4.60315 0 0 0 -1.20693 2.91641v4.25324h1.4173v-4.25324a3.22071 3.22071 0 0 1 .79181-1.91423z"/>
    </g>
</svg>
