<svg width="100%" height="100%" viewBox="0 0 24 24" role="img" xmlns="http://www.w3.org/2000/svg" xmlns:xlink="http://www.w3.org/1999/xlink" style="fill-rule:evenodd;clip-rule:evenodd;stroke-linejoin:round;stroke-miterlimit:2;">
    <path d="M12.062,24C18.784,23.827 24.172,18.362 23.996,11.936C23.814,5.311 18.56,-0.035 11.934,0C5.308,0.036 -0.035,5.437 0,12.064C0.036,18.692 5.436,24.035 12.062,24" style="fill:rgb(237,139,0);fill-rule:nonzero;"/>
    <path d="M18.565,10.668L17.906,5.498C17.739,4.565 17.149,4.201 16.272,3.82C14.835,3.306 13.319,3.029 11.788,3C10.254,3.03 8.737,3.307 7.297,3.82C6.43,4.194 5.841,4.565 5.662,5.498L5,10.668L5,17.82L6.163,17.82L6.163,19.066C6.164,19.577 6.591,19.992 7.118,19.993C7.645,19.992 8.072,19.577 8.074,19.066L8.074,17.82L15.526,17.82L15.526,19.066C15.524,19.399 15.705,19.707 16.002,19.875C16.298,20.042 16.665,20.042 16.961,19.875C17.258,19.707 17.439,19.399 17.437,19.066L17.437,17.82L18.565,17.82L18.565,10.668ZM8.996,4.307L14.602,4.307C14.839,4.307 15.031,4.494 15.031,4.724C15.031,4.955 14.839,5.141 14.602,5.141L8.996,5.141C8.759,5.141 8.567,4.955 8.567,4.724C8.567,4.494 8.759,4.307 8.996,4.307ZM6.75,6.435L6.205,10.516C6.197,10.563 6.197,10.611 6.205,10.657C6.198,10.798 6.249,10.936 6.346,11.04C6.444,11.144 6.58,11.206 6.725,11.212L16.891,11.212C17.035,11.214 17.175,11.159 17.277,11.06C17.38,10.961 17.437,10.826 17.437,10.686L17.437,10.657C17.444,10.611 17.444,10.563 17.437,10.516L16.891,6.435C16.847,6.178 16.617,5.99 16.349,5.993L7.296,5.993C7.027,5.99 6.796,6.177 6.75,6.435ZM7.118,15.608C6.557,15.609 6.1,15.168 6.099,14.622C6.098,14.077 6.553,13.634 7.115,13.633C7.676,13.632 8.133,14.073 8.134,14.618C8.135,14.88 8.028,15.132 7.837,15.318C7.647,15.503 7.388,15.608 7.118,15.608ZM15.464,14.62C15.464,15.165 15.918,15.607 16.48,15.608L16.48,15.608C16.75,15.609 17.01,15.505 17.201,15.319C17.392,15.133 17.5,14.881 17.499,14.618C17.498,14.073 17.042,13.632 16.481,13.633C15.92,13.633 15.465,14.075 15.464,14.62Z" style="fill:white;"/>
</svg>
