<svg width="24" height="24" viewBox="0 0 24 24" fill="none" xmlns="http://www.w3.org/2000/svg">
  <g clip-path="url(#clip0_8728_5136)">
    <path d="M11 1.5C11 0.947715 11.4477 0.5 12 0.5C12.5523 0.5 13 0.947715 13 1.5V3.5C13 4.05228 12.5523 4.5 12 4.5C11.4477 4.5 11 4.05228 11 3.5V1.5Z" fill="#FFCE0C"/>
    <path d="M11 22.5C11 23.0523 11.4477 23.5 12 23.5C12.5523 23.5 13 23.0523 13 22.5V20.5C13 19.9477 12.5523 19.5 12 19.5C11.4477 19.5 11 19.9477 11 20.5V22.5Z" fill="#FFCE0C"/>
    <path d="M22.5 11C23.0523 11 23.5 11.4477 23.5 12C23.5 12.5523 23.0523 13 22.5 13H20.5C19.9477 13 19.5 12.5523 19.5 12C19.5 11.4477 19.9477 11 20.5 11H22.5Z" fill="#FFCE0C"/>
    <path d="M1.5 11C0.947715 11 0.5 11.4477 0.5 12C0.5 12.5523 0.947715 13 1.5 13H3.5C4.05228 13 4.5 12.5523 4.5 12C4.5 11.4477 4.05228 11 3.5 11H1.5Z" fill="#FFCE0C"/>
    <path d="M3.86824 5.28255C3.47772 4.89202 3.47772 4.25886 3.86824 3.86833C4.25876 3.47781 4.89193 3.47781 5.28245 3.86833L6.69667 5.28255C7.08719 5.67307 7.08719 6.30624 6.69667 6.69676C6.30614 7.08728 5.67298 7.08728 5.28245 6.69676L3.86824 5.28255Z" fill="#FFCE0C"/>
    <path d="M18.7175 20.1318C19.108 20.5223 19.7412 20.5223 20.1317 20.1318C20.5222 19.7413 20.5222 19.1081 20.1317 18.7176L18.7175 17.3034C18.327 16.9128 17.6938 16.9128 17.3033 17.3034C16.9127 17.6939 16.9127 18.3271 17.3033 18.7176L18.7175 20.1318Z" fill="#FFCE0C"/>
    <path d="M18.7175 3.86824C19.108 3.47772 19.7411 3.47772 20.1317 3.86824C20.5222 4.25876 20.5222 4.89193 20.1317 5.28245L18.7175 6.69667C18.3269 7.08719 17.6938 7.08719 17.3032 6.69667C16.9127 6.30614 16.9127 5.67298 17.3032 5.28245L18.7175 3.86824Z" fill="#FFCE0C"/>
    <path d="M3.86821 18.7175C3.47769 19.108 3.47769 19.7412 3.86821 20.1317C4.25874 20.5222 4.8919 20.5222 5.28243 20.1317L6.69664 18.7175C7.08716 18.327 7.08716 17.6938 6.69664 17.3033C6.30612 16.9127 5.67295 16.9127 5.28243 17.3033L3.86821 18.7175Z" fill="#FFCE0C"/>
    <path d="M18 12C18 15.3137 15.3137 18 12 18C8.68629 18 6 15.3137 6 12C6 8.68629 8.68629 6 12 6C15.3137 6 18 8.68629 18 12Z" fill="#FFCE0C"/>
  </g>
  <defs>
    <clipPath id="clip0_8728_5136">
      <rect width="24" height="24" fill="white"/>
    </clipPath>
  </defs>
</svg>
