<?xml version="1.0" encoding="UTF-8"?>
<svg xmlns="http://www.w3.org/2000/svg" viewBox="0 0 8.5 8.5">
  <circle fill="#104c8f" cx="4.25" cy="4.25" r="4.25"/>
  <g>
    <path fill="#fff" d="M3,2.94c-.1-.12-.24-.18-.43-.18-.25,0-.43.09-.52.28-.05.11-.08.28-.09.52h-.81c.01-.36.08-.65.2-.88.22-.42.62-.64,1.19-.64.45,0,.81.12,1.07.37s.4.58.4.99c0,.31-.09.59-.28.84-.12.16-.33.34-.61.54l-.33.24c-.21.15-.35.26-.43.32s-.14.14-.19.23h1.85v.74H1.1c0-.3.07-.58.2-.83.12-.28.4-.58.84-.9.38-.28.63-.47.75-.59.17-.19.26-.39.26-.61,0-.18-.05-.33-.15-.45Z"/>
    <path fill="#fff" d="M6.34,2.94c-.1-.12-.24-.18-.43-.18-.25,0-.43.09-.52.28-.05.11-.08.28-.09.52h-.81c.01-.36.08-.65.2-.88.22-.42.62-.64,1.19-.64.45,0,.81.12,1.07.37s.4.58.4.99c0,.31-.09.59-.28.84-.12.16-.33.34-.61.54l-.33.24c-.21.15-.35.26-.43.32-.08.07-.14.14-.19.23h1.85v.74h-2.91c0-.3.07-.58.2-.83.12-.28.4-.58.84-.9.38-.28.63-.47.75-.59.17-.19.26-.39.26-.61,0-.18-.05-.33-.15-.45Z"/>
  </g>
</svg>
