<svg width="18" height="17" viewBox="0 0 18 17" fill="none" xmlns="http://www.w3.org/2000/svg">
<path fill-rule="evenodd" clip-rule="evenodd" d="M9.50785 2.49933L8.58579 3.4214C7.80474 4.20244 7.80474 5.46877 8.58579 6.24982L11.5891 9.25309C11.7148 9.37884 11.8531 9.48435 12 9.56961V12.4993C12 13.6039 11.1046 14.4993 10 14.4993H2C0.895431 14.4993 0 13.6039 0 12.4993V4.49933C0 3.39476 0.895431 2.49933 2 2.49933H9.50785Z" fill="#A1C6ED"/>
<path fill-rule="evenodd" clip-rule="evenodd" d="M9.02817 11.2552L9.95144 10.9231L10.2068 11.5291L8.55698 12.1741L7.30027 9.23978L4.23645 9.239L4.05456 6.68715L3.9391 5.06743C3.87394 4.94727 3.83472 4.80416 3.83472 4.66436C3.83472 4.20605 4.20972 3.83234 4.6696 3.83234C5.12928 3.83234 5.50448 4.20605 5.50448 4.66436C5.50448 5.09018 5.17513 5.45418 4.75115 5.49307L4.84578 7.16683L6.98654 7.1678V7.94927L4.92422 7.94849L4.96363 8.47679L7.81205 8.45754L9.02817 11.2552ZM2.83859 10.1039C2.83859 11.3296 3.84184 12.3295 5.07182 12.3295C6.19722 12.3295 7.15697 11.4687 7.2875 10.3648L7.83244 11.4758C7.3154 12.4945 6.23312 13.1657 5.07865 13.1657C3.38294 13.1657 2 11.7875 2 10.0974C2 8.91115 2.72152 7.80847 3.79833 7.31964L3.86799 8.22594C3.23115 8.62591 2.83859 9.34748 2.83859 10.1039Z" fill="white"/>
<path fill-rule="evenodd" clip-rule="evenodd" d="M12.0571 0.890829L9.05752 3.89041C8.53682 4.41111 8.53682 5.25533 9.05752 5.77603L12.0571 8.77561C12.5778 9.29631 13.422 9.29631 13.9427 8.77561L16.9423 5.77603C17.463 5.25533 17.463 4.41111 16.9423 3.89041L13.9427 0.89083C13.422 0.370131 12.5778 0.37013 12.0571 0.890829ZM12.3727 3.28117C12.3501 2.91891 12.6378 2.61266 13.0008 2.61266C13.3637 2.61266 13.6514 2.91891 13.6288 3.28117L13.5183 5.0493C13.5012 5.32259 13.2746 5.5355 13.0008 5.5355C12.7269 5.5355 12.5003 5.32259 12.4832 5.0493L12.3727 3.28117ZM12.4528 6.69235C12.4528 6.38969 12.6982 6.14432 13.0009 6.14432C13.3035 6.14432 13.5489 6.38969 13.5489 6.69235C13.5489 6.99502 13.3035 7.24039 13.0009 7.24039C12.6982 7.24039 12.4528 6.99502 12.4528 6.69235Z" fill="#192026"/>
</svg>
