<?xml version="1.0" encoding="UTF-8"?>
<svg xmlns="http://www.w3.org/2000/svg" viewBox="0 0 8.5 8.5">
  <circle fill="#e81d2d" cx="4.25" cy="4.25" r="4.25"/>
  <path fill="#b74326" d="M6.95,6.47h0c-.65.79-1.62,1.28-2.7,1.28-1.93,0-3.5-1.57-3.5-3.5,0-.35.05-.69.15-1.01.28-.04.59-.01.92.1.61.25,1.02.68,1.02,1.14.36-.34,1-.43,1.61-.2.78.28,1.25.98,1.08,1.59.25-.14.53-.14.79-.06.31.12.52.36.63.66Z"/>
  <path fill="#fff" d="M6.04,1.63c.15-.07.48-.07.55.08s-.13.41-.28.49l-.52.25-.07,1c0,.06-.04.11-.09.13l-.25.12s-.1,0-.11-.06l-.15-.87-.46.22-.07.35s-.02.05-.04.06l-.19.09s-.08,0-.09-.03c0,0,0-.01,0-.02l-.1-.56-.38-.42s0-.01-.01-.02c-.02-.03,0-.08.03-.09l.19-.09s.05-.01.07,0l.32.16.46-.22-.59-.66s-.02-.1.02-.12l.25-.12c.05-.02.11-.02.16.01l.82.57.52-.25h0Z"/>
  <path fill="#fff" d="M6.95,6.47h0c-.65.79-1.62,1.28-2.7,1.28-1.93,0-3.5-1.57-3.5-3.5,0-.35.05-.69.15-1.01.28-.04.59-.01.92.1.61.25,1.02.68,1.02,1.14.36-.34,1-.43,1.61-.2.78.28,1.25.98,1.08,1.59.25-.14.53-.14.79-.06.31.12.52.36.63.66Z"/>
</svg>
