<svg role="img" viewBox="0 0 48 48">
    <title>
        support
    </title>
    <path fill="#fff" d="m22.05 4.5762a6.3974 6.3974 0 0 1 1.14-.54 2.26 2.26 0 0 1 1.62 0 6.4019 6.4019 0 0 1 1.19.54c.47.28 2.69 1.8 2.78 1.86h4.86l-4.92-3.43c-.37-.25-.82-.53-1.34-.84a8.8687 8.8687 0 0 0 -1.68-.78 5 5 0 0 0 -3.39 0 8.6571 8.6571 0 0 0 -1.69.78c-.52.31-1 .59-1.34.84l-4.89 3.43h4.88c.09-.06 2.31-1.58 2.78-1.86z"/>
    <path fill="#fff" d="m45.77 15.8262a13.68 13.68 0 0 0 -3.19-3.14l-2.06-1.44v3.42c.2.13.36.25.47.33a10.729 10.729 0 0 1 2.54 2.51 4.46 4.46 0 0 1 1.07 2.56v1.12c-1.35.92-13.16 9.88-14.11 10.58s-1.65 1.19-2.22 1.57a12.3932 12.3932 0 0 1 -2.08 1 5.06 5.06 0 0 1 -4.38 0 12.3932 12.3932 0 0 1 -2.08-1c-.57-.37-1.31-.9-2.22-1.57-2.1-1.55-13.22-9.9-14.11-10.57v-.64a5.06 5.06 0 0 1 1-2.92 10.5076 10.5076 0 0 1 2.6-2.65v-3.41l-1.6 1.11a13.1185 13.1185 0 0 0 -3.35 3.38 7.88 7.88 0 0 0 -1.45 4.49v21.21a5.16 5.16 0 0 0 1.56 3.76 5.17 5.17 0 0 0 3.77 1.57h36.14a5.36 5.36 0 0 0 5.33-5.33v-21.75a7.13 7.13 0 0 0 -1.63-4.19zm-1.17 25.94a2.54 2.54 0 0 1 -2.53 2.53h-36.14a2.4 2.4 0 0 1 -1.79-.75 2.4 2.4 0 0 1 -.74-1.78v-17.07c3.41 2.56 10.78 8.07 12.45 9.32 1 .69 1.73 1.25 2.33 1.64a15.0056 15.0056 0 0 0 2.56 1.31 8.53 8.53 0 0 0 3.29.71 8.4811 8.4811 0 0 0 3.23-.71 15.8521 15.8521 0 0 0 2.56-1.3c.61-.41 1.39-1 2.32-1.65s9.49-7.32 12.46-9.42z"/>
    <path fill="#5da9e8" d="m7 19.9162a1.45 1.45 0 1 0 2.9.0017v-10.5817h27.72v16.94c.94-.72 1.92-1.45 2.9-2.18v-16.21a1.45 1.45 0 0 0 -1.45-1.45h-30.63a1.45 1.45 0 0 0 -1.44 1.45z"/>
</svg>
