<svg role="img" viewBox="0 0 16 16">
    <title>
        calendar
    </title>
    <path fill="#165c96" d="m13.997 2h-1.30966v1.35974a.99015.99015 0 0 1 -1.00149.97233h-.58526a.99014.99014 0 0 1 -1.00149-.97233v-1.35974h-4.28161v1.35974a.99015.99015 0 0 1 -1.0015.97233h-.58526a.99015.99015 0 0 1 -1.00149-.97233v-1.35974h-1.22624a1.98028 1.98028 0 0 0 -2.003 1.94466v10.11068a1.98028 1.98028 0 0 0 2.003 1.94466h11.994a1.98028 1.98028 0 0 0 2.003-1.94466v-10.11068a1.98028 1.98028 0 0 0 -2.003-1.94466z"/>
    <g fill="#fff">
        <path d="m2 6h2.18182v2h-2.18182z"/>
        <path d="m5.27273 6h2.18182v2h-2.18182z"/>
        <path d="m8.54545 6h2.18182v2h-2.18182z"/>
        <path d="m11.81818 6h2.18182v2h-2.18182z"/>
        <path d="m2 9h2.18182v2h-2.18182z"/>
        <path d="m5.27273 9h2.18182v2h-2.18182z"/>
        <path d="m8.54545 9h2.18182v2h-2.18182z"/>
        <path d="m11.81818 9h2.18182v2h-2.18182z"/>
        <path d="m2 12h2.18182v2h-2.18182z"/>
        <path d="m5.27273 12h2.18182v2h-2.18182z"/>
        <path d="m8.54545 12h2.18182v2h-2.18182z"/>
        <path d="m11.81818 12h2.18182v2h-2.18182z"/>
    </g>
    <rect width="1.46141" height="3.68732" x="3.81131" fill="#165c96" rx=".55"/>
    <rect width="1.46141" height="3.68732" x="10.63944" fill="#165c96" rx=".55"/>
</svg>
