<svg xmlns="http://www.w3.org/2000/svg" xmlns:xlink="http://www.w3.org/1999/xlink" data-name="Layer 1" role="img" viewBox="0 0 48 48">
    <title>
        the ride
    </title>
    <ellipse cx="24" cy="24" fill="#52bbc5" class="cls-2" rx="23.99" ry="24.01" transform="translate(-9.94 24) rotate(-45)"/>
    <path d="M37.94,20.12H36.28l-.51-2.47a2,2,0,0,0-.09-.33l-1.14-2.94a1.53,1.53,0,0,0,.25-.84v-3A2.79,2.79,0,0,0,32,7.74H16.13a2.79,2.79,0,0,0-2.79,2.79v3a1.61,1.61,0,0,0,.24.84l-1.13,2.94c0,.11-.07.22-.1.33l-.51,2.47H10.18a.92.92,0,0,0-.92.92V24.2a.92.92,0,0,0,.92.91h.64V36.69H13v2.25a1.91,1.91,0,1,0,3.8,0V36.69H31.29v2.25a1.91,1.91,0,1,0,3.8,0V36.69H37.3V25.11h.64a.92.92,0,0,0,.92-.91V21A.92.92,0,0,0,37.94,20.12Zm-23,12a1.83,1.83,0,1,1,1.82-1.83A1.83,1.83,0,0,1,14.94,32.09Zm-1.77-7.4,1-5.54c.09-1.27.52-1.53,1-1.54H32.9c.5,0,.93.27,1,1.54l1,5.54Zm20,7.4A1.83,1.83,0,1,1,35,30.26,1.83,1.83,0,0,1,33.19,32.09Z"/>
</svg>
