<?xml version="1.0" encoding="UTF-8"?>
<svg xmlns="http://www.w3.org/2000/svg" viewBox="0 0 8.5 8.5">
  <circle fill="#104c8f" cx="4.25" cy="4.25" r="4.25"/>
  <g>
    <path fill="#fff" d="M1.44,6.06c-.24-.25-.37-.55-.37-.91,0-.24.05-.45.16-.65s.27-.34.48-.44c-.21-.14-.34-.29-.4-.44s-.09-.31-.09-.45c0-.31.12-.57.35-.79s.56-.33.98-.33.75.11.98.33.35.48.35.79c0,.14-.03.29-.09.45s-.19.3-.4.42c.21.12.37.27.47.47s.16.41.16.65c0,.36-.13.66-.4.91s-.63.38-1.11.38-.83-.13-1.08-.38ZM1.94,5.09c0,.21.05.37.16.49s.26.17.45.17.34-.06.45-.17.16-.28.16-.49-.06-.38-.17-.49-.26-.17-.45-.17-.34.06-.45.17-.17.28-.17.49ZM2.16,3.65c.09.1.22.15.39.15s.3-.05.39-.15.14-.22.14-.38c0-.17-.05-.3-.14-.39s-.22-.14-.39-.14-.3.05-.39.14-.14.23-.14.39c0,.15.05.28.14.38Z"/>
    <path fill="#fff" d="M4.77,6.06c-.24-.25-.37-.55-.37-.91,0-.24.05-.45.16-.65s.27-.34.48-.44c-.21-.14-.34-.29-.4-.44s-.09-.31-.09-.45c0-.31.12-.57.35-.79.23-.22.56-.33.98-.33s.75.11.98.33.35.48.35.79c0,.14-.03.29-.09.45-.06.16-.2.3-.4.42.21.12.37.27.47.47s.16.41.16.65c0,.36-.13.66-.4.91-.27.25-.63.38-1.11.38s-.83-.13-1.08-.38ZM5.28,5.09c0,.21.05.37.16.49.11.12.26.17.45.17s.34-.06.45-.17c.11-.12.16-.28.16-.49s-.06-.38-.17-.49c-.11-.11-.26-.17-.45-.17s-.34.06-.44.17c-.11.11-.17.28-.17.49ZM5.49,3.65c.09.1.22.15.39.15s.3-.05.39-.15c.09-.1.14-.22.14-.38,0-.17-.05-.3-.14-.39-.09-.09-.22-.14-.39-.14s-.3.05-.39.14c-.1.09-.14.23-.14.39,0,.15.05.28.14.38Z"/>
  </g>
</svg>
