<svg xmlns="http://www.w3.org/2000/svg" xmlns:xlink="http://www.w3.org/1999/xlink" role="img" viewBox="0 0 48 48">
    <title>
        map
    </title>
    <path fill="#5da9e8" d="m45.0288 13.3725v-4.81l-6.31 8.34-4.79-2-4.11-6.7-4.21-1.36 6.08 9.92a1.49 1.49 0 0 0 .67.57l4.56 2-1.99 2.67-1.9 1.39-8.36-13.65a1.4544 1.4544 0 0 0 -2.48 1.52l7.54 12.3-4.31-.24-8.24-14a1.6546 1.6546 0 0 0 -.25-.32l-3.86-3.91-3.07 1 4.77 4.77 7.16 12.27-5.94-.33a1.5591 1.5591 0 0 0 -.71.14l-12.47 6v3.22l13.39-6.43 7.49.41 2.84 4.86-10.77 1.18a1.5385 1.5385 0 0 0 -.5.16l-12.43 6.47v3.27l13.53-7 11.77-1.4 3.23 5.51-1.26 4.12 2.3.71.58-.2 1.34-4.4a1.4494 1.4494 0 0 0 -.14-1.15l-3.08-5.27a1.3583 1.3583 0 0 0 .3-.41l1.93-4.17 2.6 2.58a1.4507 1.4507 0 0 0 1 .43 1.337 1.337 0 0 0 .28 0l7.82-1.56v-3l-7.62 1.53-2.72-2.7 2.09-1.53a1.2624 1.2624 0 0 0 .31-.3l2.58-3.41 5.36 2.3v-3.15l-3.56-1.53zm-15.65 16.71-2.2-3.76 3.84.21z"/>
    <path fill="#fff" d="m47.8288 4.8625v-2.36a1.4 1.4 0 0 0 -1.9-1.32l-13.53 4.82-4.8-1.5-4.21-1.29-6.54-2a1.4787 1.4787 0 0 0 -.86 0l-5.13 1.67-3.07 1-6.8 2.29a1.41 1.41 0 0 0 -.96 1.33v38a1.43 1.43 0 0 0 .58 1.14 1.4311 1.4311 0 0 0 .82.26 1.3112 1.3112 0 0 0 .44-.07l14.57-4.83 12.85 4 2.72.85h.05a1.34 1.34 0 0 0 .84 0l14-5a1.4 1.4 0 0 0 .93-1.32zm-2.8 17.9v16.75l-12.05 4.31-.58.2-2.3-.71-13.25-4.15a1.5146 1.5146 0 0 0 -.42-.06 1.3087 1.3087 0 0 0 -.44.07l-13.16 4.39v-35.05l7.17-2.39 3.07-1 3.37-1.12 9.17 2.87 4.21 1.31 2.19.69a1.421 1.421 0 0 0 .89 0l12.13-4.38z"/>
</svg>
