<svg xmlns="http://www.w3.org/2000/svg" role="img" viewBox="0 0 16 16">
    <title>
        green line D
    </title>
    <path fill="#00843d" d="m8 0a8 8 0 1 0 8 8 8 8 0 0 0 -8-8"/>
    <path fill="#fff" d="m7.90973 4a4.12016 4.12016 0 0 1 1.43992.24673 3.12441 3.12441 0 0 1 1.15435.73966 3.404 3.404 0 0 1 .76154 1.232 4.96822 4.96822 0 0 1 .27464 1.737 5.52384 5.52384 0 0 1 -.22431 1.61335 3.55236 3.55236 0 0 1 -.67729 1.27744 3.1858 3.1858 0 0 1 -1.13137.84579 3.8368 3.8368 0 0 1 -1.59748.30803h-3.44991v-8zm-.12255 6.52123a2.252 2.252 0 0 0 .73966-.12364 1.62238 1.62238 0 0 0 .6379-.40867 2.04332 2.04332 0 0 0 .44861-.74513 3.28738 3.28738 0 0 0 .1685-1.12042 4.64682 4.64682 0 0 0 -.11817-1.09253 2.18483 2.18483 0 0 0 -.38624-.83484 1.7182 1.7182 0 0 0 -.71121-.53176 2.83742 2.83742 0 0 0 -1.09307-.18492h-1.255v5.04192z"/>
</svg>
