<svg xmlns="http://www.w3.org/2000/svg" xmlns:xlink="http://www.w3.org/1999/xlink" role="img" viewBox="0 0 8.5 8.5">
  <title>Massport Airport Shuttle Route 77</title>
  <circle fill="#104c8f" cx="4.25" cy="4.25" r="4.25"/>
  <g>
    <path fill="#fff" d="M3.56,3.44c-.22.32-.41.64-.56.98-.12.26-.23.59-.32.97s-.14.69-.14.94h-.87c.03-.76.28-1.55.75-2.38.31-.51.56-.87.77-1.07H1.07v-.75h3.01v.65c-.12.12-.3.34-.52.66Z"/>
    <path fill="#fff" d="M6.89,3.44c-.22.32-.41.64-.56.98-.12.26-.23.59-.32.97s-.14.69-.14.94h-.87c.03-.76.28-1.55.75-2.38.31-.51.56-.87.77-1.07h-2.12v-.75h3.01v.65c-.12.12-.3.34-.52.66Z"/>
  </g>
</svg>
