<svg role="img" viewBox="0 0 48 48">
    <title>
        parking
    </title>
    <path fill="#788093" d="m42.71047.00524s-37.34559-.0118-37.33368 0c-3.44194 0-5.37679 1.77646-5.37679 5.40607v37.416c0 3.39508 1.73958 5.17269 5.17869 5.17269h37.63978c3.43929 0 5.18153-1.68908 5.18153-5.17265v-37.41604c0-3.54109-1.74224-5.40607-5.28953-5.40607z"/>
    <path fill="#fff" d="m25.88644 8h-15.6855v32h7.12964v-10.4993h8.22834c6.22716 0 12.24014-4.5885 12.24014-10.73 0-5.46347-5.0538-10.7707-11.91262-10.7707zm-.45124 15.60626h-8.01444v-9.67463h8.10469a5.21731 5.21731 0 0 1 5.2591 4.91418c0 2.80959-2.46143 4.76045-5.34935 4.76045z"/>
</svg>
