<svg xmlns="http://www.w3.org/2000/svg" xmlns:xlink="http://www.w3.org/1999/xlink" width="522.29" height="598.92" viewBox="0 0 522.29 598.92"><defs><style>.cls-1{fill:#fff;}</style></defs><g id="LOGOS"><path class="cls-1" d="M444.28,120.05a143.54,143.54,0,0,1-62.81-93.92A143.33,143.33,0,0,1,379,0h-103l-.17,412.66a86.5,86.5,0,1,1-86.39-89.82,84.94,84.94,0,0,1,25.54,4V221.73a188.85,188.85,0,0,0-25.54-1.85C85,219.88,0,304.9,0,409.4A189.82,189.82,0,0,0,189.52,598.92C294,598.92,379,513.91,379,409.4V200.15a244.87,244.87,0,0,0,143.25,46.07v-103A142.39,142.39,0,0,1,444.28,120.05Z"/></g></svg>
