<svg xmlns="http://www.w3.org/2000/svg" xmlns:xlink="http://www.w3.org/1999/xlink" role="img" viewBox="0 0 48 48">
    <title>
        flag stop
    </title>
    <path fill="#80276c" d="m19.56 20.58h-3.88l.78-3.87h3.87c.28-1.37.56-2.6.87-3.69a8.51 8.51 0 0 1 1.32-2.83 5.63 5.63 0 0 1 2.32-1.82 9.79 9.79 0 0 1 3.83-.64 16.21 16.21 0 0 1 2 .12l1.86.2-.86 4a8.55 8.55 0 0 0 -2-.19 4.52 4.52 0 0 0 -2 .37 2.59 2.59 0 0 0 -1.1 1 5 5 0 0 0 -.57 1.54c-.12.59-.27 1.24-.45 1.94h4.55l-.77 3.87h-4.58l-4.1 19.69h-5.19z"/>
</svg>
