<svg role="img" viewBox="0 0 48 48">
    <title>
        calendar
    </title>
    <path fill="#165c96" d="m42.08533 4.80469h-3.92316v4.19531a3.00887 3.00887 0 0 1 -3 3h-1.75317a3.00883 3.00883 0 0 1 -3-3v-4.19531h-12.82569v4.19531a3.00883 3.00883 0 0 1 -3 3h-1.75317a3.00887 3.00887 0 0 1 -3-3v-4.19531h-3.67328a6.01765 6.01765 0 0 0 -6 6v31.19531a6.01765 6.01765 0 0 0 6 6h35.92847a6.01766 6.01766 0 0 0 6-6v-31.19531a6.01766 6.01766 0 0 0 -6-6z"/>
    <g fill="#fff">
        <path d="m3 14h9v8.05755h-9z"/>
        <path d="m14 14h9v8.05755h-9z"/>
        <path d="m25 14h9v8.05755h-9z"/>
        <path d="m36 14h9v8.05755h-9z"/>
        <path d="m3 24.93525h9v8.20144h-9z"/>
        <path d="m14 24.93525h9v8.20144h-9z"/>
        <path d="m25 24.93525h9v8.20144h-9z"/>
        <path d="m36 24.93525h9v8.20144h-9z"/>
        <path d="m3 35.94245h9v8.05755h-9z"/>
        <path d="m14 35.94245h9v8.05755h-9z"/>
        <path d="m25 35.94245h9v8.05755h-9z"/>
        <path d="m36 35.94245h9v8.05755h-9z"/>
    </g>
    <rect width="5" height="10.45833" x="11.25" fill="#165c96" rx="2"/>
    <rect width="5" height="10.45833" x="31.75" fill="#165c96" rx="2"/>
</svg>
