<svg xmlns="http://www.w3.org/2000/svg" role="img" viewBox="0 0 16 16">
    <title>
        boat
    </title>
    <path fill="#fff" d="m7.99993 15.50007a7.50007 7.50007 0 1 1 7.50007-7.50007 7.5 7.5 0 0 1 -7.50007 7.50007"/>
    <g fill="#1c1e23">
        <path d="m12.6 13.07v1.1a.81712.81712 0 0 1 -.19-.09 1.08477 1.08477 0 0 0 -1.15-.03 1.327 1.327 0 0 1 -1.36.03 1.1128 1.1128 0 0 0 -1.19-.04 1.457 1.457 0 0 1 -1.43 0 1.09284 1.09284 0 0 0 -1.19.04 1.30468 1.30468 0 0 1 -1.36-.04 1.12472 1.12472 0 0 0 -1.16.04.25063.25063 0 0 0 -.07.04v-1.09a.07583.07583 0 0 0 .04-.02 1.22855 1.22855 0 0 1 1.4.08 1.37912 1.37912 0 0 0 1.19-.07 1.18568 1.18568 0 0 1 1.29.04 1.31353 1.31353 0 0 0 1.16 0 1.186 1.186 0 0 1 1.29-.04 1.38316 1.38316 0 0 0 1.19.07 1.24661 1.24661 0 0 1 1.4-.08.351.351 0 0 0 .14.06z"/>
        <path d="m11.06 10.98a.87762.87762 0 0 1 -.15.05 3.51709 3.51709 0 0 1 -.16-1.49 10.81375 10.81375 0 0 1 1.85-2.66l-.6-.24v-3.64h-1v-1h-1.99v.01h-.01v-.01h.01v-.99h-2v.99h-2.01v1h-1v3.64l-.59.24a10.46678 10.46678 0 0 1 1.83 2.64 3.75072 3.75072 0 0 1 -.15 1.5.41845.41845 0 0 1 -.15-.04 1.2264 1.2264 0 0 0 -1.4-.07c-.00995.01-.03.01-.04.02v1.08c.02-.01.05-.03.07-.04a1.10228 1.10228 0 0 1 1.16-.03 1.32675 1.32675 0 0 0 1.36.03 1.09231 1.09231 0 0 1 1.19-.03 1.457 1.457 0 0 0 1.43 0 1.09273 1.09273 0 0 1 1.19.04 1.32768 1.32768 0 0 0 1.36-.04 1.12876 1.12876 0 0 1 1.15.03 1.73655 1.73655 0 0 0 .19.1v-1.1a.4229.4229 0 0 1 -.14-.06 1.26247 1.26247 0 0 0 -1.4.07zm-3.06-8.98h.01v.01h-.01zm2.01 3.84v-.84h-1.01v-1h-2v1h-1v.84l-1 .4v-2.24h1v-1h4v1h1v2.24z"/>
        <path d="m8 .70333a7.29667 7.29667 0 1 1 -7.29667 7.29667 7.29667 7.29667 0 0 1 7.29667-7.29667zm-8 7.29667a8 8 0 1 0 8-8 8 8 0 0 0 -8 8z"/>
    </g>
</svg>
