<?xml version="1.0" encoding="UTF-8"?>
<svg id="Layer_1" data-name="Layer 1" xmlns="http://www.w3.org/2000/svg" viewBox="0 0 8.5 8.5">
  <defs>
    <style>
      .cls-1 {
        fill: #104c8f;
      }

      .cls-1, .cls-2 {
        stroke-width: 0px;
      }

      .cls-2 {
        fill: #fff;
      }
    </style>
  </defs>
  <circle class="cls-1" cx="4.25" cy="4.25" r="4.25"/>
  <g>
    <path class="cls-2" d="M3.35,6.33h-.86v-2.93h-1v-.57c.26-.01.45-.03.55-.05.17-.04.3-.11.41-.22.07-.08.13-.18.16-.3.02-.08.03-.13.03-.17h.69v4.25Z"/>
    <path class="cls-2" d="M6.36,6.33h-.86v-2.93h-1v-.57c.26-.01.45-.03.55-.05.17-.04.3-.11.41-.22.07-.08.13-.18.16-.3.02-.08.03-.13.03-.17h.69v4.25Z"/>
  </g>
</svg>