<?xml version="1.0" encoding="UTF-8"?>
<svg xmlns="http://www.w3.org/2000/svg" viewBox="0 0 8.5 8.5">
  <circle fill="#104c8f" cx="4.25" cy="4.25" r="4.25"/>
  <g>
    <path fill="#fff" d="M2.06,2.93c-.09.12-.14.29-.13.5h-.78c0-.21.04-.41.11-.6.07-.17.18-.32.32-.46.11-.1.24-.18.39-.23s.33-.08.55-.08c.41,0,.73.1.98.31s.37.49.37.85c0,.25-.07.46-.22.63-.09.11-.19.18-.29.22.08,0,.19.07.33.2.21.2.32.47.32.81,0,.36-.12.68-.37.95s-.62.41-1.11.41c-.6,0-1.02-.2-1.25-.59-.12-.21-.19-.48-.21-.82h.82c0,.17.03.31.08.42.1.21.29.31.55.31.16,0,.31-.06.43-.17s.18-.27.18-.48c0-.28-.11-.47-.34-.56-.13-.05-.33-.08-.61-.08v-.6c.27,0,.46-.03.57-.08.19-.08.28-.25.28-.5,0-.16-.05-.29-.14-.4s-.23-.15-.4-.15c-.2,0-.34.06-.43.19Z"/>
    <path fill="#fff" d="M5.4,2.93c-.09.12-.14.29-.13.5h-.78c0-.21.04-.41.11-.6.07-.17.18-.32.32-.46.11-.1.24-.18.39-.23s.33-.08.55-.08c.41,0,.73.1.98.31.25.21.37.49.37.85,0,.25-.07.46-.22.63-.09.11-.19.18-.29.22.08,0,.19.07.33.2.21.2.32.47.32.81,0,.36-.12.68-.37.95-.25.27-.62.41-1.11.41-.6,0-1.02-.2-1.25-.59-.12-.21-.19-.48-.21-.82h.82c0,.17.03.31.08.42.1.21.29.31.55.31.16,0,.31-.06.43-.17.12-.11.18-.27.18-.48,0-.28-.11-.47-.34-.56-.13-.05-.33-.08-.61-.08v-.6c.27,0,.46-.03.57-.08.19-.08.28-.25.28-.5,0-.16-.05-.29-.14-.4-.1-.1-.23-.15-.4-.15-.2,0-.34.06-.43.19Z"/>
  </g>
</svg>
