<?xml version="1.0" encoding="UTF-8"?>
<svg xmlns="http://www.w3.org/2000/svg" version="1.1" viewBox="0 0 18 18">
  <!-- Generator: Adobe Illustrator 29.4.0, SVG Export Plug-In . SVG Version: 2.1.0 Build 152)  -->
  <defs>
    <style>
      .st0 {
        fill: #fff;
        fill-rule: evenodd;
      }

      .st1 {
        fill: #165c96;
      }
    </style>
  </defs>
  <path class="st1" d="M0,2C0,.9.9,0,2,0h14c1.1,0,2,.9,2,2v14c0,1.1-.9,2-2,2H2c-1.1,0-2-.9-2-2V2Z"/>
  <path class="st0" d="M13.5,13.1l1.4-.5.4.9-2.5,1-1.9-4.4h-4.6s-.3-3.8-.3-3.8l-.2-2.4c0-.2-.2-.4-.2-.6,0-.7.6-1.2,1.3-1.2s1.3.6,1.3,1.2-.5,1.2-1.1,1.2v2.5c.1,0,3.4,0,3.4,0v1.2h-3.1s0,.8,0,.8h4.3s1.8,4.2,1.8,4.2ZM4.3,11.4c0,1.8,1.5,3.3,3.3,3.3s3.1-1.3,3.3-2.9l.8,1.7c-.8,1.5-2.4,2.5-4.1,2.5-2.5,0-4.6-2.1-4.6-4.6s1.1-3.4,2.7-4.2v1.4c-.9.6-1.4,1.7-1.4,2.8Z"/>
</svg>