<svg xmlns="http://www.w3.org/2000/svg" xmlns:xlink="http://www.w3.org/1999/xlink" role="img" viewBox="0 0 48 48">
    <path fill="none" d="m18.25 35.85-5.59 2.7.59 2.65 33.21-7.39-.9-4.04z"/>
    <path fill="none" d="m37.81 17.01-30.62 14.82 1.8 3.72 1.6-.77 29.03-14.05z"/>
    <path d="m47.93 34.86-.23-1-.06-.29-.9-4-.13-.59-2.77-12.52a2.91 2.91 0 0 0 -3.54-2.08l-2.19.48-5-10.41a2.91 2.91 0 0 0 -3.92-1.22l-27.43 13.26a2.91 2.91 0 0 0 -1.48 3.83l5.56 11.5.26.54 1.8 3.72.59 1.2.17.36a2.93 2.93 0 0 0 2.81 1.3l.56 2.54.29 1.31.09.38a2.94 2.94 0 0 0 3.49 1.83l29.78-6.62a3 3 0 0 0 2.25-3.52zm-37.34-.08-1.59.77-1.8-3.72 30.61-14.83 1.8 3.72zm2.66 6.41-.59-2.64 5.59-2.7 27.31-6.08.9 4z"/>
</svg>
