<svg xmlns="http://www.w3.org/2000/svg" xmlns:xlink="http://www.w3.org/1999/xlink" width="24" height="24" viewBox="0 0 24 24" fill="none">
<path fill-rule="evenodd" clip-rule="evenodd" d="M11.7977 4.61893C11.7975 5.5091 11.0735 6.23247 10.1828 6.23213C9.28712 6.23247 8.56306 5.5091 8.56205 4.61893C8.56306 3.7247 9.28712 3.00143 10.1828 3C11.0735 3.00143 11.7975 3.7247 11.7977 4.61893ZM19.0164 9.23668H21.0155C22.0078 9.23943 22.3942 8.23691 22.3951 7.70116C22.3942 7.16261 21.8496 6.2619 21.038 6.26092H17.71C17.0329 6.2619 16.6379 6.31164 16.2403 6.70925L6.52088 16.3819C6.15885 16.7401 5.74439 16.9191 5.11309 16.9198H2.95073C2.24838 16.9191 1.56795 17.4208 1.56546 18.3153C1.56795 19.2113 2.28151 19.8929 3.09151 19.8956H6.24496C6.87278 19.8929 7.36335 19.7404 7.74847 19.3576L17.3102 9.84192C17.7954 9.35763 18.1708 9.23943 19.0164 9.23668ZM17.4904 4.69739H21.1844C22.3942 4.69926 24.0014 5.90885 24 7.72358C24.0014 9.55611 22.4059 10.8277 21.2801 10.8282C20.244 10.8277 18.9376 10.8282 18.9376 10.8282C18.5877 10.8277 18.4752 10.8836 18.2731 11.0636L8.78461 20.4728C8.02257 21.1902 7.09564 21.4811 6.32942 21.4816C5.56635 21.4811 3.09151 21.4816 3.09151 21.4816C1.09869 21.4811 0.00126701 19.727 0 18.3377C0.00126701 16.9517 1.09869 15.315 2.9282 15.3171C2.9282 15.3171 4.74711 15.3154 4.74707 15.3171C5.29859 15.315 5.3328 15.3028 5.61427 15.0257L8.58752 12.0611H8.58189V7.99258C8.58198 5.89367 11.7305 5.87032 11.7297 7.99258V8.9901L15.1534 5.58843C15.7397 5.00636 16.7231 4.69524 17.4904 4.69739Z" fill="#165C96"/>
</svg>
