<?xml version="1.0" encoding="UTF-8"?>
<svg xmlns="http://www.w3.org/2000/svg" viewBox="0 0 8.5 8.5">
  <circle fill="#104c8f" cx="4.25" cy="4.25" r="4.25"/>
  <g>
    <path fill="#fff" d="M2.47,6.45c-.32,0-.6-.09-.86-.28s-.4-.46-.44-.82h.83c.02.12.07.23.16.3s.2.12.34.12c.28,0,.47-.15.58-.46.06-.17.1-.41.11-.74-.08.1-.16.17-.24.22-.16.09-.35.14-.58.14-.34,0-.64-.12-.9-.35s-.39-.57-.39-1.01.13-.82.39-1.11.6-.42,1.02-.42c.65,0,1.09.29,1.33.86.14.32.21.75.21,1.28s-.07.94-.2,1.29c-.25.65-.71.98-1.38.98ZM2.18,2.86c-.16.12-.24.34-.24.64,0,.25.05.44.15.57s.26.19.47.19c.12,0,.22-.03.33-.1.19-.12.28-.33.28-.63,0-.24-.06-.43-.17-.57s-.27-.21-.46-.21c-.14,0-.26.04-.37.12Z"/>
    <path fill="#fff" d="M5.81,6.45c-.32,0-.61-.09-.86-.28-.25-.19-.4-.46-.44-.82h.83c.02.12.07.23.16.3s.2.12.34.12c.28,0,.47-.15.58-.46.06-.17.1-.41.12-.74-.08.1-.16.17-.24.22-.16.09-.35.14-.58.14-.34,0-.64-.12-.9-.35-.26-.23-.39-.57-.39-1.01s.13-.82.39-1.11.6-.42,1.02-.42c.65,0,1.09.29,1.33.86.14.32.21.75.21,1.28s-.06.94-.2,1.29c-.25.65-.71.98-1.38.98ZM5.52,2.86c-.16.12-.24.34-.24.64,0,.25.05.44.15.57.1.13.26.19.47.19.12,0,.22-.03.32-.1.19-.12.29-.33.29-.63,0-.24-.06-.43-.17-.57-.11-.14-.27-.21-.46-.21-.14,0-.26.04-.37.12Z"/>
  </g>
</svg>
