<svg xmlns="http://www.w3.org/2000/svg" xmlns:xlink="http://www.w3.org/1999/xlink" role="img" viewBox="0 0 48 48">
    <title>
        accessible
    </title>
    <path fill="#165c96" d="m42.71047.00524s-37.34559-.0118-37.33368 0c-3.44194 0-5.37679 1.77646-5.37679 5.40607v37.416c0 3.39508 1.73958 5.17269 5.17869 5.17269h37.63978c3.43929 0 5.18153-1.68908 5.18153-5.17265v-37.41604c0-3.54109-1.74224-5.40607-5.28953-5.40607z"/>
    <g fill="#fff">
        <path d="m21.49835 40a10.49349 10.49349 0 0 1 -4.37483-20.0433l.23805 3.10682a7.63337 7.63337 0 1 0 11.68481 7.33288l1.86162 3.80982a10.66073 10.66073 0 0 1 -9.40965 5.79378z"/>
        <path d="m33.38356 36.60051-4.29382-10.06051-10.46856-.0028-1.01646-14.30274a2.96307 2.96307 0 0 1 -.35658-1.38174 2.85269 2.85269 0 1 1 3.13127 2.84157l.30064 5.33729h7.33767l.02159 2.30208h-7.10211l.16786 2.59022 9.73346-.0654 4.15448 9.59135 3.15491-1.13878.873 2.07865z"/>
    </g>
</svg>
