<svg xmlns="http://www.w3.org/2000/svg" xmlns:xlink="http://www.w3.org/1999/xlink" data-name="Layer 1" role="img" viewBox="0 0 16 16">
    <title>
        the ride
    </title>
    <ellipse cx="8" cy="8" fill="#52bbc5" class="cls-2" rx="8" ry="8" transform="translate(-3.31 8) rotate(-45)"/>
    <path d="M13.21,6.52H12.3l-.17-.87a.36.36,0,0,0,0-.11l-.39-1a.61.61,0,0,0,.08-.3V3.16a1,1,0,0,0-1-1H5.23a1,1,0,0,0-1,1V4.22a.62.62,0,0,0,.09.3l-.4,1,0,.11-.18.87h-.9a.33.33,0,0,0-.33.33V9a.32.32,0,0,0,.33.32h.54v3.06H4v.79c0,1,2,1,2,0v-.79h4v.79c0,1,2,1,2,0v-.79h.64V9.27h.55A.32.32,0,0,0,13.53,9V6.85A.32.32,0,0,0,13.21,6.52Zm-7.68,4.8a.8.8,0,1,1,.8-.8A.8.8,0,0,1,5.53,11.32Zm5,0a.8.8,0,1,1,.8-.8A.8.8,0,0,1,10.5,11.32ZM4.19,8.12l.36-1.94c0-.44.19-.53.36-.53h6.21c.17,0,.32.09.36.53l.36,1.94Z"/>
</svg>
