<?xml version="1.0" encoding="utf-8"?>
<svg xmlns="http://www.w3.org/2000/svg" xmlns:xlink="http://www.w3.org/1999/xlink" x="0px" y="0px" role="img" style="enable-background:new 0 0 16 16" version="1.1" viewBox="0 0 16 16" xml:space="preserve">
    <title>
        location
    </title>
    <style type="text/css">
        .st0{fill:#FFFFFF;} .st1{fill:#1C1E23;}
    </style>
    <g>
        <path d="M8,0.7c4,0,7.3,3.3,7.3,7.3S12,15.3,8,15.3S0.7,12,0.7,8c0,0,0,0,0,0C0.7,4,4,0.7,8,0.7z" class="st0"/>
        <g>
            <path d="M8,0.7c4,0,7.3,3.3,7.3,7.3S12,15.3,8,15.3S0.7,12,0.7,8c0,0,0,0,0,0C0.7,4,4,0.7,8,0.7z M0,8
			c0,4.4,3.6,8,8,8s8-3.6,8-8s-3.6-8-8-8S0,3.6,0,8z" class="st1"/>
            <path d="M11.7,6.2c0,0.4-0.1,0.9-0.2,1.3L8.8,13c-0.1,0.2-0.2,0.3-0.3,0.4c-0.3,0.2-0.7,0.2-1,0
			c-0.1-0.1-0.3-0.2-0.3-0.4L4.5,7.4C4.4,7,4.3,6.6,4.3,6.2c0-1,0.4-1.9,1.1-2.6C6.1,2.8,7,2.4,8,2.5c1,0,1.9,0.4,2.6,1.1
			C11.3,4.2,11.7,5.2,11.7,6.2 M9.3,7.5c0.7-0.7,0.7-1.9,0-2.6l0,0c-0.7-0.7-1.9-0.7-2.6,0S6,6.7,6.7,7.5l0,0
			C7.4,8.2,8.6,8.2,9.3,7.5" class="st1"/>
        </g>
    </g>
</svg>
