<svg xmlns="http://www.w3.org/2000/svg" role="img" viewBox="0 0 48 48">
    <title>
        subway
    </title>
    <path fill="#494f5b" d="m24 0a24 24 0 1 0 24 24 24 24 0 0 0 -24-24"/>
    <g fill="#fff">
        <path d="m25.8889 5.8222a1.4111 1.4111 0 1 0 -1.4111-1.4111 1.411 1.411 0 0 0 1.4111 1.4111z"/>
        <path d="m31.4555 34.2111a4.9779 4.9779 0 0 0 3.889-4.8222v-18.1445a5.0112 5.0112 0 0 0 -5.0778-4.9111h-12.5333a5.0112 5.0112 0 0 0 -5.1 4.9v18.1556a4.9779 4.9779 0 0 0 3.8889 4.8222l-5.8556 8.7889h3.4l4.1889-6.1445h11.5555l4.1889 6.1445h3.3333zm-10.7555-25.9889a.8445.8445 0 0 1 .8445-.8111h4.9555a.8444.8444 0 0 1 .8333.8111v1.4445l-.0006.0339a.8334.8334 0 0 1 -.866.7994l-4.9222-.0111a.8333.8333 0 0 1 -.8445-.8222zm-3.1111 23.3334a2.2223 2.2223 0 1 1 2.2222-2.2223 2.2223 2.2223 0 0 1 -2.2222 2.2223zm.2889-11.8112c-.0758.0036-.1518.0036-.2276 0a2.4221 2.4221 0 0 1 -2.3057-2.5333v-3.2667a2.4109 2.4109 0 0 1 2.5333-2.5444h12.2222a2.4113 2.4113 0 0 1 2.5333 2.5444v3.2667q.0054.1137 0 .2276a2.4221 2.4221 0 0 1 -2.5333 2.3057zm12.4333 11.8112a2.2334 2.2334 0 1 1 .0223 0z"/>
        <path d="m22.1445 5.8222h-.0334.0337a1.4113 1.4113 0 1 0 -1.4115-1.4115 1.4111 1.4111 0 0 0 1.4115 1.4119z"/>
    </g>
</svg>
