<svg role="img" viewBox="0 0 48 48">
    <title>
        map pin B
    </title>
    <clipPath id="a">
        <path d="m25 48q19.28-18 19.28-28.68a19.32 19.32 0 0 0 -38.64 0q0 10.68 19.36 28.68z" clip-rule="evenodd"/>
    </clipPath>
    <clipPath id="b">
        <path d="m-741.28-810.15h1685.85v1198.83h-1685.85z"/>
    </clipPath>
    <g clip-path="url(#a)">
        <g clip-path="url(#b)">
            <path fill="#165c95" d="m-.21-5.85h50.34v59.71h-50.34z"/>
        </g>
    </g>
    <path fill="#fff" d="m31.36 13.11a4.41 4.41 0 0 1 .79 2.64 3.81 3.81 0 0 1 -.8 2.54 4 4 0 0 1 -1.31 1 3.87 3.87 0 0 1 2 1.52 4.57 4.57 0 0 1 .68 2.53 5.1 5.1 0 0 1 -.77 2.76 4.86 4.86 0 0 1 -1.23 1.36 4.68 4.68 0 0 1 -1.95.86 11.67 11.67 0 0 1 -2.44.24h-7.79v-17.29h8.35c2.11.03 3.59.65 4.47 1.84zm-9.36 1.16v3.81h4.2a3.44 3.44 0 0 0 1.8-.43 1.63 1.63 0 0 0 .7-1.51 1.55 1.55 0 0 0 -.93-1.6 6.46 6.46 0 0 0 -2-.27zm0 6.67v4.61h4.2a4 4 0 0 0 1.75-.31 2.17 2.17 0 0 0 1.13-2.15 1.87 1.87 0 0 0 -1.08-1.86 4.55 4.55 0 0 0 -1.73-.29z"/>
</svg>
