<svg xmlns="http://www.w3.org/2000/svg" xmlns:xlink="http://www.w3.org/1999/xlink" enable-background="new 0 0 48 48" role="img" viewBox="0 0 48 48">
    <title>
        bike
    </title>
    <path fill="#1c1e23" d="m48 28.2c.1-5.2-4.1-9.6-9.3-9.7-1 0-2 .2-3 .5-.7-1.7-1.6-3.6-2.6-5.9l.6-1.8h2.2v-1.9h-8.2c-.7 1 .3 1 3.9 1.9l-.6 1.8h-16.2c1.1-4 .5-3.7 5.4-3.7v-1.9c-6.7.1-5.6-.7-9.2 11.4-.6-.1-1.1-.2-1.7-.2-5.2.1-9.4 4.4-9.3 9.7-.1 5.2 4.1 9.6 9.3 9.7 5.2-.1 9.4-4.4 9.3-9.7 0-3.8-2.2-7.3-5.7-8.9.2-.7.4-1.4.7-2.1 13.6 14.9 8.5 12.5 15.8 12.8h.1c.8 5.1 5.6 8.5 10.7 7.7 4.7-.8 8-4.9 7.8-9.7zm-31.6.2c.1 4-3.1 7.3-7.1 7.4-4.1-.2-7.3-3.6-7.1-7.7.1-3.9 3.3-7 7.1-7.1.3 0 .7 0 1 .1-2.3 7.4-2 6.6-2 7.2 0 .5.4 1 .9 1 .9-.1.7.1 3-7.6 2.6 1.2 4.2 3.8 4.2 6.7zm9.2-.4-11.2-12.8h15.9zm3.8.2h-1.7l4.4-12.2 1.8 4c-2.8 1.8-4.5 4.9-4.5 8.2zm5.4-6.2 2.7 6.2h-5.9c-.1-2.5 1.1-4.8 3.2-6.2zm3.9 13.6c-3.3 0-6.1-2.3-6.9-5.5 7.4 0 8.1.4 8.2-.9 0-.4-.1-.7-3.4-8.1.7-.2 1.4-.3 2.1-.3 4.1.2 7.3 3.6 7.1 7.7-.1 3.9-3.2 7-7.1 7.1z"/>
</svg>
