<svg xmlns="http://www.w3.org/2000/svg" xmlns:xlink="http://www.w3.org/1999/xlink" opacity="0.75" role="img" viewBox="0 0 48 48">
    <title>
        alert
    </title>
    <path fill="#fff" d="m24.0009 47.5021a23.5 23.5 0 1 1 16.62-6.88 23.34 23.34 0 0 1 -16.62 6.88zm0-44a20.5 20.5 0 1 0 14.51 6 20.5 20.5 0 0 0 -14.51-6z"/>
    <path fill="#a1c6ed" d="m37.738 32.813-11.9818-23.6847a2.1054 2.1054 0 0 0 -.7413-.8163 1.7982 1.7982 0 0 0 -2.0246 0 2.0835 2.0835 0 0 0 -.73.8163l-11.9821 23.6847a2.1676 2.1676 0 0 0 0 2.1247 2.027 2.027 0 0 0 .73.7716 1.8772 1.8772 0 0 0 .996.2907h23.9858a1.8447 1.8447 0 0 0 .9847-.2907 2.027 2.027 0 0 0 .73-.7716 2.1671 2.1671 0 0 0 .0333-2.1247z"/>
    <g fill="#165c96">
        <path d="m25.7749 30.88a.4162.4162 0 0 1 -.1279.3173.4276.4276 0 0 1 -.3147.136h-2.6651a.4274.4274 0 0 1 -.3146-.136.45.45 0 0 1 -.1279-.3173v-2.5933a.4506.4506 0 0 1 .1279-.3174.4282.4282 0 0 1 .3146-.136h2.6651a.4284.4284 0 0 1 .3147.136.4166.4166 0 0 1 .1279.3174z"/>
        <path d="m25.597 25.7093a.3654.3654 0 0 1 -.1369.2666.4118.4118 0 0 1 -.301.1065h-2.408a.4275.4275 0 0 1 -.301-.1065.3122.3122 0 0 1 -.1277-.2666l-.6543-8.4476a.4143.4143 0 0 1 .1277-.3411.4433.4433 0 0 1 .301-.1706h3.7987a.4752.4752 0 0 1 .31.1706.41.41 0 0 1 .1277.3091z"/>
    </g>
</svg>
