<svg xmlns="http://www.w3.org/2000/svg" xmlns:xlink="http://www.w3.org/1999/xlink" width="90px" height="90px" role="img" viewBox="0 0 90 90">
    <title>Innovation</title>
    <g id="Page-1" fill="none" fill-rule="evenodd" stroke="none" stroke-width="1">
        <g id="innovation">
            <g id="Group-Copy" transform="translate(13.000000, 3.000000)">
                <path id="compass" fill="#1C77C3" d="M61.7906698,51.3904338 L56.0982159,51.3904338 L56.0982159,52.3248053 L48.4776726,52.3248053 L39.5717366,27.3770857 C41.7752671,25.3214683 43.1524737,22.3314794 43.1524737,19.0611791 C43.1524737,13.5483871 39.388109,8.96996663 34.3383514,7.94215795 L34.3383514,2.33592881 C34.3383514,1.02780868 33.3283999,0 32.0430071,0 C30.7576143,0 29.7476627,1.02780868 29.7476627,2.33592881 L29.7476627,7.94215795 C24.6979052,9.06340378 20.9335405,13.6418242 20.9335405,19.0611791 C20.9335405,22.3314794 22.3107471,25.3214683 24.5142776,27.3770857 L15.6083416,52.3248053 L7.98779833,52.3248053 L7.98779833,51.3904338 L2.29534435,51.3904338 C1.00995151,51.3904338 0,52.4182425 0,53.7263626 C0,55.0344828 1.00995151,56.0622914 2.29534435,56.0622914 L7.98779833,56.0622914 L7.98779833,55.1279199 L14.5983901,55.1279199 L8.26323965,72.320356 C7.80417078,73.7219132 8.0796121,75.1234705 8.99774984,76.1512792 L7.16147437,82.785317 C6.97784682,83.2525028 7.25328814,83.8131257 7.71235701,83.9065628 C7.80417078,83.9065628 7.89598456,84 7.98779833,84 C8.35505343,84 8.72230852,83.8131257 8.8141223,83.4393771 L11.8439768,77.5528365 L11.8439768,77.5528365 C13.404811,77.5528365 14.8738314,76.618465 15.424714,75.0300334 L22.4025608,55.3147942 L29.5640352,55.3147942 L29.5640352,60.1735261 C29.5640352,61.4816463 30.5739867,62.5094549 31.8593795,62.5094549 C33.1447724,62.5094549 34.1547239,61.4816463 34.1547239,60.1735261 L34.1547239,55.3147942 L41.3161983,55.3147942 L48.2940451,75.0300334 C48.8449277,76.618465 50.3139481,77.5528365 51.8747823,77.5528365 L51.8747823,77.5528365 L54.9046368,83.4393771 C54.9964506,83.8131257 55.3637057,84 55.7309608,84 C55.8227745,84 55.9145883,84 56.0064021,83.9065628 C56.465471,83.7196885 56.7409123,83.2525028 56.5572847,82.785317 L54.7210093,76.1512792 C55.5473332,75.1234705 55.9145883,73.7219132 55.4555194,72.320356 L49.3958104,55.2213571 L56.0064021,55.2213571 L56.0064021,56.1557286 L61.6988561,56.1557286 C62.9842489,56.1557286 63.9942004,55.1279199 63.9942004,53.8197998 C64.0860142,52.4182425 63.0760627,51.3904338 61.7906698,51.3904338 L61.7906698,51.3904338 Z M31.9511933,12.4271413 C35.5319305,12.4271413 38.4699713,15.4171301 38.4699713,19.0611791 C38.4699713,22.705228 35.5319305,25.6952169 31.9511933,25.6952169 C28.3704561,25.6952169 25.4324154,22.705228 25.4324154,19.0611791 C25.4324154,15.4171301 28.3704561,12.4271413 31.9511933,12.4271413 L31.9511933,12.4271413 Z M34.2465377,52.3248053 L34.2465377,47.4660734 C34.2465377,46.1579533 33.2365862,45.1301446 31.9511933,45.1301446 C30.6658005,45.1301446 29.655849,46.1579533 29.655849,47.4660734 L29.655849,52.3248053 L23.5043261,52.3248053 L31.2166831,30.4605117 L31.9511933,30.4605117 L32.6857035,30.4605117 L40.3980605,52.3248053 L34.2465377,52.3248053 L34.2465377,52.3248053 Z"/>
                <circle id="circle" cx="32" cy="19" r="8" fill="#FFFFFF"/>
            </g>
        </g>
    </g>
</svg>
