<svg xmlns="http://www.w3.org/2000/svg" xmlns:xlink="http://www.w3.org/1999/xlink" width="90" height="90" role="img" viewBox="0 0 90 90">
    <title>
        link
    </title>
    <path fill="#FFFFFF" fill-rule="evenodd" stroke="#FFFFFF" d="M67.56 29.64l-7.2-7.2c-1.92-1.92-5.04-1.92-6.72 0l-9.6 9.6c-1.92 1.92-1.92 4.8 0 6.72l1.92 1.92-5.28 5.04-1.92-1.68c-1.92-1.92-5.04-1.92-6.72 0l-9.6 9.6c-1.92 1.92-1.92 4.8 0 6.72l7.2 7.2c.72.96 1.92 1.44 3.36 1.44s2.4-.48 3.36-1.44l9.6-9.6c1.92-1.92 1.92-4.8 0-6.72l-1.92-1.92 5.28-5.04 1.92 1.92c.96.96 2.16 1.44 3.36 1.44 1.2 0 2.4-.48 3.36-1.44l9.6-9.6C68.52 35.4 69 34.2 69 33c0-1.44-.48-2.64-1.44-3.36zM54.6 42.6l-1.92-1.92 1.92-1.92-3.36-3.36-1.92 1.92-1.92-1.92 9.6-9.6 7.2 7.2-9.6 9.6zm-12 12L33 64.2 25.8 57l9.6-9.6 1.92 1.92-1.92 1.92 3.36 3.36 1.92-1.92 1.92 1.92z"/>
</svg>
