<svg width="24px" height="24px" role="img" viewBox="0 0 24 24">
    <title>Online Support</title>
    <g id="Page-1" fill="none" fill-rule="evenodd" stroke="none" stroke-width="1">
        <g id="menu-icons" fill="#0B2F4C" transform="translate(-48.000000, -55.000000)">
            <path id="online-support" d="M70.4197531,72.9753086 C71.4567901,71.1975309 72,69.1728395 72,67 C72,64.8271605 71.4074074,62.8024691 70.4197531,61.0246914 C70.4197531,60.9753086 70.3703704,60.9753086 70.3703704,60.9753086 C68.2962963,57.4197531 64.4444444,55 60,55 C55.6049383,55 51.7037037,57.4197531 49.6296296,60.9753086 L49.5802469,61.0246914 C48.5432099,62.8024691 48,64.8271605 48,67 C48,69.1728395 48.5925926,71.1975309 49.5802469,72.9753086 C49.5802469,73.0246914 49.6296296,73.0246914 49.6296296,73.0246914 C51.7037037,76.5802469 55.5555556,79 60,79 C64.3950617,79 68.2962963,76.5802469 70.3703704,73.0246914 C70.3703704,73.0246914 70.3703704,72.9753086 70.4197531,72.9753086 L70.4197531,72.9753086 Z M48.8395062,67.3950617 L52.9382716,67.3950617 C52.9876543,69.1728395 53.2345679,70.8518519 53.6790123,72.382716 L50.2222222,72.382716 C49.382716,70.9012346 48.8888889,69.2222222 48.8395062,67.3950617 L48.8395062,67.3950617 Z M50.2222222,61.617284 L53.6790123,61.617284 C53.2345679,63.1481481 52.9876543,64.8271605 52.9382716,66.6049383 L48.8395062,66.6049383 C48.8888889,64.7777778 49.382716,63.0987654 50.2222222,61.617284 L50.2222222,61.617284 Z M71.1604938,66.6049383 L67.0617284,66.6049383 C67.0123457,64.8271605 66.7654321,63.1481481 66.3209877,61.617284 L69.7777778,61.617284 C70.617284,63.0987654 71.1111111,64.7777778 71.1604938,66.6049383 L71.1604938,66.6049383 Z M66.2222222,66.6049383 L60.3950617,66.6049383 L60.3950617,61.617284 L65.4320988,61.617284 C65.9259259,63.0987654 66.1728395,64.8271605 66.2222222,66.6049383 L66.2222222,66.6049383 Z M60.3950617,60.7777778 L60.3950617,55.8888889 C61.8765432,56.0864198 63.2592593,57.1728395 64.2962963,59.0493827 C64.5925926,59.5925926 64.8888889,60.1851852 65.1358025,60.7777778 L60.3950617,60.7777778 L60.3950617,60.7777778 Z M59.6049383,55.8888889 L59.6049383,60.7777778 L54.8641975,60.7777778 C55.1111111,60.1358025 55.3580247,59.5925926 55.7037037,59.0493827 C56.7407407,57.1234568 58.1234568,56.037037 59.6049383,55.8888889 L59.6049383,55.8888889 Z M59.6049383,61.617284 L59.6049383,66.6049383 L53.7777778,66.6049383 C53.8271605,64.8271605 54.0740741,63.1481481 54.5679012,61.617284 L59.6049383,61.617284 L59.6049383,61.617284 Z M53.7777778,67.3950617 L59.6049383,67.3950617 L59.6049383,72.382716 L54.5679012,72.382716 C54.0740741,70.9012346 53.8271605,69.1728395 53.7777778,67.3950617 L53.7777778,67.3950617 Z M59.6049383,73.2222222 L59.6049383,78.1111111 C58.1234568,77.9135802 56.7407407,76.8271605 55.7037037,74.9506173 C55.4074074,74.4074074 55.1111111,73.8148148 54.8641975,73.2222222 L59.6049383,73.2222222 L59.6049383,73.2222222 Z M60.3950617,78.1111111 L60.3950617,73.2222222 L65.1358025,73.2222222 C64.8888889,73.8641975 64.6419753,74.4074074 64.2962963,74.9506173 C63.2592593,76.8765432 61.8765432,77.962963 60.3950617,78.1111111 L60.3950617,78.1111111 Z M60.3950617,72.382716 L60.3950617,67.3950617 L66.2222222,67.3950617 C66.1728395,69.1728395 65.9259259,70.8518519 65.4320988,72.382716 L60.3950617,72.382716 L60.3950617,72.382716 Z M67.0617284,67.3950617 L71.1604938,67.3950617 C71.1111111,69.2222222 70.617284,70.9012346 69.7777778,72.382716 L66.3209877,72.382716 C66.7654321,70.8518519 67.0123457,69.1728395 67.0617284,67.3950617 L67.0617284,67.3950617 Z M69.2839506,60.7777778 L66.0740741,60.7777778 C65.7777778,59.9876543 65.4814815,59.2962963 65.0864198,58.6049383 C64.5432099,57.6666667 63.9506173,56.8765432 63.2592593,56.3333333 C65.7283951,57.0740741 67.8518519,58.654321 69.2839506,60.7777778 L69.2839506,60.7777778 Z M56.7901235,56.2839506 C56.0987654,56.8765432 55.5061728,57.617284 54.962963,58.5555556 C54.5679012,59.1975309 54.2716049,59.9382716 53.9753086,60.7283951 L50.7654321,60.7283951 C52.1481481,58.654321 54.2716049,57.0740741 56.7901235,56.2839506 L56.7901235,56.2839506 Z M50.7160494,73.2222222 L53.9259259,73.2222222 C54.2222222,74.0123457 54.5185185,74.7037037 54.9135802,75.3950617 C55.4567901,76.3333333 56.0493827,77.1234568 56.7407407,77.6666667 C54.2716049,76.9259259 52.1481481,75.345679 50.7160494,73.2222222 L50.7160494,73.2222222 Z M63.2098765,77.7160494 C63.9012346,77.1234568 64.4938272,76.382716 65.037037,75.4444444 C65.4320988,74.8024691 65.7283951,74.0617284 66.0246914,73.2716049 L69.2345679,73.2716049 C67.8518519,75.345679 65.7283951,76.9259259 63.2098765,77.7160494 L63.2098765,77.7160494 Z"/>
        </g>
    </g>
</svg>
