<svg width="90px" height="90px" role="img" viewBox="0 0 90 90">
    <title>Parking</title>
    <g id="Page-1" fill="none" fill-rule="evenodd" stroke="none" stroke-width="1">
        <g id="parking">
            <g id="Group" transform="translate(19.000000, 3.000000)">
                <path id="display-bg" fill="#FFFFFF" d="M48,27 C48,14.8497355 38.1502645,5 26,5 C13.8497355,5 4,14.8497355 4,27 C26,27 26,27 48,27 Z"/>
                <path id="Shape" fill="#1C77C3" d="M25.6662,0 C11.4912,0 0,11.4912 0,25.6662 C0,33.08172 3.14748,39.7572 8.17572,44.44356 L9.3324,58.3338 L19.8324,71.16564 L19.8324,84 L31.5,84 L31.5,71.16648 L42,58.3338 L43.15668,44.44356 C48.18576,39.7572 51.33324,33.08172 51.33324,25.6662 C51.33324,11.4912 39.84204,0 25.6662,0 L25.6662,0 Z M26.8338,25.6662 L26.8338,23.33352 L30.33324,23.33352 L25.6662,15.1662 L21,23.33352 L24.50028,23.33352 L24.50028,25.6662 L5.83296,25.6662 C5.83296,14.71344 14.71344,5.8338 25.6662,5.8338 C36.6198,5.8338 45.4986,14.71344 45.4986,25.6662 L26.8338,25.6662 L26.8338,25.6662 Z"/>
                <rect id="Rectangle-path" width="2.33352" height="3.50028" x="24.50028" y="9.33324" fill="#1C77C3"/>
                <rect id="Rectangle-path" width="3.50006306" height="2.33337538" x="16.6242256" y="11.8677334" fill="#1C77C3" transform="translate(18.374257, 13.034421) rotate(60.037641) translate(-18.374257, -13.034421) "/>
                <rect id="Rectangle-path" width="3.49852303" height="2.33346866" x="11.2841407" y="17.2079297" fill="#1C77C3" transform="translate(13.033402, 18.374664) rotate(30.000728) translate(-13.033402, -18.374664) "/>
                <rect id="Rectangle-path" width="2.33343745" height="3.50183612" x="31.789943" y="11.2827958" fill="#1C77C3" transform="translate(32.956662, 13.033714) rotate(29.987939) translate(-32.956662, -13.033714) "/>
                <rect id="Rectangle-path" width="2.33343745" height="3.50015618" x="37.1290586" y="16.623667" fill="#1C77C3" transform="translate(38.295777, 18.373745) rotate(60.012061) translate(-38.295777, -18.373745) "/>
                <g id="Group-36" fill="#FFFFFF" transform="translate(32.000000, 31.000000)">
                    <rect id="Rectangle-3" width="4" height="16" x="2" y="0"/>
                    <circle id="Oval-8" cx="4" cy="8" r="4"/>
                </g>
                <rect id="Rectangle-21" width="4" height="12" x="14" y="33" fill="#FFFFFF"/>
            </g>
        </g>
    </g>
</svg>
