<svg width="24px" height="24px" role="img" viewBox="0 0 24 24">
    <title>Projects</title>
    <g id="Page-1" fill="none" fill-rule="evenodd" stroke="none" stroke-width="1">
        <g id="menu-icons" fill="#0B2F4C" transform="translate(-48.000000, -104.000000)">
            <path id="projects" d="M60.5394804,113.294344 C60.7929397,113.040884 60.9900747,113.012722 61.2998583,113.322506 C61.3561826,113.37883 61.4406691,113.463316 61.5533176,113.547803 C61.6659662,113.435154 61.7504526,113.37883 61.8349391,113.294344 C63.5528299,111.576453 65.2425586,109.858562 66.9322874,108.140671 C67.1575845,107.915374 67.3547195,107.633752 67.4955303,107.352131 C68.6220161,105.324457 68.1714217,105.803213 70.0582855,104.676727 C70.2554205,104.564079 70.4525555,104.45143 70.6778527,104.338781 C70.7623391,104.310619 70.8468255,104.254295 70.931312,104.254295 C71.3819063,104.197971 71.4382306,104.338781 71.6916899,104.648565 C71.8888249,104.902024 71.8606628,105.155484 71.6916899,105.437105 C71.325582,106.02851 71.0157984,106.619915 70.6496905,107.21132 C70.5088798,107.436617 70.3117448,107.633752 70.1146098,107.746401 C69.6076911,108.056185 69.0444482,108.337806 68.5093675,108.64759 C68.3403946,108.732076 68.1995839,108.844725 68.0587732,108.957373 C66.2563959,110.675264 64.5103429,112.449479 62.7642899,114.195532 C62.5671549,114.392667 62.5389927,114.533478 62.7642899,114.730613 C63.0177492,114.984072 63.0177492,115.237532 62.7642899,115.490991 L60.5394804,113.294344 Z M59.497481,119.180232 C58.9342381,119.461853 58.0330495,120.222231 57.5261309,120.644663 C56.6531044,121.405041 55.8927265,122.30623 55.4421321,123.376392 C55.2731593,123.742499 55.216835,124.164932 55.1041864,124.587364 C55.0478621,124.728175 54.9915378,124.897147 54.9070514,124.981634 C54.1466735,125.770174 53.3581334,126.558714 52.5695933,127.347254 C51.8373775,128.051308 50.7108917,128.051308 49.978676,127.347254 C49.4999195,126.89666 49.1901359,126.615038 48.7395416,126.136282 C48.035488,125.432228 48.0073258,124.333905 48.6832173,123.601689 C49.4717574,122.756824 50.3166217,121.940122 51.1333239,121.12342 C51.1896482,121.067096 51.3022968,121.010771 51.3867832,120.982609 C52.513269,120.841799 53.470782,120.306718 54.3156463,119.574502 C55.216835,118.814124 56.3714829,117.57499 56.8502394,116.504828 L59.497481,119.180232 L59.497481,119.180232 Z M70.0582855,127.994983 C69.579529,127.966821 69.2134211,127.713362 68.8754754,127.403578 C66.7351523,125.235093 64.5948293,123.09477 62.4263441,120.926285 C60.3705075,118.870448 58.3428331,116.842774 56.2869965,114.815099 C55.216835,113.744938 53.9495384,112.900074 52.5414312,112.336831 C52.118999,112.167858 51.724729,112.308669 51.3304589,112.449479 C51.2178104,112.477641 51.0488375,112.505804 50.964351,112.449479 C49.4435952,111.463804 48.4579201,110.083859 48.0073258,108.309644 C47.9791637,108.196995 48.035488,107.971698 48.1199744,107.915374 C48.2044608,107.85905 48.4015958,107.915374 48.5142444,107.971698 C49.6688924,108.64759 50.8235403,109.323481 52.0063504,109.97121 C52.513269,110.252832 52.513269,110.252832 52.8230526,109.745913 C53.1609984,109.154508 53.4989441,108.591265 53.8087277,107.99986 C54.0058627,107.633752 53.9495384,107.436617 53.5834305,107.21132 C52.4287826,106.535429 51.2741346,105.859537 50.1194867,105.155484 C50.0068381,105.099159 49.8378652,104.902024 49.8660274,104.8457 C49.9223517,104.704889 50.0631624,104.564079 50.175811,104.535916 C51.3867832,104.141646 52.6540798,103.916349 53.9495384,104.028998 C56.1461858,104.226133 57.7232659,106.197483 57.4698066,108.39413 C57.2726716,110.027535 57.7795902,111.351156 58.9342381,112.477641 C63.1303978,116.701963 67.2702331,120.841799 71.4382306,125.009796 C72.0014735,125.573039 72.1422842,126.277093 71.8325006,126.952984 C71.4945549,127.628875 70.8186634,128.051308 70.0582855,127.994983 L70.0582855,127.994983 Z M70.9031498,126.924822 C71.2129334,126.615038 71.1847713,125.995471 70.8749877,125.657525 C70.5370419,125.291417 69.8893126,125.263255 69.579529,125.573039 C69.2415833,125.910985 69.2697454,126.530552 69.6076911,126.868498 C69.9456369,127.234605 70.5933662,127.262768 70.9031498,126.924822 L70.9031498,126.924822 Z"/>
        </g>
    </g>
</svg>
