<svg width="24px" height="24px" role="img" viewBox="0 0 24 24">
    <title>Riding the T</title>
    <defs>
        <path id="path-1" d="M12,24 C18.627417,24 24,18.627417 24,12 C24,5.372583 18.627417,0 12,0 C5.372583,0 0,5.372583 0,12 C0,18.627417 5.372583,24 12,24 Z"/>
    </defs>
    <g id="Page-1" fill="none" fill-rule="evenodd" stroke="none" stroke-width="1">
        <g id="menu-icons" transform="translate(-96.000000, -8.000000)">
            <g id="riding-the-t" transform="translate(108.000000, 20.000000) scale(-1, 1) translate(-108.000000, -20.000000) translate(96.000000, 8.000000)">
                <mask id="mask-2" fill="white">
                    <use xlink:href="#path-1"/>
                </mask>
                <g id="Mask"/>
                <g id="Group-31-Copy" fill="#0B2F4C" mask="url(#mask-2)">
                    <g transform="translate(3.000000, 3.000000)">
                        <path id="Shape" d="M11.668,12.732 C10.3426667,12.732 9.26733333,13.8066667 9.26733333,15.1326667 C9.26733333,16.4586667 10.342,17.5333333 11.668,17.5333333 C12.994,17.5333333 14.0686667,16.4586667 14.0686667,15.1326667 C14.0686667,13.8066667 12.9933333,12.732 11.668,12.732 L11.668,12.732 Z M11.668,16.5226667 C10.9,16.5226667 10.2773333,15.9 10.2773333,15.132 C10.2773333,14.364 10.9,13.7413333 11.668,13.7413333 C12.436,13.7413333 13.0586667,14.364 13.0586667,15.132 C13.0586667,15.9 12.436,16.5226667 11.668,16.5226667 L11.668,16.5226667 Z"/>
                        <ellipse id="Oval" cx="11.668" cy="15.0826667" rx="0.48" ry="0.48"/>
                        <rect id="Rectangle-path" width="17.442" height="2.58266667" x="12.6033333" y="0"/>
                        <polygon id="Shape" points="11.668 0 9.45 1.95333333 9.45 2.58266667 12.3053333 2.58266667 12.3053333 0"/>
                        <path id="Shape" d="M65.8986667,13.5653333 L64.7133333,2.84733333 L1.40266667,2.84733333 L1.40266667,5.16533333 L2.38,5.16533333 C2.38,5.16533333 1.46933333,6.80466667 1.30333333,8.344 L0.798666667,14.5633333 L0.0993333333,14.6026667 L0,16.092 L8.742,16.092 C8.64266667,15.79 8.58866667,15.4673333 8.58866667,15.1326667 C8.58866667,13.4313333 9.96733333,12.0533333 11.668,12.0533333 C13.3686667,12.0533333 14.7473333,13.4313333 14.7473333,15.1326667 C14.7473333,15.468 14.6926667,15.79 14.594,16.092 L48.306,16.092 C48.2073333,15.79 48.1533333,15.4673333 48.1533333,15.1326667 C48.1533333,13.4313333 49.532,12.0533333 51.2326667,12.0533333 C52.9333333,12.0533333 54.312,13.4313333 54.312,15.1326667 C54.312,15.468 54.2573333,15.79 54.1586667,16.092 L57.694,16.092 L65.854,15.1786667 L66.6666667,15.1786667 L66.6666667,14.2106667 L65.8986667,13.5653333 Z M8.25733333,10.0333333 C8.25733333,10.636 7.76866667,11.126 7.16466667,11.126 L3.688,11.126 C3.08466667,11.126 2.59466667,10.6366667 2.59466667,10.0333333 L2.59466667,6.68866667 C2.59466667,6.08533333 3.084,5.596 3.688,5.596 L7.16466667,5.596 C7.768,5.596 8.25733333,6.08533333 8.25733333,6.68866667 L8.25733333,10.0333333 L8.25733333,10.0333333 Z M53.5213333,5.596 L58.422,5.596 C59.0033333,5.596 59.4773333,6.05 59.512,6.62266667 L52.432,6.62266667 C52.4666667,6.05 52.9406667,5.596 53.5213333,5.596 L53.5213333,5.596 Z M44.9106667,5.596 L49.8113333,5.596 C50.3926667,5.596 50.8666667,6.05 50.9006667,6.62266667 L43.8213333,6.62266667 C43.856,6.05 44.3293333,5.596 44.9106667,5.596 L44.9106667,5.596 Z M36.192,5.596 L41.3086667,5.596 C41.8893333,5.596 42.3633333,6.05 42.398,6.62266667 L35.1026667,6.62266667 C35.1373333,6.05 35.6113333,5.596 36.192,5.596 L36.192,5.596 Z M27.5813333,5.596 L32.6973333,5.596 C33.2786667,5.596 33.7526667,6.05 33.7873333,6.62266667 L26.492,6.62266667 C26.5266667,6.05 27.0006667,5.596 27.5813333,5.596 L27.5813333,5.596 Z M18.9706667,5.596 L24.0866667,5.596 C24.668,5.596 25.142,6.05 25.1766667,6.62266667 L17.8813333,6.62266667 C17.916,6.05 18.39,5.596 18.9706667,5.596 L18.9706667,5.596 Z M10.36,5.596 L15.476,5.596 C16.0573333,5.596 16.5306667,6.05 16.5653333,6.62266667 L9.27066667,6.62266667 C9.30533333,6.05 9.77866667,5.596 10.36,5.596 L10.36,5.596 Z M15.476,11.1253333 L10.36,11.1253333 C9.75666667,11.1253333 9.26733333,10.636 9.26733333,10.0326667 L9.26733333,7.01866667 L16.568,7.01866667 L16.568,10.0326667 C16.5686667,10.636 16.0793333,11.1253333 15.476,11.1253333 L15.476,11.1253333 Z M24.0866667,11.1253333 L18.9706667,11.1253333 C18.3673333,11.1253333 17.878,10.636 17.878,10.0326667 L17.878,7.01866667 L25.18,7.01866667 L25.18,10.0326667 C25.18,10.636 24.69,11.1253333 24.0866667,11.1253333 L24.0866667,11.1253333 Z M32.6973333,11.1253333 L27.5813333,11.1253333 C26.978,11.1253333 26.4886667,10.636 26.4886667,10.0326667 L26.4886667,7.01866667 L33.79,7.01866667 L33.79,10.0326667 C33.7906667,10.636 33.3006667,11.1253333 32.6973333,11.1253333 L32.6973333,11.1253333 Z M41.3086667,11.1253333 L36.192,11.1253333 C35.5886667,11.1253333 35.0993333,10.636 35.0993333,10.0326667 L35.0993333,7.01866667 L42.4006667,7.01866667 L42.4006667,10.0326667 C42.4013333,10.636 41.9113333,11.1253333 41.3086667,11.1253333 L41.3086667,11.1253333 Z M49.8113333,10.132 L44.9106667,10.132 C44.3073333,10.132 43.8173333,9.64333333 43.8173333,9.03933333 L43.8173333,7.01933333 L50.904,7.01933333 L50.904,9.03933333 C50.904,9.64333333 50.4146667,10.132 49.8113333,10.132 L49.8113333,10.132 Z M58.422,10.132 L53.5213333,10.132 C52.918,10.132 52.4286667,9.64333333 52.4286667,9.03933333 L52.4286667,7.01933333 L59.5146667,7.01933333 L59.5146667,9.03933333 C59.5146667,9.64333333 59.0253333,10.132 58.422,10.132 L58.422,10.132 Z"/>
                    </g>
                </g>
            </g>
        </g>
    </g>
</svg>
