<svg role="img" width="24px" height="24px" viewBox="0 0 24 24">
    <title>Stations and Parking Icon</title>
    <g id="Stations-and-Parking-Icon" stroke="none" stroke-width="1" fill="none" fill-rule="evenodd">
        <path d="M21,10.9173554 C22.6568542,10.9173554 24,12.2605011 24,13.9173554 L24,19.8181818 C24,21.4750361 22.6568542,22.8181818 21,22.8181818 L15.0991736,22.8181818 C13.4423193,22.8181818 12.0991736,21.4750361 12.0991736,19.8181818 L12.0991736,13.9173554 C12.0991736,12.2605011 13.4423193,10.9173554 15.0991736,10.9173554 L21,10.9173554 Z M14.5652743,3.66379685 C15.949987,5.16242515 16.7521881,7.10308671 16.8340685,9.13487886 L16.8409908,9.45639431 L16.84,9.925 L15.107438,9.92561983 C12.9652426,9.92561983 11.2163591,11.6095883 11.1123333,13.7259795 L11.107438,13.9256198 L11.107,14.38 L1.57330571,14.3801021 L1.57330571,16.4902626 C1.57735655,16.9526288 1.92274009,17.3332673 2.36982082,17.3925428 L2.48357102,17.400528 L11.107,17.4 L11.107,18.848 L9.26918519,18.8486773 L9.26918519,20.8347107 L7.69690874,20.8347107 L7.69690874,18.8486773 L2.52494672,18.8486773 C1.86070168,18.8553335 1.22114095,18.5972434 0.74755942,18.1314255 C0.321336043,17.7121894 0.0611271309,17.1557475 0.010195944,16.5644028 L0.0010292546,16.3661356 L0.0010292546,9.49777 C-0.0178086002,8.30208962 0.222137132,7.11647541 0.704416089,6.02221153 C1.17821343,4.97684699 1.85303782,4.0349046 2.6904495,3.25003989 C6.08767365,0.0954010947 11.3958578,0.280355247 14.5652743,3.66379685 Z M18.5842686,13.5206612 L15.3120769,13.5206612 L15.3120769,20.214876 L16.6229306,20.214876 L16.6229306,18.0161983 L18.5116215,18.0161983 C19.1187986,18.0634381 19.7168615,17.8465876 20.1526613,17.421177 C20.5884611,16.9957663 20.8196756,16.4031086 20.7870967,15.7949686 C20.8417356,15.1893125 20.6298795,14.589892 20.2067959,14.1530798 C19.7837122,13.7162675 19.1913603,13.4853842 18.5842686,13.5206612 Z M18.5012455,14.7630516 C19.1035909,14.7615678 19.3995942,15.1954793 19.3995942,15.7827182 C19.3995942,16.3706041 19.1450355,16.7847008 18.4804934,16.7860322 L16.6436826,16.7860322 L16.6436826,14.7630516 L18.5012455,14.7630516 Z M13.0343735,4.49131077 L3.8075933,4.49131077 L3.8075933,6.64284697 L7.24177608,6.64284697 L7.24177608,12.352693 L9.60019076,12.352693 L9.60019076,6.64284697 L13.0343735,6.64284697 L13.0343735,4.49131077 Z" id="Combined-Shape" fill="#1C1E23"></path>
    </g>
</svg>
