<svg width="90px" height="90px" role="img" viewBox="0 0 90 90">
    <title>Station Info</title>
    <g id="Page-1" fill="none" fill-rule="evenodd" stroke="none" stroke-width="1">
        <g id="station-info">
            <g id="Group-35" transform="translate(3.000000, 13.000000)">
                <polygon id="Shape" fill="#1C77C3" points="65.4209115 62 57.9892761 62 57.9892761 62 48.30563 62 48.30563 62 36.3699732 62 36.3699732 62 26.5737265 62 26.5737265 62 19.1420912 62 19.1420912 62 9.45844504 62 9.45844504 62 0 62 0 64 84 64 84 62 75.2171582 62 75.2171582 62"/>
                <polygon id="Shape" fill="#1C77C3" points="84 60 84 24 42 12 0 24 0 60"/>
                <circle id="Oval-5" cx="42" cy="12" r="12" fill="#1C77C3"/>
                <rect id="Rectangle-20" width="32" height="12" x="26" y="8" fill="#1C77C3"/>
                <rect id="Rectangle-22-Copy-14" width="4" height="8" x="64" y="17" fill="#1C77C3"/>
                <rect id="Rectangle-22-Copy-16" width="4" height="8" x="72" y="20" fill="#1C77C3"/>
                <rect id="Rectangle-22-Copy-15" width="4" height="8" x="16" y="17" fill="#1C77C3"/>
                <rect id="Rectangle-22-Copy-17" width="4" height="8" x="8" y="20" fill="#1C77C3"/>
                <g id="Group-27" fill="#FFFFFF" transform="translate(20.000000, 24.000000)">
                    <g id="Group-34" transform="translate(16.000000, 24.000000)">
                        <circle id="Oval-5" cx="6" cy="6" r="6"/>
                        <rect id="Rectangle-20" width="12" height="6" x="0" y="6"/>
                    </g>
                    <g id="Group-34-Copy-2" transform="translate(0.000000, 26.000000)">
                        <circle id="Oval-5" cx="5" cy="5" r="5"/>
                        <rect id="Rectangle-20" width="10" height="5" x="0" y="5"/>
                    </g>
                    <g id="Group-34-Copy-3" transform="translate(34.000000, 26.000000)">
                        <circle id="Oval-5" cx="5" cy="5" r="5"/>
                        <rect id="Rectangle-20" width="10" height="5" x="0" y="5"/>
                    </g>
                    <rect id="Rectangle-22" width="4" height="8" x="24" y="12"/>
                    <rect id="Rectangle-22-Copy-3" width="4" height="8" x="32" y="12"/>
                    <rect id="Rectangle-22-Copy-10" width="4" height="8" x="40" y="14"/>
                    <rect id="Rectangle-22-Copy-8" width="4" height="8" x="8" y="12"/>
                    <rect id="Rectangle-22-Copy-12" width="4" height="8" x="0" y="14"/>
                    <rect id="Rectangle-22-Copy" width="4" height="8" x="24" y="0"/>
                    <rect id="Rectangle-22-Copy-4" width="4" height="8" x="32" y="0"/>
                    <rect id="Rectangle-22-Copy-11" width="4" height="8" x="40" y="2"/>
                    <rect id="Rectangle-22-Copy-9" width="4" height="8" x="8" y="0"/>
                    <rect id="Rectangle-22-Copy-13" width="4" height="8" x="0" y="2"/>
                    <rect id="Rectangle-22-Copy-2" width="4" height="8" x="16" y="12"/>
                    <rect id="Rectangle-22-Copy-5" width="4" height="8" x="16" y="0"/>
                </g>
                <circle id="Oval-7" cx="42" cy="12" r="6" fill="#FFFFFF"/>
                <path id="Line" stroke="#1C77C3" stroke-linecap="square" d="M36,12 L48,12"/>
                <path id="Line" stroke="#1C77C3" stroke-linecap="square" d="M37.7573593,16.2426407 L46.2426407,7.75735931"/>
                <path id="Line" stroke="#1C77C3" stroke-linecap="square" d="M42,18 L42,6"/>
                <path id="Line" stroke="#1C77C3" stroke-linecap="square" d="M46.3890873,16.5961941 L37.9038059,8.1109127"/>
            </g>
        </g>
    </g>
</svg>
