<svg width="20" height="26" viewBox="0 0 20 26" fill="none" xmlns="http://www.w3.org/2000/svg">
<path d="M19 10.0234C19 14.1309 13.5156 21.4435 11.1109 24.4607C10.5344 25.1798 9.46562 25.1798 8.88906 24.4607C6.48438 21.4435 1 14.1309 1 10.0234C1 5.04171 5.03125 1 10 1C14.9688 1 19 5.04171 19 10.0234Z" fill="#192026"/>
<path d="M10 0.5C15.2461 0.5 19.5 4.76688 19.5 10.0234C19.5 11.1485 19.128 12.4484 18.5664 13.7822C18.0013 15.1242 17.2262 16.5414 16.3828 17.9131C14.6957 20.6568 12.7094 23.2574 11.502 24.7725L11.501 24.7734C10.7243 25.7421 9.27574 25.7421 8.49902 24.7734L8.49805 24.7725C7.29058 23.2574 5.30426 20.6568 3.61719 17.9131C2.77379 16.5414 1.99868 15.1242 1.43359 13.7822C0.871974 12.4484 0.500019 11.1485 0.5 10.0234C0.5 4.76688 4.75389 0.5 10 0.5Z" stroke="#192026" stroke-opacity="0.1"/>
<path d="M10 2.5C14.1421 2.5 17.5 5.85786 17.5 10C17.5 14.1421 14.1421 17.5 10 17.5C5.85786 17.5 2.5 14.1421 2.5 10C2.5 5.85786 5.85786 2.5 10 2.5ZM5.3125 7V9.25H8.875V14.875H11.125V9.25H14.6875V7H5.3125Z" fill="white"/>
</svg>
