<svg width="24px" height="24px" role="img" viewBox="0 0 24 24">
    <title>Subway vehicle</title>
    <g id="Page-1" fill="none" fill-rule="evenodd" stroke="none" stroke-width="1">
        <g id="line-subway">
            <circle id="Background" cx="12" cy="12" r="12" fill="#FFFFFF"/>
            <path id="Combined-Shape" fill="#1C1E23" d="M8.5,19 L8,20 L7,20 L7.5,19 L7.00247329,19 C6.44882258,19 6,18.5530501 6,17.9975592 L6,17.5024408 C6,16.948808 6,16.0488281 6,15.4932159 L6,7.00678414 C6,6.45075261 6.38567036,5.76271987 6.86301041,5.49531555 C6.86301041,5.49531555 9,4 12,4 C15,4 17.1369896,5.49531555 17.1369896,5.49531555 C17.6136171,5.77404508 18,6.45117188 18,7.00678414 L18,15.4932159 C18,16.0492474 18,16.9469499 18,17.5024408 L18,17.9975592 C18,18.551192 17.544239,19 16.9975267,19 L16.5,19 L17,20 L16,20 L15.5,19 L8.5,19 Z M9,7 C9,7.55613518 9.44358641,8 9.99077797,8 L14.009222,8 C14.5490248,8 15,7.55228475 15,7 C15,6.44386482 14.5564136,6 14.009222,6 L9.99077797,6 C9.45097518,6 9,6.44771525 9,7 Z M7.5,8 C7.77614237,8 8,7.77614237 8,7.5 C8,7.22385763 7.77614237,7 7.5,7 C7.22385763,7 7,7.22385763 7,7.5 C7,7.77614237 7.22385763,8 7.5,8 Z M16.5,8 C16.7761424,8 17,7.77614237 17,7.5 C17,7.22385763 16.7761424,7 16.5,7 C16.2238576,7 16,7.22385763 16,7.5 C16,7.77614237 16.2238576,8 16.5,8 Z M16,18 C16.5522847,18 17,17.5522847 17,17 C17,16.4477153 16.5522847,16 16,16 C15.4477153,16 15,16.4477153 15,17 C15,17.5522847 15.4477153,18 16,18 Z M8,18 C8.55228475,18 9,17.5522847 9,17 C9,16.4477153 8.55228475,16 8,16 C7.44771525,16 7,16.4477153 7,17 C7,17.5522847 7.44771525,18 8,18 Z M7,9.99077797 L7,14.009222 C7,14.5490248 7.44565467,15 7.99539757,15 L16.0046024,15 C16.5443356,15 17,14.5564136 17,14.009222 L17,9.99077797 C17,9.45097518 16.5543453,9 16.0046024,9 L7.99539757,9 C7.4556644,9 7,9.44358641 7,9.99077797 Z"/>
            <path id="Circle" fill="#1C1E23" fill-rule="nonzero" d="M12,23 C18.0751322,23 23,18.0751322 23,12 C23,5.92486775 18.0751322,1 12,1 C5.92486775,1 1,5.92486775 1,12 C1,18.0751322 5.92486775,23 12,23 Z M12,24 C5.372583,24 0,18.627417 0,12 C0,5.372583 5.372583,0 12,0 C18.627417,0 24,5.372583 24,12 C24,18.627417 18.627417,24 12,24 Z"/>
        </g>
    </g>
</svg>
