<svg xmlns="http://www.w3.org/2000/svg" xmlns:xlink="http://www.w3.org/1999/xlink" width="90px" height="90px" role="img" viewBox="0 0 90 90">
    <title>Sustainability</title>
    <g id="Page-1" fill="none" fill-rule="evenodd" stroke="none" stroke-width="1">
        <g id="sustainability">
            <g id="sustainability-copy" transform="translate(3.000000, 3.000000)">
                <circle id="circle" cx="42" cy="42" r="42" fill="#1C77C3"/>
                <path id="leaf" fill="#FFFFFF" d="M32.2866432,43.7912305 C35.614607,48.3281509 34.2852916,53.4762792 33.5413657,55.5188428 C32.2416364,53.0992861 30.4241855,52.0080071 30.4241855,52.0080071 C32.543124,54.1835944 33.165475,56.0462814 33.2383281,56.2794077 C34.171108,58.5428696 36.1401157,62.3333824 36.4346986,67.7693727 C37.3738448,65.2393221 38.5266222,62.9574719 39.6288889,61.0571167 C39.7709306,60.7453939 40.9866406,58.2627437 44.3538649,55.6186656 C44.3538649,55.6186656 41.6146878,56.8043259 39.346198,59.9382542 C38.4466005,55.8524578 37.1153075,43.4739974 52.2162917,38.5226133 C70.4254828,32.5497801 71.8486851,24.5883218 71.8486851,24.5883218 C71.8486851,24.5883218 72.9891965,39.3742848 69.0078508,47.0518526 C65.1044887,54.5693841 55.204738,68.0764483 40.635714,61.7056117 C38.1318806,68.3979125 38.1277029,73 38.1277029,73 L35,72.7161095 C35.0062387,72.6858252 35.0125219,72.6555604 35.0188494,72.6253154 C35.2797988,63.1964041 33.5948387,61.5753836 32.4640707,56.641102 C21.6167175,59.751518 15.9279799,49.3135008 13.8919698,43.658058 C11.8172081,37.8810178 14.0120998,27.5862842 14.0120998,27.5862842 C14.0120998,27.5862842 14.2616602,33.3215011 26.5079469,39.2395014 C28.2668512,40.0891191 29.6579693,41.0489793 30.7506578,42.0699116 C31.4499096,40.002096 32.3749076,38.143397 33.2556684,36.6325882 C33.2556684,36.6306324 33.2527327,36.6267208 33.2527327,36.6267208 C33.3525458,36.4076723 34.2068285,34.6631073 36.5729861,32.8051065 C36.5729861,32.8051065 34.648159,33.6382732 33.0540851,35.8404931 C32.4219355,32.9693929 31.4864323,24.2710153 42.0979347,20.7916643 C54.8935825,16.5945383 55.8936706,11 55.8936706,11 C55.8936706,11 56.6951111,21.3901362 53.8974086,26.7851838 C51.1545056,32.0677735 44.197924,41.559224 33.9602315,37.0824199 C32.8487816,40.0531275 32.4382663,42.4377133 32.2866432,43.7912305 Z"/>
            </g>
        </g>
    </g>
</svg>
