<svg xmlns="http://www.w3.org/2000/svg" xmlns:xlink="http://www.w3.org/1999/xlink" width="36px" height="36px" role="img" viewBox="0 0 36 36">
    <title>The Ride</title>
    <defs>
        <circle id="path-1" cx="18" cy="18" r="18"/>
    </defs>
    <g id="Page-1" fill="none" fill-rule="evenodd" stroke="none" stroke-width="1">
        <g id="the-ride">
            <g id="THE-RIDE">
                <mask id="mask-2" fill="white">
                    <use xlink:href="#path-1"/>
                </mask>
                <use id="Mask" fill="#52BBC5" xlink:href="#path-1"/>
                <path fill="#FFFFFF" d="M9.987,7 L9.987,8.547 L6.942,8.547 L6.942,17.122 L5.059,17.122 L5.059,8.547 L2,8.547 L2,7 L9.987,7 Z M19.724,17.122 L17.827,17.122 L17.827,12.698 L13.081,12.698 L13.081,17.122 L11.184,17.122 L11.184,7 L13.081,7 L13.081,11.354 L17.827,11.354 L17.827,7 L19.724,7 L19.724,17.122 Z M28.152,7 L28.152,8.498 L23.665,8.498 L23.665,11.305 L27.2,11.305 L27.2,12.754 L23.665,12.754 L23.665,15.617 L28.152,15.617 L28.152,17.122 L21.768,17.122 L21.768,7 L28.152,7 Z M4.8,25.167 L4.8,29.122 L2.917,29.122 L2.917,19 L6.004,19 C6.69467012,19 7.28616421,19.071166 7.7785,19.2135 C8.2708358,19.355834 8.67449843,19.5553321 8.9895,19.812 C9.30450158,20.068668 9.53549927,20.3754982 9.6825,20.7325 C9.82950074,21.0895018 9.903,21.4826645 9.903,21.912 C9.903,22.2526684 9.85283384,22.5746652 9.7525,22.878 C9.65216617,23.1813349 9.50750095,23.4566654 9.3185,23.704 C9.12949906,23.9513346 8.89616806,24.1683324 8.6185,24.355 C8.34083195,24.5416676 8.02466844,24.6909994 7.67,24.803 C7.90800119,24.938334 8.11333247,25.1319987 8.286,25.384 L10.82,29.122 L9.126,29.122 C8.96266585,29.122 8.82383391,29.0893337 8.7095,29.024 C8.5951661,28.9586663 8.49833373,28.8653339 8.419,28.744 L6.291,25.503 C6.21166627,25.3816661 6.12416715,25.2953336 6.0285,25.244 C5.93283286,25.1926664 5.7916676,25.167 5.605,25.167 L4.8,25.167 Z M4.8,23.816 L5.976,23.816 C6.33066844,23.816 6.63983202,23.7716671 6.9035,23.683 C7.16716799,23.5943329 7.38416582,23.4718341 7.5545,23.3155 C7.72483419,23.1591659 7.85199958,22.9736677 7.936,22.759 C8.02000042,22.5443323 8.062,22.308668 8.062,22.052 C8.062,21.5386641 7.89283503,21.1443347 7.5545,20.869 C7.21616498,20.5936653 6.69933681,20.456 6.004,20.456 L4.8,20.456 L4.8,23.816 Z M14.145,29.122 L12.255,29.122 L12.255,19 L14.145,19 L14.145,29.122 Z M25.408,24.061 C25.408,24.8030037 25.2843346,25.4843302 25.037,26.105 C24.7896654,26.7256698 24.4420022,27.2599978 23.994,27.708 C23.5459978,28.1560022 23.0070032,28.5036654 22.377,28.751 C21.7469969,28.9983346 21.0493372,29.122 20.284,29.122 L16.42,29.122 L16.42,19 L20.284,19 C21.0493372,19 21.7469969,19.1248321 22.377,19.3745 C23.0070032,19.6241679 23.5459978,19.9718311 23.994,20.4175 C24.4420022,20.8631689 24.7896654,21.3963302 25.037,22.017 C25.2843346,22.6376698 25.408,23.3189963 25.408,24.061 L25.408,24.061 Z M23.483,24.061 C23.483,23.5056639 23.4083341,23.0075022 23.259,22.5665 C23.1096659,22.1254978 22.8973347,21.7521682 22.622,21.4465 C22.3466653,21.1408318 22.0118353,20.9063342 21.6175,20.743 C21.2231647,20.5796659 20.7786691,20.498 20.284,20.498 L18.317,20.498 L18.317,27.624 L20.284,27.624 C20.7786691,27.624 21.2231647,27.5423342 21.6175,27.379 C22.0118353,27.2156659 22.3466653,26.9811682 22.622,26.6755 C22.8973347,26.3698318 23.1096659,25.9965022 23.259,25.5555 C23.4083341,25.1144978 23.483,24.6163361 23.483,24.061 L23.483,24.061 Z M33.269,19 L33.269,20.498 L28.782,20.498 L28.782,23.305 L32.317,23.305 L32.317,24.754 L28.782,24.754 L28.782,27.617 L33.269,27.617 L33.269,29.122 L26.885,29.122 L26.885,19 L33.269,19 Z" mask="url(#mask-2)"/>
            </g>
        </g>
    </g>
</svg>
