<svg role="img" viewBox="0 0 48 48">
    <title>
        transit app
    </title>
    <path fill="#fff" d="m36.57 0h-25.14a11.43 11.43 0 0 0 -11.43 11.43v25.14a11.43 11.43 0 0 0 11.43 11.43h25.14a11.43 11.43 0 0 0 11.43-11.43v-25.14a11.43 11.43 0 0 0 -11.43-11.43zm-26.28 12.63a2.29 2.29 0 0 1 4.57 0v4.79a4.46 4.46 0 0 0 -4.57 0zm-1.15 8.72a3.44 3.44 0 1 1 3.44 3.42 3.43 3.43 0 0 1 -3.44-3.42zm17.15-3.13v11.54a8 8 0 0 1 -16 0v-4.48a4.66 4.66 0 0 0 2.35.63 4.2 4.2 0 0 0 2.22-.63v4.48a3.43 3.43 0 0 0 6.85 0v-11.54a8 8 0 0 1 16 0v4.9a4.7 4.7 0 0 0 -2.36-.63 4.19 4.19 0 0 0 -2.21.63v-5.28c0-1.86-1.55-3-3.42-3a3.43 3.43 0 0 0 -3.43 3.38zm11.43 17.2a2.29 2.29 0 0 1 -4.57 0v-4.42a4.46 4.46 0 0 0 4.57 0zm-2.3-5a3.42 3.42 0 1 1 3.44-3.42 3.43 3.43 0 0 1 -3.44 3.47z"/>
</svg>
