<svg role="img" viewBox="0 0 16 16">
    <g fill="#1C1E23" fill-rule="nonzero" transform="matrix(-1 0 0 1 14 0)">
        <circle cx="4.747" cy="1.318" r="1.318"/>
        <path d="M.602 7.086c.366-.064 1.833-.318 1.915-.345.093-.031 0 0 .03-.047.032-.047 1.311-2.745 1.436-2.886.125-.14.468-.499.951-.655.484-.156.967.094.967.094S8.304 4.62 8.46 4.697c.157.079.297.36.297.36l1.121 2.108a.678.678 0 1 1-1.191.579L7.641 5.766 6.985 5.4c.047.14.648 3.065.648 3.065l.608 3.463 2.132 2.568a.783.783 0 1 1-1.17 1.025l-2.545-2.993c-.21-.25-.265-.375-.296-.538-.031-.164-.383-2.278-.383-2.278l-2.012 2.013v3.548h-.004a.788.788 0 0 1-1.567 0h-.004v-.068-.012-.016c.004-.54.02-3.233 0-3.842-.024-.679.218-.827.273-.89.055-.062 1.934-2.058 1.934-2.058l-.413-2.004s-.538 1.052-.593 1.17c-.055.116-.226.327-.405.366-.18.039-2.418.491-2.418.491l-.001-.004c-.033.004-.066.01-.1.01a.666.666 0 1 1-.066-1.33z"/>
    </g>
</svg>
