<svg width="90px" height="90px" role="img" viewBox="0 0 90 90">
    <title>Working at the T</title>
    <g id="Page-1" fill="none" fill-rule="evenodd" stroke="none" stroke-width="1">
        <g id="working-at-the-t">
            <g id="t-badge-copy" transform="translate(3.000000, 15.000000)">
                <rect id="outside-box" width="84" height="48" x="0" y="12" fill="#1C77C3" rx="3"/>
                <rect id="inside-box" width="80" height="44" x="2" y="14" fill="#FFFFFF" rx="3"/>
                <rect id="badge-clip" width="8" height="18" x="38" y="0" fill="#1C77C3" rx="1"/>
                <rect id="line1" width="40" height="4" x="38" y="22" fill="#1C77C3" rx="2"/>
                <rect id="line2" width="24" height="4" x="38" y="28" fill="#1C77C3" rx="2"/>
                <rect id="line3" width="40" height="4" x="38" y="40" fill="#1C77C3" rx="2"/>
                <rect id="line4" width="12" height="4" x="38" y="46" fill="#1C77C3" rx="2"/>
                <path id="t-logo" fill="#1C77C3" d="M18,48 C24.627417,48 30,42.627417 30,36 C30,29.372583 24.627417,24 18,24 C11.372583,24 6,29.372583 6,36 C6,42.627417 11.372583,48 18,48 Z M10,30 L25.84,30 L25.84,33.66 L19.96,33.66 L19.96,43.452 L15.904,43.452 L15.904,33.66 L10.024,33.66 L10,30 Z"/>
                <ellipse id="circle" cx="42" cy="4" fill="#FFFFFF" rx="2" ry="2"/>
            </g>
        </g>
    </g>
</svg>
