<svg xmlns="http://www.w3.org/2000/svg" xmlns:xlink="http://www.w3.org/1999/xlink" width="90px" height="90px" role="img" viewBox="0 0 90 90">
    <title>Zoom in</title>
    <g id="Page-1" fill="none" fill-rule="evenodd" stroke="none" stroke-width="1">
        <g id="zoom-in-icon" fill="#FFFFFF">
            <g id="Group-66" transform="translate(21.000000, 21.000000)">
                <path id="Shape" d="M18.60102,0 C8.36352,0 0,8.26021333 0,18.3713659 C0,28.4824415 8.36352,36.7427081 18.60102,36.7427081 C22.63602,36.7427081 26.38362,35.453523 29.43906,33.2795378 L42.88356,46.5395081 C44.05506,47.6965452 45.94974,47.6966044 47.12124,46.5395081 C48.29292,45.3823526 48.29292,43.5113007 47.12124,42.3540859 L33.69552,29.0756267 C35.89674,26.0579081 37.20198,22.3565748 37.20198,18.3713659 C37.20198,8.26021333 28.83846,0 18.60102,0 L18.60102,0 Z M18.60102,5.92624 C25.59564,5.92624 31.20168,11.4630281 31.20168,18.3713659 C31.20168,25.2796563 25.59564,30.8164859 18.60102,30.8164859 C11.60634,30.8164859 6.0003,25.2796563 6.0003,18.3713659 C6.0003,11.4630281 11.60634,5.92624 18.60102,5.92624 L18.60102,5.92624 Z"/>
                <g id="Group-65" transform="translate(11.000000, 10.000000)">
                    <rect id="Rectangle-26" width="16" height="4" x="0" y="6"/>
                    <rect id="Rectangle-26-Copy" width="4" height="16" x="6" y="0"/>
                </g>
            </g>
        </g>
    </g>
</svg>
